<svg xmlns="http://www.w3.org/2000/svg" width="376" height="340" fill="none" viewBox="0 0 376 340">
    <path fill="#E3F1FC" d="M217.036 299.412C215.337 322.105 196.942 340 173.749 340h-.3c22.993-.2 41.888-17.795 43.587-40.588z"/>
    <path fill="#fff" d="M130.562 1c-24.293 0-43.988 19.694-43.988 43.987v243.128h43.388c.1 23.393 18.594 42.488 41.987 43.388 23.393.899 43.288-16.696 45.187-39.989.1-1.099.1-2.299.1-3.399V44.987C217.236 20.694 236.93 1 261.223 1H130.562z"/>
    <path fill="#2F60CE" d="M261.923 69.38v-1c0-.5-.4-1-1-1-.5 0-.999.4-.999 1v1c0 .5-.4 1-1 1h-1c-.5 0-.9.5-.9 1 0 .499.4.899.9.899h1c.5 0 1 .4 1 1v1c0 .5.399.999.999.999.5 0 1-.4 1-1v-1c0-.5.4-1 .9-1h.999c.5 0 1-.4 1-.899 0-.5-.4-1-.9-1h-.999c-.6 0-1-.5-1-1zm28.991 7.398v-1c0-.5-.399-1-.899-1s-1 .4-1 1v1c0 .5-.4 1-.9 1h-1.099c-.5 0-1 .4-1 .999 0 .5.4 1 1 1h.999c.5 0 1 .4 1 1v.999c0 .5.4 1 1 1 .5 0 .999-.4.999-.9v-1c0-.5.4-1 1-1h1c.5 0 .999-.4.999-1 0-.499-.399-.999-.899-.999h-1c-.8-.2-1.2-.6-1.2-1.1zM278.018 62.282c1.546 0 2.8-1.253 2.8-2.8 0-1.545-1.254-2.799-2.8-2.799-1.546 0-2.799 1.254-2.799 2.8 0 1.546 1.253 2.799 2.799 2.799z"/>
    <path fill="#3A476B" d="M221.335 78.477c3.799 0 3.799 4.599 7.598 4.599s3.799-4.6 7.598-4.6c3.798 0 3.798 4.6 7.597 4.6 3.799 0 3.799-4.6 7.598-4.6s3.799 4.6 7.598 4.6 3.799-4.6 7.598-4.6c3.798 0 3.798 4.6 7.597 4.6 3.799 0 3.799-4.6 7.598-4.6s3.799 4.6 7.598 4.6 3.799-4.6 7.598-4.6c3.699 0 3.799 4.4 7.397 4.6V59.782h.1V42.687C304.311 18.894 284.916 0 261.123 0s-43.187 18.894-43.887 42.687v38.59c1-1.3 2-2.8 4.099-2.8zM143.758 319.106c-8.298-8.197-12.896-19.394-12.896-31.091v-12.396c-.4-.2-.9-.3-1.4-.3-3.799 0-3.799 4.599-7.598 4.599s-3.799-4.599-7.598-4.599c-3.798 0-3.798 4.599-7.597 4.599-3.799 0-3.799-4.599-7.598-4.599s-3.799 4.599-7.598 4.599-3.799-4.599-7.598-4.599-3.799 4.599-7.597 4.599c-3.8 0-3.8-4.599-7.598-4.599-3.8 0-3.8 4.599-7.598 4.599-3.799 0-3.799-4.599-7.598-4.599s-3.799 4.599-7.598 4.599c-3.798 0-3.798-4.599-7.597-4.599-3.8 0-3.8 4.599-7.598 4.599-3.799 0-3.799-4.599-7.598-4.599s-3.799 4.599-7.598 4.599c-3.798 0-3.798-4.599-7.597-4.599-3.8 0-3.8 4.599-7.598 4.599H0v8.097c0 24.293 19.694 43.987 43.987 43.987H174.85c-11.897-.1-22.894-4.698-31.091-12.896z"/>
    <path fill="#D8DEEB" d="M197.342 45.986h-89.974v4h89.974v-4zM197.142 69.98h-89.974v3.998h89.974V69.98zM197.142 93.972h-89.974v4h89.974v-4zM197.142 117.965h-89.974v3.999h89.974v-3.999zM197.142 141.958h-89.974v3.999h89.974v-3.999zM147.157 165.951h-39.989v3.999h39.989v-3.999zM147.157 189.944h-39.989v3.999h39.989v-3.999z"/>
    <path fill="#3A476B" d="M116.466 237.23l-4.299 4.299-4.299-4.299-1.399 1.4 4.298 4.299-4.298 4.298 1.399 1.4 4.299-4.199 4.299 4.199 1.399-1.4-4.298-4.298 4.298-4.299-1.399-1.4zM131.461 237.23l-4.298 4.299-4.299-4.299-1.4 1.4 4.299 4.299-4.299 4.298 1.4 1.4 4.299-4.199 4.298 4.199 1.4-1.4-4.299-4.298 4.299-4.299-1.4-1.4zM145.457 237.23l-4.299 4.299-4.298-4.299-1.4 1.4 4.299 4.299-4.299 4.298 1.4 1.4 4.298-4.199 4.299 4.199 1.4-1.4-4.299-4.298 4.299-4.299-1.4-1.4z"/>
    <path fill="#04AA80" d="M237.03 200.941h119.865v31.591H237.03v-31.591z"/>
    <path fill="#F0F4F6" d="M249.927 205.74h-2v21.993h2V205.74zM260.623 205.74h-1.999v21.993h1.999V205.74zM271.32 205.74h-1.999v21.993h1.999V205.74zM281.917 205.74h-1.999v21.993h1.999V205.74zM292.614 205.74h-2v21.993h2V205.74zM303.311 205.74h-2v21.993h2V205.74zM313.908 205.74h-2v21.993h2V205.74zM324.604 205.74h-1.999v21.993h1.999V205.74zM335.301 205.74h-1.999v21.993h1.999V205.74zM345.898 205.74h-1.999v21.993h1.999V205.74z"/>
    <path fill="#04AA80" d="M250.026 233.931h119.865v31.591H250.026v-31.591z"/>
    <path fill="#F0F4F6" d="M262.923 238.73h-2v21.993h2V238.73zM273.619 238.73h-1.999v21.993h1.999V238.73zM284.316 238.73h-1.999v21.993h1.999V238.73zM294.913 238.73h-1.999v21.993h1.999V238.73zM305.61 238.73h-1.999v21.993h1.999V238.73zM316.307 238.73h-1.999v21.993h1.999V238.73zM326.904 238.73h-2v21.993h2V238.73zM337.601 238.73h-2v21.993h2V238.73zM348.298 238.73h-2v21.993h2V238.73zM358.894 238.73h-1.999v21.993h1.999V238.73z"/>
    <path fill="#04AA80" d="M237.03 266.922h119.865v31.59H237.03v-31.59z"/>
    <path fill="#F0F4F6" d="M249.927 271.72h-2v21.994h2V271.72zM260.623 271.72h-1.999v21.994h1.999V271.72zM271.32 271.72h-1.999v21.994h1.999V271.72zM281.917 271.72h-1.999v21.994h1.999V271.72zM292.614 271.72h-2v21.994h2V271.72zM303.311 271.72h-2v21.994h2V271.72zM313.908 271.72h-2v21.994h2V271.72zM324.604 271.72h-1.999v21.994h1.999V271.72zM335.301 271.72h-1.999v21.994h1.999V271.72zM345.898 271.72h-1.999v21.994h1.999V271.72z"/>
    <path fill="#04AA80" d="M250.026 299.912h119.865v31.591H250.026v-31.591z"/>
    <path fill="#F0F4F6" d="M262.923 304.71h-2v21.994h2V304.71zM273.619 304.71h-1.999v21.994h1.999V304.71zM284.316 304.71h-1.999v21.994h1.999V304.71zM294.913 304.71h-1.999v21.994h1.999V304.71zM305.61 304.71h-1.999v21.994h1.999V304.71zM316.307 304.71h-1.999v21.994h1.999V304.71zM326.904 304.71h-2v21.994h2V304.71zM337.601 304.71h-2v21.994h2V304.71zM348.298 304.71h-2v21.994h2V304.71zM358.894 304.71h-1.999v21.994h1.999V304.71z"/>
    <path fill="#3A476B" d="M14.896 139.259v-1c0-.5-.4-.999-.9-.999s-1 .4-1 .899v1.1c0 .5-.4 1-1 1h-1c-.5 0-.999.4-.999.999 0 .5.4 1 .9 1h1c.5 0 1 .4 1 .9v1c0 .499.4.999.899.999.5 0 1-.4 1-.999v-1c0-.5.4-.9.9-1h1c.499 0 .999-.4.999-1 0-.499-.4-.999-1-.999h-1c-.4 0-.8-.4-.8-.9zm24.492 63.981v-.8c0-.399-.3-.699-.7-.699-.4 0-.7.3-.7.699v.8c0 .4-.3.7-.699.7h-.9c-.4 0-.7.3-.7.7 0 .4.3.7.7.7h.8c.4 0 .7.3.7.699v.8c0 .4.3.8.7.8.4 0 .8-.3.8-.7v-.9c0-.399.3-.799.7-.799h.799c.4 0 .7-.3.7-.7 0-.4-.3-.8-.7-.8h-.7c-.4.3-.7-.1-.8-.5zm222.335-41.688v-.799c0-.4-.3-.7-.7-.7-.4 0-.7.3-.7.7v.799c0 .4-.299.7-.699.7h-1c-.4 0-.8.3-.8.7 0 .4.3.8.7.8h.9c.4 0 .799.3.799.7v.799c0 .4.3.7.7.7.4 0 .8-.3.8-.7v-.799c0-.4.3-.7.7-.7h.8c.399 0 .699-.3.699-.7 0-.4-.3-.7-.699-.7h-.8c-.3 0-.7-.4-.7-.8zM53.384 168.051c1.546 0 2.8-1.254 2.8-2.8 0-1.546-1.254-2.799-2.8-2.799-1.546 0-2.799 1.253-2.799 2.799s1.253 2.8 2.8 2.8zM67.18 127.862c0 .8-.7 1.5-1.5 1.5s-1.499-.7-1.499-1.5c0-.799.7-1.499 1.5-1.499.9 0 1.5.7 1.5 1.499zm-32.99-20.494c0 1.1-.9 2-2 2s-1.999-.9-1.999-2c0-1.099.9-1.999 2-1.999s1.999.9 1.999 1.999zM232.932 147.357c1.104 0 1.999-.896 1.999-2s-.895-1.999-1.999-1.999c-1.105 0-2 .895-2 1.999s.895 2 2 2zM342.899 188.245h.9c.9 0 1.699-.7 1.699-1.6v-.9c0-.899.8-1.599 1.7-1.599.9 0 1.599.8 1.599 1.699v.9c0 .9.7 1.7 1.6 1.7h.9c.899 0 1.599.799 1.599 1.699v.1c0 .9-.799 1.6-1.699 1.6h-.9c-.9 0-1.699.699-1.699 1.599v.9c0 .9-.8 1.599-1.7 1.599-.9 0-1.599-.799-1.599-1.699v-.9c0-.9-.7-1.699-1.6-1.699h-.9c-.899 0-1.599-.8-1.599-1.7.1-1 .799-1.799 1.699-1.699zm24.693 7.397h.7c.7 0 1.299-.499 1.299-1.199v-.7c0-.7.6-1.2 1.3-1.2.7 0 1.2.6 1.2 1.3v.7c0 .7.499 1.299 1.199 1.299h.7c.7 0 1.2.6 1.2 1.3 0 .7-.6 1.2-1.3 1.2h-.7c-.699 0-1.299.5-1.299 1.199v.7c0 .7-.6 1.2-1.3 1.2-.7 0-1.2-.6-1.2-1.3v-.7c0-.699-.499-1.299-1.199-1.299h-.7c-.7 0-1.2-.6-1.2-1.3 0-.7.6-1.2 1.3-1.2zm-11.497-13.096h1.3c1.4 0 2.499-.999 2.499-2.399l.1-1.3c0-1.399 1.2-2.399 2.499-2.399 1.4.1 2.4 1.2 2.4 2.499l-.1 1.3c0 1.4.999 2.499 2.399 2.499l1.3.1c1.299 0 2.399 1.2 2.399 2.499-.1 1.4-1.2 2.4-2.499 2.4l-1.3-.1c-1.399 0-2.499 1-2.499 2.399v1.3c-.1 1.399-1.2 2.399-2.499 2.399-1.4-.1-2.4-1.2-2.4-2.499v-1.3c0-1.399-.999-2.499-2.399-2.499h-1.3c-1.399-.1-2.399-1.2-2.399-2.499 0-1.4 1.2-2.4 2.499-2.4z"/>
    <path fill="#F0F4F6" d="M226.833 321.605c24.294 0 43.987-19.693 43.987-43.987 0-24.293-19.693-43.987-43.987-43.987-24.293 0-43.987 19.694-43.987 43.987 0 24.294 19.694 43.987 43.987 43.987z"/>
    <path fill="#05E3AB" d="M226.833 322.605c-24.792 0-44.986-20.194-44.986-44.987 0-24.792 20.194-44.986 44.986-44.986 24.793 0 44.987 20.194 44.987 44.986 0 24.793-20.194 44.987-44.987 44.987zm0-87.974c-23.693 0-42.987 19.294-42.987 42.987s19.294 42.988 42.987 42.988 42.988-19.295 42.988-42.988c0-23.693-19.295-42.987-42.988-42.987z"/>
    <path fill="#05E3AB" d="M221.035 315.607c24.293 0 43.987-19.693 43.987-43.987 0-24.293-19.694-43.987-43.987-43.987-24.293 0-43.987 19.694-43.987 43.987 0 24.294 19.694 43.987 43.987 43.987z"/>
    <path fill="#fff" d="M216.836 295.413l-1.199 4.599-4.599-1.2 1.2-4.798c-6.299-2.7-10.997-8.598-8.798-17.195l5.499 1.399c-1.6 6.598 2.699 10.397 7.697 11.697 4.999 1.299 9.098-.3 10.297-4.699 1.3-5.098-2.899-8.297-7.498-11.696-5.298-3.799-11.096-7.998-9.197-15.696 1.6-6.198 6.998-9.297 13.496-8.397l1.2-4.599 4.598 1.2-1.199 4.598c3.699 1.6 6.798 4.499 8.797 9.098l-4.299 2.499c-1.899-4.399-4.898-6.798-8.297-7.698-4.099-1.1-7.698.5-8.698 4.099-1.099 4.399 3 7.398 7.398 10.797 5.299 3.999 11.297 8.597 9.198 16.495-1.6 7.198-8.098 10.797-15.596 9.497z"/>
    <path fill="#05E3AB" d="M205.133 310.829l-.707.707 8.483 8.483.706-.707-8.482-8.483zM212.212 312.213l-.707.707 8.483 8.482.707-.706-8.483-8.483zM219.999 312.899l-.707.707 8.482 8.483.707-.707-8.482-8.483zM227.724 312.253l-.707.707 8.483 8.483.707-.707-8.483-8.483zM234.833 309.425l-.707.707 8.483 8.482.707-.707-8.483-8.482zM241.952 305.193l-.706.707 8.482 8.483.707-.707-8.483-8.483zM249.709 300.194l-.707.707 8.483 8.483.706-.707-8.482-8.483zM255.304 293.145l-.707.707 8.482 8.483.707-.707-8.482-8.483zM259.636 286.086l-.707.706 8.482 8.483.707-.707-8.482-8.482zM261.725 278.31l-.707.706 8.483 8.483.707-.707-8.483-8.482zM262.412 270.523l-.707.707 8.483 8.483.707-.707-8.483-8.483zM262.462 263.504l-.707.707 8.483 8.483.707-.707-8.483-8.483zM260.341 254.698l-.706.707 8.482 8.483.707-.707-8.483-8.483z"/>
</svg>
