<svg xmlns="http://www.w3.org/2000/svg" width="530" height="477" fill="none" viewBox="0 0 530 477">
    <path stroke="#3A476B" stroke-miterlimit="10" d="M183.6 291.1h-63.5v49.3h63.5v-49.3z"/>
    <path fill="#3A476B" d="M120.4 329.4l13.7-13.7 7 7.1 19.4-19.3 22.9 23v13.4h-63v-10.5zM140.9 308c2.043 0 3.7-1.657 3.7-3.7s-1.657-3.7-3.7-3.7c-2.044 0-3.7 1.657-3.7 3.7s1.656 3.7 3.7 3.7z"/>
    <path stroke="#3A476B" stroke-miterlimit="10" d="M528.9 161h-53.6v53.6h53.6V161z"/>
    <path stroke="#3A476B" stroke-miterlimit="10" stroke-width="3" d="M520.9 174l-27.7 27.7-9.9-9.8"/>
    <path stroke="#3A476B" stroke-miterlimit="10" d="M160.5 24.2h-46v36.1h46V24.2z"/>
    <path fill="#3A476B" d="M160.3 24.4h-45.6v9.3h45.6v-9.3zM154.9 45.3h-8.7V54h8.7v-8.7z"/>
    <path fill="#3A476B" d="M125.1 18.2h-3.9v7.4h3.9v-7.4zM153.8 18.2h-3.9v7.4h3.9v-7.4z"/>
    <path stroke="#3A476B" stroke-miterlimit="10" d="M470.4.5H367.7v89.6h102.7V.5z"/>
    <path stroke="#3A476B" stroke-miterlimit="10" stroke-width="3" d="M382.6 23.1h72.9"/>
    <path stroke="#3A476B" stroke-miterlimit="10" stroke-width="2" d="M382.6 33.1h72.9M382.6 43h72.9M382.6 53h34.5"/>
    <path fill="#3A476B" stroke="#3A476B" stroke-miterlimit="10" d="M414.9 66.6h-32v9.3h32v-9.3z"/>
    <path stroke="#3A476B" stroke-miterlimit="10" d="M455.5 66.6h-32v9.3h32v-9.3zM457.2 8.4l5.3 5.3M462.5 8.4l-5.3 5.3M460.7 320.8h-29c-9.1 0-16.5-7.4-16.5-16.5s7.4-16.5 16.5-16.5h29c9.1 0 16.5 7.4 16.5 16.5s-7.4 16.5-16.5 16.5z"/>
    <path fill="#3A476B" d="M460.2 316c6.462 0 11.7-5.238 11.7-11.7 0-6.462-5.238-11.7-11.7-11.7-6.462 0-11.7 5.238-11.7 11.7 0 6.462 5.238 11.7 11.7 11.7z"/>
    <path stroke="#3A476B" stroke-miterlimit="10" d="M95.4 153.8v47.1H1v-47.1M113.4 135.2H1v18.4h112.4v-18.4zM101.8 141.8l5.3 5.3M107.1 141.8l-5.3 5.3M95.5 135.1v18.2"/>
    <path stroke="#3A476B" stroke-miterlimit="10" stroke-width="3" d="M10.7 165.2h66.1M10.7 144.3h36.1M10.7 177.4h36.1M10.7 189.6h54.1"/>
    <path fill="#3A476B" d="M89.4 142.1l-2.8 3.6-2.7-3.6h5.5z"/>
    <path fill="#FFACAA" d="M235.3 451.3l-1.3 8.2 14.5-.7 1.3-6.7"/>
    <path fill="#212B53" d="M270.1 470.5c-1.4-1.9-4.3-2.3-8.1-3.8-2.1-.8-7.1-2-9.9-4.2-1.5-1.2-2-4.1-2-4.1-9.3.4-17.5 0-17.5 0l-1.8 17.7 41.5-.2c-.1 0-.2-2.7-2.2-5.4z"/>
    <path fill="#FFACAA" d="M300.7 451.3l-.3 8.2 14.5-.7.3-6.7"/>
    <path fill="#D8DEEB" d="M444.2 81.7H143v184h301.2v-184z"/>
    <path stroke="#3A476B" stroke-miterlimit="10" d="M152.1 102.9h283M152.1 244.5h283M420.4 94.7v158M166.7 94.7v158M165.3 103.2l254.2 141.3"/>
    <path fill="#2B364F" d="M280.6 358.7c-.4 4.3-22.4 94-22.4 94l-31.2-1.9s12.9-86 13.7-90.8c2-12.5 6.7-72.3 6.4-75.5-.4-4.9-.7-13.3 1.1-20.9h38.3l-5.9 95.1z"/>
    <path fill="#1F283A" d="M269.1 288l11.7 65.9L283 326l-13.9-38z"/>
    <path fill="#3A476B" d="M302.8 265.5c5.4 16.6 18.5 59.8 21.5 94.1 2.1 23.8.1 93 .1 93h-33.8s-2.2-76.8-2.2-85c0-8.1-15.9-72.2-15.9-72.2s-8.1-14-7-31.2"/>
    <path fill="#05E3AB" d="M304.3 240l-26.7-60.2-23.9-5.1s-10.1 13.9-10.1 32.7c0 18.8-1.5 57-1.5 57l63.2 2.3c0-.1-1-22.8-1-26.7z"/>
    <path stroke="#2751FF" stroke-miterlimit="10" d="M274.1 175.9s-12.6 6.6-20.4-1.3"/>
    <path fill="#F9ABA4" d="M224.9 167.9c-11.8-9.1-23.5-19.7-30.1-28.4-5.9-8.5-14.1-21.8-15.4-21.5-1.6.3 2.6 7.6 1.2 7.7-1.4 0-8.6-10.8-10.2-10-2.1 1 5.9 11.7 5.9 11.7s-9.4-11.3-10.9-9.8c-1.1 1 5.6 9.9 7.8 13.7-2.8-3.8-8.2-9.3-9.3-8.2-1.1 1.1 3.3 7.2 6.5 12.2-2.3-2.9-6.7-7.9-7.8-7-.9.7 4.8 10.9 12.9 22.5 0 .1-.1.1-.1.1s2.5 3.6 6.7 9v.1c5.8 7.4 14.9 18.2 25.2 27.8M314 240.1c7.1 1.8 14.7 3.4 21.5 3.9 27.3 2 59.1-7.9 59.1-7.9 13.4-3.3 24.9-6.7 24.8-7.8-.2-1.4-6.8-.8-10.4-.2 5.7-1.4 13.1-2.9 13-4.5-.1-1.6-7.8-1.1-12.4-.3 4.1-1.3 15.1-3.2 15-4.7-.2-2.1-14.7-.2-14.7-.2s13.1-2.4 12.3-4.6c-.6-1.6-13.3 1.4-14.3.4-1-1 7.1-3.4 6.1-4.8-.8-1.1-15.9 3.1-25.9 5.3-13.5 2.3-36.8 3.8-54.2 1.6-2.1-.3-4.8-.9-7.8-1.8"/>
    <path fill="#05E3AB" d="M277.6 179.7c17 18 51 33.8 51 33.8l-13.7 28.9s-21.9-3.4-39.6-15.2"/>
    <path stroke="#04AA80" stroke-miterlimit="10" d="M328.9 213.4s-35.5-15.9-50.9-33.5"/>
    <path fill="#05E3AB" d="M248 183.6c-10-5.2-9.2-6.2-23.4-17.2 0 0-9.8 11.6-20.1 22.1 10 9.3 31.2 23.7 39.4 28.5"/>
    <path stroke="#04AA80" stroke-miterlimit="10" d="M244.2 198.6c-.4 2.6-.6 5.3-.6 8.7 0 18.8-1.5 57-1.5 57"/>
    <path fill="#212B53" d="M266.9 157.8c-5.9-3.6 7.1-12.3 3.3-15.3-7.3-5.8-3.3-6.6-7-8.9-3.7-2.3-10.4-.9-10.4-.9l-18.9 13.4s-1.9 3.9-1 10.4c1.2 8.4-.7 3.8-.1 13.9.3 4.6 5.3 8.2 6 12.9.7 4.8-2.3 8.5 1 8.8 16.4 1.8 34.9-9.3 32.9-18.5-.7-2.4 1.8-11.2-5.8-15.8z"/>
    <path fill="#212B53" d="M235.1 153.9c8.4 4.2 14.9 11.5 24 7s15.8-17 8.9-23.3c-8.2-7.5-14.4-10.6-23.5-6.1-9.1 4.4-14.5 19.9-9.4 22.4z"/>
    <path fill="#F9ABA4" d="M274.7 146.8c-6.5-10.1-15.4-17-27.4-9.3-12 7.8-9.3 18.7-2.8 28.8 6.5 10.1 17.6 13.4 26.4 7.7 8.8-5.7 10.4-17.1 3.8-27.2z"/>
    <path fill="#F9ABA4" d="M273.9 147l6 3.9-2.3 1.7"/>
    <path stroke="#212B53" stroke-linecap="round" stroke-linejoin="round" stroke-miterlimit="10" d="M267.4 147.5s-2.8.4-3.8 4.4"/>
    <path fill="#212B53" d="M267.3 153.1c.552 0 1-.448 1-1s-.448-1-1-1-1 .448-1 1 .448 1 1 1zM236.1 140.1c3.59 0 6.5-2.91 6.5-6.5s-2.91-6.5-6.5-6.5-6.5 2.91-6.5 6.5 2.91 6.5 6.5 6.5zM256.1 150.2l-3.7-6c-4.1-6.6-8.3-8.3.7-13.4 10.7-6 18.7 10.2 18.7 10.2-5.5 3.3-10.2 5.8-15.7 9.2z"/>
    <path fill="#2751FF" d="M249.6 144.7c.1 0 .1-.2 0-.2s-.1.2 0 .2z"/>
    <path fill="#212B53" d="M255.7 137.7c-4.4 3-2.3 11-.9 14.3 1.4 3.2 2.9 6.8 5.7 8.9 1.6 1.2 16.2 3.2 20 15.8 1 3.2-23.7 14-26.9 14.5 0 0-16.9-30.2-15.5-39.8 1.5-10.2 5.2-17.1 14.2-19.3 9.2-2.3 3.4 5.6 3.4 5.6z"/>
    <path fill="#FFACAA" d="M254.9 165.5c1.9 1.6 4.7 1.4 6.3-.5 1.6-1.9 1.4-4.7-.5-6.3-1.9-1.6-4.7-1.4-6.3.5-1.6 1.9-1.4 4.7.5 6.3z"/>
    <path stroke="#212B53" stroke-linecap="round" stroke-linejoin="round" stroke-miterlimit="10" d="M255.3 162.1s2.2-2.6 4.9 0"/>
    <path fill="#3A476B" d="M279.4 230.3s8.7 6.6 12.6 9.1c3.9 2.5 12.4 6.7 12.4 6.7l-.2-6.1s-6.6-1.8-11.5-3.4c-5.8-2-13.3-6.3-13.3-6.3z"/>
    <path fill="#212B53" d="M336.5 470.5c-1.4-1.9-4.3-2.3-8.1-3.8-2.1-.8-7.1-2-9.9-4.2-1.5-1.2-2-4.1-2-4.1-9.3.4-17.5 0-17.5 0l-1.8 17.7 41.5-.2c-.1 0-.2-2.7-2.2-5.4z"/>
    <path stroke="#fff" stroke-miterlimit="10" d="M243.8 207.5c1.9 0 3.4 1.5 3.4 3.4s-1.5 3.4-3.4 3.4M290.7 192.5c-1.3 1.3-3.5 1.4-4.8.1-1.3-1.3-1.4-3.5-.1-4.8M303.7 213.7c1.878 0 3.4-1.522 3.4-3.4s-1.522-3.4-3.4-3.4-3.4 1.522-3.4 3.4 1.522 3.4 3.4 3.4zM284.7 210.7c1.878 0 3.4-1.522 3.4-3.4s-1.522-3.4-3.4-3.4-3.4 1.522-3.4 3.4 1.522 3.4 3.4 3.4zM237.6 180.9c-1.6 1-3.7.6-4.7-1s-.6-3.7 1-4.7M222 190.3c1.878 0 3.4-1.522 3.4-3.4s-1.522-3.4-3.4-3.4-3.4 1.522-3.4 3.4 1.522 3.4 3.4 3.4zM234.7 202.7c1.878 0 3.4-1.522 3.4-3.4s-1.522-3.4-3.4-3.4-3.4 1.522-3.4 3.4 1.522 3.4 3.4 3.4zM262.7 206.7c1.878 0 3.4-1.522 3.4-3.4s-1.522-3.4-3.4-3.4-3.4 1.522-3.4 3.4 1.522 3.4 3.4 3.4zM297.2 229.9c1.878 0 3.4-1.522 3.4-3.4s-1.522-3.4-3.4-3.4-3.4 1.522-3.4 3.4 1.522 3.4 3.4 3.4zM257.2 224.9c1.878 0 3.4-1.522 3.4-3.4s-1.522-3.4-3.4-3.4-3.4 1.522-3.4 3.4 1.522 3.4 3.4 3.4zM298.3 253.3c1.878 0 3.4-1.522 3.4-3.4s-1.522-3.4-3.4-3.4-3.4 1.522-3.4 3.4 1.522 3.4 3.4 3.4zM258.3 245.3c1.878 0 3.4-1.522 3.4-3.4s-1.522-3.4-3.4-3.4-3.4 1.522-3.4 3.4 1.522 3.4 3.4 3.4zM316 225.9c1.878 0 3.4-1.522 3.4-3.4s-1.522-3.4-3.4-3.4-3.4 1.522-3.4 3.4 1.522 3.4 3.4 3.4zM277 225.9c1.878 0 3.4-1.522 3.4-3.4s-1.522-3.4-3.4-3.4-3.4 1.522-3.4 3.4 1.522 3.4 3.4 3.4zM275.7 247.1c1.878 0 3.4-1.522 3.4-3.4s-1.522-3.4-3.4-3.4-3.4 1.522-3.4 3.4 1.522 3.4 3.4 3.4zM250.7 260.1c1.878 0 3.4-1.522 3.4-3.4s-1.522-3.4-3.4-3.4-3.4 1.522-3.4 3.4 1.522 3.4 3.4 3.4zM264.8 264.8c0-1.9 1.5-3.4 3.4-3.5 1.9 0 3.4 1.5 3.5 3.4M286.7 262.1c1.878 0 3.4-1.522 3.4-3.4s-1.522-3.4-3.4-3.4-3.4 1.522-3.4 3.4 1.522 3.4 3.4 3.4zM273.1 193.9c1.878 0 3.4-1.522 3.4-3.4s-1.522-3.4-3.4-3.4-3.4 1.522-3.4 3.4 1.522 3.4 3.4 3.4z"/>
    <path fill="#526793" d="M292.9 447.2c.3.4.7.3 1.1.3h5.4c2.5 0 5-.1 7.5-.2s4.9-.1 7.4-.2h5.6c.6 0 1.2.1 1.8-.1.3-.1.3-.5 0-.6-.6-.2-1.2-.1-1.8-.1h-5.4c-2.5 0-4.9.1-7.4.2s-4.9.1-7.4.2h-5.4c-.5 0-1-.1-1.4.3 0 .1-.1.2 0 .2zM230.6 445.1c1 .3 2.2.3 3.2.4l3.3.3c2.1.2 4.2.4 6.4.5 2.1.2 4.2.3 6.3.5 1.1.1 2.2.2 3.2.2 1.1.1 2.4.3 3.5.2.2 0 .2-.3 0-.3-1.1-.3-2.2-.3-3.3-.4-1.1-.1-2.2-.2-3.4-.3l-6.3-.6c-2.1-.2-4.2-.3-6.3-.5-1.1-.1-2.2-.2-3.2-.2-1.1-.1-2.4-.3-3.4-.1-.2-.1-.2.2 0 .3z"/>
    <path fill="#526793" d="M286.9 271.3c1.5 4.8 3.5 9.4 5 14.2 1.6 5.1 3.1 10.3 4.4 15.5 2.8 11.2 4.9 22.6 6.6 34.1 1.8 12 3 24.2 3.8 36.3.8 12.1 1.2 24.2 1.3 36.3 0 5.9-.1 11.7-.2 17.6-.2 5.6-.5 11.2-.7 16.8 0 1.3-.1 2.7-.1 4 0 .5.7.5.8 0 1.2-11.3 1.4-22.7 1.5-34.1.1-12.1-.3-24.3-1-36.4-.7-12.1-1.9-24.3-3.5-36.3-1.6-11.6-3.6-23.2-6.4-34.6-1.3-5.3-2.7-10.6-4.3-15.8-1.5-4.9-3.2-9.8-5.2-14.6-.5-1.1-1-2.1-1.6-3.1-.2-.2-.4-.1-.4.1zM257 270.3c.3 9.8.5 19.6.5 29.4 0 11.5-.2 23-.6 34.6-.4 12.3-1 24.7-1.9 37-.9 12.3-2 24.5-3.5 36.7-1.4 11.2-3.2 22.3-5.4 33.4-.2 1.2-.5 2.5-.8 3.7-.1.5.7.8.8.2 2.6-10.7 4.5-21.7 5.9-32.6 1.6-12.1 2.8-24.2 3.7-36.4.9-12.4 1.6-24.8 2-37.2.4-11.7.6-23.4.6-35.2 0-10.1-.1-20.2-.5-30.2 0-1.1-.1-2.2-.1-3.3 0-.6-.8-.6-.7-.1zM302.8 273.7c-.2 2-.5 4.4-2.1 5.9-.8.8-1.8 1.4-2.8 1.9-.5.2-1 .5-1.6.6-.6.2-1.1.3-1.7.5-.5.2-.2.9.3.9 1.2.1 2.5-.6 3.5-1.1 1.1-.6 2.2-1.3 3.1-2.2 1.6-1.7 2.1-4.3 1.9-6.5 0-.4-.6-.4-.6 0z"/>
</svg>
