<svg width="55" height="62" viewBox="0 0 55 62" fill="none" xmlns="http://www.w3.org/2000/svg">
<path d="M8.63522 15.2147C8.63522 23.5439 15.4134 30.3221 23.7427 30.3221C32.0719 30.3221 38.8501 23.5439 38.8501 15.2147C38.8501 6.88542 32.0719 0.107208 23.7427 0.107208C15.4134 0.107208 8.63522 6.88542 8.63522 15.2147ZM38.8501 57.1798L47 53.8226V49.5C47 36.5445 43.4126 30.3221 30.4571 30.3221H17.0282C4.06941 30.3221 0.242188 36.5445 0.242188 49.5L0.242192 53.8226L8.63522 57.1798H23.7427H38.8501Z" fill="#D8DEEB"/>
<path d="M53.3567 49.6784C53.3567 55.5759 48.5759 60.3567 42.6784 60.3567C36.7809 60.3567 32 55.5759 32 49.6784C32 43.7809 36.7809 39 42.6784 39C48.5759 39 53.3567 43.7809 53.3567 49.6784Z" fill="#3A476B" stroke="white" stroke-width="2"/>
<path d="M46.4188 51.8787L44.6467 50.2675C44.4727 50.1092 44.2042 50.1175 44.0403 50.2862L42.9971 51.3591C42.746 51.3111 42.2411 51.1537 41.7215 50.6354C41.2018 50.1153 41.0445 49.6092 40.9978 49.3599L42.0698 48.3162C42.239 48.1523 42.2468 47.8842 42.0886 47.7099L40.4777 45.9382C40.3195 45.7634 40.0505 45.7469 39.8713 45.9003L38.9254 46.7116C38.8499 46.7874 38.805 46.8877 38.7989 46.9945C38.7924 47.1035 38.6677 49.6851 40.6696 51.6878C42.4159 53.4337 44.6035 53.5614 45.206 53.5614C45.294 53.5614 45.3481 53.5588 45.3625 53.5579C45.4693 53.5518 45.5696 53.5069 45.645 53.4311L46.4558 52.4846C46.6102 52.3055 46.5932 52.0369 46.4188 51.8787Z" fill="white"/>
</svg>
