<svg xmlns="http://www.w3.org/2000/svg" xmlns:xlink="http://www.w3.org/1999/xlink" width="200" height="197" viewBox="0 0 200 197">
    <defs>
        <path id="a" d="M0 196.663h199.843V0H0z"/>
    </defs>
    <g fill="none" fill-rule="evenodd">
        <path fill="#9D9D9D" d="M0 150.23v-46.432h69.46c12.788 0 23.154 10.362 23.154 23.144v.145c0 12.782-10.366 23.144-23.153 23.144H0z"/>
        <path fill="gray" d="M93.194 196.627l-46.742-46.36-46.451 46.36z"/>
        <mask id="b" fill="#fff">
            <use xlink:href="#a"/>
        </mask>
        <path fill="#B5B5B5" d="M0 150.267h46.453v-46.432H0z" mask="url(#b)"/>
        <path fill="#A0A0A0" d="M0 196.628h46.453v-46.432H0z" mask="url(#b)"/>
        <path fill="#9D9D9D" d="M0 50.835h92.615V4.402H0z" mask="url(#b)"/>
        <path fill="gray" d="M0 81.694h69.461V50.835H0z" mask="url(#b)"/>
        <path fill="#B5B5B5" d="M0 50.835h46.453V4.403H0z" mask="url(#b)"/>
        <path fill="#A0A0A0" d="M0 97.268h46.453V50.835H0z" mask="url(#b)"/>
        <path fill="#B5B5B5" d="M102.505 196.663V103.51l46.597 46.577z" mask="url(#b)"/>
        <path fill="gray" d="M102.505 196.663h93.194V103.51z" mask="url(#b)"/>
        <path fill="#A0A0A0" d="M149.102 150.086l46.597 46.577h-93.194z" mask="url(#b)"/>
        <path fill="#9D9D9D" d="M184.999 14.838c19.792 19.785 19.792 51.861 0 71.646-19.793 19.785-51.884 19.785-71.676 0-19.793-19.785-19.793-51.861 0-71.646 19.792-19.784 51.883-19.784 71.676 0" mask="url(#b)"/>
        <path fill="gray" d="M98.36 50.637c0 28.012 22.718 50.72 50.741 50.72 28.024 0 50.742-22.708 50.743-50.72" mask="url(#b)"/>
        <path fill="#B5B5B5" d="M149.219 50.72V0c-28.024 0-50.741 22.708-50.741 50.72h50.74z" mask="url(#b)"/>
        <path fill="#A0A0A0" d="M149.219 50.637H98.478c0 28.012 22.717 50.72 50.74 50.72v-50.72z" mask="url(#b)"/>
    </g>
</svg>
