<svg xmlns="http://www.w3.org/2000/svg" xmlns:xlink="http://www.w3.org/1999/xlink" width="200" height="197" viewBox="0 0 200 197">
    <defs>
        <path id="a" d="M0 196.746h199.843V0H0z"/>
    </defs>
    <g fill="none" fill-rule="evenodd">
        <path fill="#2F60CE" d="M0 150.294v-46.452h69.461c12.787 0 23.153 10.366 23.153 23.153v.145c0 12.788-10.365 23.154-23.153 23.154H.001z"/>
        <path fill="#05E3AB" d="M93.194 196.71l-46.742-46.379-46.451 46.38z"/>
        <mask id="b" fill="#fff">
            <use xlink:href="#a"/>
        </mask>
        <path fill="#23489B" d="M0 150.331h46.452V103.88H0z" mask="url(#b)"/>
        <path fill="#04AA80" d="M0 196.71h46.452v-46.45H0z" mask="url(#b)"/>
        <path fill="#2F60CE" d="M0 50.856h92.615V4.404H0z" mask="url(#b)"/>
        <path fill="#05E3AB" d="M0 81.728h69.461V50.857H0z" mask="url(#b)"/>
        <path fill="#23489B" d="M0 50.857h46.452V4.405H0z" mask="url(#b)"/>
        <path fill="#04AA80" d="M0 97.31h46.452V50.856H0z" mask="url(#b)"/>
        <path fill="#23489B" d="M102.505 196.746v-93.194l46.597 46.597z" mask="url(#b)"/>
        <path fill="#05E3AB" d="M102.505 196.746H195.7v-93.194z" mask="url(#b)"/>
        <path fill="#2F60CE" d="M149.102 150.15l46.597 46.596h-93.194zM184.999 14.844c19.793 19.793 19.793 51.884 0 71.677-19.793 19.793-51.884 19.793-71.676 0-19.793-19.793-19.793-51.884 0-71.677 19.792-19.792 51.883-19.792 71.676 0" mask="url(#b)"/>
        <path fill="#05E3AB" d="M98.36 50.658c0 28.024 22.718 50.741 50.741 50.741 28.025 0 50.742-22.717 50.743-50.74" mask="url(#b)"/>
        <path fill="#23489B" d="M149.219 50.74V0c-28.024 0-50.741 22.717-50.741 50.74h50.74z" mask="url(#b)"/>
        <path fill="#04AA80" d="M149.219 50.658H98.478c0 28.024 22.717 50.741 50.74 50.741V50.66z" mask="url(#b)"/>
    </g>
</svg>
