<svg xmlns="http://www.w3.org/2000/svg" xmlns:xlink="http://www.w3.org/1999/xlink" width="400" height="103" viewBox="0 0 400 103">
    <defs>
        <path id="a" d="M0 101.972h399.928V.025H0z"/>
    </defs>
    <g fill="none" fill-rule="evenodd">
        <path fill="#626262" d="M0 51.695h93.115V4.992H0z"/>
        <path fill="#7F7F7F" d="M0 82.732h69.836V51.694H0z"/>
        <path fill="#4A4A4A" d="M0 51.695h46.703V4.992H0z"/>
        <path fill="#5F5F5F" d="M0 98.397h46.703V51.695H0z"/>
        <g transform="translate(0 .538)">
            <path fill="#626262" d="M206.698 51.133V4.43h69.836c12.857 0 23.279 10.422 23.279 23.279v.146c0 12.856-10.422 23.279-23.279 23.278h-69.836z"/>
            <path fill="#7F7F7F" d="M300.396 97.8l-46.994-46.63-46.703 46.63z"/>
            <mask id="b" fill="#fff">
                <use xlink:href="#a"/>
            </mask>
            <path fill="#4A4A4A" d="M206.699 51.17h46.703V4.467h-46.703z" mask="url(#b)"/>
            <path fill="#5F5F5F" d="M206.7 97.8h46.702V51.098h-46.703z" mask="url(#b)"/>
            <path fill="#4A4A4A" d="M306.231 97.836V4.139l46.849 46.849z" mask="url(#b)"/>
            <path fill="#7F7F7F" d="M306.231 97.836h93.697V4.139z" mask="url(#b)"/>
            <path fill="#626262" d="M353.08 50.988l46.848 46.848h-93.697zM185.938 14.95c19.9 19.9 19.9 52.163 0 72.063-19.9 19.9-52.163 19.9-72.063 0-19.9-19.9-19.9-52.164 0-72.063 19.9-19.9 52.164-19.9 72.063 0" mask="url(#b)"/>
            <path fill="#7F7F7F" d="M98.833 50.957c0 28.175 22.84 51.015 51.015 51.015s51.015-22.84 51.015-51.015" mask="url(#b)"/>
            <path fill="#4A4A4A" d="M149.965 51.04V.025C121.79.025 98.95 22.865 98.95 51.04h51.015z" mask="url(#b)"/>
            <path fill="#5F5F5F" d="M149.965 50.957H98.95c0 28.175 22.84 51.015 51.015 51.015V50.957z" mask="url(#b)"/>
        </g>
    </g>
</svg>
