<?xml version="1.0" encoding="UTF-8"?>
<svg width="72px" height="112px" viewBox="0 0 72 112" version="1.1" xmlns="http://www.w3.org/2000/svg" xmlns:xlink="http://www.w3.org/1999/xlink">
    <!-- Generator: sketchtool 55.2 (78181) - https://sketchapp.com -->
    <title>37292198-44AA-424C-B100-E12520D616C5</title>
    <desc>Created with sketchtool.</desc>
    <g id="02.-Forms" stroke="none" stroke-width="1" fill="none" fill-rule="evenodd">
        <g id="09_VerifyNo" transform="translate(-528.000000, -595.000000)">
            <g id="otp" transform="translate(498.000000, 566.000000)">
                <g id="icon_otp" transform="translate(30.000000, 29.000000)">
                    <g>
                        <path d="M46.3747528,0.447249689 C52.0336845,0.447249689 56.6215602,4.82449193 56.6215602,10.2222559 L56.6215602,101.454753 C56.6215602,106.853411 52.0336845,111.229759 46.3747528,111.229759 L10.2468522,111.229759 C4.5879205,111.229759 4.47204966e-05,106.853411 4.47204966e-05,101.454753 L4.47204966e-05,10.2222559 C4.47204966e-05,4.82449193 4.5879205,0.447249689 10.2468522,0.447249689 L46.3747528,0.447249689 Z M2.50881988,95.9160745 L54.1122484,95.9160745 L54.1122484,15.7621863 L2.50881988,15.7621863 L2.50881988,95.9160745 Z" id="Combined-Shape" fill="#2F60CE"></path>
                        <path d="M28.7905193,106.640542 C26.8536745,106.640542 25.2830907,105.069958 25.2830907,103.133113 C25.2830907,101.195821 26.8536745,99.6261317 28.7905193,99.6261317 C30.7278112,99.6261317 32.2975006,101.195821 32.2975006,103.133113 C32.2975006,105.069958 30.7278112,106.640542 28.7905193,106.640542 Z M38.048646,9.57564224 L18.8447702,9.57564224 C18.7293913,9.57564224 18.6368199,9.41151801 18.6368199,9.20893416 C18.6368199,9.00724472 18.7293913,8.84222609 18.8447702,8.84222609 L38.048646,8.84222609 C38.1635776,8.84222609 38.2565963,9.00724472 38.2565963,9.20893416 C38.2565963,9.41151801 38.1635776,9.57564224 38.048646,9.57564224 Z" id="Combined-Shape" fill="#82A0E2"></path>
                        <path d="M64.761272,27.1210137 L25.2592099,27.1210137 C21.3855205,27.1210137 18.2448,30.261287 18.2448,34.1349764 L18.2448,54.9939578 L18.2448,66.9915727 L24.5235578,61.9690137 C24.7650484,61.9940571 25.010564,62.0079205 25.2592099,62.0079205 L64.761272,62.0079205 C68.6349615,62.0079205 71.7752348,58.8676472 71.7752348,54.9939578 L71.7752348,34.1349764 C71.7752348,30.261287 68.6349615,27.1210137 64.761272,27.1210137" id="Fill-10" fill="#59BF9D"></path>
                        <path d="M42.7547627,51.8002882 L55.3324025,39.2226484 L53.5538683,37.4441143 L41.8657193,49.1327106 L36.4657193,43.7331578 L34.6876323,45.5112447 L40.9762286,51.8002882 C41.2119056,52.0368596 41.5321043,52.1701267 41.8657193,52.1701267 C42.1993342,52.1701267 42.5195329,52.0368596 42.7547627,51.8002882" id="Fill-11" fill="#FFFFFF"></path>
                    </g>
                </g>
            </g>
        </g>
    </g>
</svg>