<?xml version="1.0" encoding="UTF-8"?>
<svg width="91px" height="96px" viewBox="0 0 91 96" version="1.1" xmlns="http://www.w3.org/2000/svg" xmlns:xlink="http://www.w3.org/1999/xlink">
    <!-- Generator: sketchtool 59.1 (101010) - https://sketch.com -->
    <title>76329746-A9B8-4B63-8B73-91434975D2B6</title>
    <desc>Created with sketchtool.</desc>
    <defs>
        <path d="M40.837,48.397 L32.99,40.551 L30.406,43.135 L39.545,52.274 C39.887,52.618 40.352,52.811 40.837,52.811 L40.837,52.811 C41.322,52.811 41.788,52.618 42.129,52.274 L42.129,52.274 L60.407,33.997 L57.821,31.412 L40.837,48.397 Z" id="path-1"></path>
    </defs>
    <g id="03.-Admin" stroke="none" stroke-width="1" fill="none" fill-rule="evenodd">
        <g id="12_EmailVerification_flow" transform="translate(-117.000000, -720.000000)">
            <g id="wrongCode" transform="translate(93.000000, 583.000000)">
                <g id="otp-copy-2" transform="translate(0.000000, 104.000000)">
                    <g id="ic_emailverify-copy" transform="translate(24.000000, 33.000000)">
                        <path d="M89.3421,31.859 C87.0381,30.246 46.1031,0.868 46.1031,0.868 C46.1031,0.868 2.6061,31.402 1.4371,32.385 C0.6981,33.006 0.5081,34.109 0.5081,35.149 L0.5081,90.81 C0.5081,93.388 2.5991,95.479 5.1771,95.479 L85.8391,95.479 C88.4181,95.479 90.5081,93.388 90.5081,90.81 L90.5081,35.149 C90.5081,33.973 90.1881,32.452 89.3421,31.859" id="Fill-1" fill="#2F60CE"></path>
                        <path d="M89.4436,31.859 C87.1396,30.246 46.2046,0.868 46.2046,0.868 C46.2046,0.868 2.7076,31.402 1.5386,32.385 C0.7996,33.006 0.6096,34.109 0.6096,35.149 L0.6096,35.479 L0.6096,35.81 C0.6096,36.849 0.7996,37.952 1.5386,38.573 C2.7076,39.556 46.2046,70.09 46.2046,70.09 C46.2046,70.09 87.1396,40.713 89.4436,39.099 C90.2906,38.506 90.6106,36.985 90.6106,35.81 L90.6106,35.479 L90.6106,35.149 C90.6106,33.973 90.2906,32.452 89.4436,31.859" id="Fill-3" fill="#82A0E2"></path>
                        <path d="M28.0445,67.566 L29.4215,69.015 L7.9715,89.393 L6.5945,87.943 L28.0445,67.566 Z M62.9719,67.5656 L84.4219,87.9426 L83.0439,89.3936 L61.5939,69.0156 L62.9719,67.5656 Z" id="Combined-Shape" fill="#82A0E2"></path>
                        <polygon id="Fill-10" fill="#59BF9D" points="80.3206 16.4792 10.4926 16.4792 10.4926 45.4102 45.6916 70.4792 80.3206 45.7282"></polygon>
                        <mask id="mask-2" fill="white">
                            <use xlink:href="#path-1"></use>
                        </mask>
                        <use id="Clip-14" fill="#FFFFFF" xlink:href="#path-1"></use>
                    </g>
                </g>
            </g>
        </g>
    </g>
</svg>