<svg xmlns="http://www.w3.org/2000/svg" width="650" height="457" fill="none" viewBox="0 0 650 457">
    <path fill="#FFACAA" d="M149.2 423l2.1 10.8 17.5-.9-1.5-8.2"/>
    <path fill="#212B53" fill-rule="evenodd" d="M169.1 432.7s9 8.3 29.5 13.6c4.5 1.2 9.4-.4 9.4 7.1h-24.9l-20.7-3.6v3.6h-12.2l.4-20.6h18.5v-.1z" clip-rule="evenodd"/>
    <path fill="#05E3AB" d="M492.8 296.7c2.6 3.7 6.4 6.2 10.8 7.5-2.3.2-4.6 0-6.8-.4-2.9-.6-5.7-1.7-8.2-3.4-5.7 5.2-10.7 10.9-12.7 18.4 2.4 1.1 5 1.9 7.5 2.4 2.7.5 5.4.8 8.1.7-4.7 3.7-10.6 5.2-16.5 5 .6 8.7 6 16.2 17.1 18.4 3.5.7 7.1.9 10.5.5 3.2-5.4 6.2-11.2 7.6-17.3 1.5 4.9 2.2 10.1 1.8 15.2 12.2-4.5 22.3-15.4 25.2-29.9 3.8-19-8.1-38-23.5-44.1 0 .3-.1.5-.1.8-2.2 11.3-11.7 18.6-20.8 26.2z"/>
    <path fill="#04AA80" d="M510.7 254.6c0 1.4-.7 2.8-2 3.7-2.5 1.8-4.5 3.6-6.2 5.5-.9-.1-1.9-.2-2.8-.2-5.7 0-11.6 2.6-16.7 5.5 2.8-.2 5.6-.4 8.4-.4 2.4 0 4.7.1 7.1.5-4.8 8-5.1 16.7-6.3 25.3-6.9 1.4-13.8 4.6-18.9 9.4 2.8-.7 5.7-1 8.7-1 2.8 0 5.7.3 8.4 1-2.7 9.1-8.6 17.9-24.3 25.3-3.3 1.6-6.6 3.4-10 4.8-.1.1-.2.1-.4.2-.1-.1-.3-.1-.4-.2-9.6-5.4-16.8-14.3-21.1-23.7 3 1 6.2 1.6 9.5 2-5.2-4.1-9.8-8.8-13.6-14.1-.7-3.2-1-6.2-1-9.1 0-15.3 10.8-32 34.1-39.4-.9 3.8-1.3 7.6-1.3 11.4v1.1c1.4-5.4 4.2-10.3 8.1-14.3 6.2-1.4 13.2-2.1 20.9-2.1 9.1-.2 19.8 4.8 19.8 8.8z"/>
    <path fill="#05E3AB" d="M431 318.8c0 4-.4 8-1.2 11.9 0 .2-.1.3-.1.5h-.2c-2.1.4-4.2.6-6.4.6-14.8 0-24.7-6.9-30.3-17.9h1.1c3.5 0 7-.5 10.4-1.3-4.7-.4-9.3-1.6-13.6-3.5-2.3-6.3-3.4-13.7-3.4-21.7 0-2.6 1-9.9 3.6-9.9.8 0 1.7.5 2.4.9 3.9 2.2 9.7 3.3 15.6 5.3 2.5 4.7 3.8 9.7 4.6 15 .8-3.9 1.2-7.9 1.2-11.9v-.6c8.8 4.3 16.3 12.7 16.3 32.6z"/>
    <path fill="#3A476B" d="M517 289.4c-1.4 4.3-2.8 8.7-4.5 12.9-1.7 4.2-3.7 8.4-5.8 12.4-4.2 8.1-9.1 15.8-14.1 23.5-5 7.7-10.1 15.3-14.8 23.2-4.7 7.9-9.1 16.1-12.5 24.7-3.3 8.4-5.7 17.3-6.4 26.3-.1 1.1-.1 2.3-.1 3.4 0 1 1.4 1 1.5 0 .2-2.3.3-4.6.6-6.8s.7-4.5 1.1-6.7c.9-4.4 2.2-8.7 3.7-13 3.1-8.6 7.3-16.9 11.9-24.8 4.6-7.9 9.6-15.5 14.6-23.2 5-7.7 9.9-15.4 14.1-23.5 2.1-4 4.1-8.1 5.8-12.2 1.7-4.1 3.3-8.4 4.4-12.8.3-1.1.5-2.2.7-3.2.4-.4-.1-.5-.2-.2z"/>
    <path fill="#3A476B" d="M483.1 258.4c-9 4.8-14.8 13.9-18.7 23-4.1 9.5-6.6 19.8-8 30.1-1.3 10.2-1.5 20.6-1.4 30.9.1 11.7.7 23.4 1.5 35.1.7 10.5 1.6 21 2.6 31.4l.3 3.3c.1 1 1.7 1 1.6 0-1-10.1-1.9-20.1-2.6-30.2-.9-11.5-1.5-23.1-1.8-34.6-.3-10.6-.3-21.2.7-31.8.9-9.9 3-19.9 6.4-29.3 3.4-9.5 8.5-19.4 16.8-25.6.9-.7 1.9-1.3 2.9-1.9.3-.2 0-.6-.3-.4z"/>
    <path fill="#3A476B" d="M454.1 267.6c.1 8.3 2.5 16.7 6.8 23.8.1.2.5 0 .4-.2-4.1-7.3-6.4-15.3-6.9-23.6-.1-.2-.3-.2-.3 0zM442.5 286.9c.1 1.7.9 3.5 1.6 5 .7 1.7 1.5 3.3 2.5 4.8 1.7 2.9 3.8 5.6 6.1 8.1 1.3 1.4 2.6 2.8 4 4.1.3.3.8-.2.5-.5-2.2-2.4-4.6-4.8-6.6-7.4-2.1-2.7-4-5.6-5.5-8.6-.4-.9-.8-1.9-1.2-2.9-.4-.9-.6-1.9-1.1-2.8-.2 0-.3.1-.3.2zM396.1 289.9c2.3 3.3 4.9 6.3 7.4 9.4 2.9 3.6 5.9 7.1 8.8 10.7 6 7.1 11.9 14.3 17.2 21.9 5.7 8.3 10.1 17.4 13.9 26.7 3.6 8.9 6.7 18.1 9 27.5 1.5 6 2.6 12 3.3 18.2.1.5.2.9.3 1.4 0 .6 1 .6 1 0 0-.4.1-.9 0-1.4 0-.5-.1-1.1-.1-1.6-.1-1.3-.3-2.6-.5-3.9-.5-3.4-1.2-6.7-2-10-2.1-9.1-4.9-18-8.3-26.6-2.1-5.3-4.3-10.4-6.8-15.5-2.1-4.3-4.3-8.5-7-12.5-5.1-7.7-11-14.8-16.9-21.8-5.8-6.8-11.7-13.5-17.3-20.5-.6-.7-1.1-1.4-1.7-2.1-.1-.3-.4-.1-.3.1z"/>
    <path fill="#3A476B" d="M418.9 317.1c-.4-2.6-.9-5.2-1.2-7.8-.3-2.6-.4-5.1-.5-7.7 0-.4-.5-.4-.6 0-.2 5.2.2 10.6 1.7 15.6.2.4.6.2.6-.1zM405.4 300.9c-1-3.6-1-7.4-.1-11 .1-.3-.3-.4-.4-.1-1 3.7-1 7.6.1 11.2.1.2.5.1.4-.1zM511.4 306.2c5.5-2.7 11-5.4 16.3-8.4.3-.2 0-.7-.3-.5-5.6 2.6-10.9 5.5-16.3 8.3-.4.2 0 .8.3.6zM501.4 325.7l21-11.4c.3-.2 0-.6-.3-.4-7 3.8-14 7.6-21 11.5-.2 0 0 .4.3.3z"/>
    <path fill="#212B53" fill-rule="evenodd" d="M434.9 446.2h51.5l2.1-56.1-58.8 3.1 5.2 53z" clip-rule="evenodd"/>
    <path fill="#05E3AB" d="M294 257.6c-13.5 1-29.8 1.3-29.8 1.3h-62.8s-22.7-1.7-22.4-28.7c.1-10.5 2.7-26.9 5.3-38.8 6.4-29.2 40.5-39 40.5-39l24.6-1.6s9.9.3 22.1 5.8c9.8 4.4 17.6 8 24 22.4 6.1 14.4 6.2 60.5-1.5 78.6z"/>
    <path fill="#212B53" d="M265.9 127.2c-3.4-6.1 1-13.3-.8-17.9-3.5-8.8-4.8-6.8-6.9-10.7-2.1-3.9-4.7-5.8-4.7-5.8L220 94.5s-3.3 2-4.2 6.2c-1.8 8.4-1.9 6.6-6.7 15.8-2.2 4.2.5 9.8-1.4 14.4s-5.7 5.5-3.8 8.2c7.8 11.3 66.8 6.7 69.8-2.3.9-2.8-3.3-1.7-7.8-9.6z"/>
    <path fill="#F9ABA4" d="M247.1 135.3l1.1 14.8 6.1 1.1s-2.3 12.8-11.9 14.9c-14.8 3.2-16.8-14.2-16.8-14.2l4.2-1.3.7-13.4"/>
    <path fill="#E59191" d="M247.5 141.1s-4.3.7-8.4-3.8l8.1-1.1.3 4.9z"/>
    <path fill="#212B53" d="M238.002 120.975c11.806-.544 21.013-8.857 20.565-18.566-.448-9.71-10.382-17.14-22.187-16.595-11.806.545-21.014 8.857-20.566 18.567.448 9.709 10.382 17.139 22.188 16.594z"/>
    <path fill="#F9ABA4" d="M214.9 121.9c.9 2.4 3.5 3.7 5.9 2.8 2.4-.9 3.7-3.5 2.8-5.9-.9-2.4-3.5-3.7-5.9-2.8-2.4.8-3.7 3.4-2.8 5.9z"/>
    <path stroke="#212B53" stroke-linecap="round" stroke-linejoin="round" stroke-miterlimit="10" d="M217.1 119.1s3.3-1.1 4.4 2.6"/>
    <path fill="#F9ABA4" d="M261.1 119.7c-.6 2.5-3.1 4-5.6 3.3-2.5-.6-4-3.1-3.3-5.6.6-2.5 3.1-4 5.6-3.3 2.4.6 3.9 3.1 3.3 5.6z"/>
    <path stroke="#212B53" stroke-linecap="round" stroke-linejoin="round" stroke-miterlimit="10" d="M258.6 117.1s-3.4-.8-4.2 3"/>
    <path fill="#F9ABA4" d="M240.2 137.8l-3.4.1c-7.9.3-14.6-5.9-14.8-13.8l-.5-13c-.3-7.9 5.9-14.6 13.8-14.8l3.4-.1c7.9-.3 14.6 5.9 14.8 13.8l.5 13c.4 7.8-5.8 14.5-13.8 14.8z"/>
    <path stroke="#212B53" stroke-linecap="round" stroke-linejoin="round" stroke-miterlimit="10" d="M239.1 116.9l2 7.7-1.5.2M247 113.1s2-2 4.2.1M232.4 113.4s-2.6-1.3-5.9 1.5"/>
    <path fill="#212B53" d="M229.6 118.3c.552 0 1-.448 1-1s-.448-1-1-1-1 .448-1 1 .448 1 1 1zM249.1 117.4c.552 0 1-.448 1-1s-.448-1-1-1-1 .448-1 1 .448 1 1 1zM236.2 88.5c3.756 0 6.8-3.044 6.8-6.8 0-3.755-3.044-6.8-6.8-6.8s-6.8 3.044-6.8 6.8 3.044 6.8 6.8 6.8z"/>
    <path fill="#212B53" d="M222.6 110l-.3-7.3c-.4-8.1 6-14.9 14.2-15.3 8.2-.4 15.2 5.8 15.5 13.9l.3 7.3c-12.7.6-17 .8-29.7 1.4z"/>
    <path fill="#fff" d="M256.6 151.6c-3.8-.6-4.1-.8-4.1-.8s.4 12.8-13.5 13c-8.9.1-13-12.3-13-12.3s-2.5 1.1-3.3 1.5c6.3 23.4 5.2 82.2 5.2 82.2l28.6 5.5c-.1.1 2.4-80.3.1-89.1z"/>
    <path stroke="#04AA80" stroke-miterlimit="10" d="M199.8 229.9l63 12.3"/>
    <path fill="#3A476B" d="M205.1 231l3.2-38.6v38.9l-3.2-.3zM274 244.2l3.4-55.2 1.2 56.5-4.6-1.3z"/>
    <path fill="#FFACAA" d="M262.9 258.8c3.5.1 22.9-.3 22.9-.3s4.2-.2 5-.9c1.8-1.6-.3-1.7-2.1-1.7 1-.1 6.8.1 7-1 0-.2 0-.3-.2-.5 1.2 0 1.9-.1 2.1-.4.2-.6-.6-1.3-2-2-.2-.6-1.2-1.6-2.7-2.6-.5-1.9-7.5-5.5-8.7-6.1-5.8-2.9-15.3-.9-21.3-1.2v16.7z"/>
    <path stroke="#3A476B" stroke-linecap="round" stroke-linejoin="round" stroke-miterlimit="10" d="M295.5 254.3s-6.9-1.3-10.9-1.8M295.5 252s-7.5-2.8-11.5-3.2M292.6 249s-6.4-2.7-10.1-3.6M286.2 255.7c.9 0 2.9 0 3.7.1"/>
    <path stroke="#04AA80" stroke-miterlimit="10" d="M259.7 241.8l-.9 17.3"/>
    <path stroke="#D8DEEB" stroke-miterlimit="10" stroke-width="3" d="M225.9 170.9c10.4-.6 20.8-1.1 31.2-1.7M226.9 181.2c10.1-.4 20.2-.6 30.4-.5M227.5 191.8c8.6-.4 17.2-.4 25.8.2 1.4.1 2.8.2 4.2 0M227.5 202.4l30.1.8M227.4 213.6c9.9.1 19.8.1 29.7.2M228 224.3c9.1.2 28.8.6 28.8.6"/>
    <path fill="#D8DEEB" d="M227.6 235v-.3l29.3-.4v2.1l-20.8.2-8.5-1.6z"/>
    <path fill="#212B53" d="M306.5 312.9c0-2.8-1.6-5.1-3.9-6.3h10.9v-8h-92.9v8h10.9c-2.3 1.1-3.9 3.5-3.9 6.2l-10 120.6 2 .2 10-120.6c0-2.8 2.2-5 5-5h64.9c2.8 0 5 2.2 5 5.1l10 120.6 2-.2-10-120.6zM117.2 329.9c0-2.8-1.6-5.1-3.9-6.3h10.9v-8H31.3v8h10.9c-2.3 1.1-3.9 3.5-3.9 6.2l-10 120.6 2 .2 10-120.6c0-2.8 2.2-5 5-5h64.9c2.8 0 5 2.2 5 5.1l10 120.6 2-.2-10-120.6z"/>
    <path fill="#23355F" d="M296.1 260.2h-80.9l15-61.9h80.9l-15 61.9z"/>
    <path fill="#23355F" d="M227.4 254.6h-32.7v5.5h32.7v-5.5z"/>
    <path fill="#D8DEEB" d="M263.1 232.3c1.657 0 3-1.343 3-3s-1.343-3-3-3-3 1.343-3 3 1.343 3 3 3z"/>
    <path fill="#FFACAA" d="M59.9 415.3l-4.9 9.6 16.4 5.9 4.6-7"/>
    <path fill="#212B53" fill-rule="evenodd" d="M71.8 430.8s3.2 4.8 20.1 17.5c3.7 2.8 12.8 1.8 10 8.7l-25.1-1.7L59.1 444l-1.4 3.3-11.3-4.7 8.3-18.9 17.1 7.1z" clip-rule="evenodd"/>
    <path fill="#2B364F" d="M103 298.9L54.1 415.2l24.5 13.6L146 318.4l-43-19.5z"/>
    <path fill="#1F283A" d="M111.8 316.7l13.6 35.8-5.9-37.8-7.7 2z"/>
    <path fill="#3A476B" d="M173.8 423.3s-14.3-89.6-18.4-112.8c-4-23.2-19.6-31.3-36.8-31.3H27.5v1.6c0 20.5 16.6 37.1 37.1 37.1h52.9l26.3 112.2 30-6.8z"/>
    <path fill="#F9ABA4" d="M63.2 147.1l-3.4.3 14.1 34.7 14.5-32.3-7.1-.8-18.1-1.9z"/>
    <path fill="#212B53" d="M60.5 147.3l10.3 24.1c.4.7 1.4.6 1.7-.1l11.2-22s18.5 2.4 22.1 51.2c3.3 44.8 7.6 78.8 7.6 78.8l-88.6 1s-1.1-45.2 1.7-74.3c2.9-30 7.8-51.8 34-58.7z"/>
    <path fill="#212B53" d="M83.7 149.2c9.8.9 18.3 1.1 24.4 7.7 11.6 12.7 16 27.7 17.3 32.2 1.3 4.5 2.6 11.9 2.6 11.9l-26.8 4.2-17.5-56zM60.5 147.3c-13.5.7-23.9.4-32.1 6.5-13 9.7-23.5 38.2-23.5 38.2l31.7 10.9 18.3-27.1"/>
    <path fill="#D8DEEB" d="M38.2 158.9c.552 0 1-.448 1-1s-.448-1-1-1-1 .448-1 1 .448 1 1 1zM53.1 154.3c.552 0 1-.448 1-1s-.448-1-1-1-1 .448-1 1 .448 1 1 1zM48.7 167.3c.552 0 1-.448 1-1s-.448-1-1-1-1 .448-1 1 .448 1 1 1zM62.9 173c.552 0 1-.448 1-1s-.448-1-1-1-1 .448-1 1 .448 1 1 1zM84.8 170.6c.552 0 1-.448 1-1s-.448-1-1-1-1 .448-1 1 .448 1 1 1zM99.1 176.3c.552 0 1-.448 1-1s-.448-1-1-1-1 .448-1 1 .448 1 1 1zM102.7 163.2c.552 0 1-.448 1-1s-.448-1-1-1-1 .448-1 1 .448 1 1 1zM77.5 186c.552 0 1-.448 1-1s-.448-1-1-1-1 .448-1 1 .448 1 1 1zM91.7 191.7c.552 0 1-.448 1-1s-.448-1-1-1-1 .448-1 1 .448 1 1 1zM117 179.3c.552 0 1-.448 1-1s-.448-1-1-1-1 .448-1 1 .448 1 1 1zM109.6 194.8c.552 0 1-.448 1-1s-.448-1-1-1-1 .448-1 1 .448 1 1 1zM67.5 196.7c.552 0 1-.448 1-1s-.448-1-1-1-1 .448-1 1 .448 1 1 1zM80.3 204.1c.552 0 1-.448 1-1s-.448-1-1-1-1 .448-1 1 .448 1 1 1zM40.6 209.1c.552 0 1-.448 1-1s-.448-1-1-1-1 .448-1 1 .448 1 1 1zM55.5 208.9c.552 0 1-.448 1-1s-.448-1-1-1-1 .448-1 1 .448 1 1 1zM69.4 215.6c.552 0 1-.448 1-1s-.448-1-1-1-1 .448-1 1 .448 1 1 1zM82.1 222.7c.552 0 1-.448 1-1s-.448-1-1-1-1 .448-1 1 .448 1 1 1zM31.8 262c.552 0 1-.448 1-1s-.448-1-1-1-1 .448-1 1 .448 1 1 1zM46 269.7c.552 0 1-.448 1-1s-.448-1-1-1-1 .448-1 1 .448 1 1 1zM58.4 273.8c.552 0 1-.448 1-1s-.448-1-1-1-1 .448-1 1 .448 1 1 1zM70.9 268.8c.552 0 1-.448 1-1s-.448-1-1-1-1 .448-1 1 .448 1 1 1zM89.5 274.8c.552 0 1-.448 1-1s-.448-1-1-1-1 .448-1 1 .448 1 1 1zM102.8 273.1c.552 0 1-.448 1-1s-.448-1-1-1-1 .448-1 1 .448 1 1 1zM25.7 169c.552 0 1-.448 1-1s-.448-1-1-1-1 .448-1 1 .448 1 1 1zM38.6 177.2c.552 0 1-.448 1-1s-.448-1-1-1-1 .448-1 1 .448 1 1 1zM24.6 181.4c.552 0 1-.448 1-1s-.448-1-1-1-1 .448-1 1 .448 1 1 1zM34.8 194.2c.552 0 1-.448 1-1s-.448-1-1-1-1 .448-1 1 .448 1 1 1zM12.8 189.3c.552 0 1-.448 1-1s-.448-1-1-1-1 .448-1 1 .448 1 1 1zM55.2 188.2c.552 0 1-.448 1-1s-.448-1-1-1-1 .448-1 1 .448 1 1 1zM88.2 157.3c.552 0 1-.448 1-1s-.448-1-1-1-1 .448-1 1 .448 1 1 1zM34.1 274c.552 0 1-.448 1-1s-.448-1-1-1-1 .448-1 1 .448 1 1 1zM61 226.5c.552 0 1-.448 1-1s-.448-1-1-1-1 .448-1 1 .448 1 1 1zM43.2 222.3c.552 0 1-.448 1-1s-.448-1-1-1-1 .448-1 1 .448 1 1 1zM48.1 235c.552 0 1-.448 1-1s-.448-1-1-1-1 .448-1 1 .448 1 1 1zM72.8 236.1c.552 0 1-.448 1-1s-.448-1-1-1-1 .448-1 1 .448 1 1 1z" opacity=".5"/>
    <path fill="#151D38" d="M29.6 225.3c1.2-10.8 6.5-22.3 6.5-22.3l.8.2s5.6-13.6 9-20.5c0 0-5.3 12.2-13.8 49.8l-2.5-7.2z"/>
    <path fill="#F9ABA4" d="M3.2 239.3c7.2 17.1 57.8 21.7 60.3 21.9 4.1.6 10.4 1.2 17 .7 1.3-.1 9-2.3 10-4.1 1.7-.7 2.9-1.4 3.2-2 1.5-.4 2.5-.9 2.5-1.5 0-.4-.8-.7-1.9-.9.2-.1.3-.3.3-.4 0-1.2-4.1-2.2-6.7-2.6-2.9-.4-8-1.7-8.3-2.6-.2-.7 6.7-.4 7-1.6.3-1.2-23.2-6-27.9-6.9-4.7-.9-23.8-2.9-27.3-12.6-2.7-7.4 4.9-24 4.9-24L5.8 192.3s-11 27-2.6 47z"/>
    <path stroke="#3A476B" stroke-linecap="round" stroke-linejoin="round" stroke-miterlimit="10" d="M94.2 253.4s-7.2-.3-11.2-.7M93.7 255.7s-8.1 1.1-12.2.6M90.1 258s-6.9 1.2-10.8 1.3"/>
    <path fill="#23355F" d="M155.8 260.2H74.9l15-61.9h80.9l-15 61.9z"/>
    <path fill="#23355F" d="M87.1 254.6H54.4v5.5h32.7v-5.5z"/>
    <path fill="#D8DEEB" d="M122.8 232.3c1.657 0 3-1.343 3-3s-1.343-3-3-3-3 1.343-3 3 1.343 3 3 3z"/>
    <path fill="#F9ABA4" d="M81.1 137.9l.3 11.9s-3.4 6-11 4.7c-7.6-1.3-8.1-7.3-8.1-7.3l3-11.1"/>
    <path fill="#E59191" d="M81.2 143.3s-4.7-.4-7.3-4.1h7.2l.1 4.1z"/>
    <path fill="#FFACAA" d="M52.3 119.2c.4 2.4 2.8 4 5.2 3.6 2.4-.4 4-2.8 3.6-5.2-.4-2.4-2.8-4-5.2-3.6-2.5.5-4.1 2.8-3.6 5.2z"/>
    <path stroke="#212B53" stroke-linecap="round" stroke-linejoin="round" stroke-miterlimit="10" d="M54.8 116.9s3.3-.6 3.8 3.1"/>
    <path fill="#F9ABA4" d="M76 139.5l-6.2-.8c-7.9-1-13.4-8.2-12.4-16.1l2.1-16.6c1-7.9 8.2-13.4 16.1-12.4l6.2.8c7.9 1 13.4 8.2 12.4 16.1l-2.1 16.6c-1 7.9-8.2 13.4-16.1 12.4z"/>
    <path stroke="#212B53" stroke-linecap="round" stroke-linejoin="round" stroke-miterlimit="10" d="M78.1 118.2l.1 7.3-2.1-.4M84.6 115.8s2.2-1.6 4 .7M72.3 114.1s-2.2-1.6-5.8.5"/>
    <path fill="#212B53" d="M69.1 118.4c.552 0 1-.448 1-1s-.448-1-1-1-1 .448-1 1 .448 1 1 1zM86.1 120.3c.552 0 1-.448 1-1s-.448-1-1-1-1 .448-1 1 .448 1 1 1z"/>
    <path fill="#212B53" d="M91.7 110.6c-2-.2-4.3-1.7-4.7-2.5-.7-1.2-3.1.2-4.1.6-2.1.8-2.6-.6-2.9-1.3-.8-2.1-.8-2.1-2.3-1.8-1.5.3-1.8 1.4-3.6 1.1-1.4-.2-1.5-.7-2.3-1.8-.9-1.1-1.7-2.1-2.9-1.3-.7.4-1.4 1.5-2.2 1.8-.8.3-2.2-.4-3-.3-1 .1-1.9 1.8-2.3 2.8-.9 2.2-2.6 2.6-2.2 5.3.1.8.4 1.6.3 2.5-.1 1.4-1.2 2.6-2.2 3.6-1.5-2-1.1-3.6-1.3-5.8-.2-2-1.4-3.6-2.1-5.6-.7-2.1-.8-4.8.9-6.1.9-.7 2.1-1 2.6-2 1-1.8-.5-3.7-.4-5.7 0-1.5 1.4-2.6 2.8-3 1.4-.4 1.9-.5 3.4-.6 1.5-.2 3-.6 3.8-1.8.4-.5.7-1 1-1.5 1.4-1.8 4-1.2 5.1-.7.8.4 1.4 1.2 2.2 1.6 2.4 1.2 5-1.4 7.7-1.6 3-.3 5.4 2.5 6.7 5.2.6 1.1 1.2 2.4 2.3 2.8 1.1.4 2.4 0 3.4.6 1.7 1.1.8 3.9 1.8 5.7.8 1.4 2.7 2.2 2.8 3.7.1 2.1-2.9 2.8-3.9 4.6-.9 1.6-.1 3.6-.4 5.5-.3 1.7-.8 3.3-2.5 3.6.1-.5-.5-7.5-1.5-7.6z"/>
    <path fill="#FFACAA" d="M634 414.9l.9 10.8-17.5-.9-1.6-8.2M553.5 415.7l.4 10-17.8-.9-.3-8.2"/>
    <path fill="#2B364F" d="M612.6 417.3l24.1-2.3s-8.8-105.2-9.8-111.1c-2.4-15.3-6.4-91.8-8.5-101h-46.9s9.5 82.5 11.6 99.5"/>
    <path fill="#1F283A" d="M589.1 211.8l-6 90.8-4.4-43.2 10.4-47.6z"/>
    <path fill="#3A476B" d="M543.5 208.3c-6.6 20.3-11.2 53.1-14.8 95.1-2.5 29.1 1.9 113.8 1.9 113.8h26.3s11.7-94 11.7-104 21.9-85.4 20.5-106.5"/>
    <path fill="#526793" d="M566.3 211.3c-1.7 5.9-3 12-4.3 18-1.4 6.3-2.7 12.7-3.9 19-2.6 13.3-4.8 26.6-6.7 40-2 13.7-3.6 27.5-4.8 41.3-1.2 14-2.1 28-2.4 42-.3 13.6-.3 27.2.7 40.8.1 1.6.2 3.2.4 4.8 0 .2.4.2.4 0-.7-13.4-1.1-26.9-.9-40.3.2-13.9.9-27.8 2-41.7 1.1-14 2.6-27.9 4.5-41.8 1.8-13.5 4-26.9 6.5-40.2 2.3-12.5 5-25 7.8-37.4.3-1.4.6-2.9.9-4.3 0-.2-.2-.3-.2-.2zM576 211.3c-1.7 5.9-3 12-4.3 18-1.4 6.3-2.7 12.7-4 19-2.6 13.3-5 26.6-7 40-2 13.7-3.8 27.5-5.1 41.3-1.3 14-2.2 28-2.6 42-.4 13.6-.4 27.2.6 40.8.1 1.6.2 3.2.4 4.8 0 .2.4.2.4 0-.7-13.4-1.1-26.9-.8-40.3.3-13.9 1-27.8 2.3-41.7 1.2-14 2.8-27.9 4.8-41.8 1.9-13.5 4.2-26.9 6.7-40.2 2.4-12.5 5.1-25 8-37.4.3-1.4.6-2.9.9-4.3-.1-.2-.3-.3-.3-.2z"/>
    <path fill="#526793" d="M582.3 219.8c-1.7 5.7-2.9 11.5-4.2 17.3-1.3 5.6-2.5 11.3-3.6 16.9-2.3 11.2-4.3 22.4-6.1 33.7-1.7 11.1-3.2 22.2-4.5 33.3-1.3 11.5-2.4 23-3.2 34.5-.9 11.9-1.6 23.9-1.9 35.9 0 1.5-.1 3.1-.1 4.6 0 .2.4.2.4 0 .6-12.1 1-24.1 1.8-36.2.8-11.5 1.7-22.9 3-34.4 1.2-11.3 2.7-22.6 4.4-33.9 1.7-11.2 3.6-22.3 5.8-33.4 2.2-11.4 4.7-22.9 7.4-34.2.3-1.5.6-2.9.9-4.4.1.2 0 .2-.1.3zM557.6 210.5c-1.7 5.9-3 12-4.3 18-1.4 6.3-2.7 12.7-3.9 19-2.6 13.3-4.8 26.6-6.7 40-2 13.7-3.6 27.5-4.8 41.3-1.2 14-2.1 28-2.4 42-.3 13.6-.3 27.2.7 40.8.1 1.6.2 3.2.4 4.8 0 .2.4.2.4 0-.7-13.4-1.1-26.9-.9-40.3.2-13.9.9-27.8 2-41.7 1.1-14 2.6-27.9 4.5-41.8 1.8-13.5 4-26.9 6.5-40.2 2.3-12.5 5-25 7.8-37.4.3-1.4.6-2.9.9-4.3 0-.3-.2-.3-.2-.2z"/>
    <path fill="#526793" d="M546.8 210.5c-1.4 5.7-2.3 11.5-3.4 17.3-1.1 6.1-2.1 12.3-3 18.4-2 13.2-3.7 26.4-5.1 39.6-1.5 14-2.7 28-3.5 42.1-.9 14.2-1.4 28.3-1.5 42.5-.1 13.6 0 27.3 1 40.9.1 1.7.3 3.3.4 5 0 .2.4.2.4 0-.7-13.5-1.2-27-1.2-40.6 0-14.1.4-28.2 1.2-42.2.8-14.1 1.9-28.1 3.3-42.1 1.4-13.5 3-26.9 4.9-40.4 1.7-12.2 3.8-24.3 6-36.4.2-1.4.5-2.8.7-4.1 0-.1-.2-.2-.2 0zM605.3 212.4c-.4 11.6-.4 23.3-.1 34.9.3 13.3 1 26.6 2 39.9 1 14.1 2.3 28.3 3.9 42.4 1.6 14 3.5 28 5.7 42 2.1 13.3 4.5 26.5 7.5 39.6.4 1.6.7 3.1 1.1 4.7.1.3.5.2.4-.1-2.9-12.9-5.4-26-7.6-39.1-2.3-14-4.3-28.1-6-42.1-1.7-14.1-3.1-28.2-4.2-42.3-1-13.4-1.8-26.8-2.3-40.2-.4-11.8-.5-23.7-.2-35.6 0-1.3.1-2.7.1-4 0-.3-.3-.3-.3-.1zM597.4 212.4c-.4 11.5-.6 23.1-.5 34.7.1 13.1.5 26.1 1.2 39.2.7 14 1.8 28 3.2 42 1.5 14.1 3.3 28.2 5.6 42.2 2.3 13.9 4.9 27.7 8.4 41.3.4 1.6.8 3.3 1.3 4.9.1.3.5.2.4-.1-3.4-13.5-6.2-27.2-8.6-40.9-2.4-14.2-4.4-28.4-6-42.7-1.5-13.9-2.7-27.9-3.5-41.8-.8-13.2-1.3-26.4-1.5-39.6-.2-11.7-.1-23.5.2-35.2 0-1.3.1-2.6.1-3.9.1-.3-.3-.3-.3-.1zM589.3 214.4c-.3 7.6-.5 15.3-.5 22.9-.1 8.3 0 16.6.1 24.9.2 8.7.4 17.5.8 26.2.4 9.1 1 18.2 1.7 27.2.7 9.3 1.6 18.6 2.7 27.9.1 1.1.3 2.3.4 3.4 0 .3.5.3.4 0-1-9.3-1.9-18.5-2.7-27.8-.8-9.1-1.4-18.3-1.8-27.4-.5-8.8-.8-17.6-1-26.4-.2-8.3-.3-16.7-.3-25 0-7.8.1-15.5.4-23.3 0-.9.1-1.8.1-2.7.1-.1-.3-.1-.3.1zM614.8 212.4c-.4 11.5-.3 23.1.1 34.6.4 13.1 1.2 26.2 2.2 39.3 1.1 14 2.4 28 3.9 41.9 1.5 13.9 3.2 27.7 5.1 41.5 1.8 13.4 3.7 26.8 5.9 40.1.3 1.5.5 3.1.8 4.6 0 .3.4.2.4-.1-2-13.1-4-26.3-5.8-39.5-1.9-14-3.7-28-5.3-42.1-1.6-13.9-3-27.8-4.1-41.7-1.1-13.2-2-26.4-2.5-39.7-.5-11.7-.7-23.5-.4-35.2 0-1.3.1-2.6.1-3.9 0 0-.4 0-.4.2z"/>
    <path fill="#F9ABA4" d="M565.6 79.4l-.2 10.3s2.9 35.8 10.1 35.8c12.6.1 13.1-37.9 13.1-37.9l.7-21.2"/>
    <path fill="#E59191" d="M565.4 87.7s5.4-1.4 9.1-7.9l-8.9.3-.2 7.6z"/>
    <path fill="#F9ABA4" d="M578.3 79.3l-7.3 1.3c-7.3 1.4-14.4-3.5-15.7-10.9L552 52.4c-1.4-7.3 3.5-14.4 10.9-15.7l7.3-1.3c7.3-1.4 14.4 3.5 15.7 10.9l3.2 17.4c1.4 7.2-3.5 14.3-10.8 15.6z"/>
    <path fill="#F9ABA4" d="M553.5 58.3l-1.6 9 3.1-.3"/>
    <path stroke="#212B53" stroke-linecap="round" stroke-linejoin="round" stroke-miterlimit="10" d="M559 54.8s2.7-1.7 6.6 1.1"/>
    <path fill="#212B53" d="M561.5 60c.663 0 1.2-.537 1.2-1.2 0-.663-.537-1.2-1.2-1.2-.663 0-1.2.537-1.2 1.2 0 .663.537 1.2 1.2 1.2z"/>
    <path fill="#2751FF" d="M576.2 39.2c.1 0 .1-.2 0-.2s-.1.2 0 .2z"/>
    <path fill="#212B53" d="M554.5 47.3c4.5 2.1 13.7 3.4 24.3-1.2 8.1-3.5 14.3-10.4 13.9-10-.4.4-5.8-13.1-25.9-8.3-3.4.8-10.7 4.2-20.1 2.1-.6-.1-1.2.3-1.2.9-.6 10.7 6 15.1 9 16.5z"/>
    <path fill="#212B53" d="M573.5 44.4c.9 5.2 1.5 7.5 2.5 12.7.2 1.2 4.3 8 4.3 8l8.8 7s6.9-11.5 6.1-27.3c-.3-6.5-3-11-7.5-12.1-1.5-.4-5.3.2-6.9.4-2.5.2-5.1 1-6.9 2.8-1.7 1.8-.9 5-.6 6.9.2 1.9.2 1.6.2 1.6z"/>
    <path stroke="#212B53" stroke-linecap="round" stroke-linejoin="round" stroke-miterlimit="10" d="M581.3 57.5s-2-.9-3.7.4"/>
    <path fill="#F9ABA4" d="M585 61.3c-.8 2.7-3.7 4.3-6.4 3.4-2.7-.9-4.3-3.7-3.4-6.4.8-2.7 3.7-4.3 6.4-3.4 2.7.8 4.3 3.7 3.4 6.4z"/>
    <path stroke="#212B53" stroke-linecap="round" stroke-linejoin="round" stroke-miterlimit="10" d="M582.4 58.3s-3.8-1.1-4.8 3.1"/>
    <path fill="#F9ABA4" d="M528.6 119.2s-5.6 15.1-12.6 14c-7-1.1-17.6-15.9-25.3-24.3-4.9-6.1-15.6-19.3-16.6-19.2-1.2.1 1.1 4.1.1 4-1-.1-6.4-9.1-7.6-8.7-1.6.6 3.5 8.6 3.5 8.6s-1.4-1.5-2.7-.6c-.9.6.1 3.1.1 3.1s-1.5-.9-2.4-.2c-.9.7 0 2.8 0 2.8s-1.4-1.7-2.4-.3c-.9 1.3 3.8 13.6 12.1 26.9 8.1 14.1 25.5 40.4 42.1 41.4 19.6 1.1 38.5-29.5 38.5-29.5l-26.8-18z"/>
    <path fill="#fff" d="M475.4 95.7s.7 4.5 2 8.1z"/>
    <path stroke="#3A476B" stroke-linecap="round" stroke-linejoin="round" stroke-miterlimit="10" d="M475.4 95.7s.7 4.5 2 8.1"/>
    <path fill="#FFACAA" d="M463.1 101.2s3.9 5.7 5 5.1c1.1-.6-2.8-7.5-2.8-7.5s4.3 7 5.4 6.3c1.1-.6-3-9-3-9s4 7.3 5.3 7c2.1-.5-2.8-9.5-2.8-9.5"/>
    <path stroke="#3A476B" stroke-linecap="round" stroke-linejoin="round" stroke-miterlimit="10" d="M463.1 101.2s3.9 5.7 5 5.1c1.1-.6-2.8-7.5-2.8-7.5s4.3 7 5.4 6.3c1.1-.6-3-9-3-9s4 7.3 5.3 7c2.1-.5-2.8-9.5-2.8-9.5"/>
    <path fill="#04AA80" d="M588.7 87.8l-13.3 24.1c-.4.7-1.4.6-1.7-.1l-8.2-22S547 92.2 543.4 141c-3.3 44.8-7.6 78.8-7.6 78.8l87.6 1s2.1-45.2-.7-74.3c-3-30-7.8-51.8-34-58.7z"/>
    <path fill="#04AA80" d="M565.5 89.7c-9.8.9-18.8.6-24.4 7.7-11.1 14-18.6 31.6-18.6 31.6l25.6 16.8 17.4-56.1zM594.3 116.3l18.3 27.1 31.7-10.9s-10.6-28.5-23.6-38.2c-8.2-6.1-18.5-5.8-32-6.4"/>
    <path fill="#3A476B" d="M619.6 165.7c-1.2-10.8-6.5-22.3-6.5-22.3l-.8.2s-5.6-13.6-9-20.5c0 0 5.3 12.2 13.8 49.8l2.5-7.2z"/>
    <path fill="#F9ABA4" d="M643.9 132.4l-30.9 11s7.6 16.4 5 23.8c-3.5 9.7-15.6 11.6-20.3 12.6-4.7.9-28.2 5.7-27.9 6.9.3 1.1 7.2.9 7 1.6-.3.9-5.4 2.2-8.3 2.6-2.6.4-6.7 1.4-6.7 2.6 0 .2.1.3.3.4-1.2.2-1.9.5-1.9.9-.1.7.9 1.1 2.5 1.5.4.6 1.6 1.3 3.2 2 1 1.8 8.7 4 10 4.1 6.6.5 12.8-.1 17-.7 2.5-.2 46.1-4.8 53.3-21.9 8.2-20-2.3-47.4-2.3-47.4z"/>
    <path stroke="#3A476B" stroke-linecap="round" stroke-linejoin="round" stroke-miterlimit="10" d="M562 193.9s7.2-.3 11.2-.7M562.5 196.2s8.1 1.1 12.2.6M566.1 198.5s6.9 1.2 10.8 1.3"/>
    <path stroke="#fff" stroke-miterlimit="10" d="M549.9 98.5l-3.6 3.7M576.2 118.8l-3.5 3.8M562.9 111.8l-3.7-3.6M604.2 140.4l-3.5 3.8M590.9 133.3l-3.7-3.6M602.1 118l-3.6 3.7M588.8 110.9l-3.8-3.6M616.8 132.5l-3.8-3.6M600.6 95.2l-3.6 3.7M628.6 116.7l-3.6 3.8M615.3 109.7l-3.8-3.6M640.9 131.4l-3.7-3.6M552.3 121.6l-3.6 3.8M578.6 142l-3.6 3.8M565.3 134.9l-3.7-3.5M606.6 163.6l-3.6 3.7M593.3 156.5l-3.7-3.6M551.6 143l-3.6 3.8M537.3 130.9l-3.7-3.5M579.6 164.6l-3.6 3.7M566.3 157.5l-3.7-3.6M553.3 167.9l-3.6 3.8M566.3 181.2l-3.7-3.6M609.6 211.9l-3.6 3.7M596.3 205.8l-3.7-3.6M552.2 190.9l-3.5 3.8M580.2 212.5l-3.5 3.7M566.9 205.4l-3.7-3.6M540.5 114.3l-3.7-3.6M591.5 178.3l-3.7-3.6M618.3 204.2l-3.7-3.6M557.9 210.9l-3.6 3.8M541 205.6l-3.8-3.6M624.9 96.9l-3.6 3.8"/>
    <path fill="#3A476B" d="M545.5 120.1l-6.8 19.6 4.1 2.8 2.7-22.4z"/>
    <path fill="#212B53" fill-rule="evenodd" d="M536 424.6s-9 8.3-29.5 13.6c-4.5 1.2-9.4-.4-9.4 7.1H522l20.7-3.6v3.6h12.2l-.4-20.6H536v-.1zM617.1 424.6s-9 8.3-29.5 13.6c-4.5 1.2-9.4-.4-9.4 7.1h24.9l20.7-3.6v3.6H636l-.4-20.6h-18.5v-.1zM570.5 41.3s7.8 7.5 6.6 8.2c-1.2.8-1.3 1.9-1.1 3.3l-1.2 27.3s-9.2 6.1-16.4 3.7c-4.3-.8-3.6-16.7-3.6-16.7s4.6-3 8.7.8c4.1 3.7 8.2-1.1 8.2-1.1l-1.2-25.5z" clip-rule="evenodd"/>
    <path fill="#FFACAA" d="M280.3 405.7l-1.6 9.7 17.2-.8 1.6-8"/>
    <path fill="#212B53" d="M321.5 428.4c-1.7-2.3-5.1-2.8-9.6-4.5-2.5-.9-8.4-2.4-11.8-5-1.8-1.4-2.4-4.8-2.4-4.8-11 .4-20.7 0-20.7 0l-2.2 20.9 49.1-.2c.1 0 0-3.1-2.4-6.4z"/>
    <path fill="#FFACAA" d="M342 407.7l4.8 8.4 14.1-9.9-4-6.4"/>
    <path fill="#212B53" d="M389.9 404.2c-2.7-1-5.8.4-10.5 1.4-2.6.5-8.4 2.5-12.6 2.1-2.3-.2-4.6-2.8-4.6-2.8-9.1 6.2-17.5 11.1-17.5 11.1l9.3 18.8 41.4-26.5s-1.7-2.7-5.5-4.1z"/>
    <path fill="#2B364F" d="M308.6 279s24.4 44.2 30 56.7c5.5 12.5 24.2 62.6 24.2 62.6L338.7 413l-27.8-63.2-42.9-52.1 40.6-18.7z"/>
    <path fill="#1F283A" d="M329.3 316.3L316.9 363l15-40.7-2.6-6z"/>
    <path fill="#3A476B" d="M334.5 294.3c4.1-20.7-9.8-27.8-20-27.8l-34-.2.7-5.2-76.4.1v1.6c0 20.5 16.6 37.1 37.1 37.1l50.9-1L271 408.2l32.8.5c.1 0 26.6-93.6 30.7-114.4z"/>
    <path fill="#212B53" d="M393.6 259.2H33v7.2h40.6L44.4 453l2.9.5 29.3-187.1h273.3l29.3 187.1 3-.5L353 266.4h40.6v-7.2z"/>
    <path fill="#526793" d="M273.5 401c2.1.3 4.2.3 6.3.4 2 0 3.9.1 5.9.1 3.8 0 7.6.1 11.4 0 2.4 0 4.9.2 7.2-.3.3-.1.3-.5 0-.6-2.1-.4-4.2-.3-6.3-.3h-5.9c-3.8 0-7.6 0-11.4.1-2.4 0-4.8 0-7.1.4-.2.1-.2.2-.1.2zM336.9 405.8c1.9-.7 3.7-1.7 5.5-2.8 1.8-1 3.6-2.1 5.4-3.1 1.8-1.1 3.6-2.1 5.3-3.2.9-.6 1.8-1.1 2.7-1.7.9-.5 1.7-1 2.5-1.7.2-.2 0-.6-.3-.5-.9.4-1.8.9-2.6 1.5-.9.5-1.8 1.1-2.7 1.6-1.8 1.1-3.6 2.1-5.4 3.2-1.8 1.1-3.6 2.1-5.4 3.2-1.8 1-3.6 2.1-5.2 3.3 0 .1.1.3.2.2z"/>
    <path fill="#526793" d="M222.9 266.9c.8 2.2 1.5 4.3 2.9 6.2 1.3 1.8 3 3.2 5.3 3.7 2.1.4 4.2.7 6.3.9 2.5.3 5 .6 7.5.8 2.1.2 4.2.3 6.3.3 4.3.1 8.6.2 13 .3 8.8.3 17.5.5 26.3.6h6.6c1.8 0 3.6 0 5.3.2 3.3.3 6.7 1.4 8.7 4.2 1.9 2.8 2.1 6.3 2 9.5-.1 3.4-.6 6.8-1.1 10.1-2 14.6-5.3 28.9-9 43.1-4.2 15.9-8.8 31.7-13.3 47.6-.6 2-1.2 4.1-1.7 6.1-.2.7.8 1 1 .3 2.4-8.3 4.7-16.7 7.1-25 2.2-7.8 4.4-15.6 6.5-23.5 3.9-14.4 7.4-29 9.8-43.7.5-3.4 1-6.9 1.4-10.3.4-3.3.7-6.7.1-10-.5-3.1-2.1-5.9-4.8-7.6-2.9-1.7-6.4-2-9.7-2.1-8.6-.1-17.3-.1-25.9-.4-4.4-.1-8.8-.3-13.3-.4-3.8-.1-7.6-.1-11.5-.3-4.6-.2-9.2-.7-13.8-1.3-1.7-.2-3.6-.3-5.2-1-2.5-1.2-4-3.8-5.2-6.1-.4-.8-.8-1.7-1.2-2.5 0-.2-.5 0-.4.3zM322.8 341.3c.7 2.3 2 4.6 2.9 6.8l5.1 11.4c4 9.1 8.1 18.2 11.9 27.4 1.7 4.1 3.4 8.3 5.2 12.4.1.2.5.1.4-.2-1.1-3.7-2.7-7.4-4.2-11-1.8-4.5-3.8-9-5.8-13.5-3.7-8.6-7.5-17.1-11.5-25.6-.8-1.6-1.6-3.2-2.3-4.8-.5-1-1-2.1-1.7-3 .1 0 0 0 0 .1z"/>
</svg>
