<svg xmlns="http://www.w3.org/2000/svg" xmlns:xlink="http://www.w3.org/1999/xlink" width="42" height="42" viewBox="0 0 42 42">
    <defs>
        <path id="a" d="M0 0h42v42H0z"/>
    </defs>
    <g fill="none" fill-rule="evenodd">
        <g>
            <mask id="b" fill="#fff">
                <use xlink:href="#a"/>
            </mask>
            <path fill="#DC2A2A" d="M42 21c0 11.598-9.402 21-21 21S0 32.598 0 21 9.402 0 21 0s21 9.402 21 21" mask="url(#b)"/>
        </g>
        <path fill="#FFF" d="M16.243 29.032a.817.817 0 0 1-.539-.2l-1.84-1.593-1.838 1.592a.823.823 0 1 1-1.08-1.245l2.38-2.06a.823.823 0 0 1 1.078 0l2.379 2.06a.824.824 0 0 1-.54 1.446"/>
        <path fill="#FFF" d="M21 29.032a.817.817 0 0 1-.54-.2l-1.839-1.593-1.838 1.592a.823.823 0 1 1-1.08-1.245l2.38-2.06a.823.823 0 0 1 1.078 0l2.378 2.06a.824.824 0 0 1-.54 1.446"/>
        <path fill="#FFF" d="M25.756 29.032a.817.817 0 0 1-.538-.2l-1.84-1.593-1.838 1.592a.823.823 0 1 1-1.08-1.245l2.38-2.06a.823.823 0 0 1 1.078 0l2.378 2.06a.824.824 0 0 1-.54 1.446"/>
        <path fill="#FFF" d="M30.513 29.032a.817.817 0 0 1-.538-.2l-1.84-1.593-1.84 1.592a.823.823 0 1 1-1.078-1.245l2.38-2.06a.823.823 0 0 1 1.078 0l2.378 2.06a.824.824 0 0 1-.54 1.446M16.727 20.844a.832.832 0 0 1-.59-.244l-3.91-3.911a.833.833 0 1 1 1.179-1.18l3.911 3.911a.834.834 0 0 1-.59 1.424"/>
        <path fill="#FFF" d="M12.816 20.844a.833.833 0 0 1-.59-1.424l3.911-3.91a.834.834 0 0 1 1.18 1.179l-3.911 3.91a.832.832 0 0 1-.59.245M29.811 20.844a.832.832 0 0 1-.59-.244l-3.91-3.911a.833.833 0 1 1 1.18-1.18l3.91 3.911a.833.833 0 0 1-.59 1.424"/>
        <path fill="#FFF" d="M25.9 20.844a.833.833 0 0 1-.59-1.424l3.911-3.91a.834.834 0 0 1 1.18 1.179l-3.91 3.91a.832.832 0 0 1-.59.245"/>
    </g>
</svg>
