<svg xmlns="http://www.w3.org/2000/svg" xmlns:xlink="http://www.w3.org/1999/xlink" width="42" height="42" viewBox="0 0 42 42">
    <defs>
        <path id="a" d="M0 0h42v42H0z"/>
    </defs>
    <g fill="none" fill-rule="evenodd">
        <g>
            <mask id="b" fill="#fff">
                <use xlink:href="#a"/>
            </mask>
            <path fill="#FF6D00" d="M42 21c0 11.598-9.402 21-21 21S0 32.598 0 21 9.402 0 21 0s21 9.402 21 21" mask="url(#b)"/>
        </g>
        <path fill="#FFF" d="M28.024 29.138a.824.824 0 0 1-.76-.506c-.066-.154-1.56-3.527-6.32-3.527-4.812 0-6.304 3.487-6.319 3.523A.823.823 0 1 1 13.102 28c.076-.185 1.939-4.543 7.842-4.543S28.71 27.815 28.785 28a.824.824 0 0 1-.76 1.138M12.542 20.392a.823.823 0 0 1-.413-1.538l2.884-1.664-2.884-1.665a.823.823 0 0 1 .824-1.427l4.12 2.378a.824.824 0 0 1 0 1.427l-4.12 2.378a.812.812 0 0 1-.411.11M29.345 20.392a.812.812 0 0 1-.41-.11l-4.12-2.379a.823.823 0 0 1 0-1.427l4.12-2.378a.823.823 0 1 1 .823 1.427l-2.883 1.665 2.883 1.664a.824.824 0 0 1-.413 1.538"/>
    </g>
</svg>
