<svg xmlns="http://www.w3.org/2000/svg" xmlns:xlink="http://www.w3.org/1999/xlink" width="74" height="75" viewBox="0 0 74 75">
    <defs>
        <path id="prefix__a" d="M0 0.072L73.93 0.072 73.93 75 0 75z"/>
    </defs>
    <g fill="none" fill-rule="evenodd">
        <mask id="prefix__b" fill="#fff">
            <use xlink:href="#prefix__a"/>
        </mask>
        <path fill="#DC2A2A" d="M70.687 45.5L44.824 71.713c-4.323 4.383-11.396 4.383-15.72.002L3.243 45.505c-4.323-4.382-4.323-11.55 0-15.934L29.105 3.357c4.323-4.38 11.396-4.382 15.72 0l25.862 26.21c4.325 4.381 4.325 11.55 0 15.933" mask="url(#prefix__b)"/>
        <path fill="#FFF" d="M36.5 46c-1.924 0-2.577-1.616-2.577-3.59L33 24.59c0-1.974 1.576-3.59 3.5-3.59s3.5 1.616 3.5 3.59l-.923 17.82c0 1.974-.653 3.59-2.577 3.59M33 50.5c0-1.93 1.566-3.5 3.501-3.5C38.434 47 40 48.57 40 50.5c0 1.933-1.566 3.5-3.499 3.5C34.566 54 33 52.433 33 50.5"/>
    </g>
</svg>
