<svg width="489" height="468" viewBox="0 0 489 468" fill="none" xmlns="http://www.w3.org/2000/svg">
<rect x="312" y="196" width="148" height="231" rx="6.5" stroke="#344BA9" stroke-width="2" stroke-linejoin="round"/>
<rect x="38" y="172" width="68" height="45" rx="6.5" stroke="#344BA9" stroke-width="2" stroke-linejoin="round"/>
<path d="M395.111 138V0H403.889V138H395.111ZM424.656 41.4C424.014 35.9375 421.409 31.6969 416.841 28.6781C412.274 25.6594 406.672 24.15 400.035 24.15C395.182 24.15 390.936 24.9406 387.297 26.5219C383.693 28.1031 380.874 30.2773 378.84 33.0445C376.842 35.8117 375.843 38.9562 375.843 42.4781C375.843 45.425 376.539 47.9586 377.93 50.0789C379.357 52.1633 381.177 53.9062 383.39 55.3078C385.602 56.6734 387.921 57.8055 390.348 58.7039C392.774 59.5664 395.004 60.2672 397.038 60.8062L408.171 63.825C411.025 64.5797 414.201 65.6219 417.698 66.9516C421.23 68.2812 424.602 70.0961 427.814 72.3961C431.061 74.6601 433.737 77.5711 435.842 81.1289C437.947 84.6867 439 89.0531 439 94.2281C439 100.194 437.448 105.584 434.343 110.4C431.275 115.216 426.779 119.043 420.856 121.882C414.968 124.721 407.814 126.141 399.393 126.141C391.543 126.141 384.745 124.865 379.001 122.313C373.292 119.762 368.796 116.204 365.513 111.64C362.266 107.076 360.428 101.775 360 95.7375H373.702C374.059 99.9062 375.45 103.356 377.877 106.087C380.339 108.783 383.443 110.795 387.19 112.125C390.972 113.419 395.04 114.066 399.393 114.066C404.46 114.066 409.009 113.239 413.041 111.586C417.073 109.897 420.267 107.561 422.622 104.578C424.977 101.559 426.154 98.0375 426.154 94.0125C426.154 90.3469 425.138 87.3641 423.104 85.0641C421.07 82.7641 418.394 80.8953 415.075 79.4578C411.757 78.0203 408.171 76.7625 404.317 75.6844L390.829 71.8031C382.266 69.3234 375.486 65.7836 370.491 61.1836C365.495 56.5836 362.997 50.5641 362.997 43.125C362.997 36.9437 364.657 31.5531 367.975 26.9531C371.329 22.3172 375.825 18.7234 381.463 16.1719C387.136 13.5844 393.47 12.2906 400.463 12.2906C407.528 12.2906 413.808 13.5664 419.304 16.118C424.799 18.6336 429.152 22.0836 432.363 26.468C435.61 30.8523 437.323 35.8297 437.501 41.4H424.656Z" fill="#344BA9"/>
<path fill-rule="evenodd" clip-rule="evenodd" d="M57 294C72.464 294 85 305.95 85 320.691V353H29V320.691C29 305.95 41.536 294 57 294V294Z" stroke="#344BA9" stroke-width="10"/>
<path fill-rule="evenodd" clip-rule="evenodd" d="M34.234 339C19.1931 339 7 351.193 7 366.234V379.766C7 394.807 19.1931 407 34.234 407H79.766C94.8069 407 107 394.807 107 379.766V366.234C107 351.193 94.8069 339 79.766 339H34.234ZM62.9999 362.2H50.3999V384.6H62.9999V362.2Z" fill="#344BA9"/>
<rect x="109.117" y="49.3672" width="266.133" height="335.634" rx="15" fill="black"/>
<rect x="99.375" y="33.375" width="269.25" height="340.25" rx="14.625" fill="#697FD7" stroke="black" stroke-width="0.75"/>
<rect x="116" y="53" width="236" height="307" rx="12" fill="#2D4193"/>
<path d="M139.004 86V75.8182H142.822C143.605 75.8182 144.261 75.964 144.791 76.2557C145.325 76.5473 145.728 76.9484 145.999 77.4588C146.274 77.9659 146.412 78.5426 146.412 79.1889C146.412 79.8419 146.274 80.4219 145.999 80.929C145.724 81.4361 145.318 81.8355 144.781 82.1271C144.244 82.4155 143.583 82.5597 142.798 82.5597H140.267V81.0433H142.549C143.006 81.0433 143.381 80.9638 143.673 80.8047C143.964 80.6456 144.18 80.4268 144.319 80.1484C144.461 79.87 144.533 79.5502 144.533 79.1889C144.533 78.8277 144.461 78.5095 144.319 78.2344C144.18 77.9593 143.963 77.7455 143.668 77.593C143.376 77.4373 143 77.3594 142.539 77.3594H140.849V86H139.004ZM149.307 86H147.338L150.923 75.8182H153.2L156.789 86H154.82L152.101 77.9062H152.021L149.307 86ZM149.371 82.0078H154.741V83.4893H149.371V82.0078ZM157.515 75.8182H159.598L162.089 80.3224H162.188L164.679 75.8182H166.762L163.058 82.2017V86H161.219V82.2017L157.515 75.8182ZM169.188 75.8182H171.446L174.468 83.196H174.588L177.61 75.8182H179.867V86H178.098V79.005H178.003L175.189 85.9702H173.867L171.053 78.9901H170.958V86H169.188V75.8182ZM182.996 86V75.8182H189.618V77.3643H184.84V80.1286H189.275V81.6747H184.84V84.4538H189.658V86H182.996ZM200.987 75.8182V86H199.346L194.549 79.0646H194.464V86H192.62V75.8182H194.27L199.063 82.7585H199.153V75.8182H200.987ZM203.669 77.3643V75.8182H211.793V77.3643H208.646V86H206.816V77.3643H203.669Z" fill="#697FD7"/>
<path d="M147.719 181.254H145.86C145.807 180.949 145.709 180.679 145.567 180.443C145.424 180.205 145.247 180.002 145.035 179.837C144.823 179.671 144.581 179.547 144.309 179.464C144.04 179.378 143.75 179.335 143.439 179.335C142.885 179.335 142.395 179.474 141.967 179.752C141.54 180.027 141.205 180.432 140.963 180.965C140.721 181.496 140.6 182.143 140.6 182.909C140.6 183.688 140.721 184.344 140.963 184.878C141.208 185.408 141.543 185.809 141.967 186.081C142.395 186.349 142.884 186.484 143.434 186.484C143.739 186.484 144.024 186.444 144.289 186.364C144.558 186.281 144.798 186.161 145.01 186.001C145.225 185.842 145.406 185.647 145.552 185.415C145.701 185.183 145.804 184.918 145.86 184.619L147.719 184.629C147.65 185.113 147.499 185.567 147.267 185.991C147.038 186.416 146.738 186.79 146.367 187.115C145.996 187.437 145.562 187.688 145.065 187.871C144.567 188.05 144.016 188.139 143.409 188.139C142.514 188.139 141.715 187.932 141.013 187.518C140.31 187.103 139.757 186.505 139.352 185.723C138.948 184.941 138.746 184.003 138.746 182.909C138.746 181.812 138.95 180.874 139.357 180.095C139.765 179.313 140.32 178.715 141.023 178.3C141.725 177.886 142.521 177.679 143.409 177.679C143.976 177.679 144.503 177.759 144.99 177.918C145.477 178.077 145.911 178.31 146.293 178.619C146.674 178.924 146.987 179.298 147.232 179.742C147.481 180.183 147.643 180.687 147.719 181.254ZM151.713 188H149.744L153.329 177.818H155.606L159.195 188H157.227L154.507 179.906H154.428L151.713 188ZM151.778 184.008H157.147V185.489H151.778V184.008ZM161.656 188V177.818H165.475C166.257 177.818 166.913 177.954 167.443 178.226C167.977 178.498 168.38 178.879 168.651 179.369C168.926 179.857 169.064 180.425 169.064 181.075C169.064 181.728 168.925 182.294 168.646 182.775C168.371 183.252 167.965 183.622 167.428 183.884C166.891 184.142 166.232 184.271 165.45 184.271H162.73V182.74H165.201C165.659 182.74 166.033 182.677 166.325 182.551C166.616 182.422 166.832 182.235 166.971 181.989C167.114 181.741 167.185 181.436 167.185 181.075C167.185 180.713 167.114 180.405 166.971 180.15C166.828 179.891 166.611 179.696 166.32 179.563C166.028 179.427 165.652 179.359 165.191 179.359H163.501V188H161.656ZM166.916 183.386L169.437 188H167.379L164.903 183.386H166.916ZM175.332 188H171.882V177.818H175.402C176.413 177.818 177.281 178.022 178.007 178.43C178.736 178.834 179.296 179.416 179.687 180.175C180.078 180.934 180.274 181.842 180.274 182.899C180.274 183.96 180.077 184.871 179.682 185.634C179.291 186.396 178.726 186.981 177.987 187.388C177.251 187.796 176.366 188 175.332 188ZM173.726 186.404H175.243C175.952 186.404 176.544 186.275 177.017 186.016C177.491 185.754 177.848 185.365 178.086 184.848C178.325 184.328 178.444 183.678 178.444 182.899C178.444 182.12 178.325 181.474 178.086 180.96C177.848 180.443 177.495 180.057 177.027 179.802C176.563 179.543 175.987 179.414 175.297 179.414H173.726V186.404ZM191.189 188H187.739V177.818H191.259C192.27 177.818 193.138 178.022 193.864 178.43C194.593 178.834 195.153 179.416 195.544 180.175C195.936 180.934 196.131 181.842 196.131 182.899C196.131 183.96 195.934 184.871 195.539 185.634C195.148 186.396 194.583 186.981 193.844 187.388C193.108 187.796 192.223 188 191.189 188ZM189.583 186.404H191.1C191.809 186.404 192.401 186.275 192.875 186.016C193.349 185.754 193.705 185.365 193.944 184.848C194.182 184.328 194.302 183.678 194.302 182.899C194.302 182.12 194.182 181.474 193.944 180.96C193.705 180.443 193.352 180.057 192.885 179.802C192.421 179.543 191.844 179.414 191.155 179.414H189.583V186.404ZM199.004 188V177.818H205.626V179.364H200.848V182.129H205.283V183.675H200.848V186.454H205.665V188H199.004ZM208.18 179.364V177.818H216.304V179.364H213.157V188H211.327V179.364H208.18ZM219.067 188H217.098L220.682 177.818H222.959L226.549 188H224.58L221.861 179.906H221.781L219.067 188ZM219.131 184.008H224.501V185.489H219.131V184.008ZM230.855 177.818V188H229.01V177.818H230.855ZM233.972 188V177.818H235.816V186.454H240.301V188H233.972ZM248.555 180.617C248.509 180.183 248.313 179.845 247.968 179.603C247.627 179.361 247.183 179.24 246.636 179.24C246.251 179.24 245.922 179.298 245.647 179.414C245.371 179.53 245.161 179.687 245.015 179.886C244.869 180.085 244.795 180.312 244.791 180.567C244.791 180.78 244.839 180.964 244.936 181.119C245.035 181.275 245.169 181.408 245.338 181.517C245.507 181.623 245.695 181.713 245.9 181.786C246.106 181.858 246.313 181.92 246.522 181.969L247.476 182.208C247.861 182.298 248.23 182.419 248.585 182.571C248.943 182.723 249.263 182.916 249.544 183.148C249.829 183.38 250.055 183.66 250.22 183.988C250.386 184.316 250.469 184.701 250.469 185.141C250.469 185.738 250.317 186.263 250.012 186.717C249.707 187.168 249.266 187.521 248.689 187.776C248.116 188.028 247.421 188.154 246.606 188.154C245.814 188.154 245.126 188.031 244.543 187.786C243.963 187.541 243.509 187.183 243.181 186.712C242.856 186.242 242.68 185.668 242.654 184.992H244.468C244.495 185.347 244.604 185.642 244.796 185.877C244.989 186.112 245.239 186.288 245.547 186.404C245.859 186.52 246.207 186.578 246.591 186.578C246.992 186.578 247.343 186.518 247.645 186.399C247.95 186.277 248.189 186.107 248.361 185.892C248.533 185.673 248.621 185.418 248.625 185.126C248.621 184.861 248.543 184.643 248.391 184.47C248.238 184.295 248.025 184.149 247.75 184.033C247.478 183.913 247.16 183.807 246.795 183.714L245.637 183.416C244.798 183.201 244.135 182.874 243.648 182.437C243.164 181.996 242.922 181.411 242.922 180.682C242.922 180.082 243.085 179.557 243.409 179.106C243.737 178.655 244.183 178.305 244.747 178.057C245.31 177.805 245.948 177.679 246.661 177.679C247.383 177.679 248.016 177.805 248.56 178.057C249.107 178.305 249.536 178.652 249.848 179.096C250.159 179.537 250.32 180.044 250.33 180.617H248.555Z" fill="#697FD7"/>
<rect x="138.375" y="97.375" width="194.25" height="67.25" rx="2.625" fill="#E5E9F8"/>
<path d="M156.08 117H155.023C154.96 116.696 154.851 116.429 154.695 116.199C154.541 115.969 154.354 115.776 154.132 115.619C153.913 115.46 153.67 115.341 153.403 115.261C153.136 115.182 152.858 115.142 152.568 115.142C152.04 115.142 151.561 115.276 151.132 115.543C150.706 115.81 150.366 116.203 150.114 116.723C149.864 117.243 149.739 117.881 149.739 118.636C149.739 119.392 149.864 120.03 150.114 120.55C150.366 121.07 150.706 121.463 151.132 121.73C151.561 121.997 152.04 122.131 152.568 122.131C152.858 122.131 153.136 122.091 153.403 122.011C153.67 121.932 153.913 121.814 154.132 121.658C154.354 121.499 154.541 121.304 154.695 121.074C154.851 120.841 154.96 120.574 155.023 120.273H156.08C156 120.719 155.855 121.118 155.645 121.47C155.435 121.822 155.173 122.122 154.861 122.369C154.548 122.614 154.197 122.8 153.808 122.928C153.422 123.055 153.009 123.119 152.568 123.119C151.824 123.119 151.162 122.937 150.582 122.574C150.003 122.21 149.547 121.693 149.214 121.023C148.882 120.352 148.716 119.557 148.716 118.636C148.716 117.716 148.882 116.92 149.214 116.25C149.547 115.58 150.003 115.062 150.582 114.699C151.162 114.335 151.824 114.153 152.568 114.153C153.009 114.153 153.422 114.217 153.808 114.345C154.197 114.473 154.548 114.661 154.861 114.908C155.173 115.152 155.435 115.45 155.645 115.803C155.855 116.152 156 116.551 156.08 117ZM160.238 123.136C159.647 123.136 159.129 122.996 158.683 122.714C158.239 122.433 157.893 122.04 157.643 121.534C157.396 121.028 157.272 120.437 157.272 119.761C157.272 119.08 157.396 118.484 157.643 117.976C157.893 117.467 158.239 117.072 158.683 116.791C159.129 116.51 159.647 116.369 160.238 116.369C160.829 116.369 161.346 116.51 161.789 116.791C162.235 117.072 162.582 117.467 162.829 117.976C163.079 118.484 163.204 119.08 163.204 119.761C163.204 120.437 163.079 121.028 162.829 121.534C162.582 122.04 162.235 122.433 161.789 122.714C161.346 122.996 160.829 123.136 160.238 123.136ZM160.238 122.233C160.687 122.233 161.056 122.118 161.346 121.888C161.636 121.658 161.85 121.355 161.989 120.98C162.129 120.605 162.198 120.199 162.198 119.761C162.198 119.324 162.129 118.916 161.989 118.538C161.85 118.161 161.636 117.855 161.346 117.622C161.056 117.389 160.687 117.273 160.238 117.273C159.789 117.273 159.42 117.389 159.13 117.622C158.84 117.855 158.626 118.161 158.487 118.538C158.347 118.916 158.278 119.324 158.278 119.761C158.278 120.199 158.347 120.605 158.487 120.98C158.626 121.355 158.84 121.658 159.13 121.888C159.42 122.118 159.789 122.233 160.238 122.233ZM168.792 120.324V116.455H169.798V123H168.792V121.892H168.724C168.57 122.224 168.332 122.507 168.008 122.74C167.684 122.97 167.275 123.085 166.781 123.085C166.372 123.085 166.008 122.996 165.69 122.817C165.372 122.635 165.122 122.362 164.94 121.999C164.758 121.632 164.667 121.17 164.667 120.614V116.455H165.673V120.545C165.673 121.023 165.806 121.403 166.073 121.687C166.343 121.972 166.687 122.114 167.105 122.114C167.355 122.114 167.609 122.05 167.867 121.922C168.129 121.794 168.347 121.598 168.524 121.334C168.703 121.07 168.792 120.733 168.792 120.324ZM171.568 123V116.455H172.539V117.443H172.608C172.727 117.119 172.943 116.857 173.255 116.655C173.568 116.453 173.92 116.352 174.312 116.352C174.386 116.352 174.478 116.354 174.589 116.357C174.7 116.359 174.784 116.364 174.84 116.369V117.392C174.806 117.384 174.728 117.371 174.606 117.354C174.487 117.334 174.36 117.324 174.227 117.324C173.909 117.324 173.625 117.391 173.375 117.524C173.127 117.655 172.931 117.837 172.786 118.07C172.644 118.3 172.573 118.562 172.573 118.858V123H171.568ZM180.597 117.92L179.694 118.176C179.637 118.026 179.553 117.879 179.442 117.737C179.334 117.592 179.186 117.473 178.999 117.379C178.811 117.286 178.571 117.239 178.279 117.239C177.878 117.239 177.544 117.331 177.277 117.516C177.013 117.697 176.881 117.929 176.881 118.21C176.881 118.46 176.972 118.658 177.154 118.803C177.336 118.947 177.62 119.068 178.006 119.165L178.978 119.403C179.563 119.545 179.999 119.763 180.286 120.055C180.573 120.345 180.716 120.719 180.716 121.176C180.716 121.551 180.608 121.886 180.392 122.182C180.179 122.477 179.881 122.71 179.498 122.881C179.114 123.051 178.668 123.136 178.159 123.136C177.492 123.136 176.939 122.991 176.502 122.702C176.064 122.412 175.787 121.989 175.671 121.432L176.625 121.193C176.716 121.545 176.888 121.81 177.141 121.986C177.397 122.162 177.73 122.25 178.142 122.25C178.611 122.25 178.983 122.151 179.259 121.952C179.537 121.75 179.676 121.509 179.676 121.227C179.676 121 179.597 120.81 179.438 120.656C179.279 120.5 179.034 120.384 178.705 120.307L177.614 120.051C177.015 119.909 176.574 119.689 176.293 119.391C176.015 119.089 175.875 118.713 175.875 118.261C175.875 117.892 175.979 117.565 176.186 117.281C176.397 116.997 176.682 116.774 177.043 116.612C177.407 116.45 177.819 116.369 178.279 116.369C178.926 116.369 179.435 116.511 179.804 116.795C180.176 117.08 180.441 117.455 180.597 117.92ZM184.902 123.136C184.272 123.136 183.728 122.997 183.27 122.719C182.816 122.437 182.465 122.045 182.218 121.543C181.973 121.037 181.851 120.449 181.851 119.778C181.851 119.108 181.973 118.517 182.218 118.006C182.465 117.491 182.809 117.091 183.249 116.804C183.692 116.514 184.209 116.369 184.8 116.369C185.141 116.369 185.478 116.426 185.81 116.54C186.142 116.653 186.445 116.838 186.718 117.094C186.991 117.347 187.208 117.682 187.37 118.099C187.532 118.517 187.613 119.031 187.613 119.642V120.068H182.567V119.199H186.59C186.59 118.83 186.516 118.5 186.368 118.21C186.223 117.92 186.016 117.692 185.746 117.524C185.479 117.357 185.164 117.273 184.8 117.273C184.4 117.273 184.053 117.372 183.76 117.571C183.471 117.767 183.248 118.023 183.091 118.338C182.935 118.653 182.857 118.991 182.857 119.352V119.932C182.857 120.426 182.942 120.845 183.113 121.189C183.286 121.53 183.526 121.79 183.833 121.969C184.14 122.145 184.496 122.233 184.902 122.233C185.167 122.233 185.405 122.196 185.618 122.122C185.834 122.045 186.02 121.932 186.177 121.781C186.333 121.628 186.454 121.437 186.539 121.21L187.51 121.483C187.408 121.812 187.236 122.102 186.995 122.352C186.753 122.599 186.455 122.793 186.1 122.932C185.745 123.068 185.346 123.136 184.902 123.136Z" fill="#2E2E2E"/>
<path d="M153.046 134.818V145H151.202V136.613H151.142L148.761 138.134V136.444L151.291 134.818H153.046ZM160.291 145.139C159.628 145.139 159.035 145.015 158.511 144.766C157.988 144.514 157.572 144.17 157.263 143.732C156.959 143.295 156.796 142.794 156.776 142.231H158.566C158.599 142.648 158.78 142.99 159.108 143.255C159.436 143.517 159.83 143.648 160.291 143.648C160.652 143.648 160.974 143.565 161.256 143.399C161.537 143.233 161.759 143.003 161.922 142.708C162.084 142.413 162.164 142.077 162.16 141.699C162.164 141.314 162.083 140.973 161.917 140.675C161.751 140.376 161.524 140.143 161.236 139.974C160.947 139.801 160.616 139.715 160.241 139.715C159.937 139.712 159.637 139.768 159.342 139.884C159.047 140 158.813 140.153 158.641 140.342L156.975 140.068L157.507 134.818H163.413V136.359H159.033L158.74 139.059H158.8C158.989 138.837 159.255 138.653 159.6 138.507C159.945 138.358 160.323 138.283 160.734 138.283C161.35 138.283 161.9 138.429 162.384 138.721C162.868 139.009 163.249 139.407 163.528 139.914C163.806 140.421 163.945 141.001 163.945 141.654C163.945 142.327 163.79 142.927 163.478 143.454C163.17 143.978 162.741 144.39 162.19 144.692C161.643 144.99 161.01 145.139 160.291 145.139ZM170.494 145.194C169.676 145.194 168.973 144.987 168.386 144.572C167.803 144.155 167.354 143.553 167.039 142.768C166.727 141.979 166.572 141.029 166.572 139.919C166.575 138.809 166.732 137.864 167.044 137.085C167.359 136.303 167.808 135.706 168.391 135.295C168.978 134.884 169.679 134.679 170.494 134.679C171.31 134.679 172.011 134.884 172.597 135.295C173.184 135.706 173.633 136.303 173.945 137.085C174.259 137.867 174.417 138.812 174.417 139.919C174.417 141.033 174.259 141.984 173.945 142.773C173.633 143.558 173.184 144.158 172.597 144.572C172.014 144.987 171.313 145.194 170.494 145.194ZM170.494 143.638C171.131 143.638 171.633 143.325 172.001 142.698C172.372 142.068 172.557 141.142 172.557 139.919C172.557 139.11 172.473 138.431 172.304 137.881C172.135 137.33 171.896 136.916 171.588 136.638C171.28 136.356 170.915 136.215 170.494 136.215C169.861 136.215 169.361 136.53 168.993 137.16C168.625 137.786 168.439 138.706 168.436 139.919C168.433 140.731 168.514 141.414 168.68 141.967C168.849 142.521 169.087 142.938 169.396 143.22C169.704 143.499 170.07 143.638 170.494 143.638ZM177.921 145.109C177.619 145.109 177.361 145.003 177.145 144.791C176.93 144.579 176.824 144.321 176.827 144.016C176.824 143.717 176.93 143.462 177.145 143.25C177.361 143.038 177.619 142.932 177.921 142.932C178.212 142.932 178.466 143.038 178.681 143.25C178.9 143.462 179.011 143.717 179.014 144.016C179.011 144.218 178.958 144.402 178.855 144.567C178.756 144.733 178.623 144.866 178.458 144.965C178.295 145.061 178.116 145.109 177.921 145.109ZM185.34 145.194C184.521 145.194 183.818 144.987 183.232 144.572C182.648 144.155 182.199 143.553 181.884 142.768C181.573 141.979 181.417 141.029 181.417 139.919C181.42 138.809 181.578 137.864 181.889 137.085C182.204 136.303 182.653 135.706 183.237 135.295C183.823 134.884 184.524 134.679 185.34 134.679C186.155 134.679 186.856 134.884 187.443 135.295C188.029 135.706 188.478 136.303 188.79 137.085C189.105 137.867 189.262 138.812 189.262 139.919C189.262 141.033 189.105 141.984 188.79 142.773C188.478 143.558 188.029 144.158 187.443 144.572C186.859 144.987 186.158 145.194 185.34 145.194ZM185.34 143.638C185.976 143.638 186.478 143.325 186.846 142.698C187.217 142.068 187.403 141.142 187.403 139.919C187.403 139.11 187.318 138.431 187.149 137.881C186.98 137.33 186.742 136.916 186.433 136.638C186.125 136.356 185.761 136.215 185.34 136.215C184.707 136.215 184.206 136.53 183.838 137.16C183.47 137.786 183.285 138.706 183.281 139.919C183.278 140.731 183.359 141.414 183.525 141.967C183.694 142.521 183.933 142.938 184.241 143.22C184.549 143.499 184.915 143.638 185.34 143.638ZM195.798 145.194C194.979 145.194 194.276 144.987 193.69 144.572C193.106 144.155 192.657 143.553 192.342 142.768C192.031 141.979 191.875 141.029 191.875 139.919C191.878 138.809 192.036 137.864 192.347 137.085C192.662 136.303 193.111 135.706 193.695 135.295C194.281 134.884 194.982 134.679 195.798 134.679C196.613 134.679 197.314 134.884 197.901 135.295C198.487 135.706 198.936 136.303 199.248 137.085C199.563 137.867 199.72 138.812 199.72 139.919C199.72 141.033 199.563 141.984 199.248 142.773C198.936 143.558 198.487 144.158 197.901 144.572C197.317 144.987 196.616 145.194 195.798 145.194ZM195.798 143.638C196.434 143.638 196.936 143.325 197.304 142.698C197.675 142.068 197.861 141.142 197.861 139.919C197.861 139.11 197.776 138.431 197.607 137.881C197.438 137.33 197.2 136.916 196.891 136.638C196.583 136.356 196.219 136.215 195.798 136.215C195.165 136.215 194.664 136.53 194.296 137.16C193.928 137.786 193.743 138.706 193.739 139.919C193.736 140.731 193.817 141.414 193.983 141.967C194.152 142.521 194.391 142.938 194.699 143.22C195.007 143.499 195.373 143.638 195.798 143.638ZM212.717 137.617C212.671 137.183 212.476 136.845 212.131 136.603C211.789 136.361 211.345 136.24 210.798 136.24C210.414 136.24 210.084 136.298 209.809 136.414C209.534 136.53 209.324 136.687 209.178 136.886C209.032 137.085 208.957 137.312 208.954 137.567C208.954 137.78 209.002 137.964 209.098 138.119C209.198 138.275 209.332 138.408 209.501 138.517C209.67 138.623 209.857 138.713 210.063 138.786C210.268 138.858 210.475 138.92 210.684 138.969L211.639 139.208C212.023 139.298 212.393 139.419 212.747 139.571C213.105 139.723 213.425 139.916 213.707 140.148C213.992 140.38 214.217 140.66 214.383 140.988C214.549 141.316 214.632 141.701 214.632 142.141C214.632 142.738 214.479 143.263 214.174 143.717C213.869 144.168 213.428 144.521 212.852 144.776C212.278 145.028 211.584 145.154 210.769 145.154C209.976 145.154 209.289 145.031 208.705 144.786C208.125 144.541 207.671 144.183 207.343 143.712C207.018 143.242 206.843 142.668 206.816 141.992H208.631C208.657 142.347 208.767 142.642 208.959 142.877C209.151 143.112 209.401 143.288 209.71 143.404C210.021 143.52 210.369 143.578 210.754 143.578C211.155 143.578 211.506 143.518 211.808 143.399C212.113 143.277 212.351 143.107 212.524 142.892C212.696 142.673 212.784 142.418 212.787 142.126C212.784 141.861 212.706 141.643 212.553 141.47C212.401 141.295 212.187 141.149 211.912 141.033C211.64 140.913 211.322 140.807 210.958 140.714L209.799 140.416C208.961 140.201 208.298 139.874 207.811 139.437C207.327 138.996 207.085 138.411 207.085 137.682C207.085 137.082 207.247 136.557 207.572 136.106C207.9 135.655 208.346 135.305 208.909 135.057C209.473 134.805 210.111 134.679 210.823 134.679C211.546 134.679 212.179 134.805 212.722 135.057C213.269 135.305 213.699 135.652 214.01 136.096C214.322 136.537 214.482 137.044 214.492 137.617H212.717ZM221.855 145.139C220.921 145.139 220.099 144.929 219.39 144.508C218.684 144.084 218.132 143.482 217.734 142.703C217.336 141.921 217.137 140.993 217.137 139.919C217.137 139.097 217.257 138.363 217.495 137.717C217.734 137.07 218.067 136.522 218.495 136.071C218.922 135.617 219.421 135.272 219.991 135.037C220.561 134.798 221.179 134.679 221.845 134.679C222.409 134.679 222.936 134.762 223.426 134.928C223.92 135.09 224.361 135.322 224.749 135.624C225.137 135.925 225.455 136.283 225.703 136.697C225.955 137.112 226.119 137.569 226.196 138.07H224.316C224.24 137.801 224.127 137.559 223.978 137.344C223.829 137.128 223.649 136.946 223.436 136.797C223.224 136.644 222.986 136.53 222.72 136.454C222.459 136.374 222.175 136.335 221.87 136.335C221.32 136.335 220.828 136.472 220.394 136.747C219.96 137.022 219.617 137.427 219.365 137.96C219.116 138.491 218.992 139.137 218.992 139.899C218.992 140.668 219.113 141.319 219.355 141.853C219.6 142.387 219.938 142.793 220.369 143.071C220.8 143.346 221.299 143.484 221.865 143.484C222.396 143.484 222.855 143.379 223.242 143.17C223.63 142.962 223.929 142.672 224.137 142.3C224.349 141.929 224.456 141.502 224.456 141.018L224.784 141.112H222.049V139.67H226.27V145H224.948L224.814 143.807H224.759C224.401 144.234 223.988 144.564 223.521 144.796C223.054 145.025 222.498 145.139 221.855 145.139ZM232.63 145H229.18V134.818H232.7C233.711 134.818 234.579 135.022 235.305 135.43C236.034 135.834 236.594 136.416 236.985 137.175C237.376 137.934 237.572 138.842 237.572 139.899C237.572 140.96 237.375 141.871 236.98 142.634C236.589 143.396 236.024 143.981 235.285 144.388C234.549 144.796 233.664 145 232.63 145ZM231.024 143.404H232.541C233.25 143.404 233.842 143.275 234.316 143.016C234.79 142.754 235.146 142.365 235.385 141.848C235.623 141.328 235.742 140.678 235.742 139.899C235.742 139.12 235.623 138.474 235.385 137.96C235.146 137.443 234.793 137.057 234.326 136.802C233.862 136.543 233.285 136.414 232.595 136.414H231.024V143.404Z" fill="#2E2E2E"/>
<rect x="138.375" y="97.375" width="194.25" height="67.25" rx="2.625" stroke="black" stroke-width="0.75"/>
<g opacity="0.5">
<rect x="138" y="301" width="195" height="32" rx="3" fill="#445FCD"/>
<path d="M194.373 314.565C194.328 314.162 194.14 313.849 193.811 313.628C193.481 313.403 193.066 313.291 192.566 313.291C192.208 313.291 191.899 313.348 191.637 313.462C191.376 313.572 191.173 313.726 191.028 313.922C190.886 314.115 190.815 314.335 190.815 314.582C190.815 314.79 190.863 314.969 190.96 315.119C191.059 315.27 191.188 315.396 191.347 315.499C191.509 315.598 191.683 315.682 191.867 315.75C192.052 315.815 192.23 315.869 192.4 315.912L193.252 316.134C193.531 316.202 193.816 316.294 194.109 316.411C194.401 316.527 194.673 316.68 194.923 316.871C195.173 317.061 195.374 317.297 195.528 317.578C195.684 317.859 195.762 318.196 195.762 318.588C195.762 319.082 195.634 319.521 195.379 319.905C195.126 320.288 194.758 320.591 194.275 320.812C193.795 321.034 193.214 321.145 192.532 321.145C191.879 321.145 191.313 321.041 190.836 320.834C190.359 320.626 189.985 320.332 189.715 319.952C189.445 319.568 189.296 319.114 189.268 318.588H190.589C190.615 318.903 190.717 319.166 190.896 319.376C191.078 319.584 191.309 319.739 191.59 319.841C191.874 319.94 192.186 319.99 192.524 319.99C192.896 319.99 193.227 319.932 193.517 319.815C193.809 319.696 194.039 319.531 194.207 319.321C194.374 319.108 194.458 318.859 194.458 318.575C194.458 318.317 194.384 318.105 194.237 317.94C194.092 317.776 193.894 317.639 193.644 317.531C193.397 317.423 193.117 317.328 192.805 317.246L191.774 316.964C191.075 316.774 190.521 316.494 190.112 316.125C189.705 315.756 189.502 315.267 189.502 314.659C189.502 314.156 189.639 313.717 189.911 313.342C190.184 312.967 190.553 312.676 191.019 312.469C191.485 312.259 192.011 312.153 192.596 312.153C193.187 312.153 193.708 312.257 194.16 312.464C194.615 312.672 194.972 312.957 195.234 313.321C195.495 313.682 195.632 314.097 195.643 314.565H194.373ZM201.38 318.286V314.455H202.658V321H201.405V319.866H201.337C201.187 320.216 200.945 320.507 200.613 320.74C200.283 320.97 199.873 321.085 199.381 321.085C198.961 321.085 198.589 320.993 198.265 320.808C197.944 320.621 197.691 320.344 197.506 319.977C197.324 319.611 197.233 319.158 197.233 318.618V314.455H198.508V318.464C198.508 318.911 198.631 319.266 198.878 319.53C199.126 319.794 199.447 319.926 199.841 319.926C200.08 319.926 200.317 319.866 200.553 319.747C200.792 319.628 200.989 319.447 201.145 319.206C201.305 318.964 201.383 318.658 201.38 318.286ZM204.472 321V312.273H205.747V315.516H205.823C205.897 315.379 206.004 315.222 206.143 315.043C206.282 314.864 206.475 314.707 206.722 314.574C206.97 314.438 207.296 314.369 207.703 314.369C208.231 314.369 208.703 314.503 209.117 314.77C209.532 315.037 209.857 315.422 210.093 315.925C210.332 316.428 210.451 317.033 210.451 317.74C210.451 318.447 210.333 319.054 210.097 319.56C209.862 320.062 209.538 320.45 209.126 320.723C208.714 320.993 208.244 321.128 207.715 321.128C207.318 321.128 206.992 321.061 206.74 320.928C206.49 320.794 206.294 320.638 206.151 320.459C206.009 320.28 205.9 320.121 205.823 319.982H205.717V321H204.472ZM205.721 317.727C205.721 318.187 205.788 318.591 205.921 318.938C206.055 319.284 206.248 319.555 206.501 319.751C206.754 319.945 207.063 320.041 207.43 320.041C207.811 320.041 208.129 319.94 208.384 319.739C208.64 319.534 208.833 319.257 208.964 318.908C209.097 318.558 209.164 318.165 209.164 317.727C209.164 317.295 209.099 316.908 208.968 316.564C208.84 316.22 208.647 315.949 208.389 315.75C208.133 315.551 207.813 315.452 207.43 315.452C207.061 315.452 206.748 315.547 206.492 315.737C206.24 315.928 206.048 316.193 205.917 316.534C205.786 316.875 205.721 317.273 205.721 317.727ZM211.882 321V314.455H213.105V315.52H213.186C213.322 315.159 213.545 314.878 213.855 314.676C214.165 314.472 214.535 314.369 214.967 314.369C215.405 314.369 215.771 314.472 216.067 314.676C216.365 314.881 216.585 315.162 216.727 315.52H216.795C216.952 315.17 217.2 314.892 217.541 314.685C217.882 314.474 218.288 314.369 218.76 314.369C219.354 314.369 219.838 314.555 220.213 314.928C220.591 315.3 220.78 315.861 220.78 316.611V321H219.506V316.73C219.506 316.287 219.385 315.966 219.143 315.767C218.902 315.568 218.613 315.469 218.278 315.469C217.863 315.469 217.541 315.597 217.311 315.852C217.081 316.105 216.966 316.43 216.966 316.828V321H215.696V316.649C215.696 316.294 215.585 316.009 215.363 315.793C215.142 315.577 214.854 315.469 214.498 315.469C214.257 315.469 214.034 315.533 213.829 315.661C213.628 315.786 213.464 315.96 213.339 316.185C213.217 316.409 213.156 316.669 213.156 316.964V321H211.882ZM222.487 321V314.455H223.762V321H222.487ZM223.131 313.445C222.909 313.445 222.719 313.371 222.56 313.223C222.404 313.072 222.325 312.893 222.325 312.686C222.325 312.476 222.404 312.297 222.56 312.149C222.719 311.999 222.909 311.923 223.131 311.923C223.352 311.923 223.541 311.999 223.698 312.149C223.857 312.297 223.936 312.476 223.936 312.686C223.936 312.893 223.857 313.072 223.698 313.223C223.541 313.371 223.352 313.445 223.131 313.445ZM228.531 314.455V315.477H224.956V314.455H228.531ZM225.915 312.886H227.189V319.078C227.189 319.325 227.226 319.511 227.3 319.636C227.373 319.759 227.469 319.842 227.585 319.888C227.704 319.93 227.834 319.952 227.973 319.952C228.075 319.952 228.165 319.945 228.241 319.93C228.318 319.916 228.378 319.905 228.42 319.896L228.65 320.949C228.577 320.977 228.471 321.006 228.335 321.034C228.199 321.065 228.028 321.082 227.824 321.085C227.488 321.091 227.176 321.031 226.886 320.906C226.596 320.781 226.362 320.588 226.183 320.327C226.004 320.065 225.915 319.737 225.915 319.342V312.886ZM233.116 323.455V314.455H234.361V315.516H234.467C234.541 315.379 234.648 315.222 234.787 315.043C234.926 314.864 235.119 314.707 235.366 314.574C235.613 314.438 235.94 314.369 236.346 314.369C236.875 314.369 237.346 314.503 237.761 314.77C238.176 315.037 238.501 315.422 238.737 315.925C238.976 316.428 239.095 317.033 239.095 317.74C239.095 318.447 238.977 319.054 238.741 319.56C238.506 320.062 238.182 320.45 237.77 320.723C237.358 320.993 236.888 321.128 236.359 321.128C235.961 321.128 235.636 321.061 235.383 320.928C235.133 320.794 234.937 320.638 234.795 320.459C234.653 320.28 234.544 320.121 234.467 319.982H234.39V323.455H233.116ZM234.365 317.727C234.365 318.187 234.432 318.591 234.565 318.938C234.699 319.284 234.892 319.555 235.145 319.751C235.398 319.945 235.707 320.041 236.074 320.041C236.454 320.041 236.773 319.94 237.028 319.739C237.284 319.534 237.477 319.257 237.608 318.908C237.741 318.558 237.808 318.165 237.808 317.727C237.808 317.295 237.743 316.908 237.612 316.564C237.484 316.22 237.291 315.949 237.032 315.75C236.777 315.551 236.457 315.452 236.074 315.452C235.704 315.452 235.392 315.547 235.136 315.737C234.883 315.928 234.692 316.193 234.561 316.534C234.43 316.875 234.365 317.273 234.365 317.727ZM242.427 321.145C242.013 321.145 241.638 321.068 241.302 320.915C240.967 320.759 240.702 320.533 240.506 320.237C240.312 319.942 240.216 319.58 240.216 319.151C240.216 318.781 240.287 318.477 240.429 318.239C240.571 318 240.763 317.811 241.004 317.672C241.246 317.533 241.515 317.428 241.814 317.357C242.112 317.286 242.416 317.232 242.726 317.195C243.118 317.149 243.436 317.112 243.68 317.084C243.925 317.053 244.102 317.003 244.213 316.935C244.324 316.866 244.379 316.756 244.379 316.602V316.572C244.379 316.2 244.274 315.912 244.064 315.707C243.856 315.503 243.547 315.401 243.135 315.401C242.706 315.401 242.368 315.496 242.121 315.686C241.876 315.874 241.707 316.082 241.613 316.312L240.416 316.04C240.558 315.642 240.765 315.321 241.038 315.077C241.314 314.83 241.631 314.651 241.988 314.54C242.346 314.426 242.723 314.369 243.118 314.369C243.379 314.369 243.656 314.401 243.949 314.463C244.244 314.523 244.52 314.634 244.775 314.795C245.034 314.957 245.246 315.189 245.41 315.49C245.575 315.788 245.657 316.176 245.657 316.653V321H244.413V320.105H244.362C244.28 320.27 244.156 320.432 243.991 320.591C243.827 320.75 243.615 320.882 243.356 320.987C243.098 321.092 242.788 321.145 242.427 321.145ZM242.704 320.122C243.057 320.122 243.358 320.053 243.608 319.913C243.861 319.774 244.052 319.592 244.183 319.368C244.317 319.141 244.383 318.898 244.383 318.639V317.795C244.338 317.841 244.25 317.884 244.119 317.923C243.991 317.96 243.845 317.993 243.68 318.021C243.515 318.047 243.355 318.071 243.199 318.094C243.042 318.114 242.912 318.131 242.807 318.145C242.559 318.176 242.334 318.229 242.129 318.303C241.927 318.376 241.765 318.483 241.643 318.622C241.524 318.759 241.464 318.94 241.464 319.168C241.464 319.483 241.581 319.722 241.814 319.884C242.047 320.043 242.344 320.122 242.704 320.122ZM247.926 323.455C247.735 323.455 247.562 323.439 247.406 323.408C247.249 323.379 247.133 323.348 247.056 323.314L247.363 322.27C247.596 322.332 247.803 322.359 247.985 322.351C248.167 322.342 248.328 322.274 248.467 322.146C248.609 322.018 248.734 321.81 248.842 321.52L248.999 321.085L246.605 314.455H247.968L249.626 319.534H249.694L251.352 314.455H252.72L250.022 321.874C249.897 322.214 249.738 322.503 249.545 322.739C249.352 322.977 249.122 323.156 248.855 323.276C248.588 323.395 248.278 323.455 247.926 323.455ZM253.917 321V314.455H255.14V315.52H255.221C255.357 315.159 255.58 314.878 255.89 314.676C256.2 314.472 256.57 314.369 257.002 314.369C257.44 314.369 257.806 314.472 258.102 314.676C258.4 314.881 258.62 315.162 258.762 315.52H258.83C258.987 315.17 259.235 314.892 259.576 314.685C259.917 314.474 260.323 314.369 260.795 314.369C261.389 314.369 261.873 314.555 262.248 314.928C262.626 315.3 262.815 315.861 262.815 316.611V321H261.541V316.73C261.541 316.287 261.42 315.966 261.178 315.767C260.937 315.568 260.649 315.469 260.313 315.469C259.899 315.469 259.576 315.597 259.346 315.852C259.116 316.105 259.001 316.43 259.001 316.828V321H257.731V316.649C257.731 316.294 257.62 316.009 257.399 315.793C257.177 315.577 256.889 315.469 256.534 315.469C256.292 315.469 256.069 315.533 255.865 315.661C255.663 315.786 255.499 315.96 255.374 316.185C255.252 316.409 255.191 316.669 255.191 316.964V321H253.917ZM267.344 321.132C266.699 321.132 266.143 320.994 265.677 320.719C265.214 320.44 264.856 320.05 264.604 319.547C264.354 319.041 264.229 318.449 264.229 317.77C264.229 317.099 264.354 316.509 264.604 315.997C264.856 315.486 265.209 315.087 265.66 314.8C266.115 314.513 266.646 314.369 267.254 314.369C267.623 314.369 267.981 314.43 268.328 314.553C268.675 314.675 268.986 314.866 269.261 315.128C269.537 315.389 269.754 315.729 269.913 316.146C270.072 316.561 270.152 317.065 270.152 317.659V318.111H264.949V317.156H268.903C268.903 316.821 268.835 316.524 268.699 316.266C268.562 316.004 268.371 315.798 268.123 315.648C267.879 315.497 267.592 315.422 267.263 315.422C266.905 315.422 266.592 315.51 266.325 315.686C266.061 315.859 265.856 316.087 265.711 316.368C265.569 316.646 265.498 316.949 265.498 317.276V318.021C265.498 318.459 265.575 318.831 265.729 319.138C265.885 319.445 266.102 319.679 266.381 319.841C266.659 320 266.984 320.08 267.356 320.08C267.598 320.08 267.818 320.045 268.017 319.977C268.216 319.906 268.388 319.801 268.532 319.662C268.677 319.523 268.788 319.351 268.865 319.146L270.071 319.364C269.974 319.719 269.801 320.03 269.551 320.297C269.304 320.561 268.993 320.767 268.618 320.915C268.246 321.06 267.821 321.132 267.344 321.132ZM272.84 317.114V321H271.566V314.455H272.789V315.52H272.869C273.02 315.173 273.256 314.895 273.577 314.685C273.901 314.474 274.308 314.369 274.8 314.369C275.246 314.369 275.637 314.463 275.972 314.651C276.307 314.835 276.567 315.111 276.752 315.477C276.936 315.844 277.029 316.297 277.029 316.837V321H275.754V316.99C275.754 316.516 275.631 316.145 275.384 315.878C275.137 315.608 274.797 315.473 274.365 315.473C274.07 315.473 273.807 315.537 273.577 315.665C273.35 315.793 273.169 315.98 273.036 316.227C272.905 316.472 272.84 316.767 272.84 317.114ZM281.793 314.455V315.477H278.218V314.455H281.793ZM279.176 312.886H280.45V319.078C280.45 319.325 280.487 319.511 280.561 319.636C280.635 319.759 280.73 319.842 280.847 319.888C280.966 319.93 281.095 319.952 281.235 319.952C281.337 319.952 281.426 319.945 281.503 319.93C281.58 319.916 281.639 319.905 281.682 319.896L281.912 320.949C281.838 320.977 281.733 321.006 281.597 321.034C281.46 321.065 281.29 321.082 281.085 321.085C280.75 321.091 280.438 321.031 280.148 320.906C279.858 320.781 279.624 320.588 279.445 320.327C279.266 320.065 279.176 319.737 279.176 319.342V312.886Z" fill="#2D4193"/>
</g>
<rect x="281" y="377.75" width="139.264" height="89.254" rx="7.23" fill="#697FD7"/>
<path d="M281 394.881H420.264V412.687H281L281 394.881Z" fill="#272D41"/>
<rect x="281" y="377.75" width="139.264" height="89.254" rx="7.23" stroke="black" stroke-width="0.75"/>
<rect x="242" y="350" width="139.264" height="89.2539" rx="7.23" fill="#F8F9FD"/>
<rect x="242" y="350" width="139.264" height="89.2539" rx="7.23" stroke="black" stroke-width="0.75"/>
<path d="M338.361 399.195C334.383 394.897 328.179 393.474 322.726 395.61C317.274 397.745 313.686 403.003 313.686 408.859C313.686 414.716 317.274 419.974 322.726 422.109C328.179 424.245 334.383 422.822 338.361 418.524C333.308 413.072 333.308 404.647 338.361 399.195V399.195Z" fill="#E2B73E"/>
<path d="M348.801 394.629C344.836 394.625 341.05 396.281 338.36 399.194C343.413 404.647 343.413 413.071 338.36 418.524C342.781 423.301 349.881 424.47 355.6 421.362C361.319 418.253 364.2 411.66 362.596 405.351C360.991 399.043 355.31 394.627 348.801 394.629V394.629Z" fill="#009762"/>
<ellipse cx="338.36" cy="408.86" rx="3.78943" ry="9.66472" fill="black"/>
<g filter="url(#filter0_d_18197_190359)">
<rect x="1" y="201" width="314" height="33" rx="3.945" fill="#F8F9FD"/>
<rect x="1" y="201" width="314" height="33" rx="3.945" stroke="black" stroke-width="0.75"/>
</g>
<path d="M9 217.75H15.75V224.5" stroke="black" stroke-width="3" stroke-linejoin="bevel"/>
<path d="M22.374 217.75L15.624 217.75L15.624 211" stroke="black" stroke-width="3" stroke-linejoin="bevel"/>
<path d="M20.8804 222.492L16.0851 218.103L20.5784 213.194" stroke="black" stroke-width="3" stroke-linejoin="bevel"/>
<path d="M10.4932 222.549L15.2885 218.16L10.7952 213.251" stroke="black" stroke-width="3" stroke-linejoin="bevel"/>
<path d="M25.374 217.75H32.124V224.5" stroke="black" stroke-width="3" stroke-linejoin="bevel"/>
<path d="M38.748 217.75L31.998 217.75L31.998 211" stroke="black" stroke-width="3" stroke-linejoin="bevel"/>
<path d="M37.2544 222.492L32.4591 218.103L36.9524 213.194" stroke="black" stroke-width="3" stroke-linejoin="bevel"/>
<path d="M26.8672 222.549L31.6625 218.16L27.1692 213.251" stroke="black" stroke-width="3" stroke-linejoin="bevel"/>
<path d="M41.7476 217.75H48.4976V224.5" stroke="black" stroke-width="3" stroke-linejoin="bevel"/>
<path d="M55.1216 217.75L48.3716 217.75L48.3716 211" stroke="black" stroke-width="3" stroke-linejoin="bevel"/>
<path d="M53.6279 222.492L48.8326 218.103L53.3259 213.194" stroke="black" stroke-width="3" stroke-linejoin="bevel"/>
<path d="M43.2407 222.549L48.036 218.16L43.5427 213.251" stroke="black" stroke-width="3" stroke-linejoin="bevel"/>
<path d="M58.1216 217.75H64.8716V224.5" stroke="black" stroke-width="3" stroke-linejoin="bevel"/>
<path d="M71.4956 217.75L64.7456 217.75L64.7456 211" stroke="black" stroke-width="3" stroke-linejoin="bevel"/>
<path d="M70.002 222.492L65.2067 218.103L69.6999 213.194" stroke="black" stroke-width="3" stroke-linejoin="bevel"/>
<path d="M59.6147 222.549L64.41 218.16L59.9168 213.251" stroke="black" stroke-width="3" stroke-linejoin="bevel"/>
<path d="M89.4956 217.75H96.2456V224.5" stroke="black" stroke-width="3" stroke-linejoin="bevel"/>
<path d="M102.87 217.75L96.1196 217.75L96.1196 211" stroke="black" stroke-width="3" stroke-linejoin="bevel"/>
<path d="M101.376 222.492L96.5807 218.103L101.074 213.194" stroke="black" stroke-width="3" stroke-linejoin="bevel"/>
<path d="M90.9888 222.549L95.7841 218.16L91.2908 213.251" stroke="black" stroke-width="3" stroke-linejoin="bevel"/>
<path d="M105.87 217.75H112.62V224.5" stroke="black" stroke-width="3" stroke-linejoin="bevel"/>
<path d="M119.244 217.75L112.494 217.75L112.494 211" stroke="black" stroke-width="3" stroke-linejoin="bevel"/>
<path d="M117.75 222.492L112.955 218.103L117.448 213.194" stroke="black" stroke-width="3" stroke-linejoin="bevel"/>
<path d="M107.363 222.549L112.158 218.16L107.665 213.251" stroke="black" stroke-width="3" stroke-linejoin="bevel"/>
<path d="M122.243 217.75H128.993V224.5" stroke="black" stroke-width="3" stroke-linejoin="bevel"/>
<path d="M135.617 217.75L128.867 217.75L128.867 211" stroke="black" stroke-width="3" stroke-linejoin="bevel"/>
<path d="M134.124 222.492L129.328 218.103L133.822 213.194" stroke="black" stroke-width="3" stroke-linejoin="bevel"/>
<path d="M123.736 222.549L128.532 218.16L124.038 213.251" stroke="black" stroke-width="3" stroke-linejoin="bevel"/>
<path d="M138.617 217.75H145.367V224.5" stroke="black" stroke-width="3" stroke-linejoin="bevel"/>
<path d="M151.991 217.75L145.241 217.75L145.241 211" stroke="black" stroke-width="3" stroke-linejoin="bevel"/>
<path d="M150.498 222.492L145.702 218.103L150.196 213.194" stroke="black" stroke-width="3" stroke-linejoin="bevel"/>
<path d="M140.11 222.549L144.906 218.16L140.412 213.251" stroke="black" stroke-width="3" stroke-linejoin="bevel"/>
<path d="M169.991 217.75H176.741V224.5" stroke="black" stroke-width="3" stroke-linejoin="bevel"/>
<path d="M183.365 217.75L176.615 217.75L176.615 211" stroke="black" stroke-width="3" stroke-linejoin="bevel"/>
<path d="M181.872 222.492L177.076 218.103L181.57 213.194" stroke="black" stroke-width="3" stroke-linejoin="bevel"/>
<path d="M171.484 222.549L176.28 218.16L171.786 213.251" stroke="black" stroke-width="3" stroke-linejoin="bevel"/>
<path d="M186.365 217.75H193.115V224.5" stroke="black" stroke-width="3" stroke-linejoin="bevel"/>
<path d="M199.739 217.75L192.989 217.75L192.989 211" stroke="black" stroke-width="3" stroke-linejoin="bevel"/>
<path d="M198.245 222.492L193.45 218.103L197.943 213.194" stroke="black" stroke-width="3" stroke-linejoin="bevel"/>
<path d="M187.858 222.549L192.653 218.16L188.16 213.251" stroke="black" stroke-width="3" stroke-linejoin="bevel"/>
<path d="M202.739 217.75H209.489V224.5" stroke="black" stroke-width="3" stroke-linejoin="bevel"/>
<path d="M216.113 217.75L209.363 217.75L209.363 211" stroke="black" stroke-width="3" stroke-linejoin="bevel"/>
<path d="M214.619 222.492L209.824 218.103L214.317 213.194" stroke="black" stroke-width="3" stroke-linejoin="bevel"/>
<path d="M204.232 222.549L209.027 218.16L204.534 213.251" stroke="black" stroke-width="3" stroke-linejoin="bevel"/>
<path d="M219.113 217.75H225.863V224.5" stroke="black" stroke-width="3" stroke-linejoin="bevel"/>
<path d="M232.487 217.75L225.737 217.75L225.737 211" stroke="black" stroke-width="3" stroke-linejoin="bevel"/>
<path d="M230.993 222.492L226.198 218.103L230.691 213.194" stroke="black" stroke-width="3" stroke-linejoin="bevel"/>
<path d="M220.606 222.549L225.401 218.16L220.908 213.251" stroke="black" stroke-width="3" stroke-linejoin="bevel"/>
<path d="M254.829 219.25V226.593H253.329" stroke="black" stroke-width="3" stroke-linejoin="bevel"/>
<path d="M254.829 211V219.472H247.486" stroke="black" stroke-width="3" stroke-linejoin="bevel"/>
<path d="M247.486 211V219.472H254.829" stroke="black" stroke-width="3" stroke-linejoin="bevel"/>
<path d="M260.829 211.451H268.172V218.797H260.829" stroke="black" stroke-width="3" stroke-linejoin="bevel"/>
<path d="M268.172 226.14H260.829V218.797H268.172" stroke="black" stroke-width="3" stroke-linejoin="bevel"/>
<path d="M281.515 219.25V226.593H280.014" stroke="black" stroke-width="3" stroke-linejoin="bevel"/>
<path d="M281.515 211V219.472H274.172" stroke="black" stroke-width="3" stroke-linejoin="bevel"/>
<path d="M274.172 211V219.472H281.515" stroke="black" stroke-width="3" stroke-linejoin="bevel"/>
<path d="M287.515 211.451H294.857V218.797H287.515" stroke="black" stroke-width="3" stroke-linejoin="bevel"/>
<path d="M294.857 226.14H287.515V218.797H294.857" stroke="black" stroke-width="3" stroke-linejoin="bevel"/>
<rect opacity="0.5" x="138" y="250" width="90" height="32.25" rx="3.945" fill="#445FCD"/>
<g opacity="0.5">
<rect x="243" y="250" width="90" height="32.25" rx="3.945" fill="#445FCD"/>
</g>
<path d="M150.668 271.194C149.85 271.194 149.147 270.987 148.56 270.572C147.977 270.155 147.528 269.553 147.213 268.768C146.902 267.979 146.746 267.029 146.746 265.919C146.749 264.809 146.906 263.864 147.218 263.085C147.533 262.303 147.982 261.706 148.565 261.295C149.152 260.884 149.853 260.679 150.668 260.679C151.484 260.679 152.185 260.884 152.771 261.295C153.358 261.706 153.807 262.303 154.119 263.085C154.433 263.867 154.591 264.812 154.591 265.919C154.591 267.033 154.433 267.984 154.119 268.773C153.807 269.558 153.358 270.158 152.771 270.572C152.188 270.987 151.487 271.194 150.668 271.194ZM150.668 269.638C151.305 269.638 151.807 269.325 152.175 268.698C152.546 268.068 152.732 267.142 152.732 265.919C152.732 265.11 152.647 264.431 152.478 263.881C152.309 263.33 152.07 262.916 151.762 262.638C151.454 262.356 151.089 262.215 150.668 262.215C150.035 262.215 149.535 262.53 149.167 263.16C148.799 263.786 148.613 264.706 148.61 265.919C148.607 266.731 148.688 267.414 148.854 267.967C149.023 268.521 149.261 268.938 149.57 269.22C149.878 269.499 150.244 269.638 150.668 269.638ZM160.902 271.139C160.24 271.139 159.646 271.015 159.123 270.766C158.599 270.514 158.183 270.17 157.875 269.732C157.57 269.295 157.407 268.794 157.388 268.231H159.177C159.21 268.648 159.391 268.99 159.719 269.255C160.047 269.517 160.442 269.648 160.902 269.648C161.264 269.648 161.585 269.565 161.867 269.399C162.149 269.233 162.371 269.003 162.533 268.708C162.696 268.413 162.775 268.077 162.772 267.699C162.775 267.314 162.694 266.973 162.528 266.675C162.362 266.376 162.135 266.143 161.847 265.974C161.559 265.801 161.227 265.715 160.853 265.715C160.548 265.712 160.248 265.768 159.953 265.884C159.658 266 159.424 266.153 159.252 266.342L157.586 266.068L158.118 260.818H164.025V262.359H159.645L159.351 265.059H159.411C159.6 264.837 159.867 264.653 160.211 264.507C160.556 264.358 160.934 264.283 161.345 264.283C161.961 264.283 162.512 264.429 162.996 264.721C163.479 265.009 163.861 265.407 164.139 265.914C164.417 266.421 164.557 267.001 164.557 267.654C164.557 268.327 164.401 268.927 164.089 269.454C163.781 269.978 163.352 270.39 162.802 270.692C162.255 270.99 161.622 271.139 160.902 271.139ZM171.935 271V269.668L175.47 266.202C175.808 265.861 176.089 265.558 176.315 265.293C176.54 265.027 176.709 264.771 176.822 264.522C176.935 264.273 176.991 264.008 176.991 263.727C176.991 263.405 176.918 263.13 176.772 262.901C176.626 262.669 176.426 262.49 176.171 262.364C175.915 262.238 175.625 262.175 175.301 262.175C174.966 262.175 174.672 262.245 174.421 262.384C174.169 262.52 173.973 262.714 173.834 262.966C173.698 263.218 173.63 263.518 173.63 263.866H171.875C171.875 263.219 172.023 262.658 172.318 262.18C172.613 261.703 173.019 261.334 173.536 261.072C174.056 260.81 174.653 260.679 175.325 260.679C176.008 260.679 176.608 260.807 177.125 261.062C177.642 261.317 178.043 261.667 178.328 262.111C178.617 262.555 178.761 263.062 178.761 263.632C178.761 264.013 178.688 264.388 178.542 264.756C178.396 265.124 178.139 265.531 177.771 265.979C177.407 266.426 176.895 266.968 176.235 267.604L174.48 269.389V269.459H178.915V271H171.935ZM185.404 271.139C184.688 271.139 184.052 271.017 183.495 270.771C182.942 270.526 182.504 270.185 182.183 269.747C181.861 269.31 181.69 268.804 181.671 268.231H183.54C183.556 268.506 183.648 268.746 183.813 268.952C183.979 269.154 184.199 269.311 184.474 269.424C184.75 269.537 185.058 269.593 185.399 269.593C185.764 269.593 186.087 269.53 186.369 269.404C186.65 269.275 186.871 269.096 187.03 268.867C187.189 268.638 187.267 268.375 187.264 268.077C187.267 267.768 187.187 267.497 187.025 267.261C186.863 267.026 186.627 266.842 186.319 266.71C186.014 266.577 185.646 266.511 185.215 266.511H184.315V265.089H185.215C185.57 265.089 185.88 265.027 186.145 264.905C186.413 264.782 186.624 264.61 186.776 264.388C186.929 264.162 187.003 263.902 187 263.607C187.003 263.319 186.939 263.069 186.806 262.857C186.677 262.641 186.493 262.474 186.254 262.354C186.019 262.235 185.742 262.175 185.424 262.175C185.113 262.175 184.824 262.232 184.559 262.344C184.294 262.457 184.08 262.618 183.918 262.827C183.755 263.032 183.669 263.277 183.659 263.562H181.884C181.898 262.992 182.062 262.492 182.376 262.061C182.695 261.627 183.119 261.289 183.649 261.047C184.18 260.802 184.774 260.679 185.434 260.679C186.113 260.679 186.703 260.807 187.204 261.062C187.708 261.314 188.097 261.653 188.372 262.081C188.647 262.509 188.785 262.981 188.785 263.498C188.788 264.071 188.619 264.552 188.278 264.94C187.94 265.327 187.496 265.581 186.945 265.7V265.78C187.661 265.879 188.21 266.144 188.591 266.575C188.975 267.003 189.166 267.535 189.163 268.171C189.163 268.741 189 269.252 188.675 269.702C188.354 270.15 187.91 270.501 187.343 270.756C186.78 271.012 186.133 271.139 185.404 271.139Z" fill="#2D4193"/>
<path d="M255.44 260.679C255.927 260.682 256.401 260.768 256.862 260.938C257.326 261.103 257.743 261.375 258.114 261.753C258.486 262.127 258.781 262.629 258.999 263.259C259.218 263.889 259.327 264.668 259.327 265.596C259.331 266.471 259.238 267.253 259.049 267.942C258.863 268.629 258.597 269.209 258.249 269.683C257.901 270.156 257.481 270.518 256.991 270.766C256.5 271.015 255.948 271.139 255.335 271.139C254.692 271.139 254.122 271.013 253.625 270.761C253.131 270.509 252.732 270.165 252.427 269.727C252.122 269.29 251.935 268.789 251.865 268.226H253.68C253.772 268.63 253.961 268.952 254.246 269.19C254.535 269.426 254.898 269.543 255.335 269.543C256.041 269.543 256.585 269.237 256.966 268.624C257.347 268.01 257.538 267.159 257.538 266.068H257.468C257.306 266.36 257.095 266.612 256.837 266.824C256.578 267.033 256.285 267.193 255.957 267.306C255.632 267.419 255.287 267.475 254.923 267.475C254.326 267.475 253.789 267.333 253.312 267.048C252.838 266.763 252.462 266.371 252.183 265.874C251.908 265.377 251.769 264.809 251.766 264.169C251.766 263.506 251.918 262.911 252.223 262.384C252.531 261.854 252.96 261.436 253.511 261.131C254.061 260.823 254.704 260.672 255.44 260.679ZM255.445 262.17C255.087 262.17 254.763 262.258 254.475 262.434C254.19 262.606 253.965 262.842 253.799 263.14C253.637 263.435 253.555 263.765 253.555 264.129C253.559 264.491 253.64 264.819 253.799 265.114C253.961 265.409 254.182 265.642 254.46 265.815C254.742 265.987 255.063 266.073 255.425 266.073C255.693 266.073 255.943 266.022 256.175 265.919C256.407 265.816 256.61 265.674 256.782 265.491C256.958 265.306 257.094 265.095 257.19 264.86C257.289 264.625 257.337 264.376 257.334 264.114C257.334 263.766 257.251 263.445 257.085 263.15C256.923 262.855 256.699 262.618 256.414 262.439C256.132 262.26 255.809 262.17 255.445 262.17ZM265.757 271.139C265.041 271.139 264.405 271.017 263.848 270.771C263.294 270.526 262.857 270.185 262.535 269.747C262.214 269.31 262.043 268.804 262.023 268.231H263.893C263.909 268.506 264 268.746 264.166 268.952C264.332 269.154 264.552 269.311 264.827 269.424C265.102 269.537 265.411 269.593 265.752 269.593C266.117 269.593 266.44 269.53 266.722 269.404C267.003 269.275 267.224 269.096 267.383 268.867C267.542 268.638 267.62 268.375 267.616 268.077C267.62 267.768 267.54 267.497 267.378 267.261C267.215 267.026 266.98 266.842 266.672 266.71C266.367 266.577 265.999 266.511 265.568 266.511H264.668V265.089H265.568C265.923 265.089 266.233 265.027 266.498 264.905C266.766 264.782 266.977 264.61 267.129 264.388C267.282 264.162 267.356 263.902 267.353 263.607C267.356 263.319 267.292 263.069 267.159 262.857C267.03 262.641 266.846 262.474 266.607 262.354C266.372 262.235 266.095 262.175 265.777 262.175C265.465 262.175 265.177 262.232 264.912 262.344C264.647 262.457 264.433 262.618 264.271 262.827C264.108 263.032 264.022 263.277 264.012 263.562H262.237C262.25 262.992 262.415 262.492 262.729 262.061C263.048 261.627 263.472 261.289 264.002 261.047C264.532 260.802 265.127 260.679 265.787 260.679C266.466 260.679 267.056 260.807 267.557 261.062C268.061 261.314 268.45 261.653 268.725 262.081C269 262.509 269.138 262.981 269.138 263.498C269.141 264.071 268.972 264.552 268.631 264.94C268.293 265.327 267.848 265.581 267.298 265.7V265.78C268.014 265.879 268.563 266.144 268.944 266.575C269.328 267.003 269.519 267.535 269.516 268.171C269.516 268.741 269.353 269.252 269.028 269.702C268.707 270.15 268.263 270.501 267.696 270.756C267.133 271.012 266.486 271.139 265.757 271.139ZM275.882 271.139C275.219 271.139 274.626 271.015 274.102 270.766C273.578 270.514 273.162 270.17 272.854 269.732C272.549 269.295 272.387 268.794 272.367 268.231H274.157C274.19 268.648 274.371 268.99 274.699 269.255C275.027 269.517 275.421 269.648 275.882 269.648C276.243 269.648 276.565 269.565 276.846 269.399C277.128 269.233 277.35 269.003 277.513 268.708C277.675 268.413 277.755 268.077 277.751 267.699C277.755 267.314 277.673 266.973 277.508 266.675C277.342 266.376 277.115 266.143 276.826 265.974C276.538 265.801 276.207 265.715 275.832 265.715C275.527 265.712 275.227 265.768 274.932 265.884C274.637 266 274.404 266.153 274.231 266.342L272.566 266.068L273.098 260.818H279.004V262.359H274.624L274.331 265.059H274.39C274.579 264.837 274.846 264.653 275.191 264.507C275.536 264.358 275.913 264.283 276.324 264.283C276.941 264.283 277.491 264.429 277.975 264.721C278.459 265.009 278.84 265.407 279.118 265.914C279.397 266.421 279.536 267.001 279.536 267.654C279.536 268.327 279.38 268.927 279.069 269.454C278.76 269.978 278.331 270.39 277.781 270.692C277.234 270.99 276.601 271.139 275.882 271.139Z" fill="#2D4193"/>
<ellipse cx="459.75" cy="303.75" rx="27.75" ry="27.75" fill="#33B488" stroke="black" stroke-width="1.5"/>
<path d="M445.72 304.164L455.308 312.958M454.646 312.971L473.821 293.783" stroke="black" stroke-width="1.5"/>
<defs>
<filter id="filter0_d_18197_190359" x="0.625" y="200.625" width="317.75" height="36.75" filterUnits="userSpaceOnUse" color-interpolation-filters="sRGB">
<feFlood flood-opacity="0" result="BackgroundImageFix"/>
<feColorMatrix in="SourceAlpha" type="matrix" values="0 0 0 0 0 0 0 0 0 0 0 0 0 0 0 0 0 0 127 0" result="hardAlpha"/>
<feOffset dx="3" dy="3"/>
<feComposite in2="hardAlpha" operator="out"/>
<feColorMatrix type="matrix" values="0 0 0 0 0 0 0 0 0 0 0 0 0 0 0 0 0 0 1 0"/>
<feBlend mode="normal" in2="BackgroundImageFix" result="effect1_dropShadow_18197_190359"/>
<feBlend mode="normal" in="SourceGraphic" in2="effect1_dropShadow_18197_190359" result="shape"/>
</filter>
</defs>
</svg>
