<svg width="566" height="402" viewBox="0 0 566 402" fill="none" xmlns="http://www.w3.org/2000/svg">
<path d="M131.517 0.836914H185.71V89.9023H131.517V0.836914Z" fill="#C9CCCF"/>
<path d="M184.107 285.105H86.4048V171.601H135.256C150.044 171.603 163.378 162.697 169.038 149.035C174.699 135.372 171.571 119.646 161.114 109.189C150.657 98.7317 134.931 95.6042 121.268 101.265C107.606 106.925 98.6996 120.259 98.7023 135.047H1C1 61.0149 61.2237 0.784668 135.256 0.784668C209.288 0.784668 269.518 61.0409 269.518 135.047C269.518 191.851 234.059 240.566 184.107 260.106V285.105Z" fill="#C9CCCF"/>
<path d="M163.993 78.0151C139.034 78.0151 118.796 86.1896 118.796 96.2529C118.842 98.1643 119.512 100.008 120.705 101.503C136.809 94.5005 155.617 99.9535 165.479 114.484C189.754 114.172 209.191 106.127 209.191 96.2464C209.191 86.1896 188.96 78.0151 163.993 78.0151V78.0151Z" fill="black"/>
<path d="M86.4048 311.139H184.107V400.784H86.4048V311.139Z" fill="#C9CCCF"/>
<path d="M232.958 285.105H135.256V171.601H184.107C198.895 171.603 212.229 162.697 217.89 149.035C223.55 135.372 220.423 119.646 209.966 109.189C199.509 98.7317 183.782 95.6042 170.12 101.265C156.457 106.925 147.551 120.259 147.553 135.047H49.8511C49.8511 61.0149 110.081 0.784668 184.107 0.784668C258.133 0.784668 318.37 61.0409 318.37 135.047C318.37 191.851 282.91 240.566 232.958 260.106V285.105Z" fill="#4A61C0"/>
<path d="M220.667 135.047C220.843 121.87 213.914 109.619 202.531 102.979C191.148 96.3391 177.073 96.3391 165.69 102.979C154.307 109.619 147.378 121.87 147.554 135.047" stroke="black"/>
<path d="M135.256 311.139H232.958V400.784H135.256V311.139Z" fill="#4A61C0"/>
<path fill-rule="evenodd" clip-rule="evenodd" d="M184.107 0.784668C182.876 0.784668 181.638 0.784668 180.414 0.836776H138.969C137.738 0.804208 136.506 0.784668 135.269 0.784668C134.031 0.784668 132.8 0.784668 131.576 0.836776H131.53C59.2305 2.8299 1.01294 62.2655 1.01294 135.047H147.566C147.559 124.679 151.964 114.797 159.681 107.873C170.953 117.985 174.818 134.002 169.398 148.142C163.979 162.282 150.398 171.612 135.256 171.601H86.4047V285.105H232.958V260.106C282.91 240.566 318.37 191.851 318.37 135.047C318.37 61.0409 258.165 0.784668 184.107 0.784668V0.784668Z" stroke="black"/>
<path fill-rule="evenodd" clip-rule="evenodd" d="M135.256 311.139H86.4048V400.784H135.256H184.107H232.958V311.139H184.107H135.256Z" stroke="black"/>
<path d="M191.909 192.603H381V222.603H191.909L191.909 192.603Z" fill="white"/>
<path d="M465.786 106.55L467.174 109.39C467.226 109.488 467.363 109.39 467.317 109.312L465.923 106.472C465.877 106.374 465.741 106.472 465.786 106.55Z" fill="black"/>
<path d="M473.863 99.4185C473.903 102.168 474.103 104.912 474.462 107.638C474.462 107.743 474.638 107.743 474.625 107.638C474.266 104.912 474.066 102.168 474.026 99.4185C474.036 99.3839 474.023 99.3469 473.993 99.3261C473.964 99.3054 473.925 99.3054 473.896 99.3261C473.866 99.3469 473.853 99.3839 473.863 99.4185Z" fill="black"/>
<path d="M487.098 101.965L484.76 108.446C484.721 108.543 484.884 108.582 484.916 108.485L487.255 102.004C487.287 101.906 487.131 101.867 487.098 101.965Z" fill="black"/>
<path d="M492.035 119.877C494.68 117.136 497.484 114.552 500.431 112.139C500.509 112.074 500.431 111.957 500.314 112.022C497.368 114.439 494.564 117.025 491.918 119.767C491.888 119.799 491.889 119.85 491.922 119.881C491.954 119.911 492.005 119.91 492.035 119.877Z" fill="black"/>
<path d="M468.639 132.54C467.7 135.08 467.044 137.717 466.685 140.401C466.326 142.264 466.126 144.153 466.086 146.049C466.008 147.953 466.518 149.836 467.545 151.442C468.643 152.949 470.354 153.889 472.215 154.008C474.535 154.229 476.852 153.553 478.689 152.119C479.015 151.859 478.553 151.396 478.227 151.657C475.452 153.878 470.482 154.262 468.17 151.194C465.995 148.296 466.731 144.121 467.271 140.812C467.633 138.038 468.304 135.314 469.271 132.689C469.427 132.299 468.795 132.129 468.62 132.514L468.639 132.54Z" fill="black"/>
<path d="M475.941 141.886C475.957 141.9 475.973 141.915 475.986 141.932L475.934 141.867L475.973 141.938L475.941 141.86C475.944 141.888 475.944 141.917 475.941 141.945V141.854V141.945V141.86C475.933 141.896 475.922 141.931 475.908 141.964L475.941 141.893C475.921 141.929 475.9 141.964 475.876 141.997L475.928 141.932L475.856 142.01L475.921 141.958H475.882L475.96 141.925H476.045H476.136H476.214L476.279 141.977L476.331 142.049L476.364 142.127V142.27C476.361 142.26 476.361 142.249 476.364 142.238L476.331 142.316C476.356 142.268 476.384 142.222 476.416 142.179L476.52 142.023C476.553 141.944 476.553 141.855 476.52 141.775C476.498 141.693 476.444 141.623 476.371 141.58C476.296 141.537 476.207 141.525 476.123 141.548C476.042 141.572 475.972 141.625 475.928 141.697L475.83 141.834L475.745 141.964C475.677 142.076 475.665 142.214 475.713 142.336C475.744 142.411 475.799 142.475 475.869 142.518L475.967 142.557H476.058C476.128 142.55 476.197 142.53 476.26 142.498C476.301 142.476 476.338 142.448 476.371 142.414C476.418 142.36 476.461 142.304 476.501 142.244C476.54 142.184 476.568 142.118 476.586 142.049C476.589 142.017 476.589 141.984 476.586 141.951C476.592 141.917 476.592 141.882 476.586 141.847C476.584 141.747 476.559 141.649 476.514 141.561C476.506 141.54 476.495 141.52 476.481 141.502C476.452 141.462 476.42 141.425 476.384 141.391C476.32 141.331 476.237 141.296 476.149 141.293C476.063 141.292 475.98 141.328 475.921 141.391C475.858 141.45 475.822 141.533 475.822 141.619C475.822 141.706 475.858 141.788 475.921 141.847L475.941 141.886Z" fill="black"/>
<path d="M469.349 141.105C469.366 141.118 469.381 141.134 469.395 141.15L469.343 141.085L469.382 141.15L469.349 141.072C469.351 141.1 469.351 141.129 469.349 141.157V141.072V141.157V141.066C469.342 141.104 469.331 141.141 469.317 141.176L469.349 141.098C469.331 141.137 469.309 141.174 469.284 141.209L469.336 141.144L469.264 141.215L469.33 141.17H469.291L469.369 141.137H469.46H469.545L469.623 141.17L469.688 141.222L469.74 141.287L469.773 141.365V141.45V141.535L469.74 141.613C469.762 141.562 469.79 141.513 469.825 141.469L469.929 141.32C469.961 141.24 469.961 141.152 469.929 141.072C469.908 140.989 469.854 140.918 469.779 140.877C469.704 140.834 469.615 140.822 469.532 140.844C469.449 140.867 469.379 140.92 469.336 140.994L469.238 141.131C469.206 141.172 469.178 141.215 469.154 141.261C469.085 141.373 469.073 141.51 469.121 141.632C469.155 141.707 469.209 141.77 469.277 141.815L469.375 141.854H469.466C469.536 141.849 469.605 141.831 469.668 141.802L469.779 141.71C469.828 141.66 469.871 141.606 469.909 141.548C469.948 141.488 469.977 141.422 469.994 141.352C470.002 141.285 470.002 141.217 469.994 141.15C469.99 141.051 469.965 140.954 469.922 140.864C469.914 140.843 469.903 140.823 469.89 140.805L469.792 140.688C469.728 140.63 469.644 140.597 469.558 140.597C469.473 140.596 469.391 140.629 469.33 140.688C469.268 140.749 469.233 140.832 469.233 140.919C469.233 141.006 469.268 141.089 469.33 141.15L469.349 141.105Z" fill="black"/>
<path d="M482.578 144.635C484.074 144.308 485.319 143.276 485.919 141.866C486.263 141.106 486.163 140.219 485.659 139.554C485.121 138.983 484.307 138.764 483.555 138.987C482.722 139.235 482.057 139.864 481.764 140.681C481.718 140.854 481.82 141.031 481.992 141.078C482.164 141.12 482.338 141.02 482.389 140.85C482.653 140.125 483.313 139.617 484.082 139.548C484.458 139.522 484.825 139.66 485.091 139.926C485.357 140.192 485.495 140.56 485.47 140.935C485.377 141.716 484.996 142.433 484.402 142.948C483.839 143.466 483.149 143.826 482.402 143.99C481.998 144.088 482.167 144.713 482.578 144.641V144.635Z" fill="black"/>
<path d="M484.519 140.798C484.365 140.646 484.138 140.593 483.933 140.662C483.702 140.743 483.505 140.899 483.373 141.105C483.034 141.559 482.799 142.081 482.682 142.635C482.682 142.739 482.819 142.785 482.838 142.681C482.94 142.215 483.13 141.772 483.399 141.378C483.513 141.179 483.674 141.012 483.868 140.89C484.039 140.789 484.256 140.813 484.402 140.948C484.473 141.026 484.591 140.916 484.519 140.831V140.798Z" fill="black"/>
<path d="M483.809 141.639C483.753 141.49 483.601 141.401 483.444 141.424C483.268 141.449 483.113 141.552 483.021 141.704C482.993 141.736 482.993 141.783 483.021 141.814C483.04 141.826 483.062 141.829 483.083 141.823C483.104 141.816 483.122 141.802 483.132 141.782C483.168 141.736 483.209 141.694 483.255 141.658C483.3 141.62 483.354 141.595 483.412 141.587H483.47H483.568C483.571 141.602 483.571 141.617 483.568 141.632C483.568 141.73 483.757 141.691 483.724 141.587L483.809 141.639Z" fill="black"/>
<path d="M482.767 144.14C482.538 149.025 482.618 153.92 483.008 158.795C483.047 159.212 483.698 159.212 483.659 158.795C483.27 153.92 483.189 149.025 483.418 144.14C483.418 143.96 483.272 143.814 483.093 143.814C482.913 143.814 482.767 143.96 482.767 144.14Z" fill="black"/>
<path d="M470.899 153.669C470.991 155.916 471.225 158.17 471.134 160.424C471.134 160.84 471.785 160.84 471.785 160.424C471.876 158.17 471.642 155.916 471.551 153.669C471.551 153.252 470.899 153.252 470.899 153.669Z" fill="black"/>
<path d="M472.365 140.805C471.975 141.908 471.696 143.047 471.531 144.205C471.489 144.379 471.589 144.555 471.759 144.609C471.933 144.651 472.11 144.552 472.163 144.381C472.321 143.222 472.598 142.083 472.99 140.981C473.036 140.807 472.935 140.627 472.762 140.577C472.59 140.535 472.415 140.635 472.365 140.805Z" fill="black"/>
<path d="M478.175 138.707C477.729 138.337 477.171 138.128 476.592 138.115C476.412 138.115 476.266 138.261 476.266 138.44C476.27 138.619 476.414 138.763 476.592 138.766H476.774H476.866C476.977 138.787 477.086 138.817 477.191 138.857C477.221 138.862 477.25 138.873 477.276 138.89H477.315L477.452 138.962L477.608 139.053C477.635 139.066 477.659 139.084 477.68 139.105C477.641 139.105 477.634 139.072 477.68 139.105C477.74 139.166 477.822 139.201 477.908 139.202C477.995 139.2 478.079 139.165 478.142 139.105C478.264 138.975 478.264 138.773 478.142 138.642L478.175 138.707Z" fill="black"/>
<path d="M471.192 138.186C470.75 137.815 470.194 137.606 469.616 137.594C469.436 137.594 469.291 137.74 469.291 137.919C469.294 138.098 469.438 138.242 469.616 138.245H469.825H469.916L470.242 138.336L470.326 138.369C470.281 138.369 470.274 138.369 470.326 138.369H470.372L470.509 138.447L470.658 138.538C470.687 138.552 470.713 138.569 470.737 138.59C470.697 138.59 470.691 138.558 470.737 138.59C470.799 138.647 470.88 138.679 470.965 138.682C471.095 138.68 471.211 138.6 471.261 138.48C471.311 138.359 471.284 138.221 471.192 138.128V138.186Z" fill="black"/>
<path d="M478.429 151.891C478.429 151.891 475.367 156.782 471.388 158.795L471.349 156.593L471.225 153.669C471.225 153.669 470.873 153.512 471.876 153.721C474.123 154.183 477.628 152.75 478.429 151.891V151.891Z" fill="black"/>
<path d="M472.593 147.305C472.807 147.149 473.039 147.018 473.283 146.914H473.329L473.42 146.875L473.615 146.817L474.006 146.719C474.09 146.698 474.161 146.643 474.204 146.569C474.247 146.494 474.258 146.405 474.234 146.322C474.181 146.151 474.004 146.051 473.83 146.094C473.271 146.192 472.741 146.414 472.28 146.745C472.129 146.838 472.078 147.033 472.163 147.188C472.256 147.343 472.456 147.395 472.612 147.305H472.593Z" fill="black"/>
<path d="M466.685 134.187C466.537 134.537 466.542 134.932 466.699 135.278C466.856 135.623 467.151 135.887 467.512 136.005C470.079 136.819 475.849 137.959 480.37 133.523C480.588 133.307 480.94 133.307 481.158 133.523C481.349 133.711 481.381 134.008 481.236 134.233C480.396 135.49 478.077 139.522 482.076 140.747C482.076 140.747 483.262 139.04 484.643 139.281C486.024 139.522 485.652 141.639 485.652 141.639C485.652 141.639 484.284 143.834 483.939 143.867C483.594 143.899 482.637 143.586 482.76 144.785C482.858 145.866 482.311 157.161 482.617 167.758C482.682 169.929 484.362 171.707 486.525 171.894C488.769 172.137 491.039 171.951 493.214 171.347L492.511 165.55L494.771 170.761C494.771 170.761 497.038 170.259 500.028 167.504C500.344 167.214 500.407 166.739 500.177 166.377C498.432 163.7 491.508 152.464 489.964 140.707C488.857 132.292 484.949 129.986 483.386 129.394C482.947 129.233 482.538 129.002 482.174 128.71C480.95 127.707 477.83 125.609 473.876 126.371C470.072 127.12 467.662 131.843 466.685 134.187Z" fill="black"/>
<path d="M466.581 149.11C466.581 148.875 463.572 162.065 465.48 167.263C466.269 169.47 467.943 171.247 470.098 172.167C470.641 172.414 471.273 172.355 471.761 172.012C472.249 171.669 472.518 171.094 472.469 170.5C472.182 167.074 471.727 160.645 471.818 155.831C471.876 152.913 471.557 153.369 470.274 152.939C468.991 152.51 466.548 149.806 466.581 149.11Z" fill="black"/>
<path d="M461.422 180.237C461.422 180.237 436.515 168.298 428.979 145.716C423.397 128.95 470.072 119.766 470.268 119.734C471.297 119.558 472.078 118.822 473.003 118.431C474.164 117.919 475.421 117.661 476.69 117.675C480.086 117.711 483.138 119.757 484.461 122.886" stroke="black"/>
<path d="M446.024 144.485C448.042 147.438 450.515 150.052 453.352 152.23C454.802 153.345 456.325 154.361 457.912 155.272C458.752 155.76 459.618 156.216 460.517 156.639C461.416 157.063 462.249 157.375 463.07 157.812C464.728 158.601 465.907 160.136 466.242 161.941C466.294 162.352 466.894 162.176 466.894 161.766C466.622 160.201 465.738 158.808 464.438 157.897C463.774 157.428 463.057 157.039 462.302 156.737C461.409 156.346 460.53 155.923 459.696 155.467C456.381 153.752 453.336 151.558 450.662 148.954C449.179 147.497 447.846 145.895 446.682 144.173C446.454 143.827 445.888 144.173 446.122 144.505L446.024 144.485Z" fill="black"/>
<path d="M441.882 145.345C446.65 145.345 450.89 143.13 454.616 140.323C458.452 137.431 461.846 133.985 465.793 131.204C467.907 129.67 470.266 128.506 472.769 127.758C472.949 127.71 473.055 127.525 473.007 127.345C472.958 127.165 472.773 127.058 472.593 127.107C468.066 128.358 464.288 131.315 460.764 134.304C457.241 137.294 453.665 140.688 449.398 142.772C447.074 143.981 444.502 144.639 441.882 144.693C441.702 144.693 441.556 144.839 441.556 145.019C441.556 145.199 441.702 145.345 441.882 145.345Z" fill="black"/>
<path d="M450.733 173.105C452.648 168.546 454.602 163.908 457.429 159.811C458.225 158.648 459.095 157.539 460.035 156.489C460.315 156.183 459.859 155.721 459.572 156.027C456.146 159.792 453.801 164.351 451.756 168.976C451.183 170.278 450.623 171.581 450.069 172.929C449.913 173.32 450.538 173.489 450.72 173.105H450.733Z" fill="black"/>
<path d="M477.895 122.365C478.449 122.444 478.948 122.745 479.276 123.199C479.71 123.673 480.086 124.198 480.396 124.762C480.455 124.863 480.564 124.925 480.681 124.925C480.799 124.924 480.907 124.86 480.965 124.758C481.023 124.656 481.022 124.531 480.963 124.43C480.601 123.791 480.164 123.198 479.66 122.665C479.224 122.119 478.584 121.775 477.888 121.714C477.708 121.714 477.562 121.86 477.562 122.04C477.562 122.219 477.708 122.365 477.888 122.365H477.895Z" fill="black"/>
<path d="M481.796 123.427C482.226 124.232 482.475 125.121 482.526 126.033C482.529 126.211 482.673 126.355 482.852 126.358C483.031 126.358 483.177 126.213 483.177 126.033C483.121 125.009 482.841 124.011 482.357 123.108C482.161 122.737 481.601 123.063 481.796 123.434V123.427Z" fill="black"/>
<path d="M484.623 124.704C484.623 124.736 484.623 124.775 484.675 124.814L484.643 124.736C484.712 124.901 484.758 125.074 484.78 125.251V125.16C484.789 125.283 484.789 125.407 484.78 125.531C484.78 125.711 484.925 125.857 485.105 125.857C485.284 125.853 485.427 125.709 485.431 125.531C485.448 125.129 485.36 124.729 485.177 124.372C485.086 124.218 484.889 124.165 484.734 124.254C484.582 124.349 484.531 124.546 484.617 124.704H484.623Z" fill="black"/>
<path d="M481.06 126.221L480.865 126.378C480.865 126.378 480.832 126.378 480.865 126.378L480.813 126.417L480.715 126.488C480.578 126.593 480.442 126.69 480.298 126.782C480.018 126.964 479.732 127.14 479.432 127.296C479.278 127.387 479.226 127.584 479.315 127.739C479.408 127.894 479.607 127.946 479.764 127.856C480.389 127.521 480.98 127.127 481.529 126.677C481.657 126.55 481.657 126.343 481.529 126.215C481.402 126.087 481.195 126.087 481.067 126.215L481.06 126.221Z" fill="black"/>
<path d="M496.666 162.886C499.806 161.107 503.525 162.553 505.987 164.807C508.593 167.184 510.442 170.376 511.947 173.522C512.742 175.17 513.426 176.87 514.142 178.55C514.859 180.231 515.614 182.029 516.318 183.761C517.738 187.183 518.915 190.7 519.841 194.287C520.782 197.868 521.193 201.568 521.059 205.269C521.063 206.11 520.838 206.936 520.408 207.659C519.863 208.337 519.179 208.89 518.402 209.281C516.856 210.22 515.211 210.984 513.497 211.561C510.05 212.673 506.476 213.349 502.861 213.573C498.928 213.871 494.976 213.823 491.052 213.43C489.098 213.235 487.092 212.955 485.125 212.609C484.193 212.44 483.262 212.186 482.324 212.082C481.609 212.06 480.894 212.104 480.187 212.212C479.461 212.251 478.732 212.199 478.018 212.056C477.119 211.88 476.279 211.509 475.413 211.287C474.353 210.977 473.23 210.95 472.156 211.209C472.003 211.251 471.854 211.31 471.713 211.385C471.578 211.483 471.539 211.668 471.623 211.812C471.707 211.956 471.887 212.014 472.039 211.945C472.085 211.945 472.13 211.906 472.091 211.945C472.215 211.899 472.341 211.86 472.469 211.828C472.945 211.721 473.435 211.688 473.921 211.73C474.758 211.802 475.58 211.991 476.364 212.29C477.185 212.588 478.041 212.78 478.911 212.863C479.561 212.925 480.217 212.914 480.865 212.831C481.254 212.76 481.648 212.726 482.044 212.727C482.59 212.786 483.132 212.882 483.665 213.013C485.62 213.398 487.606 213.71 489.599 213.945C493.618 214.431 497.673 214.559 501.714 214.329C505.48 214.164 509.213 213.55 512.833 212.499C514.55 211.977 516.21 211.285 517.79 210.434C519.236 209.646 520.923 208.74 521.45 207.066C521.661 206.257 521.76 205.422 521.743 204.585C521.743 203.647 521.743 202.715 521.685 201.784C521.564 199.893 521.311 198.012 520.929 196.156C520.127 192.423 519.009 188.765 517.588 185.22C516.213 181.677 514.722 178.173 513.204 174.688C511.815 171.3 509.884 168.16 507.485 165.393C505.238 162.931 502.105 161.029 498.653 161.537C497.842 161.657 497.06 161.926 496.347 162.332C496.212 162.43 496.173 162.615 496.257 162.759C496.341 162.903 496.521 162.961 496.673 162.892L496.666 162.886Z" fill="black"/>
<path d="M480.246 198.879C481.245 199.21 482.105 199.866 482.689 200.742C483.087 201.441 483.653 202.03 484.336 202.455C485.222 202.885 486.369 202.768 487.326 202.768C488.525 202.768 489.73 202.715 490.922 202.618C493.295 202.421 495.649 202.04 497.963 201.478C500.344 200.862 502.69 200.118 504.991 199.25C507.375 198.384 509.817 197.394 512.403 197.895C512.813 197.974 512.989 197.342 512.579 197.244C510.325 196.814 508.163 197.387 506.065 198.15C503.831 198.957 501.604 199.784 499.317 200.429C496.983 201.092 494.597 201.558 492.185 201.823C490.961 201.96 489.743 202.045 488.512 202.077C487.912 202.077 487.313 202.077 486.714 202.077C486.136 202.112 485.556 202.075 484.988 201.966C484.017 201.712 483.561 200.735 482.982 200.012C482.341 199.162 481.451 198.533 480.435 198.215C480.255 198.166 480.07 198.273 480.021 198.452C479.973 198.632 480.079 198.817 480.259 198.866L480.246 198.879Z" fill="black"/>
<path d="M471.844 208.715C471.946 208.645 472.053 208.582 472.163 208.526L472.345 208.434C472.345 208.434 472.456 208.382 472.345 208.434H472.423C472.658 208.343 472.903 208.279 473.153 208.246C473.237 208.223 473.308 208.167 473.351 208.091C473.394 208.015 473.405 207.926 473.381 207.842C473.327 207.671 473.151 207.571 472.977 207.614C472.443 207.699 471.934 207.899 471.485 208.2C471.331 208.291 471.279 208.488 471.368 208.643C471.459 208.797 471.656 208.849 471.811 208.76L471.844 208.715Z" fill="black"/>
<path d="M471.251 205.999C471.863 205.569 472.612 205.381 473.355 205.471C473.527 205.517 473.704 205.415 473.752 205.243C473.776 205.16 473.765 205.071 473.722 204.996C473.679 204.921 473.608 204.867 473.524 204.846C472.612 204.708 471.681 204.92 470.919 205.438C470.768 205.531 470.716 205.726 470.801 205.881C470.894 206.036 471.094 206.088 471.251 205.999Z" fill="black"/>
<path d="M470.658 202.637C473.4 201.908 476.338 201.159 479.126 202.22C479.373 202.318 479.582 202.038 479.53 201.823L478.227 196.156L477.575 193.193C477.522 192.898 477.433 192.612 477.308 192.34C476.881 191.546 476.007 191.1 475.113 191.219C473.159 191.48 471.238 191.91 469.31 192.255L466.437 192.776C466.093 192.817 465.759 192.923 465.454 193.089C464.699 193.547 464.3 194.419 464.444 195.29C464.633 196.469 464.946 197.642 465.2 198.807L466.802 206.22L468.294 213.137L468.717 215.091C468.816 215.915 469.337 216.628 470.091 216.974C470.841 217.273 471.726 217.026 472.495 216.915L476.201 216.374L479.458 215.905C479.666 215.905 479.881 215.853 480.109 215.808C480.984 215.615 481.647 214.897 481.77 214.01C481.793 213.454 481.707 212.898 481.516 212.375C481.469 212.195 481.286 212.087 481.106 212.134C480.926 212.181 480.818 212.364 480.865 212.544C481.097 213.082 481.152 213.68 481.021 214.251C480.796 214.786 480.296 215.156 479.718 215.215L477.361 215.56C475.302 215.853 473.257 216.211 471.199 216.452C470.349 216.581 469.554 215.999 469.421 215.15L469.108 213.684L467.76 207.464L465.154 195.525C465.154 195.427 465.109 195.329 465.089 195.238C464.937 194.447 465.429 193.676 466.209 193.479C466.809 193.33 467.44 193.251 468.046 193.141L474.605 191.962C474.775 191.962 474.938 191.89 475.107 191.871C475.892 191.759 476.632 192.269 476.807 193.043C476.976 193.694 477.113 194.346 477.263 195.03L478.767 201.543L478.872 201.993L479.276 201.595C476.41 200.488 473.335 201.25 470.489 202.012C470.309 202.059 470.201 202.243 470.248 202.422C470.295 202.602 470.478 202.71 470.658 202.663V202.637Z" fill="black"/>
<path d="M500.894 192.437C501.534 193.449 502.061 194.528 502.464 195.655L503.923 199.166C504.085 199.55 504.717 199.381 504.574 198.997L503.063 195.362C502.656 194.22 502.123 193.128 501.473 192.105C501.232 191.767 500.666 192.105 500.913 192.437H500.894Z" fill="black"/>
<path d="M502.392 193.753C507.108 190.809 511.915 187.891 517.21 186.074C517.607 185.937 517.438 185.312 517.041 185.422C511.687 187.24 506.834 190.197 502.06 193.173C501.708 193.395 502.06 193.955 502.392 193.733V193.753Z" fill="black"/>
<path d="M470.541 164.977C471.674 167.458 474.391 168.755 476.859 169.536C479.752 170.521 482.893 170.505 485.776 169.491C486.16 169.341 485.991 168.709 485.6 168.839C482.878 169.805 479.912 169.834 477.172 168.924C474.807 168.214 472.189 167.015 471.101 164.645C470.925 164.267 470.365 164.592 470.541 164.97V164.977Z" fill="black"/>
<path d="M463.376 174.441C460.73 179.37 459.743 185.021 460.562 190.555C461.005 193.493 462.106 196.261 462.679 199.166C462.988 200.641 463.061 202.156 462.894 203.654C462.699 205.178 462.243 206.67 462.191 208.213C462.074 210.578 463.344 213.691 466.099 213.698C466.279 213.698 466.425 213.552 466.425 213.372C466.425 213.192 466.279 213.046 466.099 213.046C465.039 212.993 464.084 212.39 463.578 211.457C462.977 210.433 462.717 209.245 462.836 208.064C462.933 206.605 463.331 205.185 463.52 203.739C463.687 202.355 463.645 200.954 463.396 199.583C462.927 196.789 461.878 194.138 461.344 191.356C460.292 185.696 461.211 179.845 463.949 174.78C464.145 174.408 463.585 174.083 463.383 174.447L463.376 174.441Z" fill="black"/>
<path d="M466.099 213.366C467.18 214.799 468.053 218.446 466.965 221.592C463.493 231.708 452.518 260.673 444.324 297.559C434.652 341.147 434.476 384.039 434.554 391.49C434.559 392.209 434.22 392.887 433.642 393.314L429.031 396.72C428.249 397.299 427.927 398.314 428.232 399.238C428.537 400.161 429.4 400.785 430.372 400.785H449.125C450.223 400.786 451.162 399.997 451.352 398.915C452.388 392.773 456.192 372.588 463.988 354.148C468.854 342.652 471.108 328.935 472.15 318.422C473.324 306.428 476.361 294.691 481.151 283.633C485.867 272.769 491.039 260.269 491.775 256.016" stroke="black"/>
<path d="M487.88 238.318C489.992 241.063 491.193 244.4 491.312 247.861C491.775 261.611 493.709 292.843 506.45 309.641C522.186 330.393 539.499 310.449 560.336 248.141C560.448 247.839 560.686 247.602 560.987 247.489L564.127 246.389C564.493 246.26 564.763 245.947 564.836 245.565C564.909 245.184 564.772 244.793 564.478 244.539C561.984 242.383 556.512 238.064 551.373 236.912C549.95 236.618 548.504 237.304 547.83 238.592C545.713 242.611 539.975 252.537 529.162 265.05C524.783 270.137 522.29 276.578 522.102 283.288" stroke="black"/>
<path d="M523.333 275.706C524.807 263.858 524.678 251.865 522.948 240.051C520.649 225.422 512.201 217.905 509.146 215.573C508.418 215.028 507.928 214.223 507.779 213.326" stroke="black"/>
<path d="M435.498 370.672C438.539 370.572 441.583 370.637 444.617 370.868C446.115 370.985 447.6 371.141 449.086 371.337L449.861 371.441C450.017 371.441 450.193 371.441 450.297 371.597C450.401 371.754 450.356 372.092 450.375 372.249L450.44 372.731L450.746 375.141C450.746 375.212 450.857 375.264 450.896 375.18L451.756 373.48C452.043 372.907 452.264 372.131 453.059 372.177C454.299 372.289 455.523 372.543 456.706 372.933C456.734 372.94 456.764 372.931 456.784 372.91C456.804 372.89 456.811 372.86 456.803 372.832C456.795 372.805 456.773 372.783 456.745 372.776C456.042 372.574 455.332 372.398 454.615 372.255C454.01 372.073 453.378 371.996 452.746 372.027C452.212 372.118 452.036 372.62 451.815 373.056L450.773 375.115L450.929 375.154L450.46 371.461C450.456 371.424 450.43 371.393 450.395 371.382C445.467 370.658 440.484 370.374 435.505 370.536C435.401 370.536 435.401 370.705 435.505 370.698L435.498 370.672Z" fill="black"/>
<path d="M533.989 259.187C535.982 258.771 537.643 259.969 539.278 260.894C539.505 261.069 539.795 261.14 540.078 261.09C540.36 261.041 540.608 260.875 540.763 260.633C541.414 259.845 542.065 259.038 542.717 258.243L542.573 258.184C542.582 259.633 542.264 261.065 541.642 262.373C541.622 262.412 541.636 262.461 541.675 262.483C543.59 263.688 545.544 264.841 547.4 266.137C548.263 266.725 549.08 267.378 549.843 268.091C550.201 268.437 550.54 268.802 550.859 269.186C550.93 269.27 551.94 270.638 551.784 270.677C551.816 270.657 551.83 270.618 551.82 270.582C551.809 270.546 551.776 270.521 551.738 270.521H551.692C551.659 270.533 551.636 270.564 551.634 270.599C551.634 270.814 551.868 270.892 551.966 270.69C552.064 270.488 551.966 270.449 551.894 270.352C551.725 270.046 551.529 269.756 551.308 269.485C550.555 268.509 549.679 267.633 548.703 266.88C546.466 265.232 544.139 263.71 541.733 262.32L541.766 262.431C542.398 261.096 542.723 259.636 542.717 258.158C542.717 258.093 542.626 258.041 542.58 258.1L540.802 260.353C540.689 260.51 540.565 260.658 540.431 260.796C540.156 261.015 539.773 261.033 539.48 260.842C539.102 260.66 538.757 260.399 538.392 260.191C537.044 259.396 535.532 258.725 533.943 259.057C533.845 259.057 533.885 259.233 533.989 259.214V259.187Z" fill="black"/>
<path d="M501.936 222.067C504.477 224.226 507.569 225.634 510.866 226.132C510.97 226.132 511.016 225.988 510.912 225.975C507.641 225.487 504.572 224.092 502.053 221.95C501.975 221.878 501.858 221.996 501.936 222.067Z" fill="black"/>
<path d="M469.115 230.763C471.713 229.354 473.699 227.034 474.69 224.249C474.69 224.152 474.567 224.106 474.534 224.204C473.555 226.95 471.594 229.238 469.03 230.626C468.939 230.672 469.03 230.815 469.115 230.763Z" fill="black"/>
<path d="M450.141 298.066H457.143C457.179 298.056 457.204 298.023 457.204 297.985C457.204 297.947 457.179 297.914 457.143 297.903H450.141C450.104 297.914 450.079 297.947 450.079 297.985C450.079 298.023 450.104 298.056 450.141 298.066Z" fill="black"/>
<path d="M449.503 294.223H455.873C455.909 294.213 455.934 294.18 455.934 294.142C455.934 294.104 455.909 294.071 455.873 294.061H449.503C449.466 294.071 449.441 294.104 449.441 294.142C449.441 294.18 449.466 294.213 449.503 294.223Z" fill="black"/>
<path d="M516.376 305.01L519.568 302.47C519.653 302.405 519.568 302.294 519.451 302.359L516.266 304.893C516.181 304.958 516.266 305.075 516.376 305.01Z" fill="black"/>
<path d="M518.22 310.696C518.888 308.797 520.299 307.251 522.128 306.41C522.226 306.365 522.128 306.228 522.043 306.267C520.169 307.128 518.724 308.712 518.038 310.657C518.005 310.755 518.161 310.794 518.194 310.696H518.22Z" fill="black"/>
<path d="M452.727 175.027C452.727 175.027 460.953 177.248 463.344 175.203C463.344 175.203 462.178 177.808 461.924 178.59C461.67 179.371 461.871 180.589 460.263 179.691C458.654 178.792 452.727 175.027 452.727 175.027V175.027Z" fill="black"/>
<path d="M485.45 202.383C485.45 202.383 495.872 201.393 502.444 194.756L503.688 197.739C503.688 197.739 505.037 198.944 502.705 199.693C500.373 200.442 496.087 201.536 496.087 201.536L489.541 202.422" fill="black"/>
<path d="M503.043 192.965C503.232 192.848 515.771 189.213 519.64 192.275L517.907 186.992C517.907 186.992 518.063 185.221 515.341 186.419C511.869 187.943 503.043 192.965 503.043 192.965Z" fill="black"/>
<path d="M468.646 213.515C468.646 213.515 467.994 212.108 467.043 212.076C466.092 212.043 465.363 211.958 466.678 214.407C467.994 216.856 467.33 220.491 467.33 220.491C467.33 220.491 491.664 225.956 509.166 215.573L508.456 214.863C508.456 214.863 508.039 212.909 506.632 213.509C505.225 214.108 496.634 213.899 491.488 213.737C486.343 213.574 483.711 212.681 483.711 212.681C483.711 212.681 480.767 212.082 481.327 213.255C481.887 214.427 480.826 215.437 479.373 215.645C477.921 215.853 471.935 216.446 471.935 216.446C471.935 216.446 469.062 217.645 468.646 213.515Z" fill="black"/>
<path d="M489.02 240.005C489.02 240.005 487.808 253.632 486.532 260.314C485.759 264.102 485.62 267.991 486.121 271.824L489.743 262.555C489.743 262.555 491.742 257.514 491.56 253.482C491.378 249.45 491.045 240.598 489.02 240.005V240.005Z" fill="black"/>
<path d="M438.658 378.502C439.445 378.323 440.267 378.361 441.035 378.612C441.119 378.636 441.209 378.626 441.285 378.583C441.361 378.54 441.416 378.468 441.439 378.384C441.481 378.212 441.381 378.037 441.211 377.987C440.33 377.703 439.389 377.665 438.488 377.876C438.308 377.923 438.2 378.107 438.247 378.287C438.294 378.466 438.478 378.574 438.658 378.528V378.502Z" fill="black"/>
<path d="M438.573 382.234H440.488C440.666 382.23 440.81 382.087 440.813 381.908C440.81 381.73 440.666 381.586 440.488 381.583H438.573C438.394 381.586 438.251 381.73 438.247 381.908C438.251 382.087 438.394 382.23 438.573 382.234Z" fill="black"/>
<path d="M554.402 260.093L554.598 260.204L554.695 260.269C554.741 260.308 554.656 260.269 554.695 260.269H554.734C554.793 260.316 554.848 260.368 554.897 260.425L554.969 260.504V260.549C554.969 260.517 554.969 260.504 554.969 260.549C555.012 260.607 555.052 260.668 555.086 260.732L555.145 260.836V260.888C555.198 261.032 555.237 261.18 555.262 261.331C555.284 261.413 555.338 261.484 555.412 261.526C555.491 261.559 555.58 261.559 555.659 261.526C555.741 261.502 555.81 261.449 555.855 261.376C555.895 261.298 555.906 261.208 555.887 261.122C555.777 260.41 555.328 259.796 554.682 259.474C554.582 259.401 554.448 259.392 554.338 259.45C554.229 259.508 554.161 259.624 554.165 259.748C554.169 259.872 554.243 259.983 554.357 260.035L554.402 260.093Z" fill="black"/>
<path d="M555.438 257.312C555.557 257.375 555.672 257.445 555.783 257.52L555.861 257.579C555.907 257.579 555.816 257.54 555.861 257.579H555.9L556.05 257.709C556.144 257.801 556.231 257.899 556.311 258.002C556.356 258.054 556.265 257.937 556.311 258.002L556.343 258.035L556.395 258.119C556.434 258.178 556.473 258.237 556.506 258.295C556.597 258.449 556.794 258.502 556.949 258.413C557.104 258.32 557.156 258.12 557.066 257.963C556.764 257.434 556.311 257.007 555.764 256.739C555.607 256.649 555.407 256.701 555.314 256.856C555.225 257.011 555.277 257.208 555.431 257.299L555.438 257.312Z" fill="black"/>
<path d="M522.245 280.89C522.245 281.047 524.095 281.854 526.153 276.657C527.402 273.694 527.851 270.455 527.456 267.264C527.456 267.264 521.783 276.266 522.245 280.89Z" fill="black"/>
<path d="M412.2 79.5651C417.719 87.6678 423.086 95.8727 428.301 104.18C429.76 106.511 431.208 108.85 432.646 111.195C432.704 111.286 432.841 111.195 432.789 111.116C427.669 102.757 422.393 94.507 416.961 86.3651C415.437 84.0724 413.898 81.7862 412.343 79.5064C412.285 79.4218 412.141 79.5064 412.2 79.5846V79.5651Z" fill="black"/>
<path d="M438.683 109.163L438.963 109.729C438.978 109.744 438.998 109.752 439.019 109.752C439.04 109.752 439.059 109.744 439.074 109.729C439.102 109.697 439.102 109.65 439.074 109.619L438.788 109.052C438.756 109.024 438.709 109.024 438.677 109.052C438.649 109.084 438.649 109.131 438.677 109.163H438.683Z" fill="black"/>
<path d="M467.616 33.5474L469.238 54.9507L470.821 76.3475L471.713 88.3454C471.713 88.4496 471.883 88.4496 471.876 88.3454L470.287 66.942L468.704 45.5452L467.812 33.5474C467.812 33.4432 467.643 33.4432 467.649 33.5474H467.616Z" fill="black"/>
<path d="M485.581 82.8871C485.617 82.8767 485.642 82.8435 485.642 82.8057C485.642 82.7678 485.617 82.7346 485.581 82.7242C485.544 82.7346 485.519 82.7678 485.519 82.8057C485.519 82.8435 485.544 82.8767 485.581 82.8871Z" fill="black"/>
<path d="M396.014 116.77L416.479 134.044L422.263 138.929C422.341 139.001 422.458 138.884 422.374 138.818L401.921 121.538L396.144 116.653C396.059 116.588 395.948 116.699 396.027 116.77H396.014Z" fill="black"/>
<path d="M417.13 119.857C418.755 121.638 420.495 123.309 422.341 124.86C422.419 124.925 422.536 124.814 422.458 124.742C420.611 123.194 418.87 121.523 417.248 119.74C417.176 119.662 417.059 119.779 417.13 119.857Z" fill="black"/>
<path d="M512.318 106.635C512.355 106.625 512.38 106.592 512.38 106.554C512.38 106.516 512.355 106.483 512.318 106.472C512.284 106.462 512.247 106.475 512.226 106.505C512.205 106.534 512.205 106.573 512.226 106.603C512.247 106.632 512.284 106.645 512.318 106.635Z" fill="black"/>
<path d="M467.702 196.929C467.571 196.308 467.968 195.698 468.59 195.566L468.729 195.537C469.35 195.406 469.961 195.803 470.092 196.424L470.609 198.871C470.74 199.492 470.343 200.102 469.721 200.234L469.582 200.263C468.96 200.395 468.35 199.997 468.219 199.376L467.702 196.929Z" fill="black"/>
<path d="M468.626 192.385C468.02 190.529 467.975 188.386 469.128 186.732C469.636 185.997 470.363 185.441 471.205 185.142C472.013 184.875 472.873 184.875 473.622 184.445C474.27 184.036 474.843 183.519 475.315 182.915C475.862 182.251 476.461 181.632 477.107 181.065C478.507 179.873 480.217 179.105 482.037 178.85C483.866 178.609 485.723 178.993 487.307 179.938C488.822 180.878 489.941 182.34 490.453 184.048C490.695 184.848 490.803 185.682 490.772 186.517C490.726 187.416 490.459 188.282 490.355 189.174C490.207 189.977 490.378 190.807 490.831 191.486C491.281 192.018 491.841 192.447 492.472 192.744C493.244 193.1 493.952 193.579 494.569 194.164C495.131 194.775 495.543 195.509 495.774 196.306C496.008 197.105 496.068 197.945 495.95 198.769C495.886 199.179 495.774 199.582 495.618 199.967C495.539 200.157 495.447 200.342 495.344 200.521C495.292 200.612 494.849 201.276 494.778 201.061C494.778 201.159 494.967 201.113 494.934 201.016V200.97C494.923 200.943 494.902 200.922 494.875 200.911C494.55 200.84 494.53 201.478 494.999 201.25C495.273 201.113 495.468 200.67 495.598 200.416C495.761 200.1 495.892 199.769 495.989 199.426C496.381 197.945 496.178 196.369 495.423 195.036C495.061 194.399 494.568 193.846 493.977 193.414C493.267 192.906 492.439 192.594 491.723 192.112C490.819 191.497 490.347 190.418 490.511 189.337C490.616 188.308 490.941 187.331 490.954 186.289C490.999 182.489 488.206 179.252 484.441 178.74C482.577 178.47 480.676 178.789 479.002 179.651C478.172 180.074 477.401 180.604 476.709 181.228C475.98 181.879 475.407 182.667 474.723 183.377C474.372 183.764 473.964 184.094 473.511 184.354C472.938 184.613 472.33 184.786 471.707 184.869C470.776 185.062 469.935 185.559 469.317 186.282C467.838 187.989 467.812 190.386 468.489 192.444C468.489 192.542 468.678 192.503 468.646 192.405L468.626 192.385Z" fill="black"/>
<path d="M470.932 192.366C470.645 190.822 470.769 189.109 471.968 187.937C473.166 186.764 474.684 187.116 476.091 186.81C478.631 186.25 479.699 183.319 482.304 182.902C483.857 182.579 485.473 182.964 486.714 183.951C487.631 184.868 488.166 186.1 488.212 187.396C488.323 188.881 487.86 190.249 487.561 191.682C487.32 192.913 487.281 194.333 488.095 195.375C488.909 196.417 490.433 196.756 491.352 197.772C492.382 198.943 492.618 200.615 491.951 202.025C491.905 202.117 492.049 202.201 492.094 202.11C492.602 201.018 492.602 199.757 492.094 198.664C491.521 197.362 490.388 196.867 489.261 196.176C488.56 195.79 488.019 195.167 487.737 194.418C487.499 193.591 487.472 192.717 487.659 191.877C487.932 190.373 488.447 188.953 488.31 187.396C488.247 186.196 487.789 185.051 487.007 184.139C486.021 183.15 484.664 182.623 483.268 182.687C481.888 182.675 480.556 183.201 479.556 184.152C478.546 185.064 477.602 186.217 476.299 186.621C474.749 187.083 472.99 186.68 471.74 187.924C470.489 189.168 470.437 190.887 470.704 192.483C470.704 192.587 470.88 192.542 470.86 192.444L470.932 192.366Z" fill="black"/>
<path d="M474.091 191.591C473.993 191.073 474.262 190.556 474.742 190.34C475.217 190.089 475.75 189.97 476.286 189.995C477.095 190.057 477.9 189.826 478.552 189.343C479.204 188.757 479.705 188.041 480.559 187.676C481.43 187.321 482.41 187.347 483.262 187.748C484.104 188.178 484.72 188.949 484.955 189.864C485.242 190.926 484.805 191.819 484.603 192.88C484.254 194.395 484.753 195.98 485.906 197.023C486.707 197.674 487.561 198.104 488.004 199.081C488.217 199.56 488.324 200.08 488.316 200.605C488.31 200.866 488.277 201.126 488.218 201.38C488.218 201.504 487.899 202.325 487.73 202.071C487.671 201.986 487.528 202.071 487.587 202.155C487.645 202.24 487.899 202.292 488.049 202.155C488.289 201.844 488.425 201.466 488.44 201.074C488.568 200.177 488.364 199.265 487.867 198.508C487.274 197.622 486.251 197.264 485.567 196.482C484.865 195.613 484.541 194.498 484.669 193.388C484.766 192.294 485.32 191.297 485.157 190.177C485.015 189.284 484.534 188.479 483.815 187.93C483.085 187.393 482.17 187.171 481.275 187.311C480.359 187.49 479.534 187.983 478.943 188.705C478.537 189.218 477.978 189.587 477.347 189.76C476.696 189.884 476.045 189.76 475.393 189.91C474.592 190.053 473.661 190.724 473.908 191.636C473.919 191.679 473.963 191.706 474.006 191.695C474.049 191.684 474.075 191.64 474.065 191.597L474.091 191.591Z" fill="black"/>
<path d="M477.361 193.584C477.751 193.297 478.305 193.421 478.663 193.108C478.782 192.979 478.871 192.826 478.924 192.659C479.063 192.321 479.326 192.048 479.66 191.897C480.317 191.606 481.086 191.76 481.581 192.281C482.085 192.806 482.361 193.508 482.35 194.235C482.35 194.75 482.128 195.342 482.441 195.805C482.599 195.994 482.768 196.172 482.949 196.339C483.148 196.553 483.313 196.797 483.438 197.062C483.963 198.163 483.851 199.461 483.145 200.456C483.079 200.54 483.223 200.618 483.281 200.534C484.08 199.411 484.144 197.923 483.444 196.736C483.348 196.568 483.235 196.411 483.105 196.267C482.923 196.059 482.623 195.877 482.519 195.616C482.435 195.274 482.435 194.916 482.519 194.574C482.534 194.3 482.523 194.025 482.487 193.753C482.428 193.268 482.246 192.806 481.959 192.411C481.459 191.683 480.532 191.382 479.699 191.675C479.293 191.844 478.973 192.171 478.813 192.581C478.683 192.92 478.362 193.148 477.999 193.16C477.766 193.192 477.543 193.277 477.347 193.408C477.263 193.473 477.347 193.616 477.426 193.551L477.361 193.584Z" fill="black"/>
<path d="M477.765 195.909C478.14 196.124 478.601 196.124 478.976 195.909C479.216 195.784 479.476 195.702 479.745 195.668C479.991 195.656 480.236 195.717 480.448 195.844C481.337 196.415 481.677 197.548 481.249 198.514C481.204 198.612 481.367 198.658 481.406 198.56C481.807 197.612 481.543 196.512 480.754 195.85C480.391 195.551 479.908 195.442 479.452 195.557C478.957 195.694 478.357 196.156 477.856 195.772C477.771 195.707 477.693 195.85 477.778 195.915L477.765 195.909Z" fill="black"/>
<path d="M478.064 197.922C478.23 197.937 478.395 197.888 478.526 197.785C478.65 197.714 478.787 197.648 478.904 197.785C479.021 197.922 479.126 198.319 479.438 198.345C479.543 198.345 479.543 198.196 479.438 198.182C479.334 198.169 479.256 198.039 479.204 197.948C479.147 197.824 479.065 197.713 478.963 197.622C478.831 197.541 478.665 197.541 478.533 197.622C478.409 197.681 478.259 197.818 478.11 197.792C477.96 197.766 477.96 197.928 478.064 197.948V197.922Z" fill="black"/>
<path d="M192.171 222.745V226.926C192.169 229.676 193.26 232.313 195.204 234.258C197.147 236.203 199.784 237.296 202.534 237.296H271.03C276.278 232.823 281.18 227.959 285.692 222.745L192.171 222.745Z" fill="black"/>
<path d="M305.193 193.023H192.171V222.744H285.692C293.474 213.741 300.032 203.747 305.193 193.023Z" fill="#F5F6F8"/>
<path d="M192.171 193.023H232.046V222.738H192.171L192.171 193.023Z" fill="#C9CCCF"/>
<path d="M232.047 193.023V222.744" stroke="black"/>
<path fill-rule="evenodd" clip-rule="evenodd" d="M191.909 192.603H381V222.603H191.909L191.909 192.603Z" stroke="black"/>
<ellipse cx="213.477" cy="206.513" rx="6.57863" ry="6.57861" stroke="black"/>
<path d="M205.224 214.766L208.826 211.164" stroke="black"/>
<path d="M206.451 213.007L206.976 213.532L204.677 215.83L204.152 215.305L206.451 213.007Z" fill="black" stroke="black"/>
</svg>
