<svg xmlns="http://www.w3.org/2000/svg" xmlns:xlink="http://www.w3.org/1999/xlink" width="42" height="42" viewBox="0 0 42 42">
    <defs>
        <path id="a" d="M0 0h42v42H0z"/>
    </defs>
    <g fill="none" fill-rule="evenodd">
        <g>
            <mask id="b" fill="#fff">
                <use xlink:href="#a"/>
            </mask>
            <path fill="#05E3AB" d="M42 21c0 11.598-9.402 21-21 21S0 32.598 0 21 9.402 0 21 0s21 9.402 21 21" mask="url(#b)"/>
        </g>
        <path fill="#FFF" d="M16.42 19.42a.824.824 0 0 1-.824-.823v-.481c0-.833-.677-1.51-1.51-1.51-.88 0-1.556.677-1.556 1.51v.48a.823.823 0 1 1-1.648 0v-.48a3.162 3.162 0 0 1 3.157-3.158c1.789 0 3.205 1.417 3.205 3.158v.48a.824.824 0 0 1-.824.824M30.21 19.42a.824.824 0 0 1-.824-.823v-.481c0-.833-.677-1.51-1.51-1.51-.88 0-1.557.677-1.557 1.51v.48a.823.823 0 1 1-1.648 0v-.48a3.162 3.162 0 0 1 3.158-3.158c1.788 0 3.205 1.417 3.205 3.158v.48a.824.824 0 0 1-.824.824M11.777 23.898s2.155 7.43 9.18 7.43c7.027 0 9.18-7.43 9.18-7.43h-18.36z"/>
    </g>
</svg>
