<svg xmlns="http://www.w3.org/2000/svg" xmlns:xlink="http://www.w3.org/1999/xlink" width="42" height="42" viewBox="0 0 42 42">
    <defs>
        <path id="a" d="M0 0h42v42H0z"/>
    </defs>
    <g fill="none" fill-rule="evenodd">
        <g>
            <mask id="b" fill="#fff">
                <use xlink:href="#a"/>
            </mask>
            <path fill="#FFD32A" d="M42 21c0 11.598-9.402 21-21 21S0 32.598 0 21 9.402 0 21 0s21 9.402 21 21" mask="url(#b)"/>
        </g>
        <path fill="#FFF" d="M27.92 20.284c-1.79 0-3.206-1.416-3.206-3.158v-.481a.825.825 0 0 1 1.648 0v.481c0 .833.678 1.51 1.51 1.51.88 0 1.557-.677 1.557-1.51v-.481a.824.824 0 1 1 1.648 0v.481a3.162 3.162 0 0 1-3.157 3.158M14.128 20.284c-1.788 0-3.206-1.416-3.206-3.158v-.481a.825.825 0 0 1 1.649 0v.481c0 .833.677 1.51 1.51 1.51.88 0 1.557-.677 1.557-1.51v-.481a.824.824 0 1 1 1.648 0v.481a3.162 3.162 0 0 1-3.158 3.158M28.842 28H13.158a.849.849 0 0 1 0-1.697h15.684a.849.849 0 0 1 0 1.697"/>
    </g>
</svg>
