<svg xmlns="http://www.w3.org/2000/svg" width="42" height="42" viewBox="0 0 42 42">
    <path fill="#2F60CE" fill-rule="evenodd" d="M29.308 19.146h-3.616v-2.657c0-.988.802-1.789 1.79-1.789h.036c.988 0 1.79.8 1.79 1.79v2.656zm-.41 6.338c-.08.147-1.978 3.59-7.898 3.59s-7.819-3.443-7.897-3.59a.745.745 0 0 1 1.313-.703c.07.129 1.622 2.803 6.584 2.803 5.036 0 6.568-2.77 6.583-2.798a.745.745 0 0 1 1.314.698zm-16.206-8.995c0-.988.802-1.789 1.79-1.789h.037c.988 0 1.79.8 1.79 1.79v2.656h-3.617v-2.657zM21 0C9.402 0 0 9.402 0 21s9.402 21 21 21 21-9.402 21-21S32.598 0 21 0z"/>
</svg>
