<svg xmlns="http://www.w3.org/2000/svg" fill="none" viewBox="0 0 80 79"><path fill="#999B9F" fill-rule="evenodd" d="M0 60.14V41.551h27.806c5.119 0 9.269 4.148 9.269 9.264v.058c0 5.117-4.15 9.265-9.269 9.265H0Z" clip-rule="evenodd"/><path fill="#636467" fill-rule="evenodd" d="M37.307 78.713 18.596 60.154 0 78.713h37.306Z" clip-rule="evenodd"/><path fill="#C9CCCF" fill-rule="evenodd" d="M0 60.154h18.595V41.566H0v18.587Z" clip-rule="evenodd"/><path fill="#ABADB2" fill-rule="evenodd" d="M0 78.712h18.596V60.124H0v18.588Z" clip-rule="evenodd"/><path fill="#999B9F" fill-rule="evenodd" d="M0 20.35h37.075V1.763H0V20.35Z" clip-rule="evenodd"/><path fill="#636467" fill-rule="evenodd" d="M0 32.703h27.806V20.35H0v12.353Z" clip-rule="evenodd"/><path fill="#C9CCCF" fill-rule="evenodd" d="M0 20.35h18.595V1.763H0V20.35Z" clip-rule="evenodd"/><path fill="#ABADB2" fill-rule="evenodd" d="M0 38.937h18.595V20.35H0v18.587Z" clip-rule="evenodd"/><path fill="#C9CCCF" fill-rule="evenodd" d="M41.034 78.727V41.436L59.687 60.08 41.034 78.727Z" clip-rule="evenodd"/><path fill="#636467" fill-rule="evenodd" d="M41.034 78.727H78.34V41.436l-37.306 37.29Z" clip-rule="evenodd"/><path fill="#ABADB2" fill-rule="evenodd" d="M59.687 60.08 78.34 78.726H41.034L59.687 60.08Z" clip-rule="evenodd"/><path fill="#999B9F" fill-rule="evenodd" d="M74.058 5.94c7.923 7.92 7.923 20.76 0 28.68-7.924 7.92-20.77 7.92-28.693 0-7.924-7.92-7.924-20.76 0-28.68 7.923-7.92 20.77-7.92 28.693 0Z" clip-rule="evenodd"/><path fill="#636467" fill-rule="evenodd" d="M39.375 20.27c0 11.214 9.094 20.304 20.312 20.304C70.906 40.574 80 31.484 80 20.27" clip-rule="evenodd"/><path fill="#C9CCCF" fill-rule="evenodd" d="M59.734 20.304V0C48.516 0 39.422 9.09 39.422 20.304h20.312Z" clip-rule="evenodd"/><path fill="#ABADB2" fill-rule="evenodd" d="M59.734 20.27H39.422c0 11.214 9.094 20.304 20.312 20.304V20.27Z" clip-rule="evenodd"/></svg>