<svg xmlns="http://www.w3.org/2000/svg" viewBox="0 0 80 79" fill="none"><path d="M0 60.2V41.6h27.8a9.3 9.3 0 0 1 9.3 9.3v0.1a9.3 9.3 0 0 1-9.3 9.3H0z" fill="#636467"/><path d="M37.3 78.7L18.6 60.2 78.7h37.3z" fill="#abadb2"/><path d="M0 60.2h18.6V41.6H0v18.6z" fill="#48494b"/><path d="M0 78.7h18.6V60.2H0v18.6z" fill="#999b9f"/><path d="M0 20.4h37.1V1.8H0v18.6z" fill="#636467"/><path d="M0 32.7h27.8V20.4H0v12.4z" fill="#abadb2"/><path d="M0 20.4h18.6V1.8H0v18.6z" fill="#48494b"/><path d="M0 39h18.6V20.4H0v18.6z" fill="#999b9f"/><path d="M41 78.8V41.5l18.7 18.7L41 78.8z" fill="#48494b"/><path d="M41 78.8H78.3V41.5L41 78.8z" fill="#abadb2"/><path d="M59.7 60.1L78.3 78.8H41l18.7-18.7zm14.4-54.2c7.9 7.9 7.9 20.8 0 28.7s-20.8 7.9-28.7 0-7.9-20.8 0-28.7 20.8-7.9 28.7 0z" fill="#636467"/><path d="M39.4 20.3c0 11.2 9.1 20.3 20.3 20.3S80 31.5 80 20.3" fill="#abadb2"/><path d="M59.7 20.3V0C48.5 0 39.4 9.1 39.4 20.3h20.3z" fill="#48494b"/><path d="M59.7 20.3H39.4c0 11.2 9.1 20.3 20.3 20.3V20.3z" fill="#999b9f"/></svg>