<svg xmlns="http://www.w3.org/2000/svg" viewBox="0 0 168 44" fill="none"><path d="M0 21.6h39.1V1.9H0v19.7z" fill="#999b9f"/><path d="M0 34.7h29.3V21.6H0v13.1z" fill="#636467"/><path d="M0 21.6h19.6V1.9H0v19.7z" fill="#c9cccf"/><path d="M0 41.3h19.6V21.6H0v19.7z" fill="#abadb2"/><path d="M86.8 21.6V1.9h29.3c5.4 0 9.8 4.4 9.8 9.8v0.1c0 5.4-4.4 9.8-9.8 9.8H86.8z" fill="#999b9f"/><path d="M126.2 41.3l-19.7-19.7L86.8 41.3h39.4z" fill="#636467"/><path d="M86.8 21.6h19.6V1.9H86.8v19.7z" fill="#c9cccf"/><path d="M86.8 41.3h19.6V21.6H86.8v19.7z" fill="#abadb2"/><path d="M128.6 41.3V1.7l19.7 19.8-19.7 19.8z" fill="#c9cccf"/><path d="M128.6 41.3H168V1.7l-39.4 39.5z" fill="#636467"/><path d="M148.3 21.5L168 41.3h-39.4l19.7-19.8zM78.1 6.3c8.4 8.4 8.4 22 0 30.4a21.3 21.3 0 0 1-30.3 0c-8.4-8.4-8.4-22 0-30.4a21.3 21.3 0 0 1 30.3 0z" fill="#999b9f"/><path d="M41.5 21.5c0 11.9 9.6 21.5 21.4 21.5s21.4-9.6 21.4-21.5" fill="#636467"/><path d="M63 21.5V0c-11.8 0-21.4 9.6-21.4 21.5h21.4z" fill="#c9cccf"/><path d="M63 21.5h-21.4c0 11.9 9.6 21.5 21.4 21.5V21.5z" fill="#abadb2"/></svg>