<svg xmlns="http://www.w3.org/2000/svg" fill="none" viewBox="0 0 168 43"><path fill="#2F60CE" fill-rule="evenodd" d="M0 21.492h39.108V2.075H-.001v19.417Z" clip-rule="evenodd"/><path fill="#05E3AB" fill-rule="evenodd" d="M0 34.397h29.33V21.492H0v12.905Z" clip-rule="evenodd"/><path fill="#23489B" fill-rule="evenodd" d="M0 21.492h19.615V2.075H-.001v19.417Z" clip-rule="evenodd"/><path fill="#04AA80" fill-rule="evenodd" d="M0 40.909h19.615V21.492H-.001v19.417Z" clip-rule="evenodd"/><path fill="#2F60CE" fill-rule="evenodd" d="M86.813 21.482V2.065h29.331c5.4 0 9.777 4.333 9.777 9.678v.061c0 5.345-4.377 9.679-9.777 9.678h-29.33Z" clip-rule="evenodd"/><path fill="#05E3AB" fill-rule="evenodd" d="m126.166 40.886-19.738-19.387-19.615 19.387h39.353Z" clip-rule="evenodd"/><path fill="#23489B" fill-rule="evenodd" d="M86.813 21.498h19.616V2.08H86.813v19.418Z" clip-rule="evenodd"/><path fill="#04AA80" fill-rule="evenodd" d="M86.813 40.885h19.615V21.468H86.813v19.417Z" clip-rule="evenodd"/><path fill="#23489B" fill-rule="evenodd" d="M128.617 40.9V1.944l19.676 19.478L128.617 40.9Z" clip-rule="evenodd"/><path fill="#05E3AB" fill-rule="evenodd" d="M128.617 40.9h39.352V1.944L128.617 40.9Z" clip-rule="evenodd"/><path fill="#2F60CE" fill-rule="evenodd" d="M148.293 21.422 167.969 40.9h-39.352l19.676-19.478ZM78.094 6.44a21.034 21.034 0 0 1 0 29.96c-8.358 8.274-21.909 8.274-30.267 0a21.034 21.034 0 0 1 0-29.96c8.358-8.274 21.909-8.274 30.267 0Z" clip-rule="evenodd"/><path fill="#05E3AB" fill-rule="evenodd" d="M41.51 21.409c0 11.714 9.592 21.21 21.425 21.21 11.834 0 21.427-9.496 21.427-21.21" clip-rule="evenodd"/><path fill="#23489B" fill-rule="evenodd" d="M62.985 21.444V.234C51.152.234 41.56 9.73 41.56 21.444h21.426Z" clip-rule="evenodd"/><path fill="#04AA80" fill-rule="evenodd" d="M62.985 21.409H41.559c0 11.714 9.593 21.21 21.426 21.21v-21.21Z" clip-rule="evenodd"/></svg>