<svg xmlns="http://www.w3.org/2000/svg" fill="none" viewBox="0 0 80 80"><path fill="#2F60CE" fill-rule="evenodd" d="M0 60.524V41.818h27.806c5.12 0 9.269 4.174 9.269 9.324v.058c0 5.15-4.15 9.324-9.269 9.324H0Z" clip-rule="evenodd"/><path fill="#05E3AB" fill-rule="evenodd" d="M37.307 79.216 18.596 60.54 0 79.216h37.307Z" clip-rule="evenodd"/><path fill="#23489B" fill-rule="evenodd" d="M0 60.54h18.595V41.832H0v18.706Z" clip-rule="evenodd"/><path fill="#04AA80" fill-rule="evenodd" d="M0 79.216h18.596V60.51H0v18.706Z" clip-rule="evenodd"/><path fill="#2F60CE" fill-rule="evenodd" d="M0 20.48h37.075V1.773H0V20.48Z" clip-rule="evenodd"/><path fill="#05E3AB" fill-rule="evenodd" d="M0 32.912h27.806V20.48H0v12.432Z" clip-rule="evenodd"/><path fill="#23489B" fill-rule="evenodd" d="M0 20.48h18.595V1.774H0V20.48Z" clip-rule="evenodd"/><path fill="#04AA80" fill-rule="evenodd" d="M0 39.187h18.595V20.48H0v18.707Z" clip-rule="evenodd"/><path fill="#23489B" fill-rule="evenodd" d="M41.034 79.23V41.702l18.654 18.765L41.034 79.23Z" clip-rule="evenodd"/><path fill="#05E3AB" fill-rule="evenodd" d="M41.034 79.23h37.307V41.702l-37.307 37.53Z" clip-rule="evenodd"/><path fill="#2F60CE" fill-rule="evenodd" d="M59.688 60.466 78.34 79.231H41.034l18.654-18.765ZM74.058 5.978c7.923 7.97 7.923 20.894 0 28.864-7.924 7.971-20.77 7.971-28.693 0-7.924-7.97-7.924-20.893 0-28.864 7.923-7.97 20.77-7.97 28.693 0Z" clip-rule="evenodd"/><path fill="#05E3AB" fill-rule="evenodd" d="M39.375 20.4c0 11.286 9.094 20.434 20.313 20.434C70.906 40.834 80 31.685 80 20.4" clip-rule="evenodd"/><path fill="#23489B" fill-rule="evenodd" d="M59.734 20.433V0C48.516 0 39.422 9.148 39.422 20.433h20.312Z" clip-rule="evenodd"/><path fill="#04AA80" fill-rule="evenodd" d="M59.734 20.4H39.422c0 11.286 9.094 20.434 20.312 20.434V20.4Z" clip-rule="evenodd"/></svg>