<svg xmlns="http://www.w3.org/2000/svg" fill="none" viewBox="0 0 80 79"><path fill="#C9CCCF" fill-rule="evenodd" d="M0 60.165V41.57h27.806c5.12 0 9.269 4.15 9.269 9.268v.058a9.269 9.269 0 0 1-9.269 9.269H0Z" clip-rule="evenodd"/><path fill="#F0F0F1" fill-rule="evenodd" d="M37.307 78.746 18.596 60.18 0 78.746h37.306Z" clip-rule="evenodd"/><path fill="#ABADB2" fill-rule="evenodd" d="M0 60.18h18.595V41.583H0v18.595Z" clip-rule="evenodd"/><path fill="#E1E2E4" fill-rule="evenodd" d="M0 78.746h18.596V60.151H0v18.595Z" clip-rule="evenodd"/><path fill="#C9CCCF" fill-rule="evenodd" d="M0 20.359h37.075V1.764H0v18.595Z" clip-rule="evenodd"/><path fill="#F0F0F1" fill-rule="evenodd" d="M0 32.717h27.806V20.359H0v12.358Z" clip-rule="evenodd"/><path fill="#ABADB2" fill-rule="evenodd" d="M0 20.359h18.595V1.764H0v18.595Z" clip-rule="evenodd"/><path fill="#E1E2E4" fill-rule="evenodd" d="M0 38.954h18.595V20.36H0v18.595Z" clip-rule="evenodd"/><path fill="#ABADB2" fill-rule="evenodd" d="M41.034 78.76V41.454l18.653 18.653L41.034 78.76Z" clip-rule="evenodd"/><path fill="#F0F0F1" fill-rule="evenodd" d="M41.034 78.76H78.34V41.454L41.034 78.76Z" clip-rule="evenodd"/><path fill="#C9CCCF" fill-rule="evenodd" d="M59.687 60.107 78.34 78.76H41.034l18.653-18.653ZM74.057 5.942c7.924 7.924 7.924 20.77 0 28.693-7.923 7.924-20.77 7.924-28.692 0-7.924-7.923-7.924-20.77 0-28.693 7.923-7.923 20.77-7.923 28.692 0" clip-rule="evenodd"/><path fill="#F0F0F1" fill-rule="evenodd" d="M39.375 20.28c0 11.217 9.094 20.311 20.312 20.311C70.906 40.591 80 31.497 80 20.28" clip-rule="evenodd"/><path fill="#ABADB2" fill-rule="evenodd" d="M59.734 20.312V0C48.516 0 39.422 9.094 39.422 20.312h20.312Z" clip-rule="evenodd"/><path fill="#E1E2E4" fill-rule="evenodd" d="M59.734 20.28H39.422c0 11.217 9.094 20.312 20.312 20.312V20.279Z" clip-rule="evenodd"/></svg>