<svg xmlns="http://www.w3.org/2000/svg" fill="none" viewBox="0 0 168 43"><path fill="#C9CCCF" fill-rule="evenodd" d="M0 21.48h39.116V1.86H0v19.62Z" clip-rule="evenodd"/><path fill="#F0F0F1" fill-rule="evenodd" d="M0 34.518h29.337V21.48H0v13.038Z" clip-rule="evenodd"/><path fill="#ABADB2" fill-rule="evenodd" d="M0 21.48h19.619V1.86H0v19.62Z" clip-rule="evenodd"/><path fill="#E1E2E4" fill-rule="evenodd" d="M0 41.098h19.619V21.48H0v19.618Z" clip-rule="evenodd"/><path fill="#C9CCCF" fill-rule="evenodd" d="M86.829 21.47V1.852h29.336c5.401 0 9.779 4.378 9.779 9.778v.062c0 5.4-4.378 9.779-9.779 9.778H86.829Z" clip-rule="evenodd"/><path fill="#F0F0F1" fill-rule="evenodd" d="m126.189 41.073-19.741-19.588L86.83 41.073h39.359Z" clip-rule="evenodd"/><path fill="#ABADB2" fill-rule="evenodd" d="M86.829 21.486h19.619V1.867h-19.62v19.62Z" clip-rule="evenodd"/><path fill="#E1E2E4" fill-rule="evenodd" d="M86.83 41.073h19.618V21.454H86.83v19.619Z" clip-rule="evenodd"/><path fill="#ABADB2" fill-rule="evenodd" d="M128.64 41.089V1.729l19.68 19.68-19.68 19.68Z" clip-rule="evenodd"/><path fill="#F0F0F1" fill-rule="evenodd" d="M128.64 41.089H168V1.729l-39.36 39.36Z" clip-rule="evenodd"/><path fill="#C9CCCF" fill-rule="evenodd" d="M148.32 21.409 168 41.089h-39.36l19.68-19.68ZM78.107 6.27c8.36 8.36 8.36 21.913 0 30.272-8.359 8.36-21.912 8.36-30.272 0-8.359-8.36-8.359-21.913 0-30.272 8.36-8.36 21.913-8.36 30.272 0" clip-rule="evenodd"/><path fill="#F0F0F1" fill-rule="evenodd" d="M41.516 21.395c0 11.836 9.595 21.43 21.43 21.43 11.836 0 21.431-9.594 21.431-21.43" clip-rule="evenodd"/><path fill="#ABADB2" fill-rule="evenodd" d="M62.996 21.43V0c-11.836 0-21.43 9.595-21.43 21.43h21.43Z" clip-rule="evenodd"/><path fill="#E1E2E4" fill-rule="evenodd" d="M62.996 21.395h-21.43c0 11.836 9.594 21.43 21.43 21.43v-21.43Z" clip-rule="evenodd"/></svg>