<svg xmlns="http://www.w3.org/2000/svg" viewBox="0 0 168 43" fill="none"><path d="M0 21.5h39.1V1.9H0v19.6z" fill="#636467"/><path d="M0 34.5h29.3V21.5H0v13z" fill="#abadb2"/><path d="M0 21.5h19.6V1.9H0v19.6z" fill="#48494b"/><path d="M0 41.1h19.6V21.5H0v19.6z" fill="#999b9f"/><path d="M86.8 21.5V1.9h29.3a9.8 9.8 0 0 1 9.8 9.8v0.1a9.8 9.8 0 0 1-9.8 9.8H86.8z" fill="#636467"/><path d="M126.2 41.1l-19.7-19.6L86.8 41.1h39.4z" fill="#abadb2"/><path d="M86.8 21.5h19.6V1.9H86.8v19.6z" fill="#48494b"/><path d="M86.8 41.1h19.6V21.5H86.8v19.6z" fill="#999b9f"/><path d="M128.6 41.1V1.7l19.7 19.7-19.7 19.7z" fill="#48494b"/><path d="M128.6 41.1H168V1.7l-39.4 39.4z" fill="#abadb2"/><path d="M148.3 21.4L168 41.1h-39.4l19.7-19.7zM78.1 6.3a21.4 21.4 0 0 1-30.3 30.3 21.4 21.4 0 0 1 0-30.3 21.4 21.4 0 0 1 30.3 0z" fill="#636467"/><path d="M41.5 21.4c0 11.8 9.6 21.4 21.4 21.4s21.4-9.6 21.4-21.4" fill="#abadb2"/><path d="M63 21.4V0c-11.8 0-21.4 9.6-21.4 21.4h21.4z" fill="#48494b"/><path d="M63 21.4h-21.4c0 11.8 9.6 21.4 21.4 21.4v-21.4z" fill="#999b9f"/></svg>