<svg xmlns="http://www.w3.org/2000/svg" viewBox="0 0 80 79" fill="none"><path d="M0 60.1V41.6h27.8a9.3 9.3 0 0 1 9.3 9.3v0.1a9.3 9.3 0 0 1-9.3 9.3H0z" fill="#999b9f"/><path d="M37.3 78.7L18.6 60.2 78.7h37.3z" fill="#636467"/><path d="M0 60.2h18.6V41.6H0v18.6z" fill="#c9cccf"/><path d="M0 78.7h18.6V60.1H0v18.6z" fill="#abadb2"/><path d="M0 20.4h37.1V1.8H0V20.4z" fill="#999b9f"/><path d="M0 32.7h27.8V20.4H0v12.4z" fill="#636467"/><path d="M0 20.4h18.6V1.8H0V20.4z" fill="#c9cccf"/><path d="M0 38.9h18.6V20.4H0v18.6z" fill="#abadb2"/><path d="M41 78.7V41.4l18.7 18.6-18.7 18.6z" fill="#c9cccf"/><path d="M41 78.7H78.3V41.4L41 78.7z" fill="#636467"/><path d="M59.7 60.1L78.3 78.7H41L59.7 60.1z" fill="#abadb2"/><path d="M74.1 5.9c7.9 7.9 7.9 20.8 0 28.7s-20.8 7.9-28.7 0-7.9-20.8 0-28.7a20.3 20.3 0 0 1 28.7 0z" fill="#999b9f"/><path d="M39.4 20.3c0 11.2 9.1 20.3 20.3 20.3S80 31.5 80 20.3" fill="#636467"/><path d="M59.7 20.3V0C48.5 0 39.4 9.1 39.4 20.3h20.3z" fill="#c9cccf"/><path d="M59.7 20.3H39.4c0 11.2 9.1 20.3 20.3 20.3V20.3z" fill="#abadb2"/></svg>