<svg xmlns="http://www.w3.org/2000/svg" viewBox="0 0 168 43" fill="none"><path d="M0 21.5h39.1V2.1H0v19.4z" fill="#2f60ce"/><path d="M0 34.4h29.3V21.5H0v12.9z" fill="#05e3ab"/><path d="M0 21.5h19.6V2.1H0v19.4z" fill="#23489b"/><path d="M0 40.9h19.6V21.5H0v19.4z" fill="#04aa80"/><path d="M86.8 21.5V2.1h29.3c5.4 0 9.8 4.3 9.8 9.7v0.1c0 5.3-4.4 9.7-9.8 9.7H86.8z" fill="#2f60ce"/><path d="M126.2 40.9l-19.7-19.4-19.6 19.4h39.4z" fill="#05e3ab"/><path d="M86.8 21.5h19.6V2.1H86.8v19.4z" fill="#23489b"/><path d="M86.8 40.9h19.6V21.5H86.8v19.4z" fill="#04aa80"/><path d="M128.6 40.9V1.9l19.7 19.5L128.6 40.9z" fill="#23489b"/><path d="M128.6 40.9h39.4V1.9L128.6 40.9z" fill="#05e3ab"/><path d="M148.3 21.4L168 40.9h-39.4l19.7-19.5zM78.1 6.4c8.4 8.3 8.4 21.7 0 30s-21.9 8.3-30.3 0-8.4-21.7 0-30 21.9-8.3 30.3 0z" fill="#2f60ce"/><path d="M41.5 21.4c0 11.7 9.6 21.2 21.4 21.2s21.4-9.5 21.4-21.2" fill="#05e3ab"/><path d="M63 21.4V0.2c-11.8 0-21.4 9.5-21.4 21.2h21.4z" fill="#23489b"/><path d="M63 21.4H41.6c0 11.7 9.6 21.2 21.4 21.2v-21.2z" fill="#04aa80"/></svg>