<svg xmlns="http://www.w3.org/2000/svg" fill="none" viewBox="0 0 168 44"><path fill="#999B9F" fill-rule="evenodd" d="M0 21.576h39.115V1.868H0v19.708Z" clip-rule="evenodd"/><path fill="#636467" fill-rule="evenodd" d="M0 34.673h29.337V21.575H0v13.098Z" clip-rule="evenodd"/><path fill="#C9CCCF" fill-rule="evenodd" d="M0 21.576h19.619V1.868H0v19.708Z" clip-rule="evenodd"/><path fill="#ABADB2" fill-rule="evenodd" d="M0 41.284h19.619V21.576H0v19.708Z" clip-rule="evenodd"/><path fill="#999B9F" fill-rule="evenodd" d="M86.829 21.566V1.86h29.336c5.401 0 9.779 4.398 9.779 9.823v.061c0 5.426-4.378 9.824-9.779 9.823H86.829Z" clip-rule="evenodd"/><path fill="#636467" fill-rule="evenodd" d="m126.189 41.259-19.741-19.677L86.83 41.259h39.359Z" clip-rule="evenodd"/><path fill="#C9CCCF" fill-rule="evenodd" d="M86.829 21.582h19.619V1.875H86.829v19.707Z" clip-rule="evenodd"/><path fill="#ABADB2" fill-rule="evenodd" d="M86.83 41.258h19.618V21.551H86.83v19.707Z" clip-rule="evenodd"/><path fill="#C9CCCF" fill-rule="evenodd" d="M128.64 41.274V1.735l19.68 19.77-19.68 19.769Z" clip-rule="evenodd"/><path fill="#636467" fill-rule="evenodd" d="M128.64 41.274H168V1.735l-39.36 39.539Z" clip-rule="evenodd"/><path fill="#999B9F" fill-rule="evenodd" d="M148.32 21.505 168 41.274h-39.36l19.68-19.77ZM78.108 6.298c8.36 8.397 8.36 22.012 0 30.409-8.359 8.397-21.912 8.397-30.272 0-8.359-8.397-8.359-22.012 0-30.409 8.36-8.397 21.913-8.397 30.272 0" clip-rule="evenodd"/><path fill="#636467" fill-rule="evenodd" d="M41.517 21.492c0 11.89 9.595 21.527 21.43 21.527 11.836 0 21.431-9.637 21.431-21.527" clip-rule="evenodd"/><path fill="#C9CCCF" fill-rule="evenodd" d="M62.996 21.527V0c-11.835 0-21.43 9.638-21.43 21.527h21.43Z" clip-rule="evenodd"/><path fill="#ABADB2" fill-rule="evenodd" d="M62.996 21.492h-21.43c0 11.89 9.595 21.527 21.43 21.527V21.492Z" clip-rule="evenodd"/></svg>