<svg width="25" height="30" viewBox="0 0 25 30" fill="none" xmlns="http://www.w3.org/2000/svg">
<path fill-rule="evenodd" clip-rule="evenodd" d="M11.1513 11.1233L16.9223 12.6537C17.1359 12.7104 17.304 12.8743 17.3659 13.0861L18.9515 18.5068V21.9676C18.9515 23.1278 18.0083 24.0687 16.8452 24.0687H4.21247C1.88592 24.0687 0 22.1874 0 19.8666V4.20161C0 1.88121 1.88592 -0.000488281 4.21247 -0.000488281H14.739C17.0651 -0.000488281 18.9515 1.88121 18.9515 4.20161V5.56182H7.68186C6.5188 5.56182 5.57563 6.50225 5.57563 7.66287V17.9353C5.57563 18.2837 5.8587 18.5656 6.2075 18.5656H10.5194C10.8682 18.5656 11.1513 18.2837 11.1513 17.9353V11.1233Z" fill="#384A51"/>
<path fill-rule="evenodd" clip-rule="evenodd" d="M9.78823 29.2112H20.7356C22.8258 29.2112 24.5264 27.5144 24.5264 25.4293V9.76431C24.5264 7.67881 22.8258 5.98242 20.7352 5.98242H7.68157C6.75272 5.98242 5.99658 6.73628 5.99658 7.66326V17.9357C5.99658 18.0517 6.09136 18.1458 6.20721 18.1458H10.5191C10.6354 18.1458 10.7297 18.0517 10.7297 17.9357V11.1237V10.7035H11.151H18.3193C18.8998 10.7035 19.3724 11.1745 19.3724 11.754V21.968C19.3724 23.3581 18.2389 24.4893 16.845 24.4893L5.99658 24.4897V25.4289C5.99658 27.5144 7.69758 29.2112 9.78823 29.2112Z" fill="#8CA6AD"/>
</svg>
