<svg xmlns="http://www.w3.org/2000/svg" viewBox="0 0 183 48" fill="none"><g clip-path="url(#clip0)"><path d="M79.1 6.8C79.1 4.9 77.7 3.5 75.9 3.5 74 3.5 72.6 4.9 72.6 6.8 72.6 8.7 74 10.1 75.9 10.1 77.7 10.1 79.1 8.7 79.1 6.8ZM70.7 6.8C70.7 3.9 73 1.7 75.9 1.7 78.8 1.7 81 3.9 81 6.8 81 9.7 78.8 11.9 75.9 11.9 73 11.9 70.7 9.7 70.7 6.8ZM89.7 5C89.7 4.1 89.1 3.4 88.1 3.4H86.4C86.3 3.4 86.2 3.5 86.2 3.5 86.1 3.6 86.1 3.7 86.1 3.8V6.2C86.1 6.4 86.2 6.5 86.4 6.5H88.1C89.1 6.5 89.7 5.9 89.7 5ZM91.6 5C91.6 6.8 90.3 8.2 88.3 8.2H86.4C86.3 8.2 86.2 8.2 86.2 8.3 86.1 8.3 86.1 8.4 86.1 8.5V11.5C86.1 11.5 86.1 11.5 86 11.6 86 11.6 86 11.7 86 11.7 85.9 11.7 85.9 11.7 85.9 11.8 85.8 11.8 85.8 11.8 85.8 11.8H84.5C84.5 11.8 84.4 11.8 84.4 11.8 84.3 11.7 84.3 11.7 84.3 11.7 84.2 11.7 84.2 11.6 84.2 11.6 84.2 11.5 84.2 11.5 84.2 11.5V2.1C84.2 1.9 84.3 1.8 84.5 1.8H88.3C90.3 1.8 91.6 3.2 91.6 5L91.6 5ZM96.5 3.9V5.6C96.5 5.8 96.6 6 96.8 6H99.6C99.8 6 99.9 6.1 99.9 6.3V7.3C99.9 7.4 99.9 7.5 99.9 7.6 99.8 7.6 99.7 7.7 99.6 7.7H96.8C96.8 7.7 96.7 7.7 96.7 7.7 96.7 7.7 96.6 7.7 96.6 7.7 96.6 7.8 96.5 7.8 96.5 7.9 96.5 7.9 96.5 7.9 96.5 8V9.7C96.5 9.9 96.6 10.1 96.8 10.1H100.1C100.3 10.1 100.4 10.2 100.4 10.4V11.5C100.4 11.5 100.4 11.6 100.3 11.7 100.3 11.8 100.2 11.8 100.1 11.8H94.9C94.9 11.8 94.8 11.8 94.8 11.8 94.8 11.7 94.7 11.7 94.7 11.7 94.7 11.7 94.6 11.6 94.6 11.6 94.6 11.5 94.6 11.5 94.6 11.5V2.1C94.6 1.9 94.8 1.8 94.9 1.8H100.1C100.3 1.8 100.4 1.9 100.4 2.1V3.2C100.4 3.3 100.4 3.4 100.3 3.4 100.3 3.5 100.2 3.5 100.1 3.5H96.8C96.7 3.5 96.6 3.6 96.6 3.6 96.5 3.7 96.5 3.8 96.5 3.9H96.5ZM113 2.1V11.5C113 11.5 113 11.6 112.9 11.7 112.9 11.8 112.8 11.8 112.7 11.8H111.4C111.3 11.8 111.3 11.8 111.2 11.8 111.2 11.7 111.2 11.7 111.1 11.7L106.2 5.4C106.1 5.1 105.7 5.3 105.7 5.6V11.5C105.7 11.5 105.6 11.6 105.6 11.7 105.5 11.8 105.4 11.8 105.4 11.8H104.1C104.1 11.8 104 11.8 103.9 11.7 103.9 11.6 103.8 11.5 103.8 11.5V2.1C103.8 1.9 104 1.8 104.1 1.8H105.4C105.5 1.8 105.6 1.8 105.7 1.9L110.6 8.2C110.8 8.4 111.1 8.3 111.1 8V2.1C111.1 1.9 111.3 1.8 111.5 1.8H112.7C112.9 1.8 113 1.9 113 2.1V2.1ZM81 24C81 26.9 78.8 29.1 75.9 29.1 73 29.1 70.7 26.9 70.7 24 70.7 21.1 73 18.9 75.9 18.9 77.6 18.9 79 19.6 79.9 20.8 80 20.8 80 20.9 80 20.9 80 21 80 21 80 21.1 80 21.1 80 21.1 79.9 21.2 79.9 21.2 79.9 21.3 79.8 21.3L78.7 21.9C78.7 21.9 78.6 21.9 78.5 21.9 78.5 21.9 78.4 21.9 78.4 21.8 77.8 21.1 76.9 20.7 75.9 20.7 74 20.7 72.6 22.1 72.6 24 72.6 25.9 73.9 27.3 75.9 27.3 77.3 27.3 78.4 26.6 78.9 25.4 78.9 25.2 78.8 25 78.6 25H76.8C76.7 25 76.7 25 76.7 25 76.6 24.9 76.6 24.9 76.6 24.9 76.5 24.9 76.5 24.8 76.5 24.8 76.5 24.7 76.5 24.7 76.5 24.7V23.7C76.5 23.5 76.6 23.4 76.8 23.4H80.7C80.9 23.4 81 23.5 81 23.7 81 23.8 81 23.9 81 24ZM91.8 24C91.8 22.1 90.4 20.7 88.5 20.7 86.7 20.7 85.3 22.1 85.3 24 85.3 25.9 86.7 27.3 88.5 27.3 90.4 27.3 91.8 25.9 91.8 24ZM83.4 24C83.4 21.1 85.6 18.9 88.5 18.9 91.5 18.9 93.7 21.1 93.7 24 93.7 26.9 91.5 29.1 88.5 29.1 85.6 29.1 83.4 26.9 83.4 24ZM104.5 19.4L101 28.8C101 28.8 101 28.9 100.9 28.9 100.9 29 100.8 29 100.7 29H99.2C99.2 29 99.1 29 99 28.9 99 28.9 99 28.8 98.9 28.8L95.5 19.4C95.5 19.4 95.5 19.3 95.5 19.3 95.5 19.2 95.5 19.2 95.5 19.1 95.6 19.1 95.6 19.1 95.6 19 95.7 19 95.7 19 95.8 19H97.1C97.2 19 97.4 19.1 97.4 19.2L99.7 25.8C99.8 26.1 100.2 26.1 100.3 25.8L102.6 19.2C102.6 19.2 102.6 19.1 102.7 19.1 102.7 19 102.8 19 102.9 19H104.2C104.4 19 104.6 19.2 104.5 19.4ZM109.4 21.1V22.8C109.4 23 109.5 23.2 109.7 23.2H112.5C112.7 23.2 112.8 23.3 112.8 23.5V24.5C112.8 24.6 112.8 24.7 112.7 24.8 112.7 24.8 112.6 24.9 112.5 24.9H109.7C109.6 24.9 109.5 24.9 109.5 25 109.4 25 109.4 25.1 109.4 25.2V26.9C109.4 27.1 109.5 27.3 109.7 27.3H113C113.2 27.3 113.3 27.4 113.3 27.6V28.7C113.3 28.7 113.3 28.8 113.3 28.8 113.3 28.8 113.2 28.9 113.2 28.9 113.2 28.9 113.1 29 113.1 29 113.1 29 113 29 113 29H107.8C107.8 29 107.7 29 107.7 29 107.6 28.9 107.6 28.9 107.6 28.9 107.6 28.9 107.5 28.8 107.5 28.8 107.5 28.8 107.5 28.7 107.5 28.7V19.3C107.5 19.2 107.6 19 107.8 19H113C113.2 19 113.3 19.2 113.3 19.3V20.4C113.3 20.4 113.3 20.5 113.3 20.5 113.3 20.6 113.2 20.6 113.2 20.6 113.2 20.7 113.1 20.7 113.1 20.7 113.1 20.7 113 20.7 113 20.7H109.7C109.6 20.7 109.5 20.8 109.5 20.8 109.4 20.9 109.4 21 109.4 21.1ZM118.6 22.9C118.6 23.1 118.7 23.2 118.9 23.2H120.4C121.3 23.2 121.8 22.7 121.8 21.9 121.8 21.2 121.3 20.6 120.4 20.6H118.9C118.8 20.6 118.7 20.7 118.7 20.7 118.6 20.8 118.6 20.9 118.6 21V22.9ZM120 24.8H118.9C118.8 24.8 118.7 24.8 118.7 24.9 118.6 24.9 118.6 25 118.6 25.1V28.7C118.6 28.7 118.6 28.8 118.6 28.8 118.5 28.8 118.5 28.9 118.5 28.9 118.5 28.9 118.4 29 118.4 29 118.4 29 118.3 29 118.3 29H117C117 29 116.9 29 116.9 29 116.9 29 116.8 28.9 116.8 28.9 116.8 28.9 116.7 28.8 116.7 28.8 116.7 28.8 116.7 28.7 116.7 28.7V19.3C116.7 19.2 116.8 19 117 19H120.5C122.5 19 123.6 20.3 123.6 22 123.6 23.1 123.1 23.9 122.2 24.4 122.2 24.4 122.1 24.5 122.1 24.5 122.1 24.5 122.1 24.6 122.1 24.6 122 24.6 122 24.7 122 24.7 122.1 24.8 122.1 24.8 122.1 24.9L124.2 28.5C124.2 28.6 124.2 28.6 124.2 28.7 124.2 28.7 124.2 28.8 124.2 28.8 124.2 28.9 124.1 28.9 124.1 28.9 124 29 124 29 123.9 29H122.6C122.6 29 122.5 29 122.5 28.9 122.4 28.9 122.4 28.9 122.3 28.8L120.3 24.9C120.2 24.9 120.2 24.8 120.1 24.8 120.1 24.8 120 24.8 120 24.8H120ZM136.5 19.3V28.7C136.5 28.8 136.5 28.8 136.4 28.9 136.4 29 136.3 29 136.2 29H134.9C134.8 29 134.8 29 134.7 29 134.7 28.9 134.7 28.9 134.6 28.9L129.7 22.6C129.6 22.3 129.2 22.5 129.2 22.8V28.7C129.2 28.8 129.2 28.8 129.1 28.9 129 29 129 29 128.9 29H127.6C127.6 29 127.5 29 127.4 28.9 127.4 28.8 127.3 28.8 127.3 28.7V19.3C127.3 19.2 127.5 19 127.6 19H128.9C129 19 129.1 19.1 129.2 19.1L134.1 25.4C134.3 25.6 134.6 25.5 134.6 25.2V19.3C134.6 19.2 134.8 19 135 19H136.2C136.4 19 136.5 19.2 136.5 19.3L136.5 19.3ZM151 19.3V28.7C151 28.8 151 28.8 150.9 28.9 150.8 29 150.8 29 150.7 29H149.4C149.3 29 149.3 29 149.2 28.9 149.1 28.8 149.1 28.8 149.1 28.7V23.3C149.1 22.9 148.6 22.8 148.5 23.1L146.2 28.8C146.2 28.8 146.2 28.9 146.1 28.9 146.1 29 146 29 145.9 29H145.4C145.3 29 145.3 29 145.2 28.9 145.2 28.9 145.1 28.8 145.1 28.8L142.9 23.1C142.7 22.8 142.2 22.9 142.2 23.2V28.7C142.2 28.8 142.2 28.8 142.2 28.9 142.1 29 142 29 141.9 29H140.7C140.6 29 140.5 29 140.5 28.9 140.4 28.8 140.4 28.8 140.4 28.7V19.3C140.4 19.2 140.5 19 140.7 19H142.7C142.8 19 142.9 19.1 143 19.2L145.4 25.1C145.4 25.2 145.4 25.2 145.5 25.3 145.5 25.3 145.6 25.3 145.7 25.3 145.7 25.3 145.8 25.3 145.8 25.3 145.9 25.2 145.9 25.2 146 25.1L148.4 19.2C148.4 19.1 148.4 19.1 148.5 19.1 148.5 19 148.6 19 148.7 19H150.7C150.9 19 151 19.2 151 19.3ZM156.7 21.1V22.8C156.7 23 156.9 23.2 157 23.2H159.9C160 23.2 160.2 23.3 160.2 23.5V24.5C160.2 24.6 160.1 24.7 160.1 24.8 160 24.8 159.9 24.9 159.9 24.9H157C157 24.9 156.9 24.9 156.8 25 156.8 25 156.7 25.1 156.7 25.2V26.9C156.7 27.1 156.9 27.3 157 27.3H160.3C160.5 27.3 160.6 27.4 160.6 27.6V28.7C160.6 28.7 160.6 28.8 160.6 28.8 160.6 28.8 160.6 28.9 160.6 28.9 160.5 28.9 160.5 28.9 160.5 29 160.4 29 160.4 29 160.3 29H155.2C155.1 29 155.1 29 155 29 155 29 155 28.9 154.9 28.9 154.9 28.9 154.9 28.8 154.9 28.8 154.8 28.8 154.8 28.7 154.8 28.7V19.3C154.8 19.2 155 19 155.2 19H160.3C160.5 19 160.6 19.2 160.6 19.3V20.4C160.6 20.4 160.6 20.5 160.6 20.5 160.6 20.6 160.6 20.6 160.6 20.6 160.5 20.7 160.5 20.7 160.5 20.7 160.4 20.7 160.4 20.7 160.3 20.7H157C157 20.7 156.9 20.8 156.8 20.8 156.8 20.9 156.7 21 156.7 21.1ZM173.2 19.3V28.7C173.2 28.7 173.2 28.8 173.2 28.8 173.2 28.8 173.2 28.9 173.2 28.9 173.1 28.9 173.1 29 173.1 29 173 29 173 29 172.9 29H171.6C171.6 29 171.5 29 171.5 29 171.4 28.9 171.4 28.9 171.4 28.9L166.5 22.6C166.3 22.3 165.9 22.5 165.9 22.8V28.7C165.9 28.8 165.9 28.8 165.8 28.9 165.8 29 165.7 29 165.6 29H164.4C164.3 29 164.2 29 164.1 28.9 164.1 28.8 164 28.8 164 28.7V19.3C164 19.2 164.2 19 164.4 19H165.7C165.8 19 165.9 19.1 165.9 19.1L170.8 25.4C171 25.6 171.4 25.5 171.4 25.2V19.3C171.4 19.2 171.5 19 171.7 19H172.9C173.1 19 173.2 19.2 173.2 19.3" fill="black"/><mask mask-type="alpha" maskUnits="userSpaceOnUse" x="176" y="19" width="8" height="10"><path d="M176.2 19H183.1V29H176.2V19Z" fill="white"/></mask><g mask="url(#mask0)"><path d="M182.7 20.7H180.9C180.8 20.7 180.8 20.7 180.8 20.8 180.7 20.8 180.7 20.8 180.7 20.8 180.6 20.9 180.6 20.9 180.6 20.9 180.6 21 180.6 21 180.6 21.1V28.7C180.6 28.8 180.5 28.8 180.5 28.9 180.4 29 180.3 29 180.2 29H179C178.9 29 178.8 29 178.8 28.9 178.7 28.8 178.7 28.8 178.7 28.7V21.1C178.7 21 178.7 21 178.7 20.9 178.6 20.9 178.6 20.9 178.6 20.8 178.6 20.8 178.5 20.8 178.5 20.8 178.4 20.7 178.4 20.7 178.4 20.7H176.5C176.4 20.7 176.3 20.7 176.3 20.6 176.2 20.6 176.2 20.5 176.2 20.4V19.3C176.2 19.2 176.3 19 176.5 19H182.7C182.9 19 183.1 19.2 183.1 19.3V20.4C183.1 20.5 183 20.6 183 20.6 182.9 20.7 182.8 20.7 182.7 20.7Z" fill="black"/></g><path d="M76.9 39.4C76.9 38.5 76.4 37.8 75.3 37.8H73.6C73.5 37.8 73.4 37.9 73.4 37.9 73.3 38 73.3 38.1 73.3 38.2V40.6C73.3 40.8 73.4 40.9 73.6 40.9H75.3C76.4 40.9 76.9 40.4 76.9 39.4H76.9ZM78.8 39.4C78.8 41.2 77.5 42.6 75.6 42.6H73.6C73.5 42.6 73.4 42.6 73.4 42.7 73.3 42.7 73.3 42.8 73.3 42.9V45.9C73.3 45.9 73.3 46 73.3 46 73.3 46 73.2 46.1 73.2 46.1 73.2 46.1 73.1 46.2 73.1 46.2 73.1 46.2 73 46.2 73 46.2H71.7C71.7 46.2 71.6 46.2 71.6 46.2 71.6 46.2 71.5 46.1 71.5 46.1 71.5 46.1 71.4 46 71.4 46 71.4 46 71.4 45.9 71.4 45.9V36.5C71.4 36.4 71.5 36.2 71.7 36.2H75.6C77.5 36.2 78.8 37.7 78.8 39.4ZM83.7 40.1C83.7 40.3 83.9 40.4 84 40.4H85.5C86.4 40.4 86.9 40 86.9 39.2 86.9 38.4 86.4 37.9 85.5 37.9H84C84 37.9 84 37.9 83.9 37.9 83.9 37.9 83.8 37.9 83.8 37.9 83.8 38 83.8 38 83.7 38.1 83.7 38.1 83.7 38.1 83.7 38.2V40.1 40.1ZM85.1 42H84C84 42 83.9 42 83.8 42.1 83.8 42.1 83.7 42.2 83.7 42.3V45.9C83.7 45.9 83.7 46 83.7 46 83.7 46 83.7 46.1 83.6 46.1 83.6 46.1 83.6 46.2 83.5 46.2 83.5 46.2 83.4 46.2 83.4 46.2H82.1C82.1 46.2 82.1 46.2 82 46.2 82 46.2 82 46.1 81.9 46.1 81.9 46.1 81.9 46 81.9 46 81.8 46 81.8 45.9 81.8 45.9V36.5C81.8 36.4 82 36.2 82.1 36.2H85.6C87.6 36.2 88.7 37.5 88.7 39.2 88.7 40.3 88.2 41.1 87.3 41.6 87.3 41.6 87.3 41.7 87.2 41.7 87.2 41.7 87.2 41.8 87.2 41.8 87.2 41.8 87.2 41.9 87.2 41.9 87.2 42 87.2 42 87.2 42.1L89.3 45.7C89.4 45.8 89.4 45.8 89.4 45.9 89.4 45.9 89.4 46 89.3 46 89.3 46.1 89.3 46.1 89.2 46.2 89.2 46.2 89.1 46.2 89.1 46.2H87.7C87.7 46.2 87.6 46.2 87.6 46.2 87.5 46.1 87.5 46.1 87.5 46L85.4 42.1C85.4 42.1 85.3 42.1 85.3 42 85.2 42 85.2 42 85.1 42ZM99.9 41.2C99.9 39.3 98.5 37.9 96.7 37.9 94.8 37.9 93.4 39.3 93.4 41.2 93.4 43.1 94.8 44.5 96.7 44.5 98.5 44.5 99.9 43.1 99.9 41.2ZM91.5 41.2C91.5 38.3 93.7 36.1 96.7 36.1 99.6 36.1 101.8 38.3 101.8 41.2 101.8 44.1 99.6 46.3 96.7 46.3 93.7 46.3 91.5 44.1 91.5 41.2ZM108.2 44.5C110.3 44.5 111.3 43.3 111.3 41.2 111.3 39.1 110.3 37.9 108.2 37.9H107.2C107.1 37.9 107 38 106.9 38 106.9 38.1 106.9 38.2 106.9 38.3V44.1C106.9 44.3 107 44.5 107.2 44.5H108.2ZM105 36.5C105 36.4 105.1 36.2 105.3 36.2H108.3C111.5 36.2 113.2 38.2 113.2 41.2 113.2 44.2 111.5 46.2 108.3 46.2H105.3C105.2 46.2 105.2 46.2 105.2 46.2 105.1 46.2 105.1 46.1 105.1 46.1 105 46.1 105 46 105 46 105 46 105 45.9 105 45.9V36.5ZM116.3 42.7V36.5C116.3 36.4 116.4 36.2 116.6 36.2H117.9C118 36.2 118.2 36.4 118.2 36.5V42.4C118.2 44 119.1 44.6 120.2 44.6 121.4 44.6 122.3 44 122.3 42.4V36.5C122.3 36.4 122.4 36.2 122.6 36.2H123.9C124.1 36.2 124.2 36.4 124.2 36.5V42.7C124.2 45.1 122.5 46.3 120.2 46.3 118 46.3 116.3 45.1 116.3 42.7H116.3ZM127.2 41.2C127.2 38.3 129.4 36.1 132.3 36.1 133.6 36.1 134.9 36.6 135.8 37.4 135.8 37.4 135.8 37.5 135.9 37.5 135.9 37.6 135.9 37.6 135.9 37.6 135.9 37.7 135.9 37.7 135.9 37.8 135.9 37.8 135.8 37.9 135.8 37.9L134.9 38.7C134.9 38.8 134.8 38.8 134.7 38.8 134.6 38.8 134.6 38.8 134.5 38.7 133.9 38.2 133.1 37.9 132.3 37.9 130.5 37.9 129.1 39.3 129.1 41.2 129.1 43.1 130.5 44.5 132.3 44.5 133.1 44.5 133.9 44.2 134.5 43.7 134.6 43.6 134.6 43.6 134.7 43.6 134.8 43.6 134.9 43.6 134.9 43.7L135.8 44.5C135.8 44.6 135.9 44.6 135.9 44.6 135.9 44.7 135.9 44.7 135.9 44.8 135.9 44.8 135.9 44.9 135.9 44.9 135.8 44.9 135.8 45 135.8 45 134.9 45.8 133.6 46.3 132.3 46.3 129.4 46.3 127.2 44.1 127.2 41.2ZM144.6 37.9H142.8C142.7 37.9 142.7 37.9 142.6 38 142.6 38 142.6 38 142.5 38 142.5 38.1 142.5 38.1 142.5 38.1 142.5 38.2 142.4 38.2 142.4 38.3V45.9C142.4 46 142.4 46 142.4 46.1 142.3 46.2 142.2 46.2 142.1 46.2H140.9C140.8 46.2 140.8 46.2 140.8 46.2 140.7 46.2 140.7 46.1 140.7 46.1 140.6 46.1 140.6 46 140.6 46 140.6 46 140.6 45.9 140.6 45.9V38.3C140.6 38.2 140.6 38.2 140.5 38.1 140.5 38.1 140.5 38.1 140.5 38 140.4 38 140.4 38 140.4 38 140.3 37.9 140.3 37.9 140.3 37.9H138.4C138.3 37.9 138.2 37.9 138.2 37.8 138.1 37.8 138.1 37.7 138.1 37.6V36.5C138.1 36.4 138.2 36.2 138.4 36.2H144.6C144.8 36.2 145 36.4 145 36.5V37.6C145 37.7 144.9 37.8 144.9 37.8 144.8 37.9 144.7 37.9 144.6 37.9ZM147.2 44.5L147.9 43.6C148 43.6 148 43.6 148 43.5 148.1 43.5 148.1 43.5 148.1 43.5 148.2 43.5 148.2 43.5 148.3 43.5 148.3 43.5 148.4 43.6 148.4 43.6 149 44.2 149.9 44.7 150.7 44.7 151.5 44.7 152 44.3 152 43.6 152 42.7 151.2 42.3 150.1 41.8 148.8 41.3 147.5 40.6 147.5 38.9 147.5 37.1 148.8 36.1 150.5 36.1 151.6 36.1 152.6 36.5 153.4 37.2 153.6 37.3 153.6 37.5 153.5 37.6L152.9 38.5C152.8 38.5 152.8 38.6 152.8 38.6 152.7 38.6 152.7 38.6 152.7 38.6 152.6 38.6 152.6 38.6 152.5 38.6 152.5 38.6 152.5 38.6 152.4 38.6 151.8 38 151 37.7 150.4 37.7 149.8 37.7 149.3 38 149.3 38.7 149.3 39.5 150.1 39.8 151.3 40.3 152.5 40.9 153.9 41.6 153.9 43.4 153.9 45.4 152.5 46.3 150.7 46.3 149.5 46.3 148.2 45.8 147.3 45 147.2 44.9 147.2 44.8 147.2 44.7 147.2 44.7 147.2 44.6 147.2 44.5Z" fill="black"/><mask mask-type="alpha" maskUnits="userSpaceOnUse" width="17" height="48"><path d="M0 0.3H16.7V47.7H0V0.3Z" fill="white"/></mask><g mask="url(#mask1)"><path d="M16.6 42.9C16.7 42.6 16.8 42.3 16.7 42 16.6 41.7 16.4 41.5 16.2 41.3 10.7 37.6 7.1 31.2 7.1 24 7.1 16.8 10.7 10.4 16.2 6.7 16.4 6.5 16.6 6.3 16.7 6 16.8 5.7 16.7 5.4 16.6 5.1L14.2 0.9C14.1 0.8 14 0.7 13.9 0.6 13.8 0.5 13.6 0.4 13.5 0.3 13.3 0.3 13.1 0.3 13 0.3 12.8 0.4 12.7 0.4 12.5 0.5 5 5.5 0 14.1 0 24 0 33.9 5 42.5 12.5 47.5 12.7 47.6 12.8 47.6 13 47.7 13.1 47.7 13.3 47.7 13.5 47.7 13.6 47.6 13.8 47.5 13.9 47.4 14 47.3 14.1 47.2 14.2 47.1L16.6 42.9Z" fill="#276EF1"/></g><path d="M40.2 0.9L37.8 5.1C37.7 5.4 37.7 5.7 37.7 6 37.8 6.3 38 6.5 38.2 6.7 43.7 10.4 47.3 16.8 47.3 24 47.3 31.2 43.7 37.6 38.2 41.3 38 41.5 37.8 41.7 37.7 42 37.7 42.3 37.7 42.6 37.8 42.9L40.2 47.1C40.3 47.2 40.4 47.3 40.5 47.4 40.6 47.5 40.8 47.6 41 47.7 41.1 47.7 41.3 47.7 41.4 47.7 41.6 47.6 41.7 47.6 41.9 47.5 49.4 42.5 54.4 33.9 54.4 24 54.4 14.1 49.4 5.5 41.9 0.5 41.7 0.4 41.6 0.4 41.4 0.3 41.3 0.3 41.1 0.3 41 0.3 40.8 0.4 40.6 0.5 40.5 0.6 40.4 0.7 40.3 0.8 40.2 0.9" fill="#276EF1"/></g><defs><clipPath><rect width="183" height="48" fill="white"/></clipPath></defs></svg>
