<svg xmlns="http://www.w3.org/2000/svg" xmlns:xlink="http://www.w3.org/1999/xlink" width="230" height="130" viewBox="0 0 230 130">
    <defs>
        <path id="prefix__a" d="M11.066.094C5.12.094.3 4.914.3 10.86v84.484c0 5.946 4.82 10.766 10.767 10.766h133.58c5.946 0 10.766-4.82 10.766-10.766V10.861c0-5.947-4.82-10.767-10.766-10.767"/>
        <path id="prefix__c" d="M11.066.094C5.12.094.3 4.914.3 10.86v84.484c0 5.946 4.82 10.766 10.767 10.766h133.58c5.946 0 10.766-4.82 10.766-10.766V10.861c0-5.947-4.82-10.767-10.766-10.767H11.066z"/>
        <path id="prefix__e" d="M0.058 0.441L11.133 0.441 11.133 4.414 0.058 4.414z"/>
        <path id="prefix__g" d="M0.176 10.446L12.621 19.813 26.855 8.688 15.23 0.071z"/>
        <linearGradient id="prefix__h" x1=".001%" x2="99.999%" y1="49.999%" y2="49.999%">
            <stop offset="0%" stop-color="#DFEFE8"/>
            <stop offset="100%" stop-color="#BFE2ED"/>
        </linearGradient>
    </defs>
    <g fill="none" fill-rule="evenodd">
        <g>
            <path fill="#D8D8D8" d="M181.531 99.479c-3.026 0-5.48-2.454-5.48-5.48 0-3.027 2.454-5.48 5.48-5.48 3.027 0 5.48 2.453 5.48 5.48 0 3.026-2.453 5.48-5.48 5.48m14.673-8.078c-.2-.26-1.427-.526-2.828-.551-.31-1.168-.787-2.267-1.405-3.27.9-.832 1.762-1.804 1.663-2.402-.2-1.215-2.833-3.284-3.35-3.35-.332-.043-1.42.661-2.445 1.663-1-.602-2.092-1.065-3.252-1.363.05-1.227-.027-2.53-.521-2.884-1-.717-4.325-.318-4.738 0-.26.2-.525 1.42-.552 2.815-1.196.275-2.326.724-3.36 1.322-.811-.864-1.735-1.662-2.312-1.567-1.214.201-3.283 2.834-3.35 3.35-.04.308.567 1.272 1.457 2.23-.675 1.053-1.195 2.215-1.525 3.456-1.109-.019-2.196.087-2.515.532-.717 1.001-.319 4.326 0 4.738.18.233 1.183.472 2.398.537.289 1.306.784 2.536 1.454 3.65-.746.737-1.367 1.524-1.282 2.037.2 1.215 2.833 3.284 3.35 3.35.285.037 1.13-.48 2.013-1.261 1.117.69 2.353 1.203 3.67 1.506-.004 1.046.113 2.037.535 2.338 1 .717 4.325.32 4.738 0 .232-.18.472-1.188.537-2.407 1.275-.326 2.468-.856 3.547-1.547.767.79 1.603 1.473 2.14 1.384 1.214-.2 3.283-2.832 3.35-3.35.039-.31-.574-1.28-1.471-2.243.611-1.06 1.069-2.218 1.342-3.447 1.174.035 2.374-.057 2.712-.528.717-1 .318-4.325 0-4.738" transform="translate(0 .08)"/>
            <path fill="#D8D8D8" d="M181.575 86.308c-4.174 0-7.57 3.396-7.57 7.57s3.396 7.57 7.57 7.57 7.57-3.396 7.57-7.57-3.396-7.57-7.57-7.57m0 15.487c-4.366 0-7.917-3.552-7.917-7.917 0-4.366 3.551-7.917 7.917-7.917 4.365 0 7.917 3.551 7.917 7.917 0 4.365-3.552 7.917-7.917 7.917" transform="translate(0 .08)"/>
            <path fill="#D8D8D8" d="M192.642 91.622c-.051-.006-.102-.012-.153-.02.173.78.267 1.59.267 2.42 0 6.166-5.016 11.182-11.181 11.182-4.037 0-7.58-2.15-9.546-5.366h-.002c-.05.011-.1.02-.151.028 1.985 3.283 5.59 5.483 9.699 5.483 6.245 0 11.326-5.08 11.326-11.326 0-.824-.09-1.627-.259-2.401M174.739 85.185c1.891-1.467 4.262-2.343 6.836-2.343.05 0 .1.003.15.004-.018-.048-.033-.098-.048-.146l-.102-.003c-2.596 0-4.99.88-6.901 2.355l.065.133M25.791 36.464c-5.288 0-9.574-4.286-9.574-9.574s4.286-9.574 9.574-9.574 9.574 4.286 9.574 9.574-4.286 9.574-9.574 9.574m25.634-14.112c-.35-.453-2.493-.92-4.94-.964-.542-2.04-1.375-3.96-2.456-5.713 1.572-1.453 3.078-3.15 2.906-4.196-.35-2.121-4.95-5.737-5.853-5.853-.578-.074-2.481 1.156-4.271 2.906-1.747-1.051-3.655-1.86-5.68-2.381.085-2.144-.049-4.42-.913-5.038-1.747-1.253-7.555-.557-8.277 0-.451.349-.917 2.479-.963 4.917-2.09.48-4.064 1.265-5.871 2.309-1.417-1.509-3.03-2.903-4.038-2.737-2.122.35-5.737 4.95-5.853 5.854-.07.538.99 2.221 2.545 3.894-1.18 1.84-2.088 3.871-2.664 6.039-1.937-.033-3.838.152-4.395.93-1.253 1.748-.557 7.556 0 8.277.314.406 2.067.824 4.19.938.505 2.283 1.37 4.43 2.54 6.375-1.302 1.29-2.388 2.664-2.24 3.56.35 2.122 4.95 5.737 5.853 5.853.497.063 1.974-.837 3.516-2.204 1.952 1.205 4.112 2.103 6.414 2.632-.008 1.827.197 3.558.933 4.085 1.748 1.253 7.556.557 8.278 0 .407-.314.825-2.075.938-4.204 2.228-.572 4.312-1.497 6.198-2.705 1.34 1.38 2.8 2.574 3.736 2.42 2.122-.35 5.737-4.95 5.853-5.853.07-.541-1-2.238-2.568-3.92 1.068-1.85 1.867-3.875 2.343-6.021 2.053.06 4.149-.1 4.739-.923 1.252-1.748.557-7.556 0-8.277" transform="translate(0 .08)"/>
            <path fill="#D8D8D8" d="M25.867 13.454c-7.292 0-13.225 5.933-13.225 13.224 0 7.292 5.933 13.225 13.225 13.225s13.225-5.933 13.225-13.225c0-7.291-5.933-13.224-13.225-13.224m0 27.056c-7.626 0-13.832-6.205-13.832-13.832 0-7.626 6.206-13.83 13.832-13.83 7.627 0 13.831 6.204 13.831 13.83 0 7.627-6.204 13.832-13.83 13.832" transform="translate(0 .08)"/>
            <path fill="#D8D8D8" d="M45.203 22.737c-.09-.01-.18-.022-.269-.036.302 1.363.467 2.778.467 4.231 0 10.771-8.763 19.534-19.534 19.534-7.052 0-13.243-3.757-16.678-9.375h-.001c-.088.02-.176.036-.265.05 3.468 5.735 9.766 9.578 16.944 9.578 10.911 0 19.788-8.876 19.788-19.787 0-1.44-.159-2.842-.452-4.195M13.924 11.49c3.305-2.562 7.447-4.092 11.943-4.092.088 0 .175.006.263.007-.032-.084-.058-.17-.085-.256-.06 0-.118-.004-.178-.004-4.535 0-8.716 1.537-12.057 4.113.04.077.078.154.114.233" transform="translate(0 .08)"/>
            <path fill="#E0B02B" d="M170.637 125.238H37.057c-5.945 0-10.766-4.821-10.766-10.767V29.987c0-5.947 4.82-10.768 10.767-10.768h133.58c5.945 0 10.766 4.821 10.766 10.768v84.484c0 5.946-4.82 10.767-10.767 10.767" transform="translate(0 .08)"/>
        </g>
        <g transform="translate(25.991 19.206)">
            <mask id="prefix__b" fill="#fff">
                <use xlink:href="#prefix__a"/>
            </mask>
            <path fill="#FFD22A" d="M146.261.093H9.451c-8.2 0-15.06 5.115-16.93 12h170.671c-1.871-6.885-8.731-12-16.93-12" mask="url(#prefix__b)"/>
            <g>
                <mask id="prefix__d" fill="#fff">
                    <use xlink:href="#prefix__c"/>
                </mask>
                <path fill="#FFD22A" d="M0.771 12.093L77.856 65.282 154.941 12.093 74.713 2.529z" mask="url(#prefix__d)"/>
            </g>
        </g>
        <g>
            <path fill="#F69B81" d="M34.253 2.585L34.644 7.536 39.502 7.745 37.544 0.071z" transform="translate(178.017 25.581)"/>
            <path fill="#F9AF89" d="M20.591 6.42c-.077-.231-.418-1-1.775-2.05-1.218-.94-4.323-2.155-2.976-3.088 1.663.133 3.633.09 3.633.09.999.18 2.169 1.423 2.751 2.336l1.452 3.022s-.668 1.483-.687 1.56l-.695-.134c-.476-.669-1.055-1.25-1.703-1.736" transform="translate(178.017 25.581)"/>
            <path fill="#F9AF89" d="M20.518 5.569s-.003-.091-.043-.248c.215.043.43.072.645.095.685.418 1.384.815 2.074 1.226-.293.362-.703.87-.726.912L17.413 5.76s-.056-.692 1.067-.67c1.122.024 2.038.479 2.038.479" transform="translate(178.017 25.581)"/>
            <path fill="#FFCF52" d="M28.219 16.678L20.422 9.433 23.113 5.409 33.778 10.446 29.135 18.605z" transform="translate(178.017 25.581)"/>
            <path fill="#FFD32A" d="M36.877 4.584c11.118-2.305 9.18 34.508 9.18 34.508H28.47s-.251-6.408-.894-14.535c-.546-6.892 3.32-14.676 9.301-19.973" transform="translate(178.017 25.581)"/>
            <g transform="translate(178.017 25.581) translate(23.54 99.552)">
                <mask id="prefix__f" fill="#fff">
                    <use xlink:href="#prefix__e"/>
                </mask>
                <path fill="#1C2C57" d="M7.547.44S5.814 2.048 1.865 3.054C.995 3.275.058 2.98.058 4.413H4.85l3.986-.689v.69h2.153s.6-3.521-.658-3.973H7.547z" mask="url(#prefix__f)"/>
            </g>
            <path fill="#F9AF89" d="M31.329 97.464l-.243 2.53c.786.544 1.818.578 2.638.087l.148-.088.447-2.53h-2.99zM6.155 16.118c-.243-.024-1.07-.185-2.394-1.274-1.19-.976-3.068-3.731-3.676-2.21.501 1.592.9 3.52.9 3.52.398.934 1.87 1.797 2.891 2.16l3.27.74s1.296-.982 1.366-1.017l-.285-.648c-.758-.314-1.454-.75-2.072-1.271" transform="translate(178.017 25.581)"/>
            <path fill="#F9AF89" d="M5.308 16.236s-.088.018-.25.013c.09.201.166.404.235.608.562.575 1.105 1.167 1.66 1.748.287-.366.691-.88.726-.912L4.8 13.167s-.686.1-.413 1.19c.272 1.088.92 1.879.92 1.879" transform="translate(178.017 25.581)"/>
            <path fill="#1C2C57" d="M48.01 96.454s-1.733 1.607-5.682 2.613c-.87.221-1.807-.075-1.807 1.36h4.793l3.986-.69v.69h2.153s.6-3.521-.657-3.973H48.01z" transform="translate(178.017 25.581)"/>
            <path fill="#F9AF89" d="M48.252 93.925l-.242 2.529c.786.545 1.817.58 2.638.089l.148-.09.447-2.528h-2.99z" transform="translate(178.017 25.581)"/>
            <path fill="#23489B" d="M46.058 39.092s-1.409 7.455-.149 22.89c.223 2.726.84 5.405 1.835 7.953 3.388 8.681 3.852 24.702 3.852 24.702h-3.875l-13.656-39.05 11.993-16.495z" transform="translate(178.017 25.581)"/>
            <path fill="#FFCF52" d="M39.502 16.736s-3.04 11.327-11.283 12.37c-8.244 1.044-21.807-9.389-21.807-9.389l1.49-2.981 14.31 4.007c2.18.61 4.49-.367 5.57-2.356l4.31-7.941 7.41 6.29z" transform="translate(178.017 25.581)"/>
            <path fill="#2F60CE" d="M28.47 39.092l2.558 59.048h3.466s3.886-13.766 3.594-24.62c-.092-3.437.491-6.863 1.774-10.053 5.286-13.143 6.195-24.375 6.195-24.375H28.47z" transform="translate(178.017 25.581)"/>
        </g>
        <g transform="translate(176.055 25.581)">
            <mask id="prefix__i" fill="#fff">
                <use xlink:href="#prefix__g"/>
            </mask>
            <path fill="url(#prefix__h)" d="M0.176 10.446L12.621 19.813 26.855 8.688 15.23 0.071z" mask="url(#prefix__i)"/>
        </g>
        <g>
            <path fill="#FFD32A" d="M11.32 31.962c.047-1.196.315-2.295.755-3.288l-7.606-2.13-1.49 2.98s3.848 2.96 8.69 5.57c-.264-1.037-.388-2.098-.348-3.132" transform="translate(181.45 15.773)"/>
            <path fill="#F9A425" d="M35.853 26.486c-.03.112-3.097 11.195-11.095 12.207-7.46.944-19.539-7.779-21.394-9.159-.093.117-.19.232-.289.345 1.786 1.341 12.751 9.333 20.487 9.333.427 0 .846-.024 1.252-.075 8.296-1.05 11.44-12.42 11.47-12.535l-.43-.116z" transform="translate(181.45 15.773)"/>
            <path fill="#F9AF89" d="M.599 28.158l2.679.607c.257-.65.587-1.257.978-1.817-.551-.28-1.065-.626-1.534-1.022-.243-.024-1.066-.185-2.388-1.269.234.98.34 1.979.302 2.952-.007.185-.02.368-.037.55" transform="translate(181.45 15.773)"/>
            <path fill="#F9AF89" d="M4.072 27.227l-2.704-4.252s-.686.1-.413 1.19c.273 1.088.92 1.879.92 1.879s-.088.018-.25.013c.09.2.166.404.236.608.54.553 1.063 1.122 1.596 1.681.179-.39.385-.763.615-1.12M16.298 13.79l-.093.006c.757.725.991 1.245 1.052 1.428.315.235.613.495.891.776.032-.277.08-.545.137-.81-.722-.373-1.386-.848-1.987-1.4" transform="translate(181.45 15.773)"/>
            <path fill="#F9AF89" d="M16.784 14.21c-.371-.134-.966-.302-1.639-.316-1.122-.022-1.066.669-1.066.669l4.069 1.444c.032-.28.079-.55.134-.819-.531-.275-1.031-.604-1.498-.979" transform="translate(181.45 15.773)"/>
            <path fill="#FFF" d="M30.82 17.027L30.82 14.593 34.883 12.904 36.361 14.777z" transform="translate(181.45 15.773)"/>
            <path fill="#F9AF89" d="M28.592 14.34c-.68.053-1.32.01-1.681-.249-2.293-2.906-.97-11.55-.97-11.55l7.235.507.834 5.607c.223 1.497-.28 3.01-1.355 4.076-1.175.91-2.581 1.495-4.063 1.61" transform="translate(181.45 15.773)"/>
            <path fill="#1C2C57" d="M29.853 3.555s-2.31.695-4.836.522C22.491 3.904 23.782 1 23.782 1s1.925.64 5.134-.194c2.165-.562 2.71-1.053 4.202-.453 2.027.815 1.938 4.33 1.938 4.33l-.267 7.445-.405.517s-.558-4.823-.718-6.307c-.487-.63-.937-.583-1.265-.376-.355.223-.524.653-.48 1.07l.822 7.611s-4.622 2.612-5.897 2.367c-1.274-.246-1.058-5.974-1.058-5.974s1.357-.77 2.591.344c1.224 1.105 2.411-.31 2.411-.31l-.937-7.516z" transform="translate(181.45 15.773)"/>
            <path fill="#F9AF89" d="M32.996 5.705c-.55.013-1.016.591-1.042 1.29-.027.7.397 1.255.947 1.242.549-.014 1.016-.591 1.042-1.29.027-.7-.397-1.256-.947-1.242" transform="translate(181.45 15.773)"/>
        </g>
    </g>
</svg>
