<svg xmlns="http://www.w3.org/2000/svg" xmlns:xlink="http://www.w3.org/1999/xlink" width="183" height="140" viewBox="0 0 183 140">
    <defs>
        <path id="prefix__a" d="M0.373 0.164L142.589 0.164 142.589 49.193 0.373 49.193z"/>
        <path id="prefix__c" d="M0.15 0.031L122.338 0.031 122.338 101.949 0.15 101.949z"/>
    </defs>
    <g fill="none" fill-rule="evenodd">
        <g>
            <path fill="#6C6C6B" d="M131.321 41.92l-6.512 23.939 32.174-.271s32.313-13.736 24.558-43.832c-2.75-.728-5.5-1.046-8.214-1.046-22.044-.007-42.006 21.21-42.006 21.21" transform="translate(0 32.422)"/>
            <path fill="#202B53" d="M131.14 42.508s25.273-26.854 50.387-20.226c7.783 30.187-24.641 43.971-24.641 43.971l-32.286.27 6.54-24.015z" transform="translate(0 32.422)"/>
            <path fill="#59BF9D" d="M169.418 58.038L142.958 52.157 166.592 33.788 182.187 36.738 182.339 35.942 167.439 33.123 182.075 21.749 181.277 21.347 154.462 42.19 153.095 25.483 152.338 26.182 153.699 42.779 123.878 65.969 124.371 66.606 142.132 52.802 168.453 58.654z" transform="translate(0 32.422)"/>
            <path fill="#59BF9D" d="M135.355 61.973s30.272-6.13 41.45 11.38c-18.288 38.291-67.472 16.998-67.472 16.998l26.022-28.378z" transform="translate(0 32.422)"/>
            <path fill="#03A980" d="M151.442 95.02L134.779 78.839 176.66 73.741 176.556 72.931 151.144 76.034 161.864 62.554 160.85 62.519 149.991 76.172 115.512 80.377 115.616 81.18 133.745 78.971 150.345 95.089zM117.743 42.294S124 5.859 150.501.089c25.696 38.9-13.949 61.98-13.949 61.98l-18.809-19.775z" transform="translate(0 32.422)"/>
            <path fill="#FFF" d="M158.184 32.25L158.17 31.37 132.779 42.412 146.013 0.553 145.235 0.31 135.848 29.998 125.711 17.441 125.524 18.507 135.55 30.934 127.926 55.039 128.523 55.849 132.453 43.437z" transform="translate(0 32.422)"/>
            <path fill="#E0B02B" d="M0.176 107.333L143.262 107.333 143.262 21.092 0.176 21.092z" transform="translate(0 32.422)"/>
        </g>
        <g transform="translate(.238 52.898)">
            <mask id="prefix__b" fill="#fff">
                <use xlink:href="#prefix__a"/>
            </mask>
            <path fill="#FFD22A" d="M0.373 0.128L71.481 49.193 142.589 0.128 68.582 -8.694z" mask="url(#prefix__b)"/>
        </g>
        <g>
            <path fill="#FFD22A" d="M0.373 53.092L71.481 4.028 142.589 53.092z" transform="translate(.238 .422)"/>
            <g transform="translate(.238 .422) translate(10.857)">
                <mask id="prefix__d" fill="#fff">
                    <use xlink:href="#prefix__c"/>
                </mask>
                <path fill="#EBEBEB" d="M.15 59.714l60.664 42.235 61.146-41.392s3.102-36.093-8.475-38.316c-11.564-2.224-16.344 3.935-16.344 3.935S85.224 6.331 65.147 3.57C45.071.81 1.234.03 1.234.03L.15 59.715z" mask="url(#prefix__d)"/>
            </g>
            <path fill="#AAA" d="M79.242 4.569c7.492 1.215 40.327 7.844 47.605 19.644-9.687-4.253-18.983 4.381-18.983 4.381S95.918 8.407 79.242 4.57" transform="translate(.238 .422)"/>
            <path fill="#244999" d="M35.693 38.18L35.709 35.833 105.906 36.316 105.891 38.662zM35.605 50.869L35.621 48.522 105.819 49.005 105.802 51.351zM35.516 63.558L35.532 61.211 105.73 61.694 105.714 64.04z" transform="translate(.238 .422)"/>
        </g>
    </g>
</svg>
