<svg xmlns="http://www.w3.org/2000/svg" xmlns:xlink="http://www.w3.org/1999/xlink" width="216" height="139" viewBox="0 0 216 139">
    <defs>
        <path id="prefix__a" d="M0 138.173L215.88 138.173 215.88 0.112 0 0.112z"/>
        <path id="prefix__c" d="M0 0.41L30.309 0.41 30.309 30.599 0 30.599z"/>
    </defs>
    <g fill="none" fill-rule="evenodd">
        <path fill="#EBEBEB" d="M12.291 0.241L12 122 216 121.515 216 119.873 215.968 0z"/>
        <path fill="#20744A" d="M12 0L12.065 17 215.977 17 216 0.341z"/>
        <path fill="#FFF" d="M207.32 6.395c-.13 1.07.617 1.927 1.673 1.916 1.054-.012 2.016-.888 2.147-1.958.133-1.071-.615-1.93-1.67-1.917-1.058.013-2.017.889-2.15 1.959M198.664 6.395c-.132 1.07.616 1.927 1.67 1.916 1.057-.012 2.019-.888 2.15-1.958.132-1.071-.617-1.93-1.672-1.917-1.056.013-2.017.889-2.148 1.959M190.543 6.395c-.13 1.07.617 1.927 1.672 1.916 1.055-.012 2.017-.888 2.148-1.958.134-1.071-.616-1.93-1.67-1.917-1.058.013-2.017.889-2.15 1.959M11.989 27.634L215.862 27.634 215.862 16.509 11.989 16.509zM29.691 16.509L45.846 16.509 45.846 9.838 29.691 9.838z"/>
        <path fill="#CDCDCD" d="M32.424 15.278L43.796 15.278 43.796 13.173 32.424 13.173z"/>
        <path fill="#FFF" d="M12.182 36.1h25.1v-8.157h-25.1v8.156zm-.193.19h25.485v-8.538H11.99v8.538z"/>
        <path fill="#FFF" d="M37.665 36.1h25.102v-8.157H37.665v8.156zm-.19.19h25.482v-8.538H37.474v8.538zM63.15 36.1h25.1v-8.157h-25.1v8.156zm-.193.19h25.484v-8.538H62.957v8.538z"/>
        <path fill="#FFF" d="M88.634 36.1h25.1v-8.157h-25.1v8.156zm-.193.19h25.485v-8.538H88.44v8.538zM114.117 36.1h25.102v-8.157h-25.102v8.156zm-.191.19h25.482v-8.538h-25.482v8.538zM139.6 36.1h25.101v-8.157h-25.1v8.156zm-.19.19h25.484v-8.538H139.41v8.538zM165.085 36.1h25.1v-8.157h-25.1v8.156zm-.191.19h25.485v-8.538h-25.485v8.538z"/>
        <path fill="#FFF" d="M190.568 36.1h25.102v-8.157h-25.102v8.156zm-.19.19h25.484v-8.538h-25.483v8.538zM12.182 44.636h25.1V36.48h-25.1v8.157zm-.193.192h25.485V36.29H11.99v8.538z"/>
        <path fill="#FFF" d="M37.665 44.636h25.102V36.48H37.665v8.157zm-.19.192h25.482V36.29H37.474v8.538zM63.15 44.636h25.1V36.48h-25.1v8.157zm-.193.192h25.484V36.29H62.957v8.538z"/>
        <path fill="#FFF" d="M88.634 44.636h25.1V36.48h-25.1v8.157zm-.193.192h25.485V36.29H88.44v8.538zM114.117 44.636h25.102V36.48h-25.102v8.157zm-.191.192h25.482V36.29h-25.482v8.538zM139.6 44.636h25.101V36.48h-25.1v8.157zm-.19.192h25.484V36.29H139.41v8.538zM165.085 44.636h25.1V36.48h-25.1v8.157zm-.191.192h25.485V36.29h-25.485v8.538z"/>
        <path fill="#FFF" d="M190.568 44.636h25.102V36.48h-25.102v8.157zm-.19.192h25.484V36.29h-25.483v8.538zM12.182 53.174h25.1v-8.157h-25.1v8.157zm-.193.19h25.485v-8.536H11.99v8.537z"/>
        <path fill="#FFF" d="M37.665 53.174h25.102v-8.157H37.665v8.157zm-.19.19h25.482v-8.536H37.474v8.537zM63.15 53.174h25.1v-8.157h-25.1v8.157zm-.193.19h25.484v-8.536H62.957v8.537z"/>
        <path fill="#FFF" d="M88.634 53.174h25.1v-8.157h-25.1v8.157zm-.193.19h25.485v-8.536H88.44v8.537zM114.117 53.174h25.102v-8.157h-25.102v8.157zm-.191.19h25.482v-8.536h-25.482v8.537zM139.6 53.174h25.101v-8.157h-25.1v8.157zm-.19.19h25.484v-8.536H139.41v8.537zM165.085 53.174h25.1v-8.157h-25.1v8.157zm-.191.19h25.485v-8.536h-25.485v8.537z"/>
        <path fill="#FFF" d="M190.568 53.174h25.102v-8.157h-25.102v8.157zm-.19.19h25.484v-8.536h-25.483v8.537zM12.182 61.712h25.1v-8.158h-25.1v8.158zm-.193.19h25.485v-8.538H11.99v8.538z"/>
        <path fill="#FFF" d="M37.665 61.712h25.102v-8.158H37.665v8.158zm-.19.19h25.482v-8.538H37.474v8.538zM63.15 61.712h25.1v-8.158h-25.1v8.158zm-.193.19h25.484v-8.538H62.957v8.538z"/>
        <path fill="#FFF" d="M88.634 61.712h25.1v-8.158h-25.1v8.158zm-.193.19h25.485v-8.538H88.44v8.538zM114.117 61.712h25.102v-8.158h-25.102v8.158zm-.191.19h25.482v-8.538h-25.482v8.538zM139.6 61.712h25.101v-8.158h-25.1v8.158zm-.19.19h25.484v-8.538H139.41v8.538zM165.085 61.712h25.1v-8.158h-25.1v8.158zm-.191.19h25.485v-8.538h-25.485v8.538z"/>
        <path fill="#FFF" d="M190.568 61.712h25.102v-8.158h-25.102v8.158zm-.19.19h25.484v-8.538h-25.483v8.538zM12.182 70.249h25.1V62.09h-25.1v8.158zm-.193.191h25.485v-8.538H11.99v8.538z"/>
        <path fill="#FFF" d="M37.665 70.249h25.102V62.09H37.665v8.158zm-.19.191h25.482v-8.538H37.474v8.538zM63.15 70.249h25.1V62.09h-25.1v8.158zm-.193.191h25.484v-8.538H62.957v8.538z"/>
        <path fill="#FFF" d="M88.634 70.249h25.1V62.09h-25.1v8.158zm-.193.191h25.485v-8.538H88.44v8.538zM114.117 70.249h25.102V62.09h-25.102v8.158zm-.191.191h25.482v-8.538h-25.482v8.538zM139.6 70.249h25.101V62.09h-25.1v8.158zm-.19.191h25.484v-8.538H139.41v8.538zM165.085 70.249h25.1V62.09h-25.1v8.158zm-.191.191h25.485v-8.538h-25.485v8.538z"/>
        <path fill="#FFF" d="M190.568 70.249h25.102V62.09h-25.102v8.158zm-.19.191h25.484v-8.538h-25.483v8.538zM12.182 78.787h25.1v-8.158h-25.1v8.158zm-.193.189h25.485v-8.537H11.99v8.537z"/>
        <path fill="#FFF" d="M37.665 78.787h25.102v-8.158H37.665v8.158zm-.19.189h25.482v-8.537H37.474v8.537zM63.15 78.787h25.1v-8.158h-25.1v8.158zm-.193.189h25.484v-8.537H62.957v8.537z"/>
        <path fill="#FFF" d="M88.634 78.787h25.1v-8.158h-25.1v8.158zm-.193.189h25.485v-8.537H88.44v8.537zM114.117 78.787h25.102v-8.158h-25.102v8.158zm-.191.189h25.482v-8.537h-25.482v8.537zM139.6 78.787h25.101v-8.158h-25.1v8.158zm-.19.189h25.484v-8.537H139.41v8.537zM165.085 78.787h25.1v-8.158h-25.1v8.158zm-.191.189h25.485v-8.537h-25.485v8.537z"/>
        <path fill="#FFF" d="M190.568 78.787h25.102v-8.158h-25.102v8.158zm-.19.189h25.484v-8.537h-25.483v8.537zM12.182 87.324h25.1v-8.157h-25.1v8.157zm-.193.19h25.485v-8.538H11.99v8.538z"/>
        <path fill="#FFF" d="M37.665 87.324h25.102v-8.157H37.665v8.157zm-.19.19h25.482v-8.538H37.474v8.538zM63.15 87.324h25.1v-8.157h-25.1v8.157zm-.193.19h25.484v-8.538H62.957v8.538z"/>
        <path fill="#FFF" d="M88.634 87.324h25.1v-8.157h-25.1v8.157zm-.193.19h25.485v-8.538H88.44v8.538zM114.117 87.324h25.102v-8.157h-25.102v8.157zm-.191.19h25.482v-8.538h-25.482v8.538zM139.6 87.324h25.101v-8.157h-25.1v8.157zm-.19.19h25.484v-8.538H139.41v8.538zM165.085 87.324h25.1v-8.157h-25.1v8.157zm-.191.19h25.485v-8.538h-25.485v8.538z"/>
        <path fill="#FFF" d="M190.568 87.324h25.102v-8.157h-25.102v8.157zm-.19.19h25.484v-8.538h-25.483v8.538zM12.182 95.86h25.1v-8.157h-25.1v8.158zm-.193.192h25.485v-8.538H11.99v8.538z"/>
        <path fill="#FFF" d="M37.665 95.86h25.102v-8.157H37.665v8.158zm-.19.192h25.482v-8.538H37.474v8.538zM63.15 95.86h25.1v-8.157h-25.1v8.158zm-.193.192h25.484v-8.538H62.957v8.538z"/>
        <path fill="#FFF" d="M88.634 95.86h25.1v-8.157h-25.1v8.158zm-.193.192h25.485v-8.538H88.44v8.538zM114.117 95.86h25.102v-8.157h-25.102v8.158zm-.191.192h25.482v-8.538h-25.482v8.538zM139.6 95.86h25.101v-8.157h-25.1v8.158zm-.19.192h25.484v-8.538H139.41v8.538zM165.085 95.86h25.1v-8.157h-25.1v8.158zm-.191.192h25.485v-8.538h-25.485v8.538z"/>
        <path fill="#FFF" d="M190.568 95.86h25.102v-8.157h-25.102v8.158zm-.19.192h25.484v-8.538h-25.483v8.538zM12.182 104.398h25.1V96.24h-25.1v8.158zm-.193.19h25.485v-8.537H11.99v8.537z"/>
        <path fill="#FFF" d="M37.665 104.398h25.102V96.24H37.665v8.158zm-.19.19h25.482v-8.537H37.474v8.537zM63.15 104.398h25.1V96.24h-25.1v8.158zm-.193.19h25.484v-8.537H62.957v8.537z"/>
        <path fill="#FFF" d="M88.634 104.398h25.1V96.24h-25.1v8.158zm-.193.19h25.485v-8.537H88.44v8.537zM114.117 104.398h25.102V96.24h-25.102v8.158zm-.191.19h25.482v-8.537h-25.482v8.537zM139.6 104.398h25.101V96.24h-25.1v8.158zm-.19.19h25.484v-8.537H139.41v8.537zM165.085 104.398h25.1V96.24h-25.1v8.158zm-.191.19h25.485v-8.537h-25.485v8.537z"/>
        <path fill="#FFF" d="M190.568 104.398h25.102V96.24h-25.102v8.158zm-.19.19h25.484v-8.537h-25.483v8.537zM12.182 112.936h25.1v-8.157h-25.1v8.157zm-.193.19h25.485v-8.538H11.99v8.538z"/>
        <path fill="#FFF" d="M37.665 112.936h25.102v-8.157H37.665v8.157zm-.19.19h25.482v-8.538H37.474v8.538zM63.15 112.936h25.1v-8.157h-25.1v8.157zm-.193.19h25.484v-8.538H62.957v8.538z"/>
        <path fill="#FFF" d="M88.634 112.936h25.1v-8.157h-25.1v8.157zm-.193.19h25.485v-8.538H88.44v8.538zM114.117 112.936h25.102v-8.157h-25.102v8.157zm-.191.19h25.482v-8.538h-25.482v8.538zM139.6 112.936h25.101v-8.157h-25.1v8.157zm-.19.19h25.484v-8.538H139.41v8.538zM165.085 112.936h25.1v-8.157h-25.1v8.157zm-.191.19h25.485v-8.538h-25.485v8.538z"/>
        <path fill="#FFF" d="M190.568 112.936h25.102v-8.157h-25.102v8.157zm-.19.19h25.484v-8.538h-25.483v8.538zM12.182 121.473h25.1v-8.157h-25.1v8.157zm-.193.19h25.485v-8.537H11.99v8.538z"/>
        <path fill="#FFF" d="M37.665 121.473h25.102v-8.157H37.665v8.157zm-.19.19h25.482v-8.537H37.474v8.538zM63.15 121.473h25.1v-8.157h-25.1v8.157zm-.193.19h25.484v-8.537H62.957v8.538z"/>
        <path fill="#FFF" d="M88.634 121.473h25.1v-8.157h-25.1v8.157zm-.193.19h25.485v-8.537H88.44v8.538zM114.117 121.473h25.102v-8.157h-25.102v8.157zm-.191.19h25.482v-8.537h-25.482v8.538zM139.6 121.473h25.101v-8.157h-25.1v8.157zm-.19.19h25.484v-8.537H139.41v8.538zM165.085 121.473h25.1v-8.157h-25.1v8.157zm-.191.19h25.485v-8.537h-25.485v8.538z"/>
        <path fill="#FFF" d="M190.568 121.473h25.102v-8.157h-25.102v8.157zm-.19.19h25.484v-8.537h-25.483v8.538z"/>
        <path stroke="gray" stroke-width=".75" d="M11.989 27.633L215.862 27.633"/>
        <path fill="#20744A" d="M128.598 61.166h-11.622v-2.728l-19.104 2.939V87.12l19.104 3.277v-4.044h11.622c.773 0 1.4-.56 1.4-1.252V62.42c0-.691-.627-1.254-1.4-1.254zm.185 24.145h-11.845l-.02-2.16h2.854v-2.514h-2.876l-.013-1.487h2.89v-2.514h-2.913l-.012-1.486h2.924v-2.513h-2.935V71.15h2.935v-2.515h-2.935v-1.487h2.935v-2.514h-2.935v-2.283h11.946v22.96z"/>
        <mask id="prefix__b" fill="#fff">
            <use xlink:href="#prefix__a"/>
        </mask>
        <path fill="#20744A" d="M121.378 67.149L126.338 67.149 126.338 64.635 121.378 64.635zM121.378 71.15L126.338 71.15 126.338 68.636 121.378 68.636zM121.378 75.15L126.338 75.15 126.338 72.636 121.378 72.636zM121.378 79.151L126.338 79.151 126.338 76.638 121.378 76.638zM121.378 83.151L126.338 83.151 126.338 80.637 121.378 80.637z" mask="url(#prefix__b)"/>
        <path fill="#FFF" d="M102.859 68.33L105.323 68.19 106.869 72.428 108.699 68.013 111.161 67.874 108.171 73.892 111.161 79.926 108.558 79.751 106.8 75.152 105.041 79.575 102.649 79.365 105.427 74.036z" mask="url(#prefix__b)"/>
        <g transform="translate(0 107.574)">
            <mask id="prefix__d" fill="#fff">
                <use xlink:href="#prefix__c"/>
            </mask>
            <path fill="#FF6D00" d="M15.155.41C6.786.41 0 7.169 0 15.505 0 23.842 6.786 30.6 15.155 30.6c8.368 0 15.154-6.757 15.154-15.094C30.31 7.17 23.523.41 15.155.41zM9.05 15.068c-.205 0-.405-.106-.515-.295-.164-.285-.068-.647.218-.81l2.08-1.196-2.08-1.197c-.286-.164-.382-.526-.218-.809.165-.284.528-.38.81-.217l2.974 1.71c.185.104.299.3.299.513 0 .212-.114.406-.299.512l-2.973 1.71c-.093.054-.195.08-.296.08zM20.45 21.31c-.073.032-.15.044-.224.044-.234 0-.455-.135-.55-.362-.047-.111-1.127-2.536-4.56-2.536-3.473 0-4.55 2.507-4.56 2.533-.125.302-.471.447-.777.321-.303-.124-.448-.47-.323-.772.055-.134 1.4-3.266 5.66-3.266s5.603 3.132 5.657 3.266c.127.301-.018.648-.323.772zm1.026-7.346c.284.163.382.525.217.81-.11.19-.309.295-.514.295-.1 0-.204-.025-.298-.08l-2.973-1.71c-.183-.105-.296-.299-.296-.51 0-.213.113-.41.296-.515l2.973-1.709c.285-.164.648-.067.812.217.165.283.067.645-.217.809l-2.081 1.197 2.08 1.196z" mask="url(#prefix__d)"/>
        </g>
        <path fill="#2F60CE" d="M66.407 123.546s-2.433-3.71-3.29-4.71c-3.11-3.205 2.747-18.735-1.033-21.22-3.779-2.485-31.078-5.591-34.06 0-2.982 5.591-4.495 22.88 1.05 25.294 5.544 2.415 27.378.69 29.799-.093 4.061-1.318 7.534.73 7.534.73"/>
        <path fill="#FFF" d="M35.821 109.655s7.297-2.841 7.44-8.93c.954-3.93 2.672-1.52 2.672-1.52s1.502 4.266 0 7.416c2.689.518 4.498.244 6.482 1.142 1.919.868 1.418 6.15-1.951 10.46-2.395 3.064-14.008-.372-14.008-.372l-.635-8.196z"/>
        <path fill="#04AA80" d="M23.981 63.828c-9.977 0-18.063 8.056-18.063 17.991 0 9.936 8.086 17.992 18.063 17.992 9.976 0 18.061-8.056 18.061-17.992 0-9.935-8.085-17.991-18.061-17.991zM15.277 79.76v-.411c0-1.493 1.219-2.706 2.716-2.706 1.538 0 2.757 1.213 2.757 2.706v.411c0 .39-.318.708-.708.708-.392 0-.71-.318-.71-.708v-.411c0-.714-.582-1.295-1.298-1.295-.756 0-1.338.58-1.338 1.295v.411c0 .39-.318.708-.71.708-.392 0-.709-.318-.709-.708zm8.667 10.909c-6.044 0-7.895-6.367-7.895-6.367H31.84s-1.853 6.367-7.897 6.367zm8.667-10.909c0 .39-.317.708-.71.708-.39 0-.707-.318-.707-.708v-.411c0-.714-.582-1.295-1.298-1.295-.757 0-1.341.58-1.341 1.295v.411c0 .39-.316.708-.707.708-.392 0-.71-.318-.71-.708v-.411c0-1.493 1.22-2.706 2.717-2.706 1.538 0 2.756 1.213 2.756 2.706v.411z"/>
    </g>
</svg>
