<svg viewBox="0 0 344 240" fill="none" xmlns="http://www.w3.org/2000/svg"><g clip-path="url(#a)"><path d="m78.739 222.145 1.108 5.671 9.235-.472-.791-4.307" fill="#F0BFA4"/><path fill-rule="evenodd" clip-rule="evenodd" d="M89.24 227.239s4.75 4.358 15.569 7.142c2.375.63 4.961-.21 4.961 3.728H96.629l-10.924-1.89v1.89h-6.439l.212-10.818h9.763v-.052Z" fill="#293044"/><path d="M260.07 155.816c1.372 1.943 3.377 3.256 5.699 3.939-1.213.105-2.427 0-3.588-.21-1.531-.315-3.008-.893-4.328-1.786-3.008 2.731-5.647 5.724-6.702 9.663 1.267.578 2.639.998 3.958 1.261 1.425.262 2.85.42 4.275.367-2.481 1.943-5.594 2.731-8.708 2.626.317 4.569 3.166 8.508 9.024 9.663 1.847.368 3.747.473 5.542.263 1.688-2.836 3.272-5.882 4.01-9.086.792 2.574 1.161 5.304.95 7.983 6.439-2.363 11.769-8.088 13.299-15.703 2.006-9.978-4.274-19.956-12.401-23.159 0 .157-.053.262-.053.42-1.161 5.934-6.175 9.768-10.977 13.759Z" fill="#05E3AB"/><path d="M269.516 133.707c0 .735-.369 1.47-1.055 1.943-1.319.945-2.375 1.891-3.272 2.888a14.119 14.119 0 0 0-1.478-.105c-3.008 0-6.121 1.366-8.813 2.889 1.478-.105 2.955-.21 4.433-.21 1.267 0 2.48.052 3.747.262-2.533 4.202-2.691 8.771-3.325 13.287-3.641.735-7.283 2.416-9.974 4.936 1.478-.367 3.008-.525 4.591-.525 1.478 0 3.008.158 4.433.525-1.425 4.779-4.538 9.401-12.824 13.287-1.741.84-3.483 1.786-5.277 2.521-.053.052-.106.052-.211.105-.053-.053-.159-.053-.211-.105-5.067-2.836-8.866-7.51-11.136-12.446 1.584.525 3.272.84 5.014 1.05-2.744-2.153-5.172-4.622-7.177-7.405a22.03 22.03 0 0 1-.528-4.779c0-8.035 5.7-16.805 17.996-20.691a25.73 25.73 0 0 0-.686 5.986v.578a16.767 16.767 0 0 1 4.274-7.51c3.272-.735 6.967-1.103 11.03-1.103 4.803-.105 10.449 2.521 10.449 4.622Z" fill="#04AA80"/><path d="M227.456 167.422c0 2.101-.212 4.202-.634 6.25 0 .105-.052.157-.052.262h-.106c-1.108.21-2.217.315-3.378.315-7.81 0-13.035-3.623-15.99-9.4h.58c1.848 0 3.695-.263 5.489-.683-2.48-.21-4.908-.84-7.177-1.838-1.214-3.308-1.795-7.195-1.795-11.396 0-1.365.528-5.199 1.9-5.199.422 0 .897.263 1.267.473 2.058 1.155 5.119 1.733 8.233 2.783 1.319 2.468 2.005 5.094 2.427 7.878.422-2.049.633-4.149.633-6.25v-.315c4.645 2.258 8.603 6.67 8.603 17.12Z" fill="#05E3AB"/><mask id="b" fill="#fff"><path d="M272.841 151.982c-.739 2.259-1.478 4.569-2.375 6.775a73.01 73.01 0 0 1-3.061 6.512c-2.216 4.254-4.802 8.298-7.441 12.341-2.638 4.044-5.33 8.035-7.81 12.184-2.481 4.149-4.803 8.455-6.597 12.972-1.741 4.411-3.008 9.085-3.377 13.812-.053.577-.053 1.208-.053 1.785 0 .525.739.525.791 0 .106-1.208.159-2.416.317-3.571.158-1.155.369-2.363.581-3.519.475-2.31 1.161-4.568 1.952-6.827 1.636-4.516 3.853-8.875 6.28-13.024 2.428-4.148 5.067-8.14 7.705-12.184 2.639-4.043 5.225-8.087 7.441-12.341 1.109-2.101 2.164-4.254 3.061-6.407.897-2.153 1.742-4.411 2.322-6.722.159-.578.264-1.155.37-1.68.211-.211-.053-.263-.106-.106Z"/></mask><path d="M272.841 151.982c-.739 2.259-1.478 4.569-2.375 6.775a73.01 73.01 0 0 1-3.061 6.512c-2.216 4.254-4.802 8.298-7.441 12.341-2.638 4.044-5.33 8.035-7.81 12.184-2.481 4.149-4.803 8.455-6.597 12.972-1.741 4.411-3.008 9.085-3.377 13.812-.053.577-.053 1.208-.053 1.785 0 .525.739.525.791 0 .106-1.208.159-2.416.317-3.571.158-1.155.369-2.363.581-3.519.475-2.31 1.161-4.568 1.952-6.827 1.636-4.516 3.853-8.875 6.28-13.024 2.428-4.148 5.067-8.14 7.705-12.184 2.639-4.043 5.225-8.087 7.441-12.341 1.109-2.101 2.164-4.254 3.061-6.407.897-2.153 1.742-4.411 2.322-6.722.159-.578.264-1.155.37-1.68.211-.211-.053-.263-.106-.106Z" fill="#445072"/><path d="m267.405 165.269-.884-.466-.002.004.886.462Zm-21.848 37.497-.929-.369-.001.002.93.367Zm-3.377 13.812.995.091.002-.013-.997-.078Zm.738 1.785.995.1.002-.013-.997-.087Zm.898-7.09-.98-.201-.002.011-.002.011.984.179Zm1.952-6.827-.94-.34-.004.01.944.33Zm21.426-37.549-.884-.466-.002.004.886.462Zm5.383-13.129-.964-.264-.003.01-.003.01.97.244Zm.37-1.68-.706-.709-.215.214-.06.297.981.198Zm-1.056-.416c-.743 2.27-1.47 4.542-2.351 6.708l1.853.754c.913-2.246 1.664-4.595 2.399-6.841l-1.901-.621Zm-2.351 6.708c-.882 2.169-1.923 4.345-3.019 6.423l1.769.933c1.12-2.124 2.191-4.36 3.103-6.602l-1.853-.754Zm-3.021 6.427c-2.192 4.206-4.754 8.214-7.392 12.257l1.675 1.093c2.639-4.044 5.249-8.124 7.49-12.426l-1.773-.924Zm-7.392 12.257c-2.628 4.027-5.338 8.046-7.832 12.217l1.717 1.026c2.467-4.126 5.14-8.089 7.79-12.15l-1.675-1.093Zm-7.832 12.217c-2.494 4.172-4.845 8.53-6.667 13.116l1.858.738c1.767-4.447 4.059-8.702 6.526-12.828l-1.717-1.026Zm-6.668 13.118c-1.768 4.478-3.065 9.251-3.444 14.101l1.994.156c.359-4.604 1.595-9.179 3.31-13.523l-1.86-.734Zm-3.443 14.088c-.058.631-.057 1.308-.057 1.876h2c0-.587.001-1.17.048-1.694l-1.991-.182Zm-.057 1.876c0 .382.142.753.432 1.025.277.26.625.369.944.369.655 0 1.328-.472 1.41-1.294l-1.99-.2a.586.586 0 0 1 .58-.506c.127 0 .287.044.424.172.15.141.2.315.2.434h-2Zm2.788.087c.111-1.269.157-2.396.311-3.522l-1.982-.272c-.162 1.185-.222 2.474-.322 3.62l1.993.174Zm.311-3.522a80.8 80.8 0 0 1 .573-3.475l-1.967-.359a82.621 82.621 0 0 0-.588 3.562l1.982.272Zm.569-3.453c.463-2.252 1.134-4.464 1.917-6.698l-1.888-.661c-.8 2.283-1.501 4.586-1.988 6.956l1.959.403Zm1.913-6.688c1.609-4.441 3.795-8.743 6.203-12.86l-1.726-1.01c-2.446 4.181-4.694 8.597-6.357 13.189l1.88.681Zm6.203-12.86c2.413-4.122 5.035-8.09 7.68-12.142l-1.675-1.093c-2.633 4.035-5.288 8.05-7.731 12.225l1.726 1.01Zm7.68-12.142c2.639-4.044 5.249-8.124 7.49-12.426l-1.773-.924c-2.192 4.206-4.754 8.214-7.392 12.257l1.675 1.093Zm7.488-12.421c1.117-2.117 2.187-4.299 3.099-6.489l-1.846-.769c-.882 2.116-1.922 4.24-3.022 6.325l1.769.933Zm3.099-6.489c.906-2.173 1.771-4.483 2.369-6.863l-1.94-.488c-.563 2.242-1.386 4.448-2.275 6.582l1.846.769Zm2.364-6.843c.17-.62.284-1.246.385-1.747l-1.961-.395c-.11.549-.207 1.079-.353 1.614l1.929.528Zm.11-1.236c.112-.111.32-.349.367-.708a1.057 1.057 0 0 0-.634-1.111c-.633-.27-1.298.108-1.492.688l1.896.635a.878.878 0 0 1-1.188.517.944.944 0 0 1-.566-.984c.038-.295.2-.448.206-.454l1.411 1.417Z" fill="#445072" mask="url(#b)"/><mask id="c" fill="#fff"><path d="M254.951 135.702c-4.75 2.521-7.811 7.3-9.869 12.079-2.164 4.989-3.483 10.398-4.222 15.808-.686 5.356-.791 10.818-.739 16.227.053 6.145.37 12.289.792 18.433.369 5.515.844 11.029 1.372 16.491l.158 1.733c.053.525.898.525.845 0-.528-5.305-1.003-10.556-1.372-15.86a348.74 348.74 0 0 1-.95-18.171c-.159-5.567-.159-11.134.369-16.7.475-5.199 1.583-10.451 3.378-15.388 1.794-4.989 4.485-10.188 8.866-13.444.475-.367 1.002-.683 1.53-.998.158-.105 0-.315-.158-.21Z"/></mask><path d="M254.951 135.702c-4.75 2.521-7.811 7.3-9.869 12.079-2.164 4.989-3.483 10.398-4.222 15.808-.686 5.356-.791 10.818-.739 16.227.053 6.145.37 12.289.792 18.433.369 5.515.844 11.029 1.372 16.491l.158 1.733c.053.525.898.525.845 0-.528-5.305-1.003-10.556-1.372-15.86a348.74 348.74 0 0 1-.95-18.171c-.159-5.567-.159-11.134.369-16.7.475-5.199 1.583-10.451 3.378-15.388 1.794-4.989 4.485-10.188 8.866-13.444.475-.367 1.002-.683 1.53-.998.158-.105 0-.315-.158-.21Z" fill="#445072"/><path d="m254.951 135.702.469.884.043-.023.041-.027-.553-.834Zm-9.869 12.079.917.398.002-.002-.919-.396Zm-4.222 15.808-.991-.136-.001.009.992.127Zm-.739 16.227 1-.008v-.002l-1 .01Zm.792 18.433.998-.066v-.002l-.998.068Zm1.372 16.491.996-.091-.001-.006-.995.097Zm.158 1.733-.996.091.001.009.995-.1Zm.845 0-.995.099v.001l.995-.1Zm-1.372-15.86.997-.07v-.009l-.997.079Zm-.95-18.171.999-.026v-.002l-.999.028Zm.369-16.7.996.094v-.003l-.996-.091Zm3.378-15.388.939.342.002-.003-.941-.339Zm8.866-13.444.596.803.008-.006.008-.006-.612-.791Zm1.53-.998.513.859.02-.012.02-.013-.553-.834Zm-.627-1.093c-5.049 2.68-8.227 7.711-10.318 12.567l1.837.791c2.025-4.703 4.968-9.229 9.419-11.591l-.938-1.767Zm-10.317 12.564c-2.209 5.093-3.548 10.595-4.296 16.07l1.982.271c.73-5.343 2.03-10.659 4.148-15.545l-1.834-.796Zm-4.297 16.079c-.695 5.424-.8 10.939-.747 16.364l2-.02c-.052-5.394.054-10.802.731-16.09l-1.984-.254Zm-.747 16.363c.053 6.172.371 12.338.794 18.493l1.996-.137c-.422-6.134-.737-12.257-.79-18.373l-2 .017Zm.794 18.491c.37 5.527.846 11.051 1.375 16.52l1.99-.193a560.44 560.44 0 0 1-1.369-16.46l-1.996.133Zm1.374 16.515.159 1.733 1.991-.182-.158-1.733-1.992.182Zm.159 1.742c.092.913.886 1.293 1.457 1.293.298 0 .658-.091.951-.356.324-.294.469-.712.427-1.137l-1.99.2a.668.668 0 0 1 .222-.547.586.586 0 0 1 .39-.16c.091 0 .202.027.308.108.123.094.21.242.225.399l-1.99.2Zm2.835-.199c-.527-5.299-1.001-10.54-1.37-15.831l-1.995.139c.37 5.318.846 10.58 1.375 15.89l1.99-.198Zm-1.37-15.84a347.75 347.75 0 0 1-.948-18.118l-1.999.052c.159 6.057.476 12.166.953 18.223l1.994-.157Zm-.948-18.12c-.158-5.551-.156-11.071.366-16.578l-1.991-.189c-.534 5.627-.533 11.241-.374 16.823l1.999-.056Zm.366-16.581c.468-5.122 1.559-10.288 3.321-15.137l-1.879-.683c-1.826 5.024-2.952 10.361-3.434 15.638l1.992.182Zm3.323-15.14c1.772-4.928 4.379-9.901 8.521-12.98l-1.193-1.605c-4.618 3.433-7.394 8.858-9.21 13.908l1.882.677Zm8.537-12.992c.419-.324.893-.609 1.431-.93l-1.026-1.717c-.518.309-1.099.655-1.629 1.065l1.224 1.582Zm1.471-.955a1.122 1.122 0 0 0 .285-1.619 1.14 1.14 0 0 0-1.549-.258l1.106 1.667a.86.86 0 0 1-1.154-.206.874.874 0 0 1-.165-.659.865.865 0 0 1 .371-.592l1.106 1.667Z" fill="#445072" mask="url(#c)"/><mask id="d" fill="#fff"><path d="M239.646 140.534a24.9 24.9 0 0 0 3.589 12.499c.053.105.264 0 .211-.105a28.577 28.577 0 0 1-3.641-12.394c-.053-.105-.159-.105-.159 0Zm-6.121 10.136c.052.892.474 1.838.844 2.625.369.893.792 1.734 1.319 2.521.897 1.523 2.006 2.941 3.219 4.254.687.735 1.373 1.471 2.111 2.153.159.158.423-.105.264-.262-1.161-1.261-2.427-2.521-3.483-3.887-1.108-1.417-2.111-2.94-2.902-4.516a45.376 45.376 0 0 1-.634-1.523c-.211-.473-.316-.998-.58-1.47-.106 0-.158.052-.158.105Zm-24.488 1.575c1.214 1.733 2.586 3.309 3.906 4.937 1.53 1.89 3.113 3.728 4.644 5.619 3.166 3.729 6.28 7.51 9.077 11.501 3.008 4.359 5.33 9.138 7.335 14.022 1.9 4.674 3.536 9.505 4.75 14.442a72.58 72.58 0 0 1 1.742 9.558c.052.262.105.473.158.735 0 .315.528.315.528 0 0-.21.053-.473 0-.735 0-.263-.053-.578-.053-.84a26.984 26.984 0 0 0-.264-2.048c-.264-1.786-.633-3.519-1.055-5.252a97.567 97.567 0 0 0-4.381-13.969c-1.108-2.784-2.269-5.462-3.588-8.141-1.109-2.258-2.27-4.463-3.694-6.564-2.692-4.044-5.806-7.773-8.919-11.449-3.061-3.571-6.175-7.089-9.13-10.766-.317-.367-.581-.735-.897-1.102-.053-.158-.211-.053-.159.052Z"/></mask><path d="M239.646 140.534a24.9 24.9 0 0 0 3.589 12.499c.053.105.264 0 .211-.105a28.577 28.577 0 0 1-3.641-12.394c-.053-.105-.159-.105-.159 0Zm-6.121 10.136c.052.892.474 1.838.844 2.625.369.893.792 1.734 1.319 2.521.897 1.523 2.006 2.941 3.219 4.254.687.735 1.373 1.471 2.111 2.153.159.158.423-.105.264-.262-1.161-1.261-2.427-2.521-3.483-3.887-1.108-1.417-2.111-2.94-2.902-4.516a45.376 45.376 0 0 1-.634-1.523c-.211-.473-.316-.998-.58-1.47-.106 0-.158.052-.158.105Zm-24.488 1.575c1.214 1.733 2.586 3.309 3.906 4.937 1.53 1.89 3.113 3.728 4.644 5.619 3.166 3.729 6.28 7.51 9.077 11.501 3.008 4.359 5.33 9.138 7.335 14.022 1.9 4.674 3.536 9.505 4.75 14.442a72.58 72.58 0 0 1 1.742 9.558c.052.262.105.473.158.735 0 .315.528.315.528 0 0-.21.053-.473 0-.735 0-.263-.053-.578-.053-.84a26.984 26.984 0 0 0-.264-2.048c-.264-1.786-.633-3.519-1.055-5.252a97.567 97.567 0 0 0-4.381-13.969c-1.108-2.784-2.269-5.462-3.588-8.141-1.109-2.258-2.27-4.463-3.694-6.564-2.692-4.044-5.806-7.773-8.919-11.449-3.061-3.571-6.175-7.089-9.13-10.766-.317-.367-.581-.735-.897-1.102-.053-.158-.211-.053-.159.052Z" fill="#445072"/><path d="M239.646 140.534h-1v.012l1-.012Zm3.589 12.499.893-.449-.018-.036-.021-.035-.854.52Zm.211-.105.894-.449-.011-.022-.012-.021-.871.492Zm-3.641-12.394.998-.06-.013-.205-.092-.184-.893.449Zm-5.436 12.761.924-.382-.009-.021-.01-.021-.905.424Zm1.319 2.521.862-.507-.015-.025-.016-.024-.831.556Zm3.219 4.254-.734.679.003.003.731-.682Zm2.111 2.153.706-.709-.013-.013-.014-.012-.679.734Zm.264-.262-.735.677.015.016.015.016.705-.709Zm-3.483-3.887.791-.611-.003-.004-.788.615Zm-2.902-4.516-.913.408.009.021.01.02.894-.449Zm-.634-1.523.928-.373-.007-.017-.008-.018-.913.408Zm-.58-1.47.873-.488-.286-.512h-.587v1Zm-20.74 6.617.777-.63-.777.63Zm4.644 5.619-.777.629.007.009.008.009.762-.647Zm9.077 11.501.823-.568-.004-.006-.819.574Zm7.335 14.022.927-.377-.001-.003-.926.38Zm4.75 14.442-.971.239.001.005.97-.244Zm1.742 9.558-.994.113.005.042.008.042.981-.197Zm.158.735h1v-.099l-.02-.098-.98.197Zm.528-.735h-1v.099l.019.098.981-.197Zm-.053-.84h1v-.039l-.003-.038-.997.077Zm-.264-2.048-.989.146.001.006.988-.152Zm-1.055-5.252-.975.226.003.011.972-.237Zm-4.381-13.969.93-.37h-.001l-.929.37Zm-3.588-8.141-.898.441.001.001.897-.442Zm-3.694-6.564-.833.554.005.007.828-.561Zm-8.919-11.449.763-.646-.004-.004-.759.65Zm-9.13-10.766.779-.626-.01-.013-.011-.013-.758.652Zm-.897-1.102-.948.317.062.186.128.149.758-.652Zm29.45-11.647a25.891 25.891 0 0 0 3.735 13.007l1.708-1.04a23.9 23.9 0 0 1-3.443-11.991l-2 .024Zm3.695 12.936c.188.373.534.549.833.586.265.033.493-.035.651-.114a1.14 1.14 0 0 0 .485-.453c.152-.264.218-.648.03-1.022l-1.788.898a.924.924 0 0 1 .024-.872.85.85 0 0 1 .845-.422c.247.031.546.18.707.501l-1.787.898Zm1.976-1.046c-2.088-3.698-3.259-7.752-3.514-11.962l-1.997.12c.273 4.507 1.529 8.857 3.769 12.825l1.742-.983Zm-3.619-12.351c-.123-.245-.443-.63-.992-.63-.301 0-.607.13-.817.387a1.094 1.094 0 0 0-.243.692h2a.909.909 0 0 1-.208.573.945.945 0 0 1-.732.348.883.883 0 0 1-.795-.472l1.787-.898Zm-8.172 10.644c.066 1.114.58 2.229.938 2.991l1.81-.849c-.381-.813-.712-1.589-.751-2.26l-1.997.118Zm.919 2.949c.387.936.839 1.838 1.412 2.695l1.662-1.113c-.482-.719-.875-1.498-1.226-2.347l-1.848.765Zm1.382 2.646c.941 1.598 2.096 3.073 3.346 4.425l1.469-1.358c-1.178-1.273-2.239-2.634-3.092-4.082l-1.723 1.015Zm3.349 4.428c.682.731 1.393 1.494 2.164 2.206l1.357-1.469c-.707-.654-1.368-1.361-2.058-2.101l-1.463 1.364Zm2.137 2.18c.259.258.608.37.946.333.306-.034.55-.182.715-.346.166-.164.315-.409.35-.718a1.155 1.155 0 0 0-.336-.949l-1.411 1.418a.848.848 0 0 1-.241-.691.8.8 0 0 1 .228-.478.797.797 0 0 1 .475-.224.844.844 0 0 1 .685.237l-1.411 1.418Zm1.705-1.649c-1.202-1.304-2.407-2.5-3.428-3.82l-1.582 1.223c1.091 1.411 2.418 2.736 3.539 3.952l1.471-1.355Zm-3.431-3.824c-1.076-1.377-2.04-2.844-2.797-4.35l-1.787.898c.827 1.645 1.868 3.224 3.008 4.683l1.576-1.231Zm-2.777-4.309c-.202-.452-.406-.959-.619-1.488l-1.856.746c.21.521.428 1.065.649 1.558l1.826-.816Zm-.634-1.523c-.082-.183-.141-.371-.237-.652a5.468 5.468 0 0 0-.383-.898l-1.746.975c.085.154.154.332.237.573.075.217.174.529.303.818l1.826-.816Zm-1.493-2.062c-.367 0-1.158.248-1.158 1.105h2c0 .328-.17.585-.363.729a.812.812 0 0 1-.479.166v-2Zm-25.465 3.254c1.241 1.771 2.658 3.401 3.948 4.992l1.554-1.259c-1.349-1.664-2.677-3.186-3.864-4.881l-1.638 1.148Zm3.947 4.992c.771.952 1.555 1.89 2.332 2.821.779.933 1.553 1.86 2.313 2.798l1.554-1.258c-.771-.952-1.554-1.89-2.332-2.822a237.779 237.779 0 0 1-2.312-2.798l-1.555 1.259Zm4.66 5.637c3.162 3.724 6.251 7.476 9.02 11.428l1.638-1.148c-2.825-4.031-5.963-7.841-9.134-11.574l-1.524 1.294Zm9.016 11.422c2.952 4.278 5.243 8.985 7.233 13.834l1.851-.76c-2.021-4.92-4.374-9.77-7.438-14.21l-1.646 1.136Zm7.232 13.83c1.885 4.638 3.505 9.423 4.705 14.305l1.942-.478c-1.227-4.991-2.879-9.869-4.794-14.58l-1.853.753Zm4.706 14.31a71.502 71.502 0 0 1 1.718 9.427l1.987-.226a73.49 73.49 0 0 0-1.765-9.689l-1.94.488Zm1.731 9.511c.029.143.058.271.084.388.026.12.051.228.075.347l1.96-.394c-.028-.143-.057-.271-.083-.388a14.328 14.328 0 0 1-.075-.347l-1.961.394Zm.139.538c0 .391.178.735.46.96.256.204.553.276.804.276s.548-.072.804-.276a1.22 1.22 0 0 0 .46-.96h-2c0-.233.112-.459.294-.605a.713.713 0 0 1 .442-.159c.119 0 .284.034.441.159a.783.783 0 0 1 .295.605h-2Zm2.528 0c0-.078.007-.08.018-.295a2.53 2.53 0 0 0-.038-.637l-1.961.394c.002.01.007.044.002.137l-.011.164c-.005.062-.01.147-.01.237h2Zm0-.735c0-.186-.019-.378-.031-.511a4.031 4.031 0 0 1-.022-.329h-2c0 .185.018.377.03.511.015.155.023.252.023.329h2Zm-.056-.917c-.056-.728-.168-1.448-.273-2.124l-1.976.305c.106.69.206 1.334.255 1.973l1.994-.154Zm-.272-2.118c-.27-1.826-.646-3.591-1.073-5.342l-1.943.474c.418 1.715.78 3.416 1.038 5.161l1.978-.293Zm-1.07-5.331a98.613 98.613 0 0 0-4.425-14.113l-1.859.739a96.4 96.4 0 0 1 4.335 13.826l1.949-.452Zm-4.426-14.113c-1.115-2.802-2.287-5.505-3.62-8.212l-1.794.883c1.305 2.65 2.455 5.303 3.556 8.068l1.858-.739Zm-3.62-8.211c-1.114-2.272-2.3-4.527-3.764-6.685l-1.655 1.122c1.386 2.043 2.522 4.199 3.624 6.444l1.795-.881Zm-3.759-6.678c-2.727-4.098-5.876-7.867-8.988-11.541l-1.526 1.293c3.115 3.678 6.194 7.366 8.849 11.356l1.665-1.108Zm-8.992-11.545c-3.075-3.588-6.168-7.082-9.11-10.742l-1.558 1.253c2.968 3.693 6.102 7.235 9.15 10.79l1.518-1.301Zm-9.131-10.768a13.837 13.837 0 0 1-.422-.519c-.143-.181-.301-.381-.476-.584l-1.515 1.305c.142.165.274.333.421.519.144.181.302.382.476.584l1.516-1.305Zm-.707-.768a1.116 1.116 0 0 0-.557-.651 1.075 1.075 0 0 0-.956.001c-.475.237-.791.864-.487 1.469l1.787-.898c.251.5-.012 1.022-.409 1.22a.93.93 0 0 1-.826-.001.882.882 0 0 1-.448-.505l1.896-.635Z" fill="#445072" mask="url(#d)"/><mask id="e" fill="#fff"><path d="M221.07 166.53c-.211-1.366-.475-2.731-.633-4.097-.159-1.365-.212-2.678-.264-4.044 0-.21-.264-.21-.317 0-.106 2.731.106 5.567.897 8.193.106.21.317.105.317-.052Zm-7.125-8.508a11.292 11.292 0 0 1-.052-5.777c.052-.157-.159-.21-.212-.052-.527 1.943-.527 3.991.053 5.881.053.105.264.053.211-.052Zm55.941 2.783c2.902-1.418 5.805-2.836 8.602-4.411.158-.105 0-.368-.158-.263-2.956 1.366-5.753 2.889-8.603 4.359-.211.105 0 .42.159.315Zm-5.278 10.241 11.083-5.987c.158-.105 0-.315-.159-.21-3.694 1.996-7.388 3.991-11.082 6.039-.106 0 0 .211.158.158Z"/></mask><path d="M221.07 166.53c-.211-1.366-.475-2.731-.633-4.097-.159-1.365-.212-2.678-.264-4.044 0-.21-.264-.21-.317 0-.106 2.731.106 5.567.897 8.193.106.21.317.105.317-.052Zm-7.125-8.508a11.292 11.292 0 0 1-.052-5.777c.052-.157-.159-.21-.212-.052-.527 1.943-.527 3.991.053 5.881.053.105.264.053.211-.052Zm55.941 2.783c2.902-1.418 5.805-2.836 8.602-4.411.158-.105 0-.368-.158-.263-2.956 1.366-5.753 2.889-8.603 4.359-.211.105 0 .42.159.315Zm-5.278 10.241 11.083-5.987c.158-.105 0-.315-.159-.21-3.694 1.996-7.388 3.991-11.082 6.039-.106 0 0 .211.158.158Z" fill="#445072"/><path d="M221.07 166.53h1v-.077l-.012-.076-.988.153Zm-.897-8.141h-1v.039l1-.039Zm-.317 0-.97-.243-.025.101-.004.104.999.038Zm.897 8.193-.957.289.025.083.039.077.893-.449Zm-6.86-14.337-.949-.318-.012.037-.009.037.97.244Zm-.212-.052-.948-.318-.009.027-.008.028.965.263Zm.053 5.881-.956.294.025.08.038.075.893-.449Zm64.754-1.68.491.871.031-.018.031-.02-.553-.833Zm-.158-.263.419.908.07-.032.063-.042-.552-.834Zm-8.603 4.359.446.895.006-.003.007-.003-.459-.889Zm5.964 4.569.475.88.04-.022.038-.025-.553-.833Zm-.159-.21.476.88.04-.022.037-.025-.553-.833Zm-11.082 6.039v1h.259l.226-.125-.485-.875Zm-42.392-4.511c-.219-1.419-.472-2.716-.628-4.059l-1.987.23c.161 1.388.436 2.822.639 4.134l1.976-.305Zm-.628-4.059c-.153-1.322-.205-2.598-.258-3.967l-1.999.077c.053 1.362.107 2.711.27 4.12l1.987-.23Zm-.257-3.929a1.16 1.16 0 0 0-.326-.815 1.13 1.13 0 0 0-.813-.342 1.19 1.19 0 0 0-1.148.914l1.94.487a.812.812 0 0 1-.792.599.867.867 0 0 1-.62-.263.841.841 0 0 1-.241-.58h2Zm-2.316-.038c-.109 2.802.106 5.756.939 8.52l1.915-.578c-.75-2.487-.958-5.205-.856-7.865l-1.998-.077Zm1.003 8.68c.101.201.273.415.542.549.274.136.573.15.835.072.488-.146.833-.6.833-1.122h-2a.83.83 0 0 1 .595-.795.864.864 0 0 1 .628.054c.199.1.306.248.354.344l-1.787.898Zm-4.951-9.278a10.288 10.288 0 0 1-.047-5.264l-1.939-.488a12.285 12.285 0 0 0 .059 6.29l1.927-.538Zm-.068-5.19a1.1 1.1 0 0 0-.773-1.433 1.122 1.122 0 0 0-1.335.745l1.897.635a.878.878 0 0 1-1.045.561.905.905 0 0 1-.577-.45.885.885 0 0 1-.064-.694l1.897.636Zm-2.125-.633c-.573 2.113-.578 4.354.062 6.438l1.912-.587c-.521-1.697-.525-3.552-.043-5.326l-1.931-.525Zm.125 6.593c.327.651 1.004.643 1.28.574.17-.042.434-.151.628-.418.244-.333.265-.759.09-1.106l-1.787.898a.94.94 0 0 1 .083-.972.897.897 0 0 1 .503-.343c.17-.042.716-.076.99.469l-1.787.898Zm57.484 3.181c2.898-1.416 5.827-2.847 8.654-4.439l-.982-1.742c-2.767 1.558-5.643 2.964-8.55 4.384l.878 1.797Zm8.716-4.477c.658-.437.568-1.186.343-1.56a1.162 1.162 0 0 0-.626-.503 1.124 1.124 0 0 0-.981.134l1.105 1.667a.872.872 0 0 1-.754.097.822.822 0 0 1-.567-.898.855.855 0 0 1 .374-.603l1.106 1.666Zm-1.131-2.004c-2.982 1.378-5.817 2.921-8.641 4.378l.917 1.778c2.876-1.484 5.634-2.987 8.563-4.34l-.839-1.816Zm-8.628 4.372c-.321.16-.561.458-.626.832a1.214 1.214 0 0 0 .719 1.309c.3.127.704.141 1.064-.097l-1.106-1.667a.876.876 0 0 1 .821-.078.789.789 0 0 1 .472.876.853.853 0 0 1-.453.615l-.891-1.79Zm-4.198 12.331 11.082-5.987-.95-1.76-11.083 5.987.951 1.76Zm11.16-6.034a1.123 1.123 0 0 0 .285-1.619 1.14 1.14 0 0 0-1.549-.257l1.105 1.666a.858.858 0 0 1-1.153-.205.874.874 0 0 1 .206-1.251l1.106 1.666Zm-1.187-1.923a1160.832 1160.832 0 0 0-11.092 6.045l.97 1.749c3.688-2.045 7.378-4.038 11.073-6.034l-.951-1.76Zm-10.607 5.919a1.04 1.04 0 0 0-1.034.902 1.1 1.1 0 0 0 .202.78c.218.304.707.624 1.305.425l-.63-1.898a.844.844 0 0 1 .95.307.9.9 0 0 1 .156.646.964.964 0 0 1-.949.838v-2Z" fill="#445072" mask="url(#e)"/><path fill-rule="evenodd" clip-rule="evenodd" d="M229.514 234.328h27.178l1.108-29.461-31.031 1.628 2.745 27.833Z" fill="#293044"/><path d="M155.155 135.282c-7.124.526-15.726.683-15.726.683h-33.142s-11.98-.893-11.822-15.072c.053-5.514 1.425-14.127 2.797-20.377 3.378-15.334 21.374-20.48 21.374-20.48l12.982-.841s5.225.157 11.663 3.046c5.172 2.31 9.288 4.201 12.666 11.763 3.219 7.563 3.272 31.773-.792 41.278Z" fill="#05E3AB"/><path d="M140.326 66.8c-1.794-3.203.528-6.984-.422-9.4-1.847-4.62-2.533-3.57-3.642-5.619-1.108-2.048-2.48-3.046-2.48-3.046l-17.679.893s-1.742 1.05-2.217 3.256c-.95 4.411-1.003 3.466-3.536 8.298-1.161 2.205.264 5.146-.739 7.562-1.002 2.416-3.008 2.888-2.005 4.306 4.116 5.935 35.253 3.519 36.836-1.207.475-1.47-1.741-.893-4.116-5.042Z" fill="#293044"/><path d="m130.404 71.055.581 7.772 3.219.578s-1.214 6.722-6.28 7.825c-7.811 1.68-8.866-7.458-8.866-7.458l2.216-.682.37-7.037" fill="#BFA190"/><path d="M130.615 74.1s-2.269.368-4.433-1.995l4.275-.578.158 2.574Z" fill="#B18E7B"/><path d="M125.603 63.532c6.231-.286 11.09-4.652 10.853-9.75-.236-5.1-5.479-9.002-11.709-8.715-6.23.286-11.09 4.65-10.853 9.75.236 5.099 5.479 9.001 11.709 8.715Z" fill="#293044"/><path d="M113.411 64.017c.475 1.26 1.847 1.944 3.114 1.47 1.267-.472 1.953-1.837 1.478-3.098-.475-1.26-1.847-1.943-3.114-1.47-1.267.42-1.953 1.786-1.478 3.098Z" fill="#BFA190"/><path d="M114.572 62.547s1.742-.578 2.322 1.365" stroke="#293044" stroke-miterlimit="10" stroke-linecap="round" stroke-linejoin="round"/><path d="M137.793 62.862a2.366 2.366 0 0 1-2.955 1.733c-1.32-.315-2.111-1.628-1.742-2.94a2.366 2.366 0 0 1 2.955-1.734c1.267.315 2.059 1.628 1.742 2.941Z" fill="#BFA190"/><path d="M136.473 61.497s-1.794-.42-2.216 1.575" stroke="#293044" stroke-miterlimit="10" stroke-linecap="round" stroke-linejoin="round"/><path d="m126.763 72.368-1.794.052c-4.169.158-7.705-3.098-7.811-7.247l-.264-6.827c-.158-4.149 3.114-7.668 7.283-7.773l1.794-.052c4.169-.158 7.705 3.098 7.811 7.247l.264 6.827c.211 4.097-3.061 7.615-7.283 7.773Z" fill="#BFA190"/><path d="M122.647 59.553s-1.372-.682-3.114.788m6.65 1.05 1.055 4.044-.792.105-.263-4.149Zm4.169-1.995s1.055-1.05 2.216.052l-2.216-.052Z" stroke="#293044" stroke-miterlimit="10" stroke-linecap="round" stroke-linejoin="round"/><path d="M121.169 62.127a.527.527 0 0 0 .528-.525.527.527 0 0 0-1.056 0c0 .29.237.525.528.525Zm10.291-.473a.527.527 0 0 0 .528-.525.527.527 0 0 0-1.056 0c0 .29.237.525.528.525Zm-6.808-15.177a3.58 3.58 0 0 0 3.589-3.571 3.58 3.58 0 0 0-3.589-3.571 3.58 3.58 0 0 0-3.589 3.571 3.58 3.58 0 0 0 3.589 3.571Z" fill="#293044"/><path d="m117.475 57.768-.158-3.834c-.212-4.253 3.166-7.825 7.493-8.035 4.328-.21 8.022 3.046 8.18 7.3l.159 3.834-15.674.735Z" fill="#293044"/><path d="M135.418 79.615c-2.006-.315-2.164-.42-2.164-.42s.211 6.722-7.125 6.827c-4.696.052-6.86-6.46-6.86-6.46s-1.32.578-1.742.788c3.325 12.289 2.745 43.169 2.745 43.169l15.093 2.888c-.053.053 1.266-42.17.053-46.792Z" fill="#fff"/><path d="m105.442 120.735 33.248 6.46" stroke="#04AA80" stroke-miterlimit="10"/><path d="m109.428 120.922-.649-.061.649-7.795v7.856Zm37.086 7.342-1.389-.391 1.027-16.591.362 16.982Z" fill="#445072" stroke="#445072"/><path d="M138.742 135.912c1.847.053 12.086-.157 12.086-.157s2.216-.105 2.638-.473c.95-.84-.158-.893-1.108-.893.528-.052 3.589.053 3.694-.525 0-.105 0-.157-.105-.262.633 0 1.002-.053 1.108-.21.105-.316-.317-.683-1.056-1.051-.105-.315-.633-.84-1.424-1.365-.264-.998-3.958-2.889-4.592-3.204-3.061-1.523-8.074-.472-11.241-.63v8.77Z" fill="#DEB097"/><path d="M151.039 134.285c.475 0 1.53 0 1.953.052m2.955-.788s-3.641-.682-5.752-.945l5.752.945Zm0-1.208s-3.958-1.47-6.069-1.68l6.069 1.68Zm-1.531-1.575s-3.377-1.418-5.33-1.891l5.33 1.891Z" stroke="#445072" stroke-miterlimit="10" stroke-linecap="round" stroke-linejoin="round"/><path d="m137.054 126.985-.475 9.085" stroke="#04AA80" stroke-miterlimit="10"/><path d="M120.324 117.794c4.803.105 15.199.315 15.199.315m-16.307-28.358c5.489-.316 10.977-.578 16.466-.893l-16.466.893Zm.528 5.409c5.33-.21 10.66-.315 16.043-.263l-16.043.263Zm.316 5.566c4.539-.21 9.078-.21 13.616.106.739.052 1.478.105 2.217 0l-15.833-.106Zm0 5.567 15.885.42-15.885-.42Zm-.052 5.882c5.224.053 10.449.053 15.674.105l-15.674-.105Z" stroke="#E4E7F6" stroke-width="3" stroke-miterlimit="10"/><path d="M120.113 123.414v-.158l15.463-.21v1.103l-10.977.105-4.486-.84Z" fill="#E4E7F6"/><path d="M161.752 164.324c0-1.471-.844-2.679-2.058-3.309h5.752v-4.201h-49.027v4.201h5.753a3.63 3.63 0 0 0-2.059 3.256l-5.277 63.335 1.055.105 5.278-63.335c0-1.47 1.161-2.626 2.639-2.626h34.25c1.477 0 2.639 1.156 2.639 2.679l5.277 63.335 1.055-.105-5.277-63.335Zm-99.901 8.928c0-1.471-.844-2.679-2.058-3.309h5.752v-4.201H16.518v4.201h5.752a3.63 3.63 0 0 0-2.058 3.256l-5.277 63.335 1.055.105 5.278-63.335a2.607 2.607 0 0 1 2.639-2.626h34.25c1.478 0 2.639 1.156 2.639 2.679l5.277 63.334 1.055-.105-5.277-63.334Z" fill="#293044"/><path d="M156.263 136.648h-42.694l7.916-32.508h42.694l-7.916 32.508Z" fill="#2C3A73"/><path d="M120.008 133.707h-17.257v2.888h17.257v-2.888Z" fill="#2C3A73"/><path d="M138.848 121.996a1.58 1.58 0 0 0 1.583-1.576c0-.87-.708-1.575-1.583-1.575a1.58 1.58 0 0 0-1.583 1.575c0 .87.709 1.576 1.583 1.576Z" fill="#E4E7F6"/><path d="m31.611 218.101-2.585 5.041 8.654 3.099 2.428-3.676" fill="#F0BFA4"/><path fill-rule="evenodd" clip-rule="evenodd" d="M37.891 226.241s1.69 2.521 10.608 9.19c1.953 1.471 6.755.945 5.277 4.569l-13.246-.893-9.34-5.934-.74 1.733-5.963-2.468 4.38-9.926 9.024 3.729Z" fill="#293044"/><path d="m54.357 156.972-25.806 61.076 12.93 7.142 35.569-57.978-22.693-10.24Z" fill="#293044"/><path d="m59.001 166.319 7.178 18.801-3.114-19.851-4.064 1.05Z" fill="#293044"/><path d="M15.013 147.466v-.34H62.59c4.465 0 8.677 1.046 12.023 3.55 3.338 2.498 5.868 6.485 6.905 12.473v.002c1.082 6.087 3.508 20.892 5.666 34.181a14654.056 14654.056 0 0 1 3.715 23.004l.243 1.514.011.067-14.89 3.359-13.767-58.441-.09-.385H34.091c-10.545 0-19.08-8.497-19.08-18.984Z" fill="#445072" stroke="#445072"/><path d="m33.353 77.252-1.794.157 7.44 18.223 7.653-16.963-3.747-.42-9.552-.997Z" fill="#F0BFA4"/><path d="m31.928 77.357 5.436 12.656c.211.368.739.315.897-.052l5.91-11.554s9.764 1.26 11.664 26.888c1.742 23.528 4.01 41.383 4.01 41.383l-46.757.526s-.58-23.738.897-39.02c1.53-15.755 4.117-27.204 17.943-30.827Z" fill="#293044"/><path d="M44.172 78.355c5.172.472 9.657.577 12.877 4.043 6.121 6.67 8.443 14.547 9.13 16.91.686 2.364 1.372 6.25 1.372 6.25l-14.144 2.206-9.235-29.41Zm-12.244-.998c-7.124.367-12.613.21-16.94 3.413-6.86 5.094-12.402 20.062-12.402 20.062l16.73 5.724 9.657-14.232" fill="#293044"/><path opacity=".5" d="M20.16 83.449a.527.527 0 0 0 .527-.525.527.527 0 0 0-1.055 0c0 .29.236.525.528.525Zm7.863-2.416a.527.527 0 0 0 .528-.525.527.527 0 0 0-.528-.525.527.527 0 0 0-.528.525c0 .29.237.525.528.525Zm-2.322 6.827a.527.527 0 0 0 .528-.525.527.527 0 0 0-1.056 0c0 .29.237.525.528.525Zm7.494 2.994a.527.527 0 0 0 .528-.526.527.527 0 0 0-1.056 0c0 .29.237.526.528.526Zm11.557-1.26a.527.527 0 0 0 .528-.526.527.527 0 0 0-1.055 0c0 .29.236.525.527.525Zm7.547 2.993a.527.527 0 0 0 .528-.526.527.527 0 0 0-1.056 0c0 .29.237.526.528.526Zm1.9-6.88a.527.527 0 0 0 .528-.525.527.527 0 0 0-1.056 0c0 .29.237.525.528.525Zm-13.3 11.974a.527.527 0 0 0 .529-.525.527.527 0 0 0-1.055 0c0 .29.236.525.527.525Zm7.495 2.993a.526.526 0 0 0 .528-.525.527.527 0 0 0-1.056 0c0 .29.236.525.528.525Zm13.352-6.512a.527.527 0 0 0 .527-.525.527.527 0 0 0-1.056 0c0 .29.237.525.529.525Zm-3.906 8.14a.526.526 0 0 0 .528-.525.526.526 0 0 0-.528-.525.526.526 0 0 0-.527.525c0 .29.236.525.527.525Zm-22.218.998a.526.526 0 0 0 .528-.525.526.526 0 0 0-.527-.525.526.526 0 0 0-.528.525c0 .29.236.525.528.525Zm6.755 3.886a.526.526 0 0 0 .528-.525.526.526 0 0 0-.528-.525.526.526 0 0 0-.527.525c0 .29.236.525.527.525Zm-20.95 2.626a.526.526 0 0 0 .527-.525.526.526 0 0 0-.528-.525.526.526 0 0 0-.527.525c0 .29.236.525.527.525Zm7.863-.105a.526.526 0 0 0 .527-.525.526.526 0 0 0-.527-.525.526.526 0 0 0-.528.525c0 .29.236.525.528.525Zm7.335 3.519a.526.526 0 1 0 0-1.051.526.526 0 1 0 0 1.051Zm6.703 3.728a.526.526 0 0 0 .527-.525.526.526 0 0 0-.527-.525.526.526 0 0 0-.528.525c0 .29.236.525.528.525Zm-26.546 20.639a.526.526 0 0 0 .528-.525.526.526 0 0 0-.528-.525.526.526 0 0 0-.527.525c0 .29.236.525.527.525Zm7.494 4.044a.526.526 0 0 0 .528-.525.526.526 0 0 0-.528-.525.526.526 0 0 0-.528.525c0 .29.237.525.528.525Zm6.544 2.153a.526.526 0 0 0 .528-.525.526.526 0 0 0-.528-.525.526.526 0 0 0-.528.525c0 .29.237.525.528.525Zm6.597-2.626a.526.526 0 0 0 .527-.525.526.526 0 0 0-.527-.525.526.526 0 0 0-.528.525c0 .29.236.525.528.525Zm9.816 3.151a.526.526 0 0 0 .528-.525.526.526 0 0 0-.528-.525.526.526 0 0 0-.528.525c0 .29.236.525.528.525Zm7.019-.893a.526.526 0 0 0 .527-.525.526.526 0 0 0-.527-.525.526.526 0 0 0-.528.525c0 .29.236.525.528.525Zm-40.689-54.67a.527.527 0 0 0 .528-.524.527.527 0 0 0-1.056 0c0 .29.237.525.528.525Zm6.808 4.307a.527.527 0 0 0 .528-.525.527.527 0 0 0-1.056 0c0 .29.236.525.528.525Zm-7.388 2.206a.527.527 0 0 0 .527-.525.527.527 0 0 0-1.055 0c0 .29.236.525.527.525Zm5.382 6.722a.526.526 0 0 0 .528-.525.526.526 0 0 0-.528-.525.526.526 0 0 0-.527.525c0 .29.236.525.527.525Zm-11.61-2.573a.527.527 0 0 0 .528-.525.527.527 0 0 0-1.056 0c0 .29.237.525.528.525Zm22.376-.578a.527.527 0 0 0 .528-.525.527.527 0 0 0-1.055 0c0 .29.236.525.527.525ZM46.547 82.61a.527.527 0 0 0 .527-.526.527.527 0 0 0-1.055 0c0 .29.236.525.528.525Zm-28.551 61.286a.526.526 0 0 0 .528-.525.526.526 0 0 0-.528-.525.526.526 0 0 0-.528.525c0 .29.237.525.528.525Zm14.196-24.945a.526.526 0 0 0 .528-.525.526.526 0 0 0-.528-.525.526.526 0 0 0-.528.525c0 .29.237.525.528.525Zm-9.394-2.206a.526.526 0 0 0 .528-.525.526.526 0 0 0-.528-.525.526.526 0 0 0-.527.525c0 .29.236.525.527.525Zm2.586 6.67a.527.527 0 0 0 .528-.525.527.527 0 0 0-1.055 0c0 .289.236.525.527.525Zm13.035.577a.526.526 0 0 0 .528-.525.526.526 0 0 0-.528-.525.526.526 0 0 0-.527.525c0 .29.236.525.527.525Z" fill="#E4E7F6"/><path d="M15.621 118.319c.633-5.671 3.43-11.711 3.43-11.711l.423.105s2.955-7.142 4.75-10.766c0 0-2.798 6.407-7.284 26.154l-1.319-3.782Z" fill="#1B202E"/><path d="M1.689 125.672c3.8 8.98 30.503 11.396 31.822 11.501 2.164.315 5.489.63 8.972.368.686-.053 4.75-1.208 5.277-2.154.897-.367 1.53-.735 1.69-1.05.79-.21 1.318-.473 1.318-.788 0-.21-.422-.367-1.002-.472.105-.053.158-.158.158-.21 0-.631-2.164-1.156-3.536-1.366-1.53-.21-4.222-.893-4.38-1.365-.106-.368 3.536-.21 3.694-.841.158-.63-12.243-3.15-14.724-3.623-2.48-.473-12.56-1.523-14.407-6.617-1.425-3.886 2.586-12.604 2.586-12.604L3.06 100.989s-5.805 14.18-1.372 24.683Z" fill="#F0BFA4"/><path d="M47.55 135.492s-3.642.631-5.7.683m7.863-3.098s-3.8-.158-5.91-.368l5.91.368Zm-.264 1.207s-4.274.578-6.438.316l6.438-.316Z" stroke="#445072" stroke-miterlimit="10" stroke-linecap="round" stroke-linejoin="round"/><path d="M82.222 136.648H39.528l7.916-32.508h42.694l-7.916 32.508Z" fill="#2C3A73"/><path d="M45.966 133.707H28.709v2.888h17.257v-2.888Z" fill="#2C3A73"/><path d="M64.806 121.996a1.58 1.58 0 0 0 1.584-1.576c0-.87-.709-1.575-1.584-1.575-.874 0-1.583.705-1.583 1.575s.709 1.576 1.584 1.576Z" fill="#E4E7F6"/><path d="m42.8 72.42.158 6.25s-1.794 3.15-5.805 2.468c-4.01-.683-4.275-3.834-4.275-3.834l1.584-5.83" fill="#F0BFA4"/><path d="M42.852 75.256s-2.48-.21-3.852-2.153h3.8l.052 2.153Z" fill="#EAB292"/><path d="M27.6 62.6c.212 1.26 1.478 2.1 2.745 1.89 1.266-.21 2.11-1.47 1.9-2.73-.212-1.261-1.478-2.102-2.745-1.891-1.319.262-2.163 1.47-1.9 2.73Z" fill="#F0BFA4"/><path d="M28.92 61.392s1.741-.316 2.005 1.628" stroke="#293044" stroke-miterlimit="10" stroke-linecap="round" stroke-linejoin="round"/><path d="m40.108 73.26-3.271-.42a7.536 7.536 0 0 1-6.545-8.455l1.109-8.718c.527-4.148 4.327-7.037 8.496-6.512l3.272.42a7.536 7.536 0 0 1 6.544 8.456l-1.108 8.717c-.528 4.15-4.327 7.037-8.496 6.512Z" fill="#F0BFA4"/><path d="M38.156 59.921s-1.161-.84-3.061.263m6.121 1.89.053 3.834-1.108-.21 1.055-3.623Zm3.43-1.26s1.162-.84 2.112.368l-2.111-.368Z" stroke="#293044" stroke-miterlimit="10" stroke-linecap="round" stroke-linejoin="round"/><path d="M36.467 62.18a.527.527 0 0 0 .528-.526.527.527 0 0 0-1.056 0c0 .29.236.525.528.525Zm8.971.997a.527.527 0 0 0 .528-.525.527.527 0 0 0-1.055 0c0 .29.236.525.527.525Z" fill="#293044"/><path d="M48.394 58.083c-1.056-.105-2.27-.893-2.48-1.313-.37-.63-1.636.105-2.164.315-1.108.42-1.372-.315-1.53-.682-.423-1.103-.423-1.103-1.215-.946-.791.158-.95.736-1.9.578-.738-.105-.79-.368-1.213-.945-.475-.578-.897-1.103-1.53-.683-.37.21-.74.788-1.162.945-.422.158-1.16-.21-1.583-.157-.528.052-1.002.945-1.214 1.47-.475 1.156-1.372 1.366-1.16 2.784.052.42.21.84.158 1.313-.053.735-.634 1.365-1.161 1.89-.792-1.05-.58-1.89-.686-3.046-.106-1.05-.74-1.89-1.109-2.94-.37-1.104-.422-2.522.475-3.204.475-.368 1.109-.525 1.372-1.05.528-.946-.263-1.944-.21-2.994 0-.788.738-1.365 1.477-1.575.739-.21 1.003-.263 1.794-.316.792-.105 1.584-.315 2.006-.945.21-.263.37-.525.527-.788.74-.945 2.111-.63 2.692-.367.422.21.739.63 1.161.84 1.267.63 2.639-.735 4.064-.84 1.583-.158 2.85 1.313 3.535 2.73.317.578.634 1.261 1.214 1.471.58.21 1.267 0 1.794.315.898.578.423 2.048.95 2.994.423.735 1.425 1.155 1.478 1.943.053 1.102-1.53 1.47-2.058 2.415-.475.84-.053 1.891-.211 2.889-.159.893-.422 1.733-1.32 1.89.053-.262-.263-3.938-.791-3.99Z" fill="#293044"/><path d="m334.587 217.891.475 5.671-9.236-.472-.844-4.307 9.605-.892Zm-42.483.42.211 5.251-9.394-.472-.158-4.307" fill="#F0BFA4"/><path d="m323.293 219.151 12.718-1.208s-4.644-55.247-5.171-58.346c-1.267-8.035-3.378-48.21-4.486-53.041h-24.751s5.013 43.326 6.122 52.254" fill="#293044"/><path d="m310.891 111.23-3.167 47.685-2.322-22.687 5.489-24.998Z" fill="#293044"/><mask id="f" fill="#fff"><path d="M286.826 109.392c-3.483 10.66-5.911 27.886-7.811 49.943-1.319 15.282 1.003 59.763 1.003 59.763h13.88s6.174-49.365 6.174-54.617c0-5.251 11.558-44.849 10.819-55.93"/></mask><path d="M286.826 109.392c-3.483 10.66-5.911 27.886-7.811 49.943-1.319 15.282 1.003 59.763 1.003 59.763h13.88s6.174-49.365 6.174-54.617c0-5.251 11.558-44.849 10.819-55.93" fill="#445072"/><path d="m279.015 159.335.997.086-.997-.086Zm1.003 59.763-.998.053.049.947h.949v-1Zm13.88 0v1h.882l.11-.875-.992-.125Zm-8.023-110.017c-3.523 10.783-5.956 28.115-7.856 50.168l1.993.172c1.9-22.061 4.322-39.181 7.765-49.719l-1.902-.621Zm-7.856 50.168c-.666 7.711-.412 22.715.004 35.73a1358.377 1358.377 0 0 0 .899 22.227l.072 1.44.019.376.005.096.001.024v.008c.001 0 .001.001.999-.052l.999-.052v-.002l-.001-.006-.001-.024-.005-.095-.019-.374-.071-1.437a1339.587 1339.587 0 0 1-.898-22.192c-.417-13.046-.664-27.924-.01-35.495l-1.993-.172Zm1.999 60.849h13.88v-2h-13.88v2Zm13.88-1 .992.124v-.002l.001-.007a.322.322 0 0 0 .003-.026l.014-.106.051-.415.196-1.576a4427.003 4427.003 0 0 0 2.823-23.213c.772-6.5 1.544-13.167 2.124-18.539.575-5.336.97-9.475.97-10.857h-2c0 1.245-.377 5.245-.959 10.643-.578 5.361-1.349 12.02-2.121 18.517a4469.525 4469.525 0 0 1-2.122 17.54c-.289 2.355-.531 4.303-.699 5.663l-.196 1.575-.052.414-.013.106a.158.158 0 0 0-.003.026l-.001.007v.002l.992.124Zm7.174-54.617c0-.543.159-1.642.477-3.264.311-1.59.756-3.597 1.292-5.906 1.075-4.638 2.486-10.38 3.891-16.381 1.4-5.974 2.78-12.146 3.764-17.523.978-5.343 1.587-10.011 1.393-12.922l-1.996.133c.175 2.629-.383 7.066-1.364 12.429-.975 5.327-2.346 11.46-3.744 17.427-1.392 5.941-2.824 11.775-3.893 16.385-.536 2.315-.988 4.349-1.306 5.974-.312 1.592-.514 2.879-.514 3.648h2Z" fill="#445072" mask="url(#f)"/><path d="M298.859 110.967c-.898 3.099-1.584 6.302-2.27 9.453a337.127 337.127 0 0 0-2.058 9.978 406.139 406.139 0 0 0-3.536 21.007 373.902 373.902 0 0 0-2.533 21.689c-.633 7.352-1.108 14.705-1.266 22.057-.159 7.142-.159 14.284.369 21.427.053.84.106 1.68.211 2.52 0 .105.211.105.211 0-.369-7.037-.58-14.127-.475-21.164.106-7.299.475-14.599 1.056-21.899a381.435 381.435 0 0 1 2.375-21.952 399.013 399.013 0 0 1 3.43-21.111c1.214-6.565 2.639-13.13 4.116-19.642.159-.735.317-1.523.475-2.258 0-.105-.105-.157-.105-.105Zm5.119 0c-.897 3.099-1.584 6.302-2.27 9.453-.738 3.309-1.424 6.67-2.111 9.978-1.372 6.985-2.638 13.97-3.694 21.007-1.055 7.195-2.005 14.442-2.691 21.689-.686 7.352-1.161 14.705-1.372 22.057-.211 7.142-.211 14.284.316 21.427.053.84.106 1.68.211 2.52 0 .105.212.105.212 0-.37-7.037-.581-14.127-.423-21.164.159-7.299.528-14.599 1.214-21.899a382.904 382.904 0 0 1 2.533-21.952c1.003-7.09 2.217-14.127 3.536-21.111a501.586 501.586 0 0 1 4.222-19.642c.158-.735.317-1.523.475-2.258-.053-.105-.158-.157-.158-.105Z" fill="#445072"/><path d="M307.302 115.431c-.897 2.993-1.53 6.039-2.216 9.085a267.51 267.51 0 0 0-1.9 8.876 400.686 400.686 0 0 0-3.219 17.698 496.291 496.291 0 0 0-2.375 17.488 421.383 421.383 0 0 0-1.689 18.118c-.475 6.249-.844 12.551-1.002 18.853 0 .788-.053 1.628-.053 2.416 0 .105.211.105.211 0 .317-6.355.528-12.656.95-19.011.422-6.039.897-12.026 1.583-18.066.633-5.934 1.425-11.868 2.322-17.803.897-5.882 1.9-11.711 3.061-17.54a418.663 418.663 0 0 1 3.905-17.961c.159-.788.317-1.523.475-2.31.053.105 0 .105-.053.157Zm-13.035-4.884c-.897 3.099-1.583 6.302-2.269 9.453a333.94 333.94 0 0 0-2.058 9.978 405.958 405.958 0 0 0-3.536 21.007 373.8 373.8 0 0 0-2.533 21.689c-.633 7.352-1.108 14.705-1.267 22.057-.158 7.142-.158 14.284.37 21.427.053.84.105 1.68.211 2.52 0 .105.211.105.211 0-.369-7.037-.581-14.127-.475-21.164.105-7.3.475-14.599 1.055-21.899a383.222 383.222 0 0 1 2.375-21.952c.95-7.09 2.111-14.127 3.431-21.112 1.213-6.564 2.638-13.129 4.116-19.641.158-.735.317-1.523.475-2.258 0-.157-.106-.157-.106-.105Z" fill="#445072"/><path d="M288.568 110.547c-.739 2.993-1.214 6.039-1.795 9.085-.58 3.204-1.108 6.46-1.583 9.663a467.803 467.803 0 0 0-2.691 20.797c-.792 7.352-1.425 14.704-1.847 22.109a394.331 394.331 0 0 0-.792 22.32c-.053 7.142 0 14.337.528 21.479.053.893.158 1.733.211 2.626 0 .105.211.105.211 0-.37-7.09-.633-14.18-.633-21.322 0-7.405.211-14.81.633-22.162a513.7 513.7 0 0 1 1.741-22.109 583.355 583.355 0 0 1 2.586-21.217c.898-6.407 2.006-12.761 3.167-19.116.105-.735.264-1.47.369-2.153 0-.053-.105-.105-.105 0Zm30.872.998c-.211 6.092-.211 12.236-.052 18.328.158 6.985.527 13.969 1.055 20.954a529.79 529.79 0 0 0 2.058 22.267 527.638 527.638 0 0 0 3.008 22.057c1.109 6.985 2.375 13.917 3.958 20.796.212.841.37 1.628.581 2.469.053.157.264.105.211-.053-1.53-6.774-2.85-13.654-4.011-20.534a529.942 529.942 0 0 1-3.166-22.109 528.43 528.43 0 0 1-2.217-22.215c-.527-7.037-.95-14.074-1.213-21.111a314.734 314.734 0 0 1-.106-18.696c0-.683.053-1.418.053-2.101 0-.157-.159-.157-.159-.052Zm-4.169 0a419.839 419.839 0 0 0-.264 18.223c.053 6.88.264 13.707.634 20.586.369 7.353.95 14.705 1.688 22.057.792 7.405 1.742 14.81 2.956 22.162 1.214 7.3 2.586 14.547 4.433 21.689.211.841.422 1.734.686 2.574.053.157.264.105.211-.053-1.794-7.089-3.272-14.284-4.539-21.479a402.204 402.204 0 0 1-3.166-22.424 438.922 438.922 0 0 1-1.847-21.952 457.292 457.292 0 0 1-.792-20.797c-.105-6.144-.052-12.341.106-18.486 0-.682.053-1.365.053-2.048.052-.157-.159-.157-.159-.052Zm-4.274 1.05a303.445 303.445 0 0 0-.264 12.026c-.053 4.359 0 8.718.053 13.077.105 4.569.211 9.19.422 13.759.211 4.779.527 9.558.897 14.285.369 4.884.844 9.768 1.425 14.652.053.577.158 1.208.211 1.785 0 .158.264.158.211 0a679.843 679.843 0 0 1-1.425-14.599 329.308 329.308 0 0 1-.95-14.39c-.264-4.621-.422-9.243-.528-13.864-.105-4.359-.158-8.77-.158-13.129 0-4.096.053-8.14.211-12.236 0-.473.053-.946.053-1.418.053-.053-.158-.053-.158.052Zm13.457-1.05c-.211 6.039-.158 12.131.053 18.17.211 6.88.633 13.76 1.161 20.639a753.78 753.78 0 0 0 2.058 22.005c.792 7.3 1.689 14.547 2.691 21.794.95 7.037 1.953 14.074 3.114 21.059.158.788.264 1.628.422 2.416 0 .157.211.105.211-.053-1.055-6.879-2.111-13.811-3.061-20.744-1.002-7.352-1.952-14.704-2.797-22.109-.844-7.3-1.583-14.6-2.163-21.899-.581-6.932-1.056-13.865-1.32-20.849-.263-6.145-.369-12.342-.211-18.486 0-.683.053-1.366.053-2.048 0 0-.211 0-.211.105Z" fill="#445072"/><path d="m298.489 41.698-.106 5.41s1.531 18.8 5.331 18.8c6.649.053 6.913-19.904 6.913-19.904l.369-11.133" fill="#F0BFA4"/><path d="M298.383 46.057s2.85-.735 4.803-4.149l-4.697.158-.106 3.99Z" fill="#D2A186"/><path d="m305.192 41.646-3.853.682c-3.852.735-7.599-1.838-8.285-5.724l-1.742-9.085c-.739-3.834 1.847-7.563 5.752-8.245l3.853-.683c3.852-.735 7.599 1.838 8.285 5.724l1.689 9.138c.739 3.781-1.847 7.51-5.699 8.193Z" fill="#F0BFA4"/><path d="m292.103 30.617-.844 4.727 1.636-.158" fill="#F0BFA4"/><path d="M295.006 28.779s1.425-.893 3.483.578" stroke="#293044" stroke-miterlimit="10" stroke-linecap="round" stroke-linejoin="round"/><path d="M296.326 31.51a.632.632 0 0 0 .633-.63.632.632 0 0 0-.633-.63.632.632 0 0 0-.634.63c0 .348.284.63.634.63ZM292.631 24.84c2.375 1.103 7.23 1.786 12.824-.63 4.275-1.838 7.547-5.462 7.336-5.252-.211.21-3.061-6.88-13.669-4.358-1.794.42-5.647 2.205-10.607 1.102-.317-.052-.634.158-.634.473-.316 5.62 3.167 7.93 4.75 8.665Z" fill="#293044"/><path d="M302.658 23.317c.475 2.731.792 3.939 1.319 6.67.106.63 2.27 4.201 2.27 4.201l4.644 3.676s3.641-6.04 3.219-14.337c-.158-3.413-1.583-5.777-3.958-6.354-.792-.21-2.797.105-3.641.21-1.32.105-2.692.525-3.642 1.47-.897.946-.475 2.626-.316 3.624.105.998.105.84.105.84Z" fill="#293044"/><path d="M306.775 30.197s-1.056-.473-1.953.21" stroke="#293044" stroke-miterlimit="10" stroke-linecap="round" stroke-linejoin="round"/><path d="M308.727 32.193c-.422 1.418-1.952 2.258-3.377 1.785-1.425-.472-2.269-1.943-1.794-3.36.422-1.419 1.952-2.259 3.377-1.786 1.425.42 2.269 1.943 1.794 3.36Z" fill="#EAB292"/><path d="M307.355 30.617s-2.005-.578-2.533 1.628" stroke="#293044" stroke-miterlimit="10" stroke-linecap="round" stroke-linejoin="round"/><path d="M278.963 62.6s-2.956 7.93-6.65 7.352c-3.694-.578-9.288-8.35-13.352-12.761-2.586-3.204-8.232-10.136-8.76-10.084-.633.053.58 2.154.053 2.101-.528-.052-3.378-4.779-4.011-4.569-.845.315 1.847 4.517 1.847 4.517s-.739-.788-1.425-.316c-.475.316.053 1.628.053 1.628s-.792-.472-1.267-.105c-.475.368 0 1.47 0 1.47s-.739-.892-1.266-.157c-.475.683 2.005 7.143 6.385 14.127 4.275 7.405 13.458 21.217 22.218 21.742 10.344.578 20.318-15.492 20.318-15.492L278.963 62.6Z" fill="#F0BFA4"/><path d="M250.887 50.258s.369 2.363 1.055 4.254l-1.055-4.254Z" fill="#fff"/><path d="M250.887 50.258s.369 2.363 1.055 4.254" stroke="#445072" stroke-miterlimit="10" stroke-linecap="round" stroke-linejoin="round"/><path d="M244.396 53.147s2.058 2.993 2.639 2.678c.58-.315-1.478-3.939-1.478-3.939s2.269 3.676 2.85 3.309c.58-.315-1.583-4.727-1.583-4.727s2.11 3.834 2.797 3.676c1.108-.262-1.478-4.989-1.478-4.989" fill="#DEB097"/><path d="M244.396 53.147s2.058 2.993 2.639 2.678c.58-.315-1.478-3.939-1.478-3.939s2.269 3.676 2.85 3.309c.58-.315-1.583-4.727-1.583-4.727s2.11 3.834 2.797 3.676c1.108-.262-1.478-4.989-1.478-4.989" stroke="#445072" stroke-miterlimit="10" stroke-linecap="round" stroke-linejoin="round"/><path d="m310.68 46.11-7.019 12.656a.503.503 0 0 1-.897-.052l-4.328-11.554s-9.763 1.26-11.663 26.888c-1.741 23.528-4.01 41.383-4.01 41.383l46.23.525s1.108-23.737-.37-39.02c-1.583-15.754-4.116-27.203-17.943-30.826Z" fill="#04AA80"/><path d="M298.436 47.107c-5.171.473-9.921.315-12.876 4.044-5.858 7.352-9.816 16.595-9.816 16.595l13.51 8.823 9.182-29.462Zm15.199 13.97 9.658 14.232 16.729-5.725s-5.594-14.967-12.454-20.06c-4.328-3.204-9.764-3.047-16.888-3.362" fill="#04AA80"/><path d="M325.767 88.997c-1.525-6.596-2.842-11.61-3.907-15.33l.324.768.358.857.097.232.025.06.006.016.002.004.462-.19-.462.19.165.399.418-.104.016-.004a51.778 51.778 0 0 1 1.292 3.308c.762 2.173 1.594 5.013 1.914 7.76l-.71 2.034Z" fill="#445072" stroke="#445072"/><path d="m339.811 69.532-16.307 5.777s4.011 8.612 2.639 12.499c-1.847 5.094-8.233 6.091-10.713 6.617-2.481.472-14.883 2.993-14.724 3.623.158.578 3.799.473 3.694.84-.158.473-2.85 1.156-4.38 1.366-1.372.21-3.536.735-3.536 1.365 0 .105.053.158.158.21-.633.105-1.003.263-1.003.473-.052.368.475.578 1.32.788.211.315.844.683 1.689 1.05.527.945 4.591 2.101 5.277 2.153 3.483.263 6.755-.052 8.971-.367 1.32-.105 24.329-2.521 28.129-11.501 4.327-10.504-1.214-24.893-1.214-24.893Z" fill="#F0BFA4"/><path d="M298.753 104.245s3.642.63 5.7.683m-7.864-3.099s3.8-.157 5.911-.367l-5.911.367Zm.264 1.208s4.275.578 6.439.315l-6.439-.315Z" stroke="#445072" stroke-miterlimit="10" stroke-linecap="round" stroke-linejoin="round"/><path d="m329.784 50.888-1.9 1.996m-37.68-1.155-1.9 1.943 1.9-1.943Zm13.879 10.66-1.847 1.996 1.847-1.996Zm-7.018-3.676-1.953-1.89 1.953 1.89Zm21.795 15.02-1.847 1.996 1.847-1.996Zm-7.019-3.729-1.952-1.89 1.952 1.89Zm5.911-8.035-1.9 1.944 1.9-1.944Zm-7.019-3.728-2.005-1.89 2.005 1.89Zm14.777 11.343-2.006-1.89 2.006 1.89Zm-8.55-19.588-1.9 1.943 1.9-1.943Zm14.777 11.29-1.9 1.996 1.9-1.995Zm-7.019-3.675-2.005-1.891 2.005 1.89Zm13.51 11.396-1.953-1.891 1.953 1.89ZM291.47 63.86l-1.899 1.996 1.899-1.996Zm13.88 10.713-1.9 1.996 1.9-1.996Zm-7.019-3.728-1.953-1.838 1.953 1.838Zm21.796 15.072-1.9 1.943 1.9-1.943Zm-7.019-3.729-1.953-1.89 1.953 1.89Zm-22.007-7.09-1.9 1.996 1.9-1.995Zm-7.547-6.354-1.952-1.838 1.952 1.838Zm22.324 17.698-1.9 1.943 1.9-1.943Zm-7.019-3.729-1.953-1.89 1.953 1.89Zm-6.861 5.462-1.9 1.996 1.9-1.996Zm6.861 6.985-1.953-1.89 1.953 1.89Zm22.851 16.122-1.9 1.943 1.9-1.943Zm-7.019-3.203-1.953-1.891 1.953 1.891Zm-23.273-7.825-1.847 1.995 1.847-1.995Zm14.776 11.343-1.847 1.943 1.847-1.943Zm-7.019-3.728-1.952-1.891 1.952 1.891Zm-13.932-47.843-1.952-1.89 1.952 1.89Zm26.915 33.61-1.953-1.89 1.953 1.89Zm14.143 13.602-1.952-1.89 1.952 1.89Zm-31.875 3.519-1.9 1.996 1.9-1.996Zm-8.919-2.783-2.005-1.891 2.005 1.891Z" stroke="#fff" stroke-miterlimit="10"/><path d="m286.059 73.961-1.168-.793 1.937-5.555-.769 6.348Z" fill="#445072" stroke="#445072"/><path fill-rule="evenodd" clip-rule="evenodd" d="M282.868 222.985s-4.749 4.359-15.568 7.142c-2.375.63-4.961-.21-4.961 3.729h13.141l10.924-1.891v1.891h6.439l-.212-10.819h-9.763v-.052Zm42.8 0s-4.75 4.359-15.568 7.142c-2.375.63-4.961-.21-4.961 3.729h13.141l10.924-1.891v1.891h6.438l-.211-10.819h-9.763v-.052ZM301.075 21.689s4.117 3.94 3.483 4.307c-.633.42-.686.998-.58 1.733l-.633 14.337s-4.856 3.203-8.655 1.943c-2.27-.42-1.9-8.77-1.9-8.77s2.427-1.576 4.591.42c2.164 1.943 4.328-.578 4.328-.578l-.634-13.392Z" fill="#293044"/><path d="m147.925 213.059-.844 5.094 9.077-.42.844-4.201" fill="#BFA190"/><path d="M169.668 224.98c-.897-1.208-2.691-1.47-5.066-2.363-1.32-.473-4.433-1.26-6.228-2.626-.95-.735-1.266-2.521-1.266-2.521-5.805.21-10.924 0-10.924 0l-1.161 10.976 25.912-.105c.052 0 0-1.628-1.267-3.361Z" fill="#293044"/><path d="m180.487 214.11 2.533 4.411 7.441-5.199-2.111-3.361" fill="#BFA190"/><path d="M205.765 212.271c-1.425-.525-3.061.21-5.541.736-1.372.262-4.433 1.313-6.649 1.103-1.214-.106-2.428-1.471-2.428-1.471-4.802 3.256-9.236 5.829-9.236 5.829l4.908 9.873 21.849-13.916s-.897-1.418-2.903-2.154ZM162.86 146.521s12.877 23.212 15.832 29.777c2.903 6.564 12.772 32.875 12.772 32.875l-12.719 7.72-14.671-33.191-22.64-27.361 21.426-9.82Z" fill="#293044"/><path d="m173.784 166.109-6.544 24.526 7.916-21.375-1.372-3.151Z" fill="#293044"/><path d="M176.038 154.458v.001c-1.077 5.438-5.108 20.436-8.884 34.099a3048.626 3048.626 0 0 1-6.685 23.805c-.196.683-.35 1.215-.455 1.577l-.055.189-16.333-.248 11.386-56.811.122-.611-.622.013-26.857.525c-10.542-.003-19.074-8.498-19.074-18.984v-.341l39.247-.051-.293 2.163-.076.564.569.003 17.943.105h.003c2.592 0 5.629.901 7.749 3.073 2.099 2.15 3.372 5.621 2.315 10.929Z" fill="#445072" stroke="#445072"/><path d="M207.718 136.123H17.415v3.781h21.427l-15.41 97.995 1.53.263 15.463-98.258h144.231l15.463 98.258 1.583-.263-15.41-97.995h21.426v-3.781Z" fill="#293044"/><path d="M144.337 210.591c1.108.157 2.216.157 3.324.21 1.056 0 2.059.052 3.114.052 2.005 0 4.011.053 6.016 0 1.267 0 2.586.106 3.8-.157a.164.164 0 0 0 0-.315c-1.108-.21-2.217-.158-3.325-.158h-3.113c-2.006 0-4.011 0-6.017.053-1.266 0-2.533 0-3.747.21-.105.052-.105.105-.052.105Zm33.458 2.521c1.003-.368 1.953-.893 2.903-1.471.95-.525 1.9-1.103 2.85-1.628.95-.577 1.899-1.103 2.797-1.68.475-.315.95-.578 1.425-.893.474-.263.897-.525 1.319-.893.105-.105 0-.315-.158-.262a7.16 7.16 0 0 0-1.373.787c-.475.263-.949.578-1.424.841-.95.577-1.9 1.102-2.85 1.68-.95.578-1.9 1.103-2.85 1.681-.95.525-1.9 1.102-2.744 1.733 0 .052.052.157.105.105Z" fill="#445072"/><path d="M117.633 140.166c.422 1.156.792 2.259 1.53 3.256.686.946 1.584 1.681 2.797 1.943 1.109.211 2.217.368 3.325.473 1.319.158 2.639.315 3.958.42 1.108.105 2.217.158 3.325.158 2.269.052 4.538.105 6.861.157 4.644.158 9.235.263 13.879.315h3.483c.95 0 1.9 0 2.797.105 1.742.158 3.536.736 4.591 2.206 1.003 1.471 1.109 3.309 1.056 4.989-.053 1.786-.317 3.571-.581 5.304-1.055 7.668-2.797 15.178-4.749 22.635-2.217 8.35-4.644 16.648-7.019 24.998a72.27 72.27 0 0 0-.897 3.203c-.106.368.422.525.527.158 1.267-4.359 2.481-8.77 3.747-13.129 1.161-4.097 2.322-8.193 3.431-12.342 2.058-7.562 3.905-15.229 5.172-22.949.263-1.786.527-3.624.738-5.41.211-1.733.37-3.518.053-5.251-.264-1.628-1.108-3.099-2.533-3.991-1.53-.893-3.378-1.051-5.119-1.103-4.539-.053-9.13-.053-13.669-.21-2.322-.053-4.644-.158-7.018-.21-2.006-.053-4.011-.053-6.069-.158-2.428-.105-4.856-.368-7.283-.683-.897-.105-1.9-.157-2.744-.525-1.32-.63-2.111-1.995-2.745-3.203-.211-.42-.422-.893-.633-1.313 0-.105-.264 0-.211.157Zm52.721 39.073c.369 1.207 1.055 2.415 1.53 3.571l2.692 5.987c2.111 4.778 4.275 9.557 6.28 14.389.897 2.153 1.794 4.359 2.744 6.512.053.105.264.053.211-.105-.58-1.943-1.425-3.886-2.216-5.777-.95-2.363-2.006-4.726-3.061-7.09a438.506 438.506 0 0 0-6.069-13.444c-.422-.84-.844-1.68-1.214-2.52-.264-.526-.528-1.103-.897-1.576.053 0 0 0 0 .053Z" fill="#445072"/></g><defs><clipPath id="a"><path fill="#fff" d="M0 0h343.03v240H0z"/></clipPath></defs></svg>