<svg xmlns="http://www.w3.org/2000/svg" xmlns:xlink="http://www.w3.org/1999/xlink" width="210" height="116" viewBox="0 0 210 116">
    <defs>
        <path id="prefix__a" d="M0.405 0.447L11.67 0.447 11.67 4.479 0.405 4.479z"/>
        <path id="prefix__c" d="M0.026 10.39L12.483 19.708 26.732 8.641 15.094 0.071z"/>
        <path id="prefix__f" d="M0.257 0.081L12.088 0.081 12.088 17.36 0.257 17.36z"/>
        <linearGradient id="prefix__d" x1="0%" x2="99.999%" y1="49.999%" y2="49.999%">
            <stop offset="0%" stop-color="#DFEFE8"/>
            <stop offset="100%" stop-color="#BFE2ED"/>
        </linearGradient>
    </defs>
    <g fill="none" fill-rule="evenodd">
        <g>
            <path fill="#D8D8D8" d="M179.157 78.593c-3.079 0-5.575-2.49-5.575-5.562 0-3.071 2.496-5.561 5.575-5.561 3.078 0 5.573 2.49 5.573 5.561 0 3.072-2.495 5.562-5.573 5.562m14.924-8.198c-.204-.263-1.452-.534-2.877-.56-.315-1.185-.8-2.3-1.43-3.319.916-.843 1.793-1.83 1.692-2.437-.203-1.233-2.881-3.332-3.407-3.4-.337-.043-1.445.672-2.487 1.688-1.017-.61-2.128-1.08-3.307-1.383.05-1.245-.028-2.567-.531-2.927-1.018-.728-4.399-.323-4.819 0-.263.203-.534 1.44-.56 2.857-1.218.279-2.367.735-3.42 1.34-.824-.876-1.763-1.685-2.35-1.589-1.236.204-3.34 2.875-3.408 3.4-.04.313.577 1.29 1.483 2.263-.688 1.069-1.216 2.248-1.551 3.507-1.128-.019-2.235.09-2.56.54-.729 1.016-.324 4.39 0 4.809.183.236 1.204.478 2.44.545.294 1.326.798 2.573 1.48 3.703-.76.749-1.391 1.548-1.305 2.068.204 1.233 2.88 3.332 3.407 3.4.29.037 1.15-.486 2.048-1.28 1.136.7 2.394 1.221 3.734 1.528-.005 1.062.114 2.067.543 2.374 1.018.728 4.399.323 4.819 0 .237-.183.48-1.206.546-2.443 1.297-.332 2.51-.87 3.609-1.571.78.802 1.63 1.496 2.175 1.405 1.236-.203 3.34-2.874 3.407-3.4.04-.313-.582-1.3-1.495-2.276.622-1.075 1.087-2.25 1.365-3.498 1.194.036 2.414-.058 2.759-.536.729-1.015.323-4.389 0-4.808" transform="translate(0 8)"/>
            <path fill="#D8D8D8" d="M179.2 65.226c-4.244 0-7.699 3.446-7.699 7.682 0 4.236 3.455 7.682 7.7 7.682s7.7-3.446 7.7-7.682c0-4.236-3.455-7.682-7.7-7.682m0 15.717c-4.44 0-8.053-3.604-8.053-8.035 0-4.43 3.613-8.034 8.053-8.034 4.44 0 8.052 3.604 8.052 8.034 0 4.43-3.612 8.035-8.052 8.035" transform="translate(0 8)"/>
            <path fill="#D8D8D8" d="M190.458 70.619l-.156-.021c.176.792.271 1.614.271 2.458 0 6.257-5.101 11.347-11.372 11.347-4.106 0-7.71-2.182-9.71-5.446h-.001c-.052.011-.103.02-.154.029 2.02 3.332 5.686 5.564 9.865 5.564 6.352 0 11.52-5.156 11.52-11.494 0-.836-.092-1.651-.263-2.437M172.247 64.086c1.924-1.488 4.336-2.377 6.954-2.377.051 0 .102.003.152.003-.018-.049-.033-.098-.049-.148-.034 0-.068-.003-.103-.003-2.641 0-5.075.893-7.02 2.39.023.044.045.09.066.135M26.233 52.466c-5.378 0-9.738-4.35-9.738-9.716 0-5.367 4.36-9.717 9.738-9.717 5.378 0 9.738 4.35 9.738 9.717 0 5.366-4.36 9.716-9.738 9.716m26.074-14.322c-.357-.46-2.536-.934-5.026-.978-.55-2.07-1.398-4.019-2.497-5.798 1.6-1.475 3.131-3.197 2.955-4.258-.356-2.154-5.034-5.823-5.953-5.94-.588-.076-2.523 1.173-4.344 2.948-1.777-1.066-3.718-1.888-5.777-2.416.087-2.176-.05-4.485-.929-5.113-1.777-1.272-7.685-.565-8.419 0-.459.354-.933 2.516-.98 4.99-2.126.488-4.133 1.285-5.971 2.343-1.442-1.53-3.083-2.945-4.108-2.776-2.159.355-5.835 5.022-5.953 5.94-.07.546 1.007 2.254 2.589 3.952-1.2 1.867-2.124 3.928-2.709 6.128-1.971-.033-3.904.155-4.47.945-1.275 1.773-.567 7.668 0 8.4.318.412 2.102.836 4.26.95.514 2.318 1.395 4.497 2.585 6.47-1.325 1.31-2.43 2.705-2.279 3.614.356 2.154 5.034 5.822 5.953 5.94.506.065 2.009-.85 3.577-2.236 1.985 1.223 4.182 2.133 6.524 2.67-.009 1.855.2 3.611.949 4.147 1.778 1.271 7.685.565 8.419 0 .414-.32.84-2.107.954-4.268 2.266-.58 4.386-1.518 6.305-2.745 1.361 1.401 2.847 2.613 3.8 2.456 2.159-.355 5.835-5.023 5.953-5.94.071-.549-1.017-2.271-2.613-3.977 1.087-1.878 1.9-3.933 2.385-6.111 2.087.06 4.219-.101 4.82-.936 1.274-1.775.566-7.669 0-8.4" transform="translate(0 8)"/>
            <path fill="#D8D8D8" d="M26.311 29.114c-7.417 0-13.452 6.02-13.452 13.42s6.035 13.422 13.452 13.422c7.416 0 13.45-6.021 13.45-13.421 0-7.4-6.034-13.421-13.45-13.421m0 27.458c-7.758 0-14.069-6.297-14.069-14.037 0-7.74 6.311-14.037 14.07-14.037 7.756 0 14.067 6.297 14.067 14.037 0 7.74-6.31 14.037-14.068 14.037" transform="translate(0 8)"/>
            <path fill="#D8D8D8" d="M45.978 38.535c-.092-.01-.183-.022-.274-.037.308 1.384.475 2.82.475 4.294 0 10.932-8.913 19.825-19.869 19.825-7.173 0-13.47-3.813-16.963-9.515h-.002c-.09.02-.18.036-.27.05 3.53 5.821 9.934 9.722 17.235 9.722 11.099 0 20.128-9.008 20.128-20.082 0-1.46-.162-2.884-.46-4.257M14.163 27.122c3.361-2.6 7.575-4.154 12.148-4.154.09 0 .177.006.267.007-.032-.086-.06-.173-.087-.26-.06 0-.12-.004-.18-.004-4.614 0-8.866 1.56-12.264 4.174.04.078.079.157.116.237M.477 5.848C-.475 9.976 9.28 10.506 13.3 10.551c1.114.013 2.223-.093 3.315-.314 3.399-.688 10.84-2.494 9.796-4.95-1.346-3.168-5.39-.96-5.39-.96s.506-2.391-6.375-3.971C7.764-1.224 7.79 4.04 7.79 4.04S1.672.664.477 5.848M194.357 49.76H141.09s-2.889-3.645 0-6.1c1.593-1.354 3.476-1.213 4.844-.815.89.26 1.779-.34 1.975-1.246.323-1.499 1.321-3.46 4.189-4.62 2.821-1.14 4.605.601 5.637 2.39.34.59 1.244.5 1.45-.147.893-2.825 4.01-6.568 14.25-6.568 13.022 0 11.575 6.907 10.411 9.778-.202.499.226 1.015.753.903 2.009-.428 5.737-.984 7.41.326 2.348 1.84 2.348 6.1 2.348 6.1" transform="translate(0 8)"/>
            <path fill="#1A3674" d="M153.157 50.5c.545-2.28.842-4.655.842-7.101 0-16.838-13.68-30.487-30.554-30.487-6.382 0-12.304 1.954-17.206 5.293-6.825-9.18-17.766-15.13-30.1-15.13-20.689 0-37.46 16.734-37.46 37.377 0 3.907.602 7.673 1.716 11.212-11.145 3.499-19.23 13.888-19.23 26.164 0 15.147 12.307 27.426 27.487 27.426h102.279c15.18 0 27.487-12.279 27.487-27.426 0-14.398-11.123-26.196-25.261-27.327" transform="translate(0 8)"/>
            <path fill="#2F60CE" d="M147.062 50.5c.545-2.28.842-4.655.842-7.101 0-16.838-13.68-30.487-30.554-30.487-6.382 0-12.305 1.954-17.206 5.293-6.825-9.18-17.765-15.13-30.1-15.13-20.69 0-37.46 16.734-37.46 37.377 0 3.907.602 7.673 1.716 11.212-11.145 3.499-19.23 13.888-19.23 26.164 0 15.147 12.307 27.426 27.487 27.426h102.279c15.18 0 27.487-12.279 27.487-27.426 0-14.398-11.123-26.196-25.261-27.327" transform="translate(0 8)"/>
            <path fill="#F69B81" d="M192.312 5.112L192.71 10.136 197.651 10.349 195.66 2.56z" transform="translate(0 8)"/>
            <path fill="#F9AF89" d="M178.416 9.004c-.079-.235-.426-1.016-1.806-2.08-1.239-.955-4.398-2.187-3.027-3.135 1.692.136 3.695.092 3.695.092 1.016.182 2.207 1.444 2.798 2.37l1.477 3.067s-.68 1.505-.699 1.582l-.707-.134c-.483-.68-1.073-1.269-1.73-1.762" transform="translate(0 8)"/>
            <path fill="#F9AF89" d="M178.341 8.14s-.002-.092-.044-.25c.22.042.438.072.657.094.697.425 1.408.829 2.11 1.245-.299.367-.717.884-.739.926l-5.142-1.821s-.056-.702 1.085-.68c1.141.024 2.073.486 2.073.486" transform="translate(0 8)"/>
            <path fill="#FFCF52" d="M186.174 19.414L178.244 12.062 180.981 7.978 191.829 13.089 187.106 21.371z" transform="translate(0 8)"/>
            <path fill="#FFD32A" d="M194.981 7.14c11.308-2.339 9.338 35.022 9.338 35.022h-17.89s-.255-6.504-.91-14.752c-.553-6.994 3.38-14.894 9.462-20.27" transform="translate(0 8)"/>
            <g transform="translate(0 8) translate(181.069 103.52)">
                <mask id="prefix__b" fill="#fff">
                    <use xlink:href="#prefix__a"/>
                </mask>
                <path fill="#1C2C57" d="M8.022.447S6.26 2.077 2.242 3.1c-.884.224-1.837-.076-1.837 1.38H5.28l4.054-.7v.7h2.19s.61-3.573-.669-4.032H8.022z" mask="url(#prefix__b)"/>
            </g>
            <path fill="#F9AF89" d="M189.337 101.401l-.246 2.567c.799.553 1.848.588 2.683.09l.15-.09.455-2.567h-3.042zM163.732 18.845c-.247-.024-1.087-.187-2.435-1.292-1.21-.99-3.12-3.787-3.739-2.243.51 1.616.915 3.573.915 3.573.405.948 1.903 1.824 2.94 2.192l3.327.752s1.318-.998 1.39-1.034l-.29-.657c-.771-.319-1.479-.76-2.108-1.29" transform="translate(0 8)"/>
            <path fill="#F9AF89" d="M162.87 18.966s-.09.018-.254.013c.091.204.169.41.24.617.57.583 1.124 1.185 1.688 1.774.291-.372.703-.893.738-.925l-2.927-4.594s-.698.102-.42 1.207c.277 1.105.936 1.908.936 1.908" transform="translate(0 8)"/>
            <path fill="#1C2C57" d="M206.304 100.377s-1.761 1.63-5.779 2.65c-.884.226-1.838-.074-1.838 1.382h4.875l4.055-.7v.7h2.19s.61-3.574-.669-4.032h-2.834z" transform="translate(0 8)"/>
            <path fill="#F9AF89" d="M206.551 97.81l-.247 2.567c.8.553 1.849.587 2.684.09l.15-.09.455-2.568h-3.042z" transform="translate(0 8)"/>
            <path fill="#23489B" d="M204.318 42.162s-1.432 7.566-.15 23.23c.226 2.766.855 5.485 1.866 8.071 3.446 8.81 3.918 25.07 3.918 25.07h-3.941l-13.89-39.63 12.197-16.74z" transform="translate(0 8)"/>
            <path fill="#FFCF52" d="M197.65 19.473s-3.091 11.496-11.477 12.555c-8.384 1.059-22.18-9.53-22.18-9.53l1.516-3.025 14.555 4.067c2.217.62 4.567-.373 5.666-2.391l4.384-8.06 7.537 6.384z" transform="translate(0 8)"/>
            <path fill="#2F60CE" d="M186.43 42.162l2.602 59.925h3.524s3.953-13.97 3.656-24.985c-.094-3.489.5-6.965 1.805-10.203 5.377-13.338 6.301-24.737 6.301-24.737H186.43z" transform="translate(0 8)"/>
        </g>
        <g transform="translate(156 11)">
            <mask id="prefix__e" fill="#fff">
                <use xlink:href="#prefix__c"/>
            </mask>
            <path fill="url(#prefix__d)" d="M0.026 10.39L12.483 19.708 26.732 8.641 15.094 0.071z" mask="url(#prefix__e)"/>
        </g>
        <g>
            <path fill="#FFD32A" d="M11.389 32.588c.047-1.22.32-2.34.768-3.353l-7.754-2.172-1.52 3.04s3.924 3.017 8.861 5.677c-.27-1.057-.395-2.14-.355-3.192" transform="translate(161)"/>
            <path fill="#F9A425" d="M36.401 27.004c-.031.114-3.158 11.414-11.312 12.446-7.606.962-19.92-7.931-21.812-9.338-.096.12-.194.237-.295.352 1.822 1.367 13 9.516 20.887 9.516.437 0 .863-.025 1.277-.077 8.459-1.072 11.664-12.663 11.696-12.78l-.441-.119z" transform="translate(161)"/>
            <path fill="#F9AF89" d="M.457 28.71l2.732.617c.262-.662.598-1.28.997-1.852-.562-.286-1.086-.638-1.564-1.042-.247-.025-1.088-.189-2.434-1.293.238.999.345 2.017.307 3.01-.007.189-.02.375-.038.56" transform="translate(161)"/>
            <path fill="#F9AF89" d="M3.998 27.76l-2.757-4.335s-.699.102-.42 1.212c.277 1.11.938 1.917.938 1.917s-.09.018-.255.013c.09.205.169.412.24.62.55.564 1.084 1.144 1.627 1.714.182-.398.392-.778.627-1.141M16.463 14.06l-.094.007c.772.738 1.01 1.269 1.073 1.454.32.241.624.506.908.792.033-.282.082-.556.14-.826-.736-.38-1.414-.864-2.027-1.427" transform="translate(161)"/>
            <path fill="#F9AF89" d="M16.959 14.487c-.38-.136-.985-.307-1.67-.321-1.145-.023-1.088.682-1.088.682l4.148 1.472c.033-.284.08-.561.137-.834-.541-.28-1.051-.616-1.527-1" transform="translate(161)"/>
            <path fill="#FFF" d="M31.27 17.36L31.27 14.879 35.412 13.157 36.919 15.065z" transform="translate(161)"/>
            <path fill="#F9AF89" d="M28.998 14.62c-.694.054-1.346.01-1.714-.253-2.338-2.963-.99-11.777-.99-11.777l7.378.518.85 5.716c.227 1.526-.286 3.07-1.381 4.156-1.198.927-2.632 1.524-4.143 1.64" transform="translate(161)"/>
            <g transform="translate(161) translate(23.5)">
                <mask id="prefix__g" fill="#fff">
                    <use xlink:href="#prefix__f"/>
                </mask>
                <path fill="#1C2C57" d="M6.783 3.625s-2.354.709-4.93.532C-.723 3.98.593 1.02.593 1.02s1.964.652 5.235-.198C8.036.25 8.592-.25 10.113.361c2.066.831 1.975 4.415 1.975 4.415l-.272 7.59-.413.528s-.569-4.918-.733-6.43c-.496-.644-.954-.595-1.289-.385-.361.228-.534.667-.488 1.092l.837 7.76s-4.712 2.663-6.012 2.413c-1.3-.25-1.079-6.091-1.079-6.091s1.383-.785 2.641.351c1.248 1.127 2.459-.316 2.459-.316l-.956-7.663z" mask="url(#prefix__g)"/>
            </g>
            <path fill="#F9AF89" d="M33.488 5.816c-.56.014-1.036.603-1.063 1.316-.027.713.406 1.28.966 1.266.56-.014 1.036-.603 1.063-1.316.026-.713-.406-1.279-.966-1.266" transform="translate(161)"/>
        </g>
    </g>
</svg>
