<svg xmlns="http://www.w3.org/2000/svg" xmlns:xlink="http://www.w3.org/1999/xlink" width="200" height="147" viewBox="0 0 200 147">
    <defs>
        <path id="prefix__a" d="M4.317 0.144L0.295 8.683 12.538 8.683 16.557 0.144z"/>
        <path id="prefix__e" d="M0 0.426L199.596 0.426 199.596 21.74 0 21.74z"/>
        <path id="prefix__g" d="M0 0.081L199.596 0.081 199.596 6.768 0 6.768z"/>
        <path id="prefix__i" d="M0 146.197L199.596 146.197 199.596 0.381 0 0.381z"/>
        <path id="prefix__k" d="M9.627 9.03L0.101 8.068 0.019 8.775 10.13 9.795 13.993 0.362 13.281 0.108z"/>
        <linearGradient id="prefix__b" x1=".001%" x2="100%" y1="50.003%" y2="50.003%">
            <stop offset="0%" stop-color="#DFEFE8"/>
            <stop offset="100%" stop-color="#BFE2ED"/>
        </linearGradient>
        <linearGradient id="prefix__d" x1="-.001%" x2="99.999%" y1="50.01%" y2="50.01%">
            <stop offset="0%" stop-color="#DFEFE8"/>
            <stop offset="100%" stop-color="#BFE2ED"/>
        </linearGradient>
        <linearGradient id="prefix__l" x1=".003%" x2="100.001%" y1="50.001%" y2="50.001%">
            <stop offset="0%" stop-color="#DFEFE8"/>
            <stop offset="100%" stop-color="#BFE2ED"/>
        </linearGradient>
    </defs>
    <g fill="none" fill-rule="evenodd">
        <path fill="#F7B58E" d="M141.824 23L143 25.97 141.059 31 139 24.113z"/>
        <g>
            <path fill="#23489B" d="M6.501 5.492l-1.76 3.877L3.042 19.41h1.7C9.11 14.69 9.11 6.022 9.11 6.022l-2.609-.53z" transform="translate(105 10)"/>
            <path fill="#2F60CE" d="M20.943 22.698H2.184c-1.186 0-2.103-1.026-1.953-2.185L2.254 4.946h2.67s.545 4.393.606 6.859c.243 2.704-1.335 6.769-1.335 6.769s9.163-5.5 13.107-5.14c3.095.388 3.845-.18 3.845-.18l-.204 9.444z" transform="translate(105 10)"/>
            <path fill="#05E3AB" d="M33.078 8.89s2.67-.358 4.551 3.826c-.789.957-1.91 1.554-1.91 1.554s.194 3.03-.88 3.706c-1.076.677-7.707 4.722-7.707 4.722h-6.19V14.57l8.677-5.932 3.46.254z" transform="translate(105 10)"/>
            <path fill="#F39F85" d="M30.776 6.46c-.398 0 .148 2.52.148 2.52s.03 3.736 1.366 3.736c1.517 0 1.517-3.845 1.517-3.845V7.845s-2.633-1.385-3.03-1.385" transform="translate(105 10)"/>
            <path fill="#F7B58E" d="M33.515 8.603c.37.054.722.055.929-.07 1.365-1.48 1.365-6.187 1.365-6.187H31.44l-.67 2.99c-.18.797.037 1.632.584 2.246.608.535 1.355.903 2.16 1.02" transform="translate(105 10)"/>
            <path fill="#212B53" d="M19.926 8.218c3.493-1.859 5.717-.92 6.872-1.434 1.912-.852 2.958-6.68 6.349-6.366 3.39.314 3.39 2.555 3.39 2.555s.754 1.915-3.925 1.477c-.75-.071-1.697.317-1.714 1.058-.045 1.86.026 3.473.026 3.473s-3.489 1.076-4.808 2.286c-1.32 1.21-3.732 7.397-7.6 7.397-3.641-.314-4.233-7.442 1.41-10.446" transform="translate(105 10)"/>
            <path fill="#F7B58E" d="M24.159 15.167l3.519 2.032-1.569 2.87c-.383.498-.032.856.603.87l8.733.205v1.554H21.869c-1.594 0 2.29-7.531 2.29-7.531" transform="translate(105 10)"/>
        </g>
        <g transform="translate(137 24)">
            <mask id="prefix__c" fill="#fff">
                <use xlink:href="#prefix__a"/>
            </mask>
            <path fill="url(#prefix__b)" d="M4.317 0.144L0.295 8.683 12.538 8.683 16.557 0.144z" mask="url(#prefix__c)"/>
        </g>
        <path fill="url(#prefix__d)" d="M134 32L149 32 149 31 134 31z"/>
        <path fill="#EDEDED" d="M146.13 27.017c0 .266.217.482.485.482s.486-.216.486-.482c0-.267-.218-.482-.486-.482s-.486.215-.486.482"/>
        <path fill="#F7B58E" d="M107.114 14.425l.452-2.378.361-.074c.232-.047.47-.05.703-.01l.472.084v2.378h-1.988z"/>
        <path fill="#1C2C57" d="M107.566 12.047l-2.05-2.695c-.328-.432-.61-1-.24-1.509 0 0 .243-.34.544-.622.26-.057 3.892 3.907 3.892 3.907l-.001.034c-.025.496-.338.941-1.027.941l-1.118-.056z"/>
        <path fill="#1C2C57" d="M105.82 7.221L109.712 11.127 109.882 10.892 105.996 7.035zM107.099 11.442L106.89 11.149 107.461 10.746 107.67 11.038zM106.558 10.732L106.35 10.438 106.954 10.017 107.162 10.31zM112.586 13.134l-1.088-3.2c-.174-.513-.262-1.14.252-1.507 0 0 .34-.247.713-.42.266.028 2.452 4.927 2.452 4.927l-.013.032c-.181.463-.62.787-1.273.572l-1.043-.404z"/>
        <path fill="#1C2C57" d="M112.463 8.007L114.915 12.934 115.15 12.764 112.69 7.886zM112.335 12.413L112.23 12.07 112.9 11.867 113.006 12.21zM112.047 11.57L111.943 11.226 112.651 11.015 112.754 11.359z"/>
        <path fill="#F7B58E" d="M111.493 15.071L112.582 13.109 114.048 13.606 113.368 15.455z"/>
        <path fill="#1A3674" d="M167.798 120.153H33.012c-1.227 0-2.23-.996-2.23-2.214v-83.5c0-1.217 1.003-2.213 2.23-2.213h134.786c1.226 0 2.23.996 2.23 2.214v83.499c0 1.218-1.004 2.214-2.23 2.214"/>
        <path fill="#FFF" d="M162.422 113.217H38.337c-1.65 0-2.99-1.328-2.99-2.967V40.218c0-1.638 1.34-2.967 2.99-2.967h124.085c1.65 0 2.989 1.329 2.989 2.967v70.032c0 1.639-1.339 2.967-2.99 2.967"/>
        <g transform="translate(0 117.77)">
            <mask id="prefix__f" fill="#fff">
                <use xlink:href="#prefix__e"/>
            </mask>
            <path fill="#2F60CE" d="M31.134 0.543L0 21.74 199.597 21.74 169.716 0.426z" mask="url(#prefix__f)"/>
        </g>
        <path fill="#FFF" d="M131.583 135.48h-2.711c-.25 0-.478-.141-.588-.364l-.815-1.641c-.215-.433.102-.94.588-.94h2.587c.236 0 .454.127.57.33l.94 1.642c.247.434-.068.973-.57.973M137.243 135.48H134.6c-.231 0-.445-.122-.564-.319l-.983-1.642c-.26-.434.055-.983.564-.983h2.52c.22 0 .424.108.545.289l1.107 1.642c.292.432-.02 1.013-.545 1.013M61.359 124.369h-6.054c-.327 0-.489-.393-.256-.621l1.216-1.19c.068-.067.16-.105.256-.105h5.867c.311 0 .48.363.277.598l-1.029 1.191c-.069.08-.17.127-.277.127M122.756 135.493H70.49c-.458 0-.748-.486-.528-.885l.965-1.75c.105-.19.308-.31.528-.31h50.584c.245 0 .465.147.558.372l.718 1.75c.162.393-.13.823-.558.823M51.253 124.369h-5.936c-.344 0-.498-.43-.23-.645l1.483-1.19c.065-.053.146-.081.23-.081h5.748c.333 0 .493.404.249.628l-1.296 1.191c-.068.062-.156.097-.248.097M82.108 124.369h-6.244c-.279 0-.454-.297-.319-.54l.666-1.19c.065-.115.187-.186.32-.186h6.056c.258 0 .435.259.339.497l-.48 1.19c-.055.138-.189.229-.338.229M72.021 124.369H65.86c-.305 0-.475-.348-.289-.586l.934-1.19c.07-.088.176-.14.289-.14h5.974c.286 0 .461.312.31.554l-.747 1.19c-.066.107-.184.172-.31.172M102.706 124.369h-6.139c-.266 0-.474-.228-.448-.49l.101-1.023c.023-.229.217-.403.448-.403h5.978c.238 0 .435.184.45.42l.06 1.023c.014.256-.191.473-.45.473M92.742 124.369h-6.3c-.249 0-.424-.24-.349-.474l.385-1.19c.049-.15.189-.252.348-.252h6.113c.226 0 .397.2.36.421l-.197 1.19c-.029.176-.18.305-.36.305M57.086 129.316h-6.833c-.326 0-.489-.393-.256-.621l1.656-1.623c.07-.066.161-.104.257-.104h6.577c.312 0 .481.364.277.598l-1.401 1.623c-.07.08-.17.127-.277.127M45.87 129.316h-6.715c-.344 0-.498-.43-.23-.645l2.021-1.622c.065-.053.146-.08.23-.08h6.46c.332 0 .491.403.248.628l-1.766 1.622c-.067.062-.156.097-.248.097M80.116 129.316h-7.022c-.279 0-.455-.298-.32-.539l.909-1.623c.064-.115.187-.186.32-.186h6.767c.258 0 .435.26.339.497l-.653 1.622c-.056.139-.19.229-.34.229M68.92 129.316h-6.94c-.305 0-.476-.348-.289-.586l1.273-1.623c.07-.087.175-.139.288-.139h6.686c.286 0 .461.312.31.554l-1.018 1.622c-.066.107-.184.172-.31.172M102.997 129.316h-6.919c-.266 0-.473-.228-.447-.49l.143-1.455c.023-.229.217-.403.448-.403h6.69c.237 0 .435.184.448.42l.086 1.455c.015.257-.19.473-.45.473M91.923 129.316h-7.08c-.248 0-.424-.24-.348-.474l.524-1.623c.048-.15.19-.25.348-.25h6.824c.226 0 .398.2.36.42l-.268 1.623c-.029.175-.181.304-.36.304M138.052 124.369h6.054c.326 0 .489-.393.256-.621l-1.216-1.19c-.068-.067-.16-.105-.256-.105h-5.866c-.313 0-.48.363-.278.598l1.029 1.191c.07.08.17.127.277.127M148.158 124.369h5.936c.344 0 .497-.43.23-.645l-1.483-1.19c-.065-.053-.146-.081-.23-.081h-5.749c-.332 0-.492.404-.248.628l1.296 1.191c.067.062.156.097.248.097M117.303 124.369h6.244c.279 0 .454-.297.319-.54l-.666-1.19c-.065-.115-.187-.186-.32-.186h-6.056c-.258 0-.435.259-.34.497l.48 1.19c.055.138.19.229.34.229M127.39 124.369h6.161c.304 0 .475-.348.288-.586l-.934-1.19c-.069-.088-.175-.14-.288-.14h-5.974c-.286 0-.461.312-.31.554l.746 1.19c.067.107.184.172.31.172M106.669 124.369h6.3c.248 0 .424-.24.349-.474l-.385-1.19c-.048-.15-.19-.252-.348-.252h-6.114c-.225 0-.396.2-.36.421l.197 1.19c.03.176.182.305.36.305M142.325 129.316h6.833c.326 0 .489-.393.256-.621l-1.657-1.623c-.068-.066-.16-.104-.257-.104h-6.576c-.313 0-.48.364-.278.598l1.402 1.623c.069.08.17.127.277.127M153.54 129.316h6.716c.345 0 .498-.43.23-.645l-2.021-1.622c-.065-.053-.146-.08-.23-.08h-6.46c-.332 0-.492.403-.248.628l1.765 1.622c.068.062.157.097.249.097M119.295 129.316h7.022c.279 0 .455-.298.32-.539l-.909-1.623c-.064-.115-.187-.186-.32-.186h-6.767c-.258 0-.435.26-.339.497l.653 1.622c.055.139.19.229.34.229M130.49 129.316h6.941c.305 0 .475-.348.289-.586l-1.273-1.623c-.07-.087-.175-.139-.288-.139h-6.686c-.286 0-.461.312-.31.554l1.018 1.622c.066.107.183.172.31.172M107.488 129.316h7.08c.248 0 .424-.24.348-.474l-.524-1.623c-.048-.15-.19-.25-.348-.25h-6.825c-.225 0-.397.2-.36.42l.269 1.623c.029.175.181.304.36.304"/>
        <g transform="translate(0 139.428)">
            <mask id="prefix__h" fill="#fff">
                <use xlink:href="#prefix__g"/>
            </mask>
            <path fill="#1A3674" d="M192.86 6.768H6.736C3.016 6.768 0 3.774 0 .081h199.596c0 3.693-3.016 6.687-6.736 6.687" mask="url(#prefix__h)"/>
        </g>
        <path fill="#E9EAEB" d="M72.791 80.64L129.142 80.64 128.794 87.819 72.786 87.819z"/>
        <path fill="#2F60CE" d="M72.788 93.557L94.987 93.557 94.849 99.292 72.786 99.292z"/>
        <mask id="prefix__j" fill="#fff">
            <use xlink:href="#prefix__i"/>
        </mask>
        <path fill="#2F60CE" d="M93.133 63.644L111.78 63.644 111.78 54.359 93.133 54.359z" mask="url(#prefix__j)"/>
        <path fill="#05E3AB" d="M93.133 69.814L107.118 69.814 107.118 63.643 93.133 63.643z" mask="url(#prefix__j)"/>
        <path fill="#23489B" d="M93.133 63.644L102.485 63.644 102.485 54.359 93.133 54.359z" mask="url(#prefix__j)"/>
        <path fill="#04AA80" d="M93.133 72.928L102.485 72.928 102.485 63.644 93.133 63.644z" mask="url(#prefix__j)"/>
        <path fill="#1C2C57" d="M63.792 37.893l5.504-.875c.743-.04 1.593.038 1.831.644 0 0 .163.403.213.821-.158.258-7.5 1.154-7.5 1.154l-.035-.022c-.922-.801-.013-1.722-.013-1.722" mask="url(#prefix__j)"/>
        <path fill="#FFF" d="M71.34 38.483L63.84 39.637 63.952 39.916 71.392 38.74zM65.97 37.543L66.467 37.468 66.419 38.162 65.939 38.238zM67.033 37.375L67.529 37.3 67.482 37.994 67.002 38.07z" mask="url(#prefix__j)"/>
        <path fill="#F7B58E" d="M63.123 36.133l.67 1.76c.476.153 1.053.075 1.48-.198l.078-.05-.026-1.86-2.202.348z" mask="url(#prefix__j)"/>
        <path fill="#1C2C57" d="M62.158 39.285l5.501-.893c.743-.042 1.593.033 1.833.639 0 0 .164.402.215.82-.157.258-7.495 1.176-7.495 1.176l-.036-.021c-.924-.799-.018-1.721-.018-1.721" mask="url(#prefix__j)"/>
        <path fill="#FFF" d="M69.707 39.85L62.211 41.027 62.324 41.306 69.761 40.108zM64.335 38.927L64.831 38.851 64.786 39.545 64.305 39.622zM65.397 38.756L65.893 38.68 65.848 39.374 65.368 39.451z" mask="url(#prefix__j)"/>
        <path fill="#F7B58E" d="M61.483 37.526l.675 1.758c.478.151 1.054.072 1.48-.203l.078-.05-.032-1.86-2.201.355z" mask="url(#prefix__j)"/>
        <path fill="#23489B" d="M38.762 26.953s1.411 6.89 7.82 6.703c6.41-.187 13.395-7.977 13.395-7.977L63.28 36.45l2.459-.132s.326-16.782-3.165-17.369c-3.49-.587-15.825 5.868-15.825 5.868l-7.986 2.135z" mask="url(#prefix__j)"/>
        <path fill="#F39F85" d="M42.3 7.035L41.25 9.583 43.441 10.208 44.262 8.143z" mask="url(#prefix__j)"/>
        <path fill="#F7B58E" d="M42.545 2.567l-.618 3.437c.343.065.459.474.32.777.017.085.016.176-.002.263.493.556 1.439 1.35 2.885 1.406 2.262.087 1.925-4.37 1.925-4.37l-4.51-1.513z" mask="url(#prefix__j)"/>
        <path fill="#053C5E" d="M40.86 4.868c.043-.253-.176-.86-.328-1.067-.98-1.335.296-1.85.742-2.01.495-.175.59-.97 1.25-1.274 1.005-.465 1.665.408 2.233.433.568.025 1.074-.616 1.777-.053.704.564.472 1.16.665 1.48.194.319.828-.294 1.409.706.883 1.522-1.547 1.527-1.547 1.527s-1.382.228-2.9-.806c-.209-.142-.492-.155-.684.008-.524.45-1.191 3.283-1.191 3.283l-.45-.588s-1.167-.481-.975-1.639" mask="url(#prefix__j)"/>
        <path fill="#F7B58E" d="M42.095 5.445c.048.292.325.49.62.443.293-.048.493-.323.445-.614-.048-.292-.325-.49-.619-.443-.294.047-.494.322-.446.614" mask="url(#prefix__j)"/>
        <path fill="#2F60CE" d="M36.897 26.483s.696 6.997 7.091 7.46c6.395.462 14.144-6.58 14.144-6.58l3.231 10.562 2.474-.398s.981-15.657-2.431-16.595c-3.413-.937-16.346 4.236-16.346 4.236l-8.163 1.315z" mask="url(#prefix__j)"/>
        <path fill="#FFD32A" d="M36.897 26.483l10.489-1.69s-.734-2.272-.89-4.652c-.118-1.8.547-3.419.547-3.419-.614-3.978-2.115-7.843-5.66-7.388-6.049 1.535-4.486 17.149-4.486 17.149" mask="url(#prefix__j)"/>
        <g transform="translate(53 11)">
            <mask id="prefix__m" fill="#fff">
                <use xlink:href="#prefix__k"/>
            </mask>
            <path fill="url(#prefix__l)" d="M9.627 9.03L0.101 8.068 0.019 8.775 10.13 9.795 13.993 0.362 13.281 0.108z" mask="url(#prefix__m)"/>
        </g>
        <g fill="#F7B58E">
            <path d="M.162 1.058L4.386.392l.496 4.591 7.429-2.35 1.644-1.083c.424-.28.94-.398 1.448-.332l2.055.269c.212.028.38.187.414.391l.77 2.116s-.485.355-1.293-1.425c-.35 2.118-3.454.746-3.454.746l-1.03.72s-7.921 5.81-9.94 4.778C.904 7.782.161 1.058.161 1.058" transform="translate(43 16)"/>
            <path d="M17.872 1.879c-.034-.205-.202-.365-.414-.392l-2.055-.27c-.509-.065-1.024.053-1.448.333L12.31 2.634l-.242.077.282 1.692c.326-.229.514-.368.514-.368l1.03-.72S17 4.686 17.349 2.568c.808 1.78 1.292 1.425 1.292 1.425l-.769-2.115z" transform="translate(43 16)"/>
        </g>
    </g>
</svg>
