<svg xmlns="http://www.w3.org/2000/svg" xmlns:xlink="http://www.w3.org/1999/xlink" width="181" height="109" viewBox="0 0 181 109">
    <defs>
        <path id="prefix__a" d="M0.392 0.135L12.817 0.135 12.817 5.737 0.392 5.737z"/>
        <path id="prefix__c" d="M0.29 0.374L13.026 0.374 13.026 8.032 0.29 8.032z"/>
        <path id="prefix__e" d="M0.017 0.311L14.248 0.311 14.248 33.495 0.017 33.495z"/>
    </defs>
    <g fill="none" fill-rule="evenodd">
        <path fill="#F39F85" d="M116 18.2L114.623 25 111 18.88 112.837 16z"/>
        <g transform="translate(121.816 103.263)">
            <mask id="prefix__b" fill="#fff">
                <use xlink:href="#prefix__a"/>
            </mask>
            <path fill="#212B53" d="M1.723.135S.173.95.418 2.284l.632 3.453h.928l.033-1.57c.004-.19.22-.297.375-.186l1.799 1.306c.402.293.886.45 1.383.45h7.25s0-2.316-4.26-2.948C4.298 2.158 1.723.135 1.723.135" mask="url(#prefix__b)"/>
        </g>
        <path fill="#F7B58E" d="M125.652 100.831l.923 2.68c.195.563.574 1.042 1.077 1.363.556.355 1.426.796 2.721 1.179-1.584 1.35-4.105-.005-5.546-1.002-.703-.486-1.2-1.211-1.41-2.038l-.55-2.182h2.785z"/>
        <g transform="translate(87.34 100.968)">
            <mask id="prefix__d" fill="#fff">
                <use xlink:href="#prefix__c"/>
            </mask>
            <path fill="#212B53" d="M3.073.374S1.329.53 1.039 1.854l-.75 3.43.857.357.637-1.436c.077-.174.319-.19.417-.027L3.356 5.57c.258.423 1.746 2.27 2.205 2.46h7.465s-.253-1.873-4.67-2.578C4.101 4.775 3.072.373 3.072.373" mask="url(#prefix__d)"/>
        </g>
        <path fill="#F7B58E" d="M93.354 99.787l-.182 2.827c-.039.595.126 1.183.466 1.673.376.542 1.01 1.283 2.057 2.134-1.983.637-3.786-1.583-4.731-3.058-.462-.72-.64-1.58-.514-2.424l.333-2.224 2.571 1.072z"/>
        <path fill="#2F60CE" d="M117.873 37.995c-.11 3.212 5.878 13.401 5.878 13.401s-5.06 4.211-6.747 4.211c-1.502-4.181-2.53-6.4-2.53-6.4s3.508-14.424 3.399-11.212"/>
        <path fill="#F7B58E" d="M117.64 18.187c.65-.02 1.251-.126 1.566-.406 1.872-2.979-.26-11.01-.26-11.01l-6.796 1.216-.217 5.382c-.057 1.436.573 2.815 1.698 3.712 1.205.74 2.595 1.149 4.01 1.106"/>
        <path fill="#23489B" d="M117.552 53.334c4.26 9.18 4.428 26.864 4.428 26.864l4.133 20.633h-3.711s-12.483-26.275-13.411-33.77c-.928-7.496 2.109-13.39 2.109-13.39l3.643-5.559s1.21 1.348 2.81 5.222"/>
        <path fill="#1A3674" d="M112.87 58.555s-2.53 10.106-9.277 21.896c-4.556 7.748-9.7 19.875-9.7 19.875l-3.46-1.348s1.733-11.688 6.514-21.465c.981-2.003 1.47-4.218 1.45-6.448-.09-10.668 2.64-19.633 2.64-19.633l11.834 7.123z"/>
        <path fill="#2F60CE" d="M110.93 18.721s5.851 8.422 7.555 12.503c.356.853.425 1.797.231 2.7-2.847 13.233-4.02 23.536-4.412 25.22-8.097-.252-14.086-8.758-14.086-8.758s1.22-2.538 2.578-5.516c1.788-3.918 2.839-8.135 3.125-12.431.384-5.76 1.382-10.097 1.382-10.097l3.627-3.62z"/>
        <g transform="translate(97.683)">
            <mask id="prefix__f" fill="#fff">
                <use xlink:href="#prefix__e"/>
            </mask>
            <path fill="#212B53" d="M14.248 4.063S13.7 1.43 12.198.7C10.297-.227 5.995.04 4.772 6.77 3.548 13.5 6.928 12.768 7.049 15.48c.12 2.711-6.538 3.654-6.96 9.049-.421 5.394 1.14 6.489 1.14 6.489s1.779 3.51 5.001 2.176c1.001-1.207.917-2.674 1.09-3.814.176-1.144.816-2.154 1.772-2.808 1.323-.904 3.52-2.457 3.903-4.654.374-2.141-.601-4.532-1.498-6.178-.935-1.715-1.413-3.637-1.436-5.59-.022-1.747.05-3.65.404-4.477.733-1.714 1.734-.678 1.734-.678l2.049-.93z" mask="url(#prefix__f)"/>
        </g>
        <path fill="#212B53" d="M118.945 6.77s-1.713-4.394-7.015-2.197c-.612.256-.612.256-1.759 1.099-3.71 5.495 1.76 8.838 1.76 8.838l2.145-4.104s2.02.21 3.265-.864c1.244-1.074 1.604-2.771 1.604-2.771"/>
        <path fill="#F7B58E" d="M112.65 10.196c.375-.364 1.079-.295 1.57.154.493.447.587 1.105.211 1.468s-1.08.295-1.572-.153c-.491-.449-.586-1.106-.21-1.469"/>
        <path fill="#2F60CE" d="M112.776 4.27l-.366-.425c-.272-.316-.74-.375-1.083-.136l-1.185.827c-.267.185-.34.548-.167.823l.197.312 2.604-1.402z"/>
        <path fill="#FFD22A" d="M162.416 61.688L148.869 61.688 148.869 76.623 132.379 76.623 132.379 61.688 76.603 61.688 76.603 34.62 180.673 34.62 180.673 52.28 180.673 61.688 180.673 84.033 162.416 84.033z"/>
        <path fill="#E0B02B" d="M162.416 61.688L148.869 61.688 148.869 76.623 132.379 76.623 132.379 61.688 76.603 61.688 76.603 48.402 180.673 48.402 180.673 84.033 162.416 84.033z"/>
        <path fill="#FFD22A" d="M14.625 88.03h48.53c8.045 0 14.626-6.57 14.626-14.6V24.036c0-8.03-6.581-14.601-14.625-14.601H14.625C6.582 9.436 0 16.006 0 24.037V73.43c0 8.031 6.582 14.602 14.625 14.602"/>
        <path fill="#E0B02B" d="M38.874 48.402H77.78V73.43c0 8.031-6.581 14.602-14.625 14.602H14.625C6.582 88.03 0 81.46 0 73.429V48.402h8.871"/>
        <path fill="#F7B58E" d="M113.515 32.327s3.096-2.755.344-5.567c-2.21-2.258-4.748.528-4.748.528s-10.731 11.69-9.43 14.495c1.302 2.806 14.345 13.545 14.345 13.545l2.007.596c1.069.317 2.221.177 3.183-.386l1.196-.701-5.035-1.236s-11.215-11.707-10.13-13.21c1.085-1.502 8.268-8.064 8.268-8.064"/>
        <path fill="#FFF" d="M24.411 59.28c-6.132 0-11.102-4.963-11.102-11.084 0-6.122 4.97-11.085 11.102-11.085 6.132 0 11.102 4.963 11.102 11.085 0 6.121-4.97 11.084-11.102 11.084"/>
    </g>
</svg>
