<svg xmlns="http://www.w3.org/2000/svg" xmlns:xlink="http://www.w3.org/1999/xlink" width="230" height="179" viewBox="0 0 230 179">
    <defs>
        <path id="prefix__a" d="M0.389 0.033L7.089 0.033 7.089 0.428 0.389 0.428z"/>
        <path id="prefix__c" d="M0.421 0.396L28.209 0.396 28.209 10.957 0.421 10.957z"/>
        <path id="prefix__e" d="M0.421 0.152L28.209 0.152 28.209 5.839 0.421 5.839z"/>
        <path id="prefix__g" d="M0.119 0.396L22.186 0.396 22.186 17.457 0.119 17.457z"/>
    </defs>
    <g fill="none" fill-rule="evenodd">
        <path fill="#2F60CE" d="M0.908 29.22L0 161 181 161 181 29z"/>
        <path fill="#1A3674" d="M181 29L1.055 29.215 1 37 181 37z"/>
        <g>
            <path fill="#E9EAEB" d="M172.042 33.148c-.295 1.027-1.367 1.86-2.392 1.86-1.027 0-1.62-.833-1.325-1.86.295-1.026 1.366-1.86 2.393-1.86 1.027 0 1.62.834 1.324 1.86" transform="translate(3)"/>
            <path fill="#FFD32A" d="M164.743 33.148c-.296 1.027-1.367 1.86-2.393 1.86-1.027 0-1.62-.833-1.325-1.86.295-1.026 1.366-1.86 2.393-1.86 1.027 0 1.62.834 1.325 1.86" transform="translate(3)"/>
            <path fill="#E9EAEB" d="M0.347 30.669L0.087 35.008 15.906 35.008 16.129 31.289z" transform="translate(3)"/>
            <path fill="#FFD22A" d="M10.316 43.523L8.893 79.367 164.906 79.367 164.885 43.523z" transform="translate(3)"/>
            <path fill="#FFF" d="M8.516 83.885L8.318 86.674 134.58 86.674 135.595 84.21zM8.227 146.839L8.089 149.629 118.281 149.629 118.988 147.165zM8.59 89.684L8.691 91.811 162.713 91.811 163.487 89.932zM8.967 95.695L8.888 98.196 146.045 98.196 145.551 95.695zM128.298 102.178L129.24 116.45 169.75 116.45 168.628 102.178zM129.62 121.428L170.311 121.428 170.059 123.751 129.616 123.751zM130.276 126.075L170.966 126.075 170.714 128.398 130.271 128.398zM131.594 130.722L172.285 130.722 172.033 133.045 131.591 133.045zM8.881 103.391L8.414 135.036 122.382 135.036 121.455 103.391zM7.946 140.346L8.189 144.329 123.038 144.329 123.036 140.346z" transform="translate(3)"/>
            <path fill="#FFD32A" d="M124.862 162.119l1.737 4.599c.145.643.17 1.413-.494 1.793 0 0-.44.256-.911.418-.316-.067-2.321-6.277-2.321-6.277l.02-.037c.794-1.037 1.97-.496 1.97-.496" transform="translate(3)"/>
            <path fill="#1C2C57" d="M125.194 168.93L122.873 162.653 122.568 162.829 124.906 169.048z" transform="translate(3)"/>
            <path fill="#FFF" d="M125.554 163.938L125.706 164.353 124.905 164.507 124.754 164.105zM125.888 164.826L126.04 165.242 125.239 165.396 125.088 164.994z" transform="translate(3)"/>
            <path fill="#F9AF89" d="M126.789 161.034l-1.927 1.085c-.11.463.054.949.425 1.248l.067.054 2.127-.547-.692-1.84z" transform="translate(3)"/>
            <path fill="#1A3674" d="M142.172 132.016s-1.911 2.059-2.404 5.682c-.327 2.41.575 6.232.674 9.23.09 2.741-1.147 4.92-3.319 6.594l-10.335 7.512.693 1.84s14.145-2.122 17.858-8.459c3.713-6.337 4.594-20.684 4.594-20.684l-7.761-1.715z" transform="translate(3)"/>
            <path fill="#F9AF89" d="M134.458 124.207l-5.316 11.873s-2.184.255-3.131 1.093c-.494.438-.472 1.313-.338 2.05.101.558.772.794 1.2.423.585-.509 1.338-1.08 1.832-1.162 1.311-.218 1.704-1.147 1.704-1.147l7.625-11.964-3.576-1.166zM160.747 100.328l2.724-2.33-2.112-11.509-3.277-1.676s.357-.633 1.165-.363c.808.269 1.493.109 1.493.109s.613-.76-.55-1.272c-.652-.44-1.088-.003-2.982-.076 0-.29 2.495-.983 2.495-.983.778-.25 2.764 1.288 2.764 1.288.133.183.22.395.253.619l.313 2.135s4.224 11.584 4.224 12.82c0 1.238-2.367 2.932-2.367 2.932l-4.143-1.694z" transform="translate(3)"/>
            <path fill="#23489B" d="M146.104 133.21s-1.639 1.975-.656 6.564c.628 2.929 3.383 6.615 5.235 9.154 1.326 1.821 1.354 4.11.956 6.327-1.516 8.429.91 18.718.91 18.718h1.965s2.95-15.078 3.823-25.677c.788-9.556-3.3-16.594-3.387-16.718l-8.846 1.632z" transform="translate(3)"/>
            <path fill="#F9A425" d="M157.001 84.4L163.176 85.306 163.415 83.674 157.241 82.767z" transform="translate(3)"/>
            <path fill="#FFF" d="M163.772 83.727L163.532 85.359 162.968 85.275 163.207 83.643z" transform="translate(3)"/>
            <path fill="#1C2C57" d="M163.413 85.34c.453.064.834.033.942-.705.118-.805-.248-.877-.7-.946l-.242 1.652z" transform="translate(3)"/>
            <path fill="#FFF" d="M157.001 84.4L155.803 83.679 155.89 83.086 157.241 82.767z" transform="translate(3)"/>
            <path fill="#004060" d="M155.803 83.679L155.282 83.303 155.89 83.085z" transform="translate(3)"/>
            <path fill="#F58A27" d="M163.06 84.653L163.005 85.024 157.038 84.148 157.093 83.777zM163.175 83.866L163.12 84.237 157.154 83.362 157.208 82.99z" transform="translate(3)"/>
            <path fill="#05E3AB" d="M141.279 109.913c-3.512 2.58-7.134 14.991-7.134 14.991l3.085 1.73 4.505-6.89s.489 7.978-.713 14.096c.547 2.295 3.152 2.037 7.376 1.235 4.223-.8 6.99-2.622 6.99-2.622s.182-11.068.728-16.936c.547-5.869-.532-6.496.947-6.3 3.299-1.875 8.706-7.912 8.706-7.912l-5.022-.978-10.814 6.34s-5.287 1.393-8.654 3.246" transform="translate(3)"/>
            <path fill="#F9AF89" d="M147.406 95.234l2.608 2.577c1.108 1.094 1.576 2.681 1.238 4.202l-.306 1.376-3.54-8.155z" transform="translate(3)"/>
            <path fill="#1C2C57" d="M144.247 94.258c-6.335 0-3.64 12.166-3.64 12.166s1.128 7.891 3.64 11.06c2.174 2.743 6.476 1.917 8.515.601.996-.643 2.112-1.073 3.289-1.214 1.725-.208 3.78-.971 3.78-4.085 0-2.932-3.5-5.2-5.803-6.82-1.5-1.055-2.548-2.634-2.985-4.416-.737-3.002-2.536-7.292-6.796-7.292" transform="translate(3)"/>
            <path fill="#FFD32A" d="M152.885 176.16l4.915-.009c.652.092 1.382.34 1.504 1.095 0 0 .085.501.07 1-.173.273-6.69-.036-6.69-.036l-.028-.032c-.69-1.11.23-2.019.23-2.019" transform="translate(3)"/>
            <g transform="translate(3) translate(152.295 178.144)">
                <mask id="prefix__b" fill="#fff">
                    <use xlink:href="#prefix__a"/>
                </mask>
                <path fill="#004060" d="M7.079 0.104L0.389 0.066 0.447 0.428 7.089 0.428z" mask="url(#prefix__b)"/>
            </g>
            <path fill="#FFF" d="M154.83 176.151L155.273 176.156 155.136 176.96 154.706 176.96zM155.78 176.151L156.222 176.156 156.085 176.96 155.655 176.96z" transform="translate(3)"/>
            <path fill="#F9AF89" d="M152.548 173.973l.337 2.186c.394.267.908.284 1.318.042l.074-.044.237-2.184h-1.966zM159.247 84.45c-.808-.27-1.165.364-1.165.364l2.18 1.115c.031-.013.06-.028.09-.04.358-.146 1.102-.468 1.443-.526-.206-.208-2.145-.78-2.548-.913" transform="translate(3)"/>
            <g transform="translate(3) translate(198.758)">
                <mask id="prefix__d" fill="#fff">
                    <use xlink:href="#prefix__c"/>
                </mask>
                <path fill="#1A3674" d="M3.072 4.775L0.421 10.957 6.927 8.994 28.209 0.396z" mask="url(#prefix__d)"/>
            </g>
            <path fill="#23489B" d="M199.18 10.957L205.765 10.964 207.479 8.119z" transform="translate(3)"/>
            <g transform="translate(3) translate(198.758)">
                <mask id="prefix__f" fill="#fff">
                    <use xlink:href="#prefix__e"/>
                </mask>
                <path fill="#2F60CE" d="M2.831 5.839L28.209 0.396 0.421 0.152z" mask="url(#prefix__f)"/>
            </g>
            <g transform="translate(3) translate(204.781)">
                <mask id="prefix__h" fill="#fff">
                    <use xlink:href="#prefix__g"/>
                </mask>
                <path fill="#2F60CE" d="M0.119 9.196L4.204 17.457 22.186 0.396z" mask="url(#prefix__h)"/>
            </g>
            <path fill="#2F60CE" d="M201.961 19.413c.05 0 .099-.008.147-.027.2-.08.298-.309.22-.512-.248-.642-.552-1.258-.906-1.833-.113-.186-.353-.241-.536-.125-.182.116-.238.36-.123.544.328.533.61 1.106.841 1.703.06.153.204.248.357.25M176.902 54.862c-.011-.217.153-.403.368-.415 1.216-.064 2.453-.363 3.676-.886.198-.082.427.01.51.212.084.201-.01.432-.207.518-1.307.558-2.633.877-3.939.946h-.023c-.205-.002-.375-.165-.385-.375zm5.952-1.843c-.117-.183-.064-.428.116-.546 1.074-.703 2.046-1.554 2.892-2.526.142-.163.388-.179.55-.035.16.144.176.394.034.558-.894 1.028-1.92 1.924-3.054 2.667-.066.044-.14.063-.215.063-.126-.002-.25-.065-.323-.181zm4.497-4.397c-.182-.115-.24-.358-.127-.544l.09-.153c.605-1.035 1.118-2.174 1.526-3.383.068-.206.29-.319.493-.246.203.07.312.296.242.502-.424 1.26-.96 2.447-1.59 3.53l-.098.165c-.075.122-.203.188-.336.187-.069 0-.137-.02-.2-.058zm2.41-5.87c-.21-.048-.342-.26-.295-.472.268-1.203.462-2.513.577-3.894.017-.218.215-.381.42-.36.214.018.374.21.356.427-.119 1.417-.318 2.763-.593 4-.041.186-.205.31-.384.308-.027 0-.054-.003-.082-.009zm.785-6.33c-.214-.005-.384-.186-.38-.405l.007-.332c-.439-.05-.876-.12-1.31-.215-.21-.045-.344-.255-.3-.469.046-.214.249-.348.463-.304.382.083.767.147 1.154.192 0-.887-.022-1.82-.067-2.837-.01-.217.156-.402.37-.412.213-.01.397.159.407.377.047 1.053.07 2.02.068 2.938.621.032 1.245.015 1.855-.052.216-.025.406.134.429.351.024.217-.131.412-.344.435-.641.07-1.296.089-1.947.057l-.006.29c-.006.217-.181.389-.394.386h-.005zm4.242-1.503c-.067-.207.044-.43.247-.499.75-.25 1.461-.585 2.114-.995.408-.255.802-.545 1.172-.862.165-.14.41-.12.549.047.138.167.117.417-.047.557-.4.342-.825.655-1.264.931-.705.442-1.473.803-2.28 1.073-.041.014-.084.02-.125.02-.163-.001-.313-.108-.366-.272zm-8.243-.184c-1.281-.544-2.435-1.277-3.428-2.178-.16-.146-.174-.396-.03-.558.143-.164.39-.178.549-.032.928.842 2.007 1.528 3.21 2.038.198.084.29.317.209.518-.064.153-.21.244-.364.243-.049 0-.098-.01-.146-.03zm13.414-3.289c-.17-.132-.203-.38-.072-.553.76-1.006 1.361-2.149 1.786-3.396.07-.206.292-.317.495-.244.203.07.311.296.24.502-.452 1.328-1.092 2.546-1.904 3.619-.077.103-.195.156-.313.155-.08-.001-.162-.028-.232-.083zm-18.47-.736c-.204-.294-.395-.598-.565-.907-.496-.891-.834-1.903-.977-2.926-.03-.216.117-.416.33-.447.212-.031.41.12.44.335.13.926.437 1.843.885 2.65.158.285.333.567.522.837.125.179.083.426-.092.552-.07.05-.15.073-.229.072-.12 0-.239-.06-.313-.166zm8.475-1.03c-.141-1.562-.382-2.77-.758-3.802-.075-.205.027-.432.229-.508.2-.075.425.029.5.234.402 1.098.657 2.37.804 4.003.02.218-.137.41-.352.43l-.04.002c-.197-.002-.365-.156-.383-.36zm12.583-3.986c-.213-.033-.36-.235-.327-.45.087-.583.135-1.173.14-1.758.008-.706-.044-1.412-.156-2.096-.036-.215.109-.419.32-.454.214-.037.413.11.448.326.118.728.176 1.48.167 2.233-.007.62-.057 1.249-.149 1.868-.03.196-.197.337-.39.335-.017 0-.035-.001-.053-.004zm-22.227-.87c-.208-.05-.337-.264-.286-.477.266-1.126.86-2.04 1.719-2.644.311-.219.652-.39 1.012-.511.204-.07.425.045.492.251.067.208-.044.432-.248.5-.29.097-.563.235-.813.41-.708.499-1.18 1.232-1.406 2.18-.043.183-.205.304-.383.302-.028 0-.057-.004-.087-.01zm7.826-.943c-.734-.966-1.863-1.71-3.02-1.989-.21-.05-.34-.264-.29-.476.051-.213.261-.343.47-.293 1.345.325 2.604 1.154 3.457 2.275.131.173.1.422-.071.554-.071.057-.157.084-.24.083-.116-.001-.23-.054-.306-.154zM174.9 55.061c.181.003.346-.127.384-.314.044-.215-.092-.424-.303-.468-.608-.128-1.202-.323-1.764-.583-.196-.09-.427-.002-.515.197-.089.198-.002.432.193.522.615.285 1.264.5 1.93.638.024.005.049.008.074.008" transform="translate(3)"/>
        </g>
    </g>
</svg>
