<svg width="49" height="48" viewBox="0 0 49 48" fill="none" xmlns="http://www.w3.org/2000/svg">
<path d="M2.5 31C2.5 29.067 4.067 27.5 6 27.5H44C45.933 27.5 47.5 29.067 47.5 31V47.5H2.5V31Z" fill="#293044"/>
<path d="M2.5 31C2.5 29.067 4.067 27.5 6 27.5H44C45.933 27.5 47.5 29.067 47.5 31V47.5H2.5V31Z" stroke="#293044"/>
<path d="M2.5 2.5H47.5V19C47.5 20.933 45.933 22.5 44 22.5H6C4.067 22.5 2.5 20.933 2.5 19V2.5Z" fill="#293044"/>
<path d="M2.5 2.5H47.5V19C47.5 20.933 45.933 22.5 44 22.5H6C4.067 22.5 2.5 20.933 2.5 19V2.5Z" stroke="#293044"/>
<path d="M0.5 0.5H45.5V17C45.5 18.933 43.933 20.5 42 20.5H4C2.067 20.5 0.5 18.933 0.5 17V0.5Z" fill="#F6F7FC"/>
<path d="M0.5 0.5H45.5V17C45.5 18.933 43.933 20.5 42 20.5H4C2.067 20.5 0.5 18.933 0.5 17V0.5Z" stroke="#293044"/>
<path d="M0.5 29C0.5 27.067 2.067 25.5 4 25.5H42C43.933 25.5 45.5 27.067 45.5 29V45.5H0.5V29Z" fill="#F6F7FC"/>
<path d="M0.5 29C0.5 27.067 2.067 25.5 4 25.5H42C43.933 25.5 45.5 27.067 45.5 29V45.5H0.5V29Z" stroke="#293044"/>
</svg>
