<svg width="49" height="48" viewBox="0 0 49 48" fill="none" xmlns="http://www.w3.org/2000/svg">
<circle cx="25.6667" cy="25" r="22.5" fill="#293044" stroke="#293044"/>
<circle cx="23.6667" cy="23" r="22.5" fill="#F6F7FC" stroke="#293044"/>
<path d="M23.3502 17.7706C25.2198 17.7706 26.7355 16.255 26.7355 14.3853C26.7355 12.5157 25.2198 11 23.3502 11C21.4805 11 19.9648 12.5157 19.9648 14.3853C19.9667 16.2542 21.4813 17.7688 23.3502 17.7706ZM23.3502 12.1284C24.5966 12.1284 25.607 13.1389 25.607 14.3853C25.607 15.6318 24.5966 16.6422 23.3502 16.6422C22.1037 16.6422 21.0933 15.6318 21.0933 14.3853C21.0933 13.1389 22.1037 12.1284 23.3502 12.1284Z" fill="#293044"/>
<path d="M31.208 18.3395H31.199L25.2747 18.8716C25.0727 18.89 24.8705 18.8992 24.6681 18.8992H22.0321C21.8301 18.8992 21.6283 18.8902 21.4267 18.8721L15.4922 18.3395C14.5602 18.2663 13.7453 18.9625 13.672 19.8945C13.5988 20.8265 14.295 21.6415 15.227 21.7147L20.0156 22.1491C20.3061 22.1754 20.5287 22.4188 20.529 22.7105V24.0082C20.5292 24.2904 20.4764 24.57 20.3733 24.8326L17.6583 31.7471C17.2798 32.6022 17.6662 33.6021 18.5212 33.9806C19.3763 34.359 20.3762 33.9727 20.7547 33.1176L23.3422 26.791L25.954 33.1345C26.3435 33.9681 27.3275 34.3379 28.1696 33.9672C29.0116 33.5964 29.4034 32.621 29.0516 31.7708L26.3269 24.8309C26.2241 24.5686 26.1713 24.2894 26.1712 24.0077V22.71C26.1715 22.4182 26.3941 22.1748 26.6847 22.1486L31.4653 21.7147C32.3975 21.6436 33.0956 20.8304 33.0245 19.8982C32.9535 18.966 32.1402 18.2679 31.208 18.339V18.3395ZM31.3711 20.5919L26.5825 21.0263C25.7092 21.1015 25.0395 21.834 25.0428 22.7105V24.0082C25.0426 24.4317 25.122 24.8515 25.2769 25.2456L28.0111 32.2075C28.144 32.4894 28.0233 32.8256 27.7414 32.9585C27.4596 33.0914 27.1234 32.9706 26.9905 32.6888L24.3843 26.3622C24.2115 25.9434 23.8032 25.6702 23.3501 25.6702C22.8971 25.6702 22.4887 25.9434 22.3159 26.3622L19.7171 32.6719C19.6363 32.8639 19.4563 32.9958 19.2488 33.0149C19.0414 33.034 18.8403 32.9372 18.7257 32.7632C18.6112 32.5892 18.6019 32.3662 18.7015 32.1832L21.4261 25.2433C21.58 24.8496 21.6585 24.4304 21.6575 24.0077V22.71C21.6613 21.833 20.9915 21.0999 20.1177 21.0247L15.3213 20.5919C15.0096 20.5699 14.7748 20.2995 14.7968 19.9879C14.8188 19.6763 15.0892 19.4415 15.4008 19.4635L21.3251 19.9955C21.5598 20.0166 21.7951 20.0271 22.031 20.0271H24.667C24.9028 20.0271 25.1381 20.0166 25.3728 19.9955L31.2943 19.4635C31.4435 19.4516 31.5911 19.4999 31.7045 19.5975C31.8178 19.6951 31.8875 19.8339 31.8981 19.9831C31.9103 20.134 31.8614 20.2836 31.7623 20.3981C31.6632 20.5125 31.5222 20.5824 31.3711 20.5919Z" fill="#293044"/>
</svg>
