<svg width="50" height="48" viewBox="0 0 50 48" fill="none" xmlns="http://www.w3.org/2000/svg">
<path d="M11 7H41.9368C45.2854 7 49 10.5817 49 15C49 19.4183 45.2854 23 41.9368 23L8.06316 23C4.71457 23 1 26.5817 1 31C1 35.4183 4.71457 39 8.06316 39L42 39" stroke="#293044"/>
<rect x="15.5" y="32.5" width="33" height="15" rx="3.5" fill="#293044"/>
<rect x="15.5" y="32.5" width="33" height="15" rx="3.5" stroke="#293044"/>
<rect x="1" width="32" height="12" rx="6" fill="#E4E7F6"/>
<rect x="13.5" y="31.5" width="34" height="15" rx="3.5" fill="#F6F7FC"/>
<rect x="19" y="37" width="23" height="4" rx="2" fill="#E4E7F6"/>
<rect x="13.5" y="31.5" width="34" height="15" rx="3.5" stroke="#293044"/>
</svg>
