<svg width="49" height="48" viewBox="0 0 49 48" fill="none" xmlns="http://www.w3.org/2000/svg">
<rect x="3.16675" y="15.4541" width="45" height="32" rx="3.5" fill="#293044"/>
<rect x="3.16675" y="15.4541" width="45" height="32" rx="3.5" stroke="#293044"/>
<rect x="1.16675" y="14.4541" width="45" height="31" rx="3.5" fill="#F6F7FC"/>
<rect x="1.16675" y="14.4541" width="45" height="31" rx="3.5" stroke="#293044"/>
<path d="M2.66675 15.0459L23.6208 29.9999L44.6667 14.954" stroke="#293044"/>
<circle cx="24.6667" cy="10" r="10" fill="white"/>
<path d="M24.6667 0C19.1527 0 14.6667 4.486 14.6667 10C14.6667 15.514 19.1527 20 24.6667 20C30.1807 20 34.6667 15.514 34.6667 10C34.6667 4.486 30.1807 0 24.6667 0ZM22.6677 14.413L18.9547 10.708L20.3667 9.292L22.6657 11.587L27.9597 6.293L29.3737 7.707L22.6677 14.413Z" fill="#293044"/>
</svg>
