<svg width="565" height="402" viewBox="0 0 565 402" fill="none" xmlns="http://www.w3.org/2000/svg">
<path fill-rule="evenodd" clip-rule="evenodd" d="M214.054 28.3252L257.93 3.00107L270.58 24.905C284.501 21.5516 298.835 21.6677 312.394 24.9348L325.049 3.01523L368.932 28.351L356.285 50.2561C361.031 55.2594 365.268 60.8952 368.868 67.1287C372.469 73.3629 375.233 79.8506 377.194 86.4615L402.488 86.4649L402.495 137.125L377.183 137.122C373.233 150.493 366.167 162.96 356.302 173.335L368.952 195.238L325.076 220.562L312.428 198.662C298.508 202.017 284.176 201.903 270.617 198.639L257.961 220.559L214.078 195.223L226.721 173.325C221.971 168.319 217.73 162.679 214.127 156.441C210.525 150.204 207.76 143.713 205.798 137.099L180.501 137.096L180.495 86.4355L205.816 86.4389C209.767 73.0668 216.835 60.6001 226.702 50.2261L214.054 28.3252ZM304.403 134.131C316.745 127.008 320.971 111.229 313.844 98.8872C306.716 86.5458 290.934 82.3155 278.592 89.4386C266.251 96.5618 262.024 112.341 269.152 124.682C276.279 137.024 292.062 141.254 304.403 134.131Z" fill="#E4E7F6"/>
<path fill-rule="evenodd" clip-rule="evenodd" d="M27.2221 279.128L43.419 262.926L51.5047 271.014C57.1911 267.919 63.4638 266.291 69.7668 266.131L72.729 255.073L94.8543 261.003L91.8941 272.054C94.5514 273.684 97.0611 275.65 99.3621 277.952C101.664 280.254 103.629 282.765 105.259 285.423L116.304 282.463L122.233 304.595L111.179 307.557C111.019 313.862 109.392 320.136 106.297 325.824L114.383 333.912L98.1863 350.114L90.1017 342.027C84.4162 345.122 78.1443 346.751 71.8419 346.913L68.8796 357.971L46.7543 352.041L49.7136 340.994C47.054 339.363 44.5424 337.395 42.2396 335.092C39.9371 332.789 37.9707 330.277 36.3403 327.617L25.2937 330.577L19.3653 308.445L30.4224 305.482C30.5837 299.177 32.2118 292.903 35.3068 287.215L27.2221 279.128ZM79.0498 314.773C83.6056 310.216 83.6056 302.827 79.0498 298.27C74.494 293.713 67.1076 293.713 62.5518 298.27C57.996 302.827 57.996 310.216 62.5518 314.773C67.1076 319.331 74.494 319.331 79.0498 314.773Z" fill="#F5F6F8"/>
<path d="M43.419 262.926L43.7726 262.573L43.419 262.219L43.0653 262.573L43.419 262.926ZM27.2221 279.128L26.8685 278.775L26.5151 279.128L26.8685 279.482L27.2221 279.128ZM51.5047 271.014L51.1511 271.368L51.4154 271.632L51.7437 271.454L51.5047 271.014ZM69.7668 266.131L69.7796 266.631L70.1531 266.621L70.2498 266.26L69.7668 266.131ZM72.729 255.073L72.8585 254.59L72.3754 254.46L72.246 254.943L72.729 255.073ZM94.8543 261.003L95.3373 261.132L95.4666 260.649L94.9838 260.52L94.8543 261.003ZM91.8941 272.054L91.4111 271.924L91.3146 272.285L91.6326 272.48L91.8941 272.054ZM99.3621 277.952L99.0085 278.305L99.3621 277.952ZM105.259 285.423L104.833 285.685L105.028 286.003L105.388 285.906L105.259 285.423ZM116.304 282.463L116.787 282.333L116.658 281.85L116.175 281.98L116.304 282.463ZM122.233 304.595L122.362 305.078L122.845 304.948L122.715 304.465L122.233 304.595ZM111.179 307.557L111.05 307.074L110.689 307.171L110.68 307.545L111.179 307.557ZM106.297 325.824L105.858 325.585L105.68 325.913L105.944 326.177L106.297 325.824ZM114.383 333.912L114.737 334.265L115.09 333.912L114.737 333.558L114.383 333.912ZM98.1863 350.114L97.8326 350.467L98.1863 350.821L98.5399 350.467L98.1863 350.114ZM90.1017 342.027L90.4553 341.673L90.191 341.409L89.8626 341.588L90.1017 342.027ZM71.8419 346.913L71.829 346.413L71.4556 346.422L71.3589 346.783L71.8419 346.913ZM68.8796 357.971L68.7502 358.454L69.2332 358.584L69.3626 358.101L68.8796 357.971ZM46.7543 352.041L46.2714 351.912L46.142 352.394L46.6249 352.524L46.7543 352.041ZM49.7136 340.994L50.1965 341.123L50.2931 340.762L49.975 340.567L49.7136 340.994ZM42.2396 335.092L41.886 335.445L42.2396 335.092ZM36.3403 327.617L36.7666 327.355L36.5715 327.037L36.2109 327.134L36.3403 327.617ZM25.2937 330.577L24.8108 330.707L24.9402 331.19L25.4232 331.06L25.2937 330.577ZM19.3653 308.445L19.2358 307.962L18.753 308.092L18.8823 308.575L19.3653 308.445ZM30.4224 305.482L30.5518 305.965L30.9127 305.868L30.9222 305.495L30.4224 305.482ZM35.3068 287.215L35.746 287.454L35.9246 287.126L35.6604 286.862L35.3068 287.215ZM79.0498 298.27L79.4034 297.917L79.0498 298.27ZM79.0498 314.773L79.4034 315.127L79.0498 314.773ZM62.5518 298.27L62.9054 298.624L62.5518 298.27ZM62.5518 314.773L62.9054 314.42L62.5518 314.773ZM43.0653 262.573L26.8685 278.775L27.5757 279.482L43.7726 263.28L43.0653 262.573ZM51.8583 270.661L43.7726 262.573L43.0653 263.28L51.1511 271.368L51.8583 270.661ZM69.7541 265.631C63.3736 265.794 57.0231 267.441 51.2657 270.575L51.7437 271.454C57.359 268.397 63.5539 266.789 69.7796 266.631L69.7541 265.631ZM72.246 254.943L69.2839 266.002L70.2498 266.26L73.212 255.202L72.246 254.943ZM94.9838 260.52L72.8585 254.59L72.5996 255.556L94.7249 261.486L94.9838 260.52ZM92.3771 272.183L95.3373 261.132L94.3713 260.873L91.4111 271.924L92.3771 272.183ZM99.7158 277.598C97.3867 275.269 94.8461 273.278 92.1556 271.628L91.6326 272.48C94.2568 274.09 96.7354 276.032 99.0085 278.305L99.7158 277.598ZM105.685 285.162C104.035 282.47 102.045 279.928 99.7158 277.598L99.0085 278.305C101.282 280.579 103.223 283.059 104.833 285.685L105.685 285.162ZM116.175 281.98L105.13 284.94L105.388 285.906L116.433 282.946L116.175 281.98ZM122.715 304.465L116.787 282.333L115.821 282.592L121.75 304.724L122.715 304.465ZM111.309 308.04L122.362 305.078L122.103 304.112L111.05 307.074L111.309 308.04ZM106.737 326.063C109.869 320.304 111.517 313.952 111.679 307.57L110.68 307.545C110.521 313.772 108.914 319.968 105.858 325.585L106.737 326.063ZM114.737 333.558L106.651 325.47L105.944 326.177L114.029 334.265L114.737 333.558ZM98.5399 350.467L114.737 334.265L114.029 333.558L97.8326 349.76L98.5399 350.467ZM89.7481 342.38L97.8326 350.467L98.5399 349.76L90.4553 341.673L89.7481 342.38ZM71.8547 347.412C78.2345 347.249 84.5842 345.6 90.3408 342.466L89.8626 341.588C84.2482 344.645 78.0541 346.253 71.829 346.413L71.8547 347.412ZM69.3626 358.101L72.3248 347.042L71.3589 346.783L68.3967 357.842L69.3626 358.101ZM46.6249 352.524L68.7502 358.454L69.0091 357.488L46.8838 351.558L46.6249 352.524ZM49.2306 340.864L46.2714 351.912L47.2373 352.17L50.1965 341.123L49.2306 340.864ZM41.886 335.445C44.2167 337.777 46.7594 339.768 49.4522 341.42L49.975 340.567C47.3487 338.957 44.868 337.014 42.5932 334.738L41.886 335.445ZM35.914 327.878C37.5647 330.571 39.5555 333.114 41.886 335.445L42.5932 334.738C40.3186 332.463 38.3766 329.982 36.7666 327.355L35.914 327.878ZM25.4232 331.06L36.4698 328.1L36.2109 327.134L25.1643 330.094L25.4232 331.06ZM18.8823 308.575L24.8108 330.707L25.7767 330.448L19.8483 308.316L18.8823 308.575ZM30.293 304.999L19.2358 307.962L19.4947 308.928L30.5518 305.965L30.293 304.999ZM34.8676 286.976C31.734 292.735 30.0858 299.087 29.9226 305.469L30.9222 305.495C31.0816 299.267 32.6897 293.071 35.746 287.454L34.8676 286.976ZM26.8685 279.482L34.9532 287.569L35.6604 286.862L27.5757 278.775L26.8685 279.482ZM78.6962 298.624C83.0568 302.986 83.0568 310.058 78.6962 314.42L79.4034 315.127C84.1544 310.374 84.1544 302.669 79.4034 297.917L78.6962 298.624ZM62.9054 298.624C67.2659 294.262 74.3356 294.262 78.6962 298.624L79.4034 297.917C74.6523 293.164 66.9492 293.164 62.1981 297.917L62.9054 298.624ZM62.9054 314.42C58.5447 310.058 58.5447 302.986 62.9054 298.624L62.1981 297.917C57.4472 302.669 57.4472 310.374 62.1981 315.127L62.9054 314.42ZM78.6962 314.42C74.3356 318.782 67.2659 318.782 62.9054 314.42L62.1981 315.127C66.9492 319.879 74.6523 319.879 79.4034 315.127L78.6962 314.42Z" fill="black"/>
<path fill-rule="evenodd" clip-rule="evenodd" d="M393.789 58.7847L424.942 58.7888L424.944 74.3438C433.389 76.8382 440.987 81.3073 447.204 87.2166L460.684 79.4341L476.264 106.42L462.793 114.197C463.782 118.321 464.306 122.626 464.307 127.052C464.307 131.479 463.784 135.784 462.796 139.908L476.266 147.687L460.693 174.669L447.213 166.885C440.998 172.792 433.402 177.258 424.958 179.75L424.96 195.305L393.807 195.301L393.805 179.748C385.36 177.255 377.762 172.788 371.545 166.88L358.065 174.663L342.484 147.677L355.951 139.902C354.96 135.775 354.436 131.468 354.435 127.038C354.434 122.608 354.958 118.301 355.947 114.176L342.475 106.396L358.049 79.4137L371.533 87.2011C377.749 81.2945 385.346 76.8284 393.791 74.3375L393.789 58.7847ZM409.373 142.914C418.136 142.915 425.239 135.811 425.237 127.047C425.236 118.283 418.132 111.177 409.369 111.176C400.606 111.175 393.503 118.279 393.504 127.043C393.506 135.807 400.61 142.913 409.373 142.914Z" fill="#E1E2E4"/>
<rect x="90.436" y="104.968" width="408.786" height="287.867" rx="16" fill="#4A61C0"/>
<path d="M483.585 104.928H106.297C97.5989 104.933 90.5486 111.985 90.5442 120.686V130.525H499.338V120.686C499.334 111.985 492.284 104.933 483.585 104.928V104.928Z" fill="black"/>
<ellipse cx="111.893" cy="117.731" rx="2.51311" ry="2.51388" fill="white"/>
<ellipse cx="127.413" cy="117.731" rx="2.51311" ry="2.51388" fill="white"/>
<ellipse cx="142.934" cy="117.731" rx="2.51311" ry="2.51388" fill="white"/>
<path d="M90.5435 130.525H499.33V136.886H90.5435L90.5435 130.525Z" fill="#ABADB2"/>
<path fill-rule="evenodd" clip-rule="evenodd" d="M227.445 392.804H106.189C102.011 392.804 98.0043 391.144 95.05 388.189C92.0957 385.234 90.436 381.226 90.436 377.046V120.687C90.4405 111.987 97.4921 104.937 106.189 104.937H483.477C492.174 104.937 499.226 111.987 499.23 120.687V377.046C499.23 385.749 492.177 392.804 483.477 392.804H227.445Z" stroke="black"/>
<path d="M246.43 313.913C236.202 313.913 228.769 312.113 224.129 308.514C219.488 305.009 217.358 298.521 217.736 289.049L218.305 274.84C218.305 268.115 217.026 263.616 214.469 261.343C212.007 258.974 208.551 257.79 204.1 257.79H202.68V251.965H205.379C209.261 251.965 212.433 250.781 214.896 248.413C217.358 245.95 218.589 241.735 218.589 235.768L218.305 225.538C218.305 217.297 220.388 211.14 224.555 207.067C228.721 202.899 234.782 200.815 242.736 200.815H250.265V206.641H240.038C235.492 206.641 231.894 208.156 229.242 211.187C226.591 214.124 225.265 218.386 225.265 223.975L225.549 233.921C225.549 239.13 224.649 243.582 222.85 247.276C221.051 250.876 218.115 253.433 214.043 254.949C218.021 256.18 220.861 258.643 222.566 262.337C224.365 266.031 225.265 270.909 225.265 276.972L224.839 288.906C224.839 296.389 226.307 301.457 229.242 304.109C232.272 306.762 237.291 308.088 244.299 308.088H250.123V313.913H246.43Z" fill="black"/>
<path d="M278.39 306.383L272.424 303.541L315.89 205.93L321.856 208.914L278.39 306.383Z" fill="black"/>
<path d="M342.452 313.913H338.759V308.088H344.583C351.591 308.088 356.609 306.762 359.64 304.109C362.67 301.457 364.185 296.389 364.185 288.906L363.617 276.972C363.617 270.909 364.469 266.031 366.174 262.337C367.973 258.643 370.909 256.18 374.981 254.949C370.814 253.433 367.831 250.876 366.032 247.276C364.233 243.582 363.333 239.13 363.333 233.921L363.617 223.975C363.617 218.386 362.291 214.124 359.64 211.187C356.988 208.156 353.39 206.641 348.844 206.641H338.617V200.815H346.145C354.1 200.815 360.161 202.899 364.327 207.067C368.494 211.14 370.577 217.297 370.577 225.538L370.293 235.768C370.293 241.735 371.524 245.95 373.986 248.413C376.448 250.781 379.621 251.965 383.503 251.965H386.202V257.79H384.782C380.426 257.79 376.969 258.974 374.412 261.343C371.856 263.616 370.577 268.115 370.577 274.84L371.145 289.049C371.524 298.521 369.394 305.009 364.753 308.514C360.113 312.113 352.68 313.913 342.452 313.913Z" fill="black"/>
<path d="M431.563 155.943C432.012 154.086 432.371 152.137 431.927 150.285C431.723 149.445 431.36 148.652 430.856 147.95C430.812 147.874 430.747 147.813 430.669 147.773C430.471 147.698 430.273 147.902 430.241 148.106C430.225 148.313 430.225 148.521 430.241 148.728C429.496 146.907 428.267 145.325 426.689 144.155C426.536 144.008 426.326 143.938 426.116 143.962C426.005 144.003 425.911 144.081 425.849 144.182C425.447 144.756 425.741 145.545 426.041 146.179L426.763 147.698C426.014 147.585 425.185 147.499 424.564 147.934C424.323 148.12 424.112 148.343 423.938 148.594C423.317 149.325 422.795 150.136 422.387 151.005C421.92 152.125 421.836 153.369 422.146 154.542C422.416 154.129 422.728 153.746 423.077 153.399C423.175 154.025 423.355 154.635 423.612 155.213C423.87 155.798 424.495 157.346 425.09 157.576C425.409 157.667 426.575 159.411 426.907 159.394C427.802 159.373 428.334 157.871 429.179 157.576C429.824 157.294 429.851 156.795 430.542 156.667C430.769 156.66 431.23 156.717 431.451 156.667C431.679 156.614 431.652 155.195 431.723 154.972" fill="white"/>
<path d="M484.328 190.97C484.555 191.567 484.749 192.177 484.911 192.795C485.093 193.514 485.211 194.25 485.329 194.985C485.382 195.323 484.868 195.468 484.794 195.125C484.676 194.395 484.553 193.659 484.376 192.94C484.221 192.317 484.007 191.711 483.793 191.109C483.675 190.787 484.189 190.648 484.328 190.97Z" fill="black"/>
<path d="M485.655 190.755C485.655 190.755 486.351 191.447 484.943 193.251C484.943 193.251 484.451 191.78 484.408 191.641C484.366 191.501 483.996 190.991 484.911 190.986C485.826 190.98 485.655 190.755 485.655 190.755V190.755Z" fill="black"/>
<path d="M479.866 183.02C479.17 185.82 477.781 191.732 485.911 190.799C484.508 191.174 484.779 193.881 485.12 195.285C487.216 195.285 492.913 196.285 495.5 196.785L494 190.285L495 172.285L485.12 171.382C483.954 173.341 482.664 175.676 481.669 177.824C481.329 178.557 480.934 179.265 480.487 179.939C480.28 180.261 480.057 180.573 479.818 180.873C479.454 181.38 479.543 182.083 480.021 182.483C479.973 182.649 479.914 182.832 479.866 183.02Z" fill="white" stroke="black"/>
<path d="M488.753 181.35C488.646 181.243 488.464 181.296 488.346 181.35C488.206 181.419 488.073 181.504 487.951 181.602C487.709 181.805 487.517 182.06 487.389 182.349C487.351 182.424 487.234 182.349 487.271 182.279C487.42 181.947 487.65 181.659 487.94 181.441C488.165 181.27 488.587 181.001 488.849 181.248C488.908 181.307 488.817 181.404 488.753 181.345V181.35Z" fill="black"/>
<path d="M488.068 182.021L488.031 181.984L487.977 181.951H487.924C487.904 181.948 487.884 181.948 487.865 181.951H487.763H487.699C487.662 181.959 487.626 181.938 487.613 181.903C487.608 181.867 487.628 181.831 487.662 181.817C487.861 181.772 488.069 181.845 488.197 182.005C488.22 182.033 488.22 182.074 488.197 182.102C488.17 182.124 488.132 182.124 488.106 182.102L488.068 182.021Z" fill="black"/>
<path d="M493.729 187.169C494.044 188.715 494.328 190.272 494.649 191.812C494.933 193.363 495.332 194.89 495.842 196.381C495.965 196.703 495.446 196.848 495.307 196.526C494.798 195.034 494.399 193.508 494.114 191.957C493.788 190.411 493.509 188.86 493.188 187.314C493.119 186.976 493.632 186.831 493.723 187.169H493.729Z" fill="black"/>
<path d="M482.857 179.267C482.878 179.384 482.878 179.504 482.857 179.622C482.841 179.717 482.81 179.809 482.766 179.895C482.731 179.956 482.673 180 482.606 180.019C482.535 180.04 482.46 180.03 482.397 179.992C482.337 179.955 482.294 179.898 482.274 179.831V179.761C482.274 179.714 482.285 179.668 482.306 179.627V179.589L482.279 179.654C482.305 179.596 482.323 179.534 482.333 179.471V179.541C482.343 179.477 482.343 179.412 482.333 179.348V179.418C482.322 179.383 482.322 179.345 482.333 179.31C482.333 179.274 482.344 179.238 482.365 179.208C482.401 179.149 482.458 179.105 482.525 179.085C482.594 179.069 482.666 179.079 482.729 179.112L482.782 179.155C482.814 179.188 482.838 179.228 482.852 179.273L482.857 179.267Z" fill="black"/>
<path d="M476.313 246.883C484.491 245.241 492.842 244.633 501.171 245.074C503.253 245.166 505.339 245.327 507.415 245.568C508.346 245.676 509.272 245.799 510.197 245.944C510.631 246.008 511.069 246.084 511.503 246.159C511.792 246.212 512.198 246.196 512.407 246.422C512.596 246.717 512.74 247.039 512.835 247.377C513.884 250.036 514.718 252.776 515.328 255.569C516.714 261.7 517.699 267.915 518.276 274.175C519.165 282.914 519.346 291.696 519.978 300.451C520.347 305.771 520.716 311.252 522.305 316.368C523.536 320.173 525.594 323.657 528.33 326.567C529.71 328.092 531.182 329.503 532.482 331.103C534.044 333.03 535.494 335.054 536.906 337.094C540.464 342.236 543.782 347.545 547.104 352.849C550.363 358.056 553.578 363.29 556.976 368.417C558.265 370.365 559.581 372.298 560.994 374.155C561.529 374.858 562.064 375.556 562.679 376.216C563.295 376.877 564.161 377.51 564.343 378.482C564.573 379.722 563.573 380.93 562.968 381.933C562.144 383.297 561.288 384.637 560.4 385.954C558.024 389.513 555.384 392.886 552.503 396.046C551.465 397.184 550.288 398.87 548.527 398.193C547.663 397.854 547.076 397.04 547.024 396.11C546.757 394.022 546.521 391.929 546.27 389.841C546.163 388.944 546.061 388.048 545.949 387.156C545.85 386.513 545.521 385.927 545.023 385.508C544.274 384.789 543.525 384.064 542.787 383.334C540.197 380.79 537.65 378.203 535.146 375.572C531.579 371.85 528.1 368.055 524.708 364.187C520.743 359.667 516.891 355.061 513.204 350.294C509.4 345.393 505.757 340.358 502.413 335.124C499.191 330.175 496.354 324.985 493.927 319.599C491.894 314.967 490.214 310.103 489.545 305.068C489.247 302.934 489.182 300.774 489.352 298.626C489.352 298.283 489.887 298.277 489.887 298.626C489.491 303.248 490.358 307.892 491.728 312.293C493.436 317.55 495.677 322.617 498.416 327.415C501.367 332.673 504.614 337.758 508.143 342.644C511.717 347.653 515.51 352.5 519.443 357.224C523.01 361.497 526.668 365.677 530.416 369.764C533.42 373.031 536.478 376.252 539.592 379.426C541.454 381.309 543.338 383.172 545.242 385.015C545.811 385.448 546.224 386.054 546.419 386.743C546.532 387.28 546.564 387.865 546.628 388.423L547.447 395.246C547.543 396.03 547.532 396.889 548.201 397.436C548.917 398.011 549.948 397.955 550.598 397.307C551.438 396.535 552.203 395.627 552.952 394.774C555.731 391.61 558.278 388.248 560.571 384.714C561.384 383.474 562.176 382.212 562.925 380.956C563.318 380.426 563.621 379.835 563.824 379.206C563.99 378.358 563.455 377.789 562.915 377.252C561.733 376.014 560.65 374.684 559.678 373.275C556.5 368.916 553.648 364.315 550.78 359.747C547.383 354.341 544.033 348.904 540.555 343.552C537.709 339.161 534.836 334.705 531.46 330.706C530.138 329.149 528.64 327.759 527.303 326.218C526.027 324.768 524.898 323.194 523.932 321.521C521.867 317.871 520.919 313.753 520.347 309.631C519.389 302.77 519.154 295.803 518.801 288.894C518.465 280.583 517.681 272.297 516.452 264.072C515.783 259.59 514.794 255.163 513.493 250.824C513.172 249.788 512.819 248.751 512.423 247.748C512.337 247.538 512.177 246.862 511.974 246.733C512.027 246.771 511.556 246.733 511.492 246.733L510.08 246.497C509.052 246.336 508.014 246.202 506.976 246.089C504.933 245.863 502.878 245.719 500.823 245.633C496.592 245.462 492.355 245.535 488.132 245.853C484.217 246.129 480.324 246.667 476.479 247.463C476.147 247.533 476.003 247.018 476.34 246.926L476.313 246.883Z" fill="black"/>
<path d="M491.728 312.293C490.358 307.892 489.491 303.248 489.887 298.626C492.597 289.823 482.078 260.849 476.479 247.463C480.324 246.667 484.217 246.129 488.132 245.853C492.355 245.535 496.592 245.462 500.823 245.633C502.878 245.719 504.933 245.863 506.976 246.089C508.014 246.202 509.052 246.336 510.08 246.497L511.492 246.733C511.556 246.733 512.027 246.771 511.974 246.733C512.177 246.862 512.338 247.538 512.423 247.748C512.819 248.751 513.172 249.788 513.493 250.824C514.794 255.163 515.783 259.59 516.452 264.072C517.681 272.297 518.465 280.583 518.801 288.894C519.154 295.803 519.389 302.77 520.347 309.631C520.92 313.753 521.867 317.871 523.932 321.521C524.898 323.194 526.028 324.768 527.303 326.218C528.64 327.759 530.138 329.149 531.46 330.706C534.774 334.631 537.603 338.997 540.398 343.309L540.555 343.552C544.033 348.904 547.383 354.341 550.78 359.747C553.648 364.315 556.5 368.916 559.678 373.275C560.65 374.684 561.733 376.014 562.915 377.252C563.455 377.789 563.99 378.358 563.824 379.206C563.621 379.835 563.318 380.426 562.925 380.956C562.176 382.212 561.385 383.474 560.571 384.714C558.278 388.248 555.731 391.61 552.952 394.774C552.203 395.627 551.438 396.535 550.598 397.308C549.948 397.955 548.917 398.011 548.201 397.436C547.532 396.889 547.543 396.03 547.447 395.246L546.628 388.423C546.564 387.865 546.532 387.28 546.419 386.743C546.224 386.054 545.811 385.448 545.242 385.015C543.338 383.172 541.454 381.309 539.592 379.426C536.478 376.252 533.42 373.031 530.416 369.764C526.668 365.677 523.01 361.497 519.443 357.224C515.51 352.5 511.717 347.653 508.143 342.644C504.614 337.758 501.367 332.673 498.416 327.415C495.677 322.617 493.436 317.55 491.728 312.293Z" fill="white"/>
<path d="M503.248 272.121C497.517 288.88 477.48 315.745 469.561 324.989C467.042 327.938 465.424 331.554 464.901 335.403C463.901 342.677 461.263 355.807 454.457 368.926C451.065 375.47 445.618 393.238 443.976 398.692C443.687 399.651 442.806 400.305 441.809 400.303H423.264C422.32 400.303 421.475 399.716 421.144 398.829C420.813 397.942 421.065 396.942 421.777 396.32L424.233 394.172C424.656 393.803 424.927 393.288 424.993 392.728C425.838 385.605 436.796 338.602 448.609 312.433C456.838 294.219 471.91 261.13 476.404 253.244C477.247 251.767 477.643 250.075 477.544 248.376L477.458 246.91H501.5" stroke="black"/>
<path d="M477.544 248.376L477.458 246.91H501.5L503.248 272.121C497.517 288.88 477.48 315.745 469.561 324.989C467.042 327.938 465.424 331.554 464.901 335.403C463.901 342.677 461.263 355.807 454.457 368.926C451.065 375.47 445.618 393.238 443.976 398.692C443.687 399.651 442.806 400.305 441.809 400.303H423.264C422.32 400.303 421.475 399.716 421.144 398.829C420.813 397.942 421.065 396.942 421.777 396.32L424.233 394.172C424.656 393.803 424.927 393.288 424.993 392.728C425.838 385.605 436.796 338.602 448.609 312.433C456.838 294.219 471.91 261.13 476.404 253.244C477.247 251.767 477.643 250.075 477.544 248.376Z" fill="white"/>
<path d="M516.259 321.597L514.515 321.945C514.435 321.945 514.397 321.833 514.483 321.817L516.227 321.462C516.307 321.462 516.345 321.575 516.259 321.597Z" fill="black"/>
<path d="M515.2 318.403L512.086 319.519C512.006 319.551 511.968 319.417 512.049 319.39L515.163 318.274C515.243 318.241 515.28 318.37 515.2 318.403Z" fill="black"/>
<path d="M461.825 319.835L460.428 319.138C460.353 319.1 460.428 318.982 460.498 319.025L461.894 319.723C461.969 319.76 461.894 319.878 461.825 319.835Z" fill="black"/>
<path d="M459.417 323.33C458.95 323.288 458.528 323.03 458.277 322.632C458.235 322.563 458.352 322.493 458.395 322.568C458.621 322.924 458.998 323.156 459.417 323.196C459.503 323.196 459.503 323.336 459.417 323.33Z" fill="black"/>
<path d="M477.442 250.324C477.442 250.324 495.522 264.848 516.142 260.765C516.142 260.765 513.969 251.468 513.894 251.232C513.82 250.995 513.183 246.685 511.08 246.357C508.977 246.03 497.56 244.913 491.492 245.348C485.425 245.783 478.764 246.685 478.764 246.685C478.764 246.685 477.442 246.685 477.512 247.85" fill="black"/>
<path d="M498.587 282.404C498.587 282.404 493.552 299.308 493.702 309.025C493.852 318.741 494.692 320.636 494.692 320.636C494.692 320.636 491.054 312.637 490.348 308.091C489.641 303.544 489.304 299.013 489.304 299.013C489.304 299.013 488.769 299.92 490.556 297.07" fill="black"/>
<path d="M486.666 180.427C487.496 179.584 489.192 179.262 489.962 180.357C490.636 181.312 490.112 182.703 489.267 183.352C488.702 183.772 488.011 183.985 487.308 183.953C486.966 183.953 486.966 183.417 487.308 183.417C488.297 183.499 489.226 182.933 489.609 182.016C489.751 181.638 489.751 181.222 489.609 180.845C489.426 180.453 489.036 180.199 488.603 180.19C488.021 180.162 487.454 180.384 487.046 180.802C486.806 181.049 486.426 180.668 486.666 180.421V180.427Z" fill="black"/>
<path d="M483.558 178.129C483.41 178.129 483.29 178.009 483.29 177.861C483.29 177.712 483.41 177.592 483.558 177.592C483.705 177.592 483.825 177.712 483.825 177.861C483.825 178.009 483.705 178.129 483.558 178.129Z" fill="black"/>
<path d="M483.312 177.92L483.253 177.834L483.296 177.888C483.245 177.826 483.188 177.77 483.125 177.721L483.178 177.759C483.112 177.71 483.04 177.668 482.964 177.636L483.028 177.662C482.955 177.63 482.877 177.609 482.798 177.598H482.868C482.798 177.593 482.732 177.565 482.68 177.517C482.63 177.467 482.601 177.398 482.601 177.327C482.601 177.255 482.63 177.187 482.68 177.136C482.73 177.086 482.798 177.059 482.868 177.061C483.057 177.078 483.24 177.139 483.403 177.238C483.564 177.339 483.698 177.477 483.793 177.641C483.853 177.724 483.861 177.834 483.813 177.924C483.766 178.015 483.671 178.07 483.569 178.067C483.467 178.064 483.375 178.003 483.333 177.909L483.312 177.92Z" fill="black"/>
<path d="M481.717 184.088C481.497 184.249 481.258 184.382 481.006 184.485C480.942 184.52 480.868 184.531 480.797 184.517C480.733 184.495 480.678 184.451 480.642 184.394C480.601 184.332 480.592 184.255 480.615 184.184C480.631 184.117 480.674 184.059 480.733 184.023C480.987 183.916 481.226 183.778 481.444 183.61C481.508 183.575 481.583 183.565 481.653 183.583C481.718 183.607 481.774 183.65 481.814 183.707C481.849 183.77 481.859 183.845 481.84 183.916L481.814 183.98C481.787 184.018 481.755 184.05 481.717 184.077V184.088Z" fill="black"/>
<path d="M486.64 180.507L485.821 179.97C486.363 179.177 486.784 178.307 487.068 177.388C487.154 177.151 487.197 176.9 487.196 176.647C487.157 176.327 487.071 176.014 486.939 175.719C486.485 174.451 486.473 173.065 486.907 171.789C486.054 171.686 485.216 171.484 484.409 171.188C484.596 171.086 484.831 171.274 484.863 171.489C484.876 171.704 484.818 171.917 484.697 172.095C484.564 172.364 484.302 172.546 484.162 172.815C484.12 172.906 484.162 173.088 484.088 173.126C483.974 173.16 483.852 173.144 483.75 173.083C483.248 172.861 482.774 172.58 482.338 172.246C482.105 172.083 481.911 171.87 481.771 171.623C481.591 171.176 481.621 170.672 481.851 170.249C482.227 169.441 482.93 168.833 483.783 168.579C483.196 168.504 482.642 168.27 482.177 167.903C481.719 167.509 481.651 166.823 482.022 166.346C482.187 166.2 482.386 166.096 482.6 166.046C483.316 165.836 484.078 165.845 484.788 166.072C484.55 165.962 484.338 165.801 484.168 165.6C483.998 165.389 483.981 165.094 484.125 164.865C484.234 164.749 484.373 164.667 484.526 164.628C486.704 163.855 489.197 164.344 491.177 165.541C493.121 166.811 494.734 168.53 495.88 170.555C495.996 170.761 496.126 170.958 496.27 171.145C496.503 171.393 496.757 171.619 497.03 171.822C499.081 173.527 500.394 175.962 500.695 178.618C500.768 179.103 500.741 179.598 500.615 180.072C500.439 180.526 500.191 180.948 499.882 181.323C498.09 183.776 496.5 186.37 495.125 189.08C494.966 189.521 494.657 189.891 494.253 190.127C493.961 190.226 493.649 190.254 493.344 190.207C492.45 190.148 492.07 189.912 491.204 189.848C490.977 189.848 490.753 189.801 490.545 189.708C490.318 189.56 490.133 189.355 490.01 189.112C488.99 187.47 488.193 185.699 487.64 183.846C488.507 183.567 488.71 183.905 489.411 183.309C490.145 182.67 490.418 181.649 490.101 180.727C489.801 180.124 489.247 179.687 488.593 179.536C487.84 179.583 487.136 179.927 486.634 180.491" fill="black"/>
<path d="M486.501 180.727L485.682 180.191C485.557 180.112 485.517 179.948 485.591 179.82C485.996 179.23 486.334 178.596 486.597 177.931C486.746 177.587 486.854 177.226 486.918 176.857C486.92 176.466 486.832 176.08 486.661 175.73C486.22 174.428 486.22 173.016 486.661 171.714L486.918 172.053C486.042 171.943 485.181 171.738 484.35 171.441C484.202 171.441 484.082 171.32 484.082 171.172C484.082 171.024 484.202 170.904 484.35 170.904C484.527 170.852 484.718 170.882 484.871 170.985C485.025 171.089 485.124 171.256 485.142 171.441C485.13 171.894 484.937 172.323 484.607 172.632C484.514 172.727 484.451 172.846 484.425 172.976C484.423 173.068 484.391 173.157 484.334 173.228C484.188 173.359 483.983 173.4 483.799 173.335C483.273 173.152 482.783 172.88 482.349 172.53C481.932 172.287 481.611 171.908 481.439 171.457C481.339 170.974 481.413 170.472 481.648 170.039C482.064 169.192 482.815 168.557 483.718 168.29V168.826C482.707 168.595 481.289 168.026 481.578 166.706C481.746 166.158 482.229 165.767 482.798 165.718C483.494 165.561 484.22 165.591 484.901 165.804L484.698 166.293C484.163 165.997 483.419 165.31 483.981 164.682C484.246 164.448 484.573 164.296 484.922 164.242C485.339 164.127 485.765 164.052 486.196 164.017C487.855 163.906 489.51 164.279 490.963 165.09C492.419 165.919 493.693 167.034 494.708 168.37C495.2 168.998 495.656 169.654 496.072 170.335C496.288 170.716 496.563 171.06 496.886 171.355C497.217 171.634 497.555 171.891 497.865 172.203C498.994 173.31 499.862 174.656 500.406 176.143C500.941 177.603 501.418 179.509 500.524 180.915C500.026 181.699 499.454 182.429 498.919 183.202C498.384 183.975 497.913 184.732 497.437 185.51C496.961 186.289 496.468 187.164 496.014 188.006C495.8 188.409 495.591 188.817 495.382 189.22C495.227 189.581 495 189.906 494.713 190.175C494.05 190.712 493.017 190.481 492.258 190.304C491.803 190.202 491.359 190.159 490.904 190.095C490.483 190.036 490.111 189.79 489.893 189.424C489.351 188.59 488.877 187.714 488.475 186.804C488.045 185.872 487.687 184.908 487.405 183.921C487.373 183.779 487.454 183.635 487.592 183.589C488.17 183.417 488.775 183.54 489.251 183.116C489.803 182.628 490.076 181.895 489.978 181.162C489.815 180.441 489.218 179.9 488.486 179.809C487.846 179.88 487.259 180.198 486.848 180.695C486.634 180.964 486.26 180.582 486.469 180.314C486.987 179.688 487.745 179.31 488.555 179.273C489.434 179.388 490.17 179.997 490.449 180.84C490.664 181.713 490.429 182.636 489.823 183.299C489.577 183.599 489.247 183.819 488.876 183.932C488.502 184.023 488.116 183.996 487.737 184.109L487.924 183.776C488.392 185.355 489.046 186.872 489.871 188.296C490.036 188.623 490.223 188.937 490.433 189.236C490.727 189.617 491.182 189.569 491.61 189.628C492.314 189.793 493.03 189.904 493.75 189.96C494.628 189.96 494.895 189.059 495.243 188.398C495.621 187.658 496.021 186.927 496.442 186.208C497.276 184.769 498.17 183.363 499.117 182.005C499.643 181.407 500.077 180.734 500.406 180.008C500.574 179.227 500.543 178.417 500.315 177.651C500.012 176.258 499.419 174.945 498.576 173.797C498.153 173.22 497.667 172.693 497.127 172.224C496.848 171.983 496.543 171.768 496.286 171.505C496.035 171.232 495.818 170.929 495.639 170.603C494.865 169.309 493.918 168.128 492.825 167.092C491.59 165.913 490.061 165.088 488.4 164.704C487.557 164.515 486.687 164.479 485.832 164.596C485.426 164.648 485.027 164.747 484.644 164.892C483.97 165.16 484.617 165.648 484.97 165.847C485.084 165.916 485.13 166.059 485.077 166.182C485.025 166.305 484.89 166.37 484.762 166.336C484.274 166.182 483.76 166.134 483.253 166.196C482.836 166.25 482.183 166.357 482.097 166.862C481.947 167.849 483.167 168.166 483.884 168.327C484.032 168.327 484.152 168.447 484.152 168.595C484.152 168.744 484.032 168.864 483.884 168.864C483.292 169.043 482.772 169.408 482.402 169.905C482.006 170.442 481.712 171.242 482.231 171.8C482.472 172.035 482.742 172.239 483.034 172.407C483.183 172.503 483.333 172.589 483.488 172.675L483.751 172.804L483.884 172.863C483.965 172.863 483.981 172.89 483.932 172.938C483.884 172.987 483.89 172.992 483.906 172.906V172.831C483.917 172.789 483.931 172.747 483.948 172.707C484.015 172.582 484.097 172.467 484.195 172.364C484.304 172.248 484.401 172.12 484.484 171.983C484.532 171.908 484.735 171.392 484.484 171.473V170.936C485.27 171.218 486.084 171.416 486.913 171.526C486.996 171.529 487.074 171.569 487.124 171.636C487.174 171.703 487.191 171.789 487.169 171.87C486.937 172.561 486.835 173.289 486.87 174.017C486.961 174.752 487.14 175.473 487.405 176.164C487.533 176.858 487.424 177.575 487.095 178.199C486.823 178.868 486.482 179.507 486.078 180.105L485.982 179.74L486.8 180.276C487.089 180.464 486.8 180.926 486.527 180.738L486.501 180.727Z" fill="black"/>
<path d="M431.301 156.179C432.066 154.118 432.195 151.873 431.67 149.737C431.584 149.405 432.103 149.26 432.205 149.592C432.763 151.824 432.636 154.172 431.841 156.329C431.718 156.651 431.204 156.512 431.306 156.19L431.301 156.179Z" fill="black"/>
<path d="M429.904 149.056C429.247 147.15 428.058 145.473 426.48 144.225C426.207 144.01 426.592 143.634 426.86 143.849C428.511 145.165 429.747 146.932 430.418 148.938C430.53 149.265 430.011 149.405 429.883 149.077L429.904 149.056Z" fill="black"/>
<path d="M426.897 148.32C426.312 148.136 425.71 148.016 425.099 147.961C424.954 147.955 424.837 147.838 424.832 147.692C424.832 147.544 424.952 147.424 425.099 147.424C425.759 147.478 426.41 147.606 427.042 147.805C427.182 147.849 427.264 147.995 427.229 148.138C427.209 148.206 427.163 148.264 427.101 148.298C427.038 148.332 426.965 148.34 426.897 148.32Z" fill="black"/>
<path d="M425.265 149.684C424.779 149.406 424.216 149.291 423.66 149.357C423.513 149.357 423.393 149.236 423.393 149.088C423.396 148.941 423.514 148.823 423.66 148.82C424.314 148.754 424.972 148.892 425.544 149.217C425.672 149.293 425.715 149.458 425.64 149.587C425.565 149.716 425.399 149.76 425.271 149.684H425.265Z" fill="black"/>
<path d="M423.971 151.321C423.512 151.196 423.028 151.196 422.569 151.321C422.152 151.454 421.868 151.843 421.868 152.282C421.804 152.937 421.809 153.935 422.371 154.376L421.953 154.429L422.644 153.173C422.698 153.081 422.802 153.031 422.908 153.045C423.014 153.059 423.101 153.135 423.131 153.238C423.759 155.602 425.137 157.698 427.058 159.207C427.325 159.422 426.945 159.797 426.678 159.588C424.689 158.016 423.264 155.838 422.617 153.382L423.104 153.447L422.414 154.703C422.371 154.774 422.299 154.821 422.218 154.832C422.136 154.842 422.055 154.815 421.996 154.757C421.634 154.436 421.413 153.984 421.381 153.501C421.29 152.98 421.29 152.448 421.381 151.928C421.659 150.682 423.066 150.554 424.11 150.806C424.441 150.886 424.302 151.402 423.965 151.343L423.971 151.321Z" fill="black"/>
<path d="M513.349 247.071C512.279 246.534 510.968 246.824 509.807 246.636C509.464 246.577 509.609 246.062 509.946 246.1C511.182 246.298 512.455 246.03 513.622 246.593C513.932 246.744 513.659 247.205 513.349 247.055V247.071Z" fill="black"/>
<path d="M508.084 214.348C508.504 221.962 510.204 229.451 513.113 236.496C513.6 237.666 514.141 238.81 514.654 239.969C515.178 241.065 515.552 242.226 515.767 243.421C516.111 245.849 515.322 248.3 513.627 250.067C513.391 250.314 513.012 249.933 513.247 249.686C514.757 248.095 515.49 245.916 515.248 243.732C515.06 242.5 514.686 241.304 514.141 240.184C513.648 239.078 513.135 237.983 512.669 236.867C510.759 232.297 509.358 227.53 508.491 222.652C507.999 219.906 507.676 217.133 507.522 214.348C507.522 214.004 508.057 214.004 508.057 214.348H508.084Z" fill="black"/>
<path d="M503.525 199.194C497.303 196.386 490.294 196.107 483.611 195.436C481.936 195.264 480.272 195.033 478.609 194.824C476.763 194.588 474.917 194.389 473.082 194.099C469.533 193.528 466.079 192.475 462.814 190.97C459.534 189.488 456.394 187.706 453.269 185.929C450.369 184.281 447.533 182.477 445.329 179.933C441.429 175.429 439.642 169.599 437.127 164.301C436.49 162.938 435.777 161.612 434.992 160.329C434.618 159.717 434.216 159.115 433.794 158.536C433.285 157.838 432.724 156.99 431.766 156.952C430.262 156.898 428.732 157.999 427.849 159.137C426.819 160.588 426.259 162.321 426.244 164.102C426.237 165.961 426.472 167.813 426.945 169.61C427.363 171.485 427.824 173.348 428.331 175.198C429.28 178.793 430.413 182.337 431.723 185.816C432.936 189.16 434.75 192.253 437.073 194.942C439.42 197.427 442.027 199.651 444.848 201.577C450.995 206.016 457.367 210.134 463.82 214.111C465.334 215.051 466.88 215.953 468.379 216.914C469.714 217.7 470.881 218.744 471.814 219.984C473.472 222.405 473.52 225.545 473.889 228.358C474.655 234.124 475.623 239.959 475.468 245.788C475.39 246.496 475.497 247.212 475.778 247.866C476.153 248.617 476.923 249.342 477.811 249.278C478.154 249.251 478.154 249.788 477.811 249.814C476.313 249.927 475.174 248.381 474.96 247.044C474.903 246.373 474.903 245.698 474.96 245.026C474.96 244.318 474.96 243.604 474.922 242.879C474.799 239.744 474.446 236.614 474.055 233.501C473.718 230.854 473.365 228.208 473.028 225.561C472.809 223.844 472.493 222.067 471.573 220.569C470.652 219.071 469.245 218.068 467.827 217.166C464.617 215.147 461.354 213.199 458.154 211.159C454.954 209.119 451.675 206.966 448.497 204.771C442.729 200.788 436.683 196.719 433.253 190.374C431.525 187.185 430.38 183.717 429.299 180.271C428.128 176.513 427.106 172.724 426.276 168.885C425.57 165.611 425.281 161.767 427.411 158.928C428.229 157.805 429.387 156.978 430.712 156.571C431.432 156.317 432.227 156.389 432.889 156.77C433.466 157.214 433.957 157.76 434.339 158.38C437.913 163.34 439.556 169.347 442.429 174.688C443.85 177.477 445.811 179.953 448.197 181.973C450.979 184.233 454.254 185.897 457.384 187.615C460.618 189.477 464.022 191.025 467.549 192.236C471.225 193.417 475.04 193.782 478.865 194.276C482.29 194.717 485.719 195.049 489.149 195.409C492.552 195.7 495.927 196.266 499.24 197.1C500.796 197.513 502.317 198.051 503.787 198.71C504.103 198.85 503.83 199.312 503.52 199.172L503.525 199.194Z" fill="black"/>
<path d="M503.793 198.732C507.095 200.372 510.145 202.478 512.851 204.986C515.555 207.493 517.951 210.315 519.988 213.392C522.153 216.724 524.013 220.246 525.547 223.913C525.986 224.933 526.404 225.959 526.783 227C527.2 228.044 527.529 229.122 527.768 230.221C528.123 232.056 527.738 233.958 526.698 235.509C525.659 237.004 524.368 238.306 522.883 239.357C521.148 240.668 519.331 241.864 517.442 242.938C516.976 243.206 516.505 243.475 516.029 243.716C515.724 243.877 515.457 243.41 515.762 243.249C517.618 242.258 519.412 241.154 521.133 239.943C522.709 238.911 524.147 237.682 525.414 236.287C526.67 234.949 527.362 233.176 527.345 231.338C527.244 230.248 526.992 229.179 526.596 228.16C526.239 227.136 525.856 226.123 525.446 225.121C523.974 221.46 522.184 217.936 520.095 214.589C518.168 211.536 515.893 208.718 513.317 206.193C510.756 203.681 507.86 201.537 504.713 199.822C504.312 199.607 503.9 199.398 503.493 199.194C503.183 199.043 503.456 198.576 503.761 198.732H503.793Z" fill="black"/>
<path d="M513.028 231.515C511.833 229.725 510.616 227.965 509.379 226.232C509.175 225.953 509.641 225.696 509.839 225.964C511.08 227.703 512.296 229.462 513.488 231.241C513.68 231.531 513.22 231.778 513.028 231.515Z" fill="black"/>
<path d="M511.968 230.167L511.899 230.221H511.861C511.838 230.236 511.816 230.254 511.797 230.275L511.728 230.328C511.631 230.403 511.54 230.484 511.449 230.57L511.326 230.699L511.273 230.763C511.273 230.763 511.273 230.763 511.273 230.795C511.238 230.843 511.205 230.894 511.176 230.946L511.139 231.015C511.137 231.031 511.137 231.048 511.139 231.064C511.117 231.13 511.074 231.187 511.016 231.225C510.922 231.279 510.804 231.271 510.718 231.204C510.632 231.136 510.596 231.024 510.625 230.919C510.731 230.649 510.893 230.406 511.102 230.205C511.304 230.013 511.519 229.834 511.744 229.668C511.807 229.633 511.882 229.623 511.952 229.641C512.018 229.66 512.074 229.704 512.107 229.765C512.148 229.827 512.158 229.904 512.134 229.974C512.111 230.039 512.068 230.096 512.011 230.135L511.968 230.167Z" fill="black"/>
<path d="M513.113 236.496C510.204 229.451 508.504 221.962 508.084 214.348H508.057C508.057 214.004 507.522 214.004 507.522 214.348C507.676 217.133 507.999 219.906 508.491 222.652C509.358 227.53 510.759 232.297 512.669 236.867C513.135 237.983 513.648 239.078 514.141 240.184C514.686 241.304 515.06 242.5 515.248 243.732C515.49 245.916 514.757 248.095 513.247 249.686C508.887 246.646 487.807 248.147 477.811 249.278C476.923 249.342 476.153 248.617 475.778 247.866C475.497 247.212 475.39 246.496 475.468 245.788C475.623 239.959 474.655 234.123 473.889 228.358C473.52 225.545 473.472 222.405 471.814 219.984C470.881 218.744 469.714 217.7 468.379 216.913C466.88 215.953 465.334 215.051 463.82 214.111C457.368 210.134 450.995 206.016 444.848 201.577C442.027 199.651 439.42 197.427 437.073 194.942C434.75 192.253 432.936 189.16 431.723 185.816C430.413 182.337 429.281 178.793 428.331 175.198C427.824 173.348 427.363 171.485 426.945 169.61C426.472 167.813 426.237 165.961 426.244 164.102C426.259 162.321 426.819 160.587 427.849 159.137C428.732 157.999 430.262 156.898 431.766 156.952C432.724 156.99 433.285 157.838 433.794 158.536C434.216 159.115 434.618 159.717 434.992 160.329C435.777 161.612 436.49 162.938 437.127 164.301C439.642 169.599 441.429 175.429 445.329 179.933C447.533 182.477 450.369 184.281 453.269 185.929C456.394 187.706 459.534 189.488 462.814 190.97C466.079 192.475 469.533 193.528 473.082 194.099C474.917 194.389 476.763 194.588 478.609 194.824C480.272 195.033 481.936 195.264 483.611 195.436C490.294 196.107 497.271 196.386 503.493 199.193C503.9 199.397 504.312 199.607 504.713 199.822C507.86 201.537 510.756 203.681 513.317 206.193C515.894 208.718 518.168 211.536 520.095 214.589C522.184 217.935 523.974 221.46 525.446 225.121C525.856 226.123 526.239 227.136 526.596 228.16C526.992 229.179 527.244 230.248 527.345 231.337C527.362 233.175 526.67 234.949 525.414 236.287C524.147 237.682 522.709 238.911 521.133 239.942C519.412 241.154 517.618 242.258 515.762 243.249C515.547 242.054 515.178 241.064 514.654 239.969C514.141 238.81 513.6 237.666 513.113 236.496Z" fill="white"/>
<path d="M480.931 254.871C481.605 257.554 482.715 260.108 484.216 262.429C484.228 262.449 484.229 262.475 484.218 262.496C484.207 262.516 484.185 262.53 484.162 262.53C484.138 262.531 484.116 262.519 484.104 262.499C482.598 260.165 481.485 257.599 480.808 254.903C480.799 254.868 480.82 254.832 480.856 254.823C480.891 254.814 480.927 254.836 480.936 254.871H480.931Z" fill="black"/>
<path d="M560.111 373.167C555.323 374.934 551.174 378.102 548.201 382.261C547.387 383.4 546.671 384.607 546.061 385.868C546.024 385.943 545.911 385.868 545.949 385.799C548.844 379.874 553.909 375.301 560.084 373.033C560.165 373.033 560.202 373.135 560.122 373.167H560.111Z" fill="black"/>
<path d="M562.749 379.099C561.042 379.588 559.731 380.844 558.517 382.078C557.302 383.313 556.109 384.623 554.996 385.976C552.736 388.682 550.837 391.672 549.346 394.87C549.127 395.348 548.923 395.831 548.725 396.314C548.645 396.529 548.56 396.739 548.479 396.953C548.438 397.125 548.371 397.29 548.281 397.442C547.971 397.855 547.8 397.184 548.089 397.249C548.169 397.249 548.137 397.399 548.051 397.383C548.255 397.426 548.538 396.427 548.586 396.282C548.731 395.923 548.881 395.568 549.036 395.209C549.351 394.484 549.699 393.765 550.068 393.061C550.811 391.653 551.639 390.29 552.546 388.982C554.362 386.392 556.403 383.968 558.645 381.74C559.811 380.57 561.085 379.432 562.706 378.965C562.786 378.965 562.824 379.072 562.738 379.094L562.749 379.099Z" fill="black"/>
<path d="M444.976 394.243C440.004 392.909 434.893 392.168 429.749 392.036C428.29 392.001 426.831 392.011 425.372 392.069C425.287 392.069 425.287 391.94 425.372 391.934C430.527 391.724 435.688 392.122 440.749 393.121C442.183 393.405 443.601 393.738 445.03 394.114C445.11 394.114 445.072 394.264 444.992 394.243H444.976Z" fill="black"/>
<path d="M484.05 262.413C484.291 261.522 484.537 260.631 484.772 259.729C484.772 259.638 484.837 259.531 484.697 259.466C484.638 259.452 484.577 259.443 484.516 259.439L484.184 259.402C483.975 259.375 483.772 259.348 483.563 259.31C483.114 259.235 482.664 259.139 482.215 259.026C482.135 259.026 482.167 258.876 482.252 258.897C482.75 259.026 483.258 259.128 483.766 259.208C484.05 259.251 484.334 259.284 484.617 259.316C484.756 259.316 484.895 259.37 484.927 259.525C484.926 259.733 484.884 259.939 484.804 260.132L484.596 260.889L484.178 262.445C484.162 262.472 484.13 262.484 484.1 262.475C484.07 262.466 484.05 262.439 484.05 262.408V262.413Z" fill="black"/>
<path d="M477.169 196.177C478.876 200.471 478.068 205.168 476.72 209.425C476.308 210.719 475.843 212.002 475.382 213.279C475.35 213.36 475.222 213.322 475.254 213.242C476.795 208.979 478.389 204.524 477.929 199.913C477.806 198.643 477.507 197.396 477.041 196.209C477.009 196.128 477.137 196.096 477.169 196.177Z" fill="black"/>
<path d="M481.07 202.463C481.225 203.181 481.158 203.93 480.877 204.61C480.845 204.69 480.711 204.653 480.749 204.572C481.018 203.922 481.085 203.206 480.942 202.516C480.942 202.43 481.054 202.393 481.07 202.479V202.463Z" fill="black"/>
<path d="M507.956 212.974C508.421 209.033 508.833 204.691 506.548 201.196C506.5 201.126 506.618 201.056 506.666 201.132C508.961 204.642 508.56 209.012 508.089 212.974C508.089 213.059 507.945 213.059 507.956 212.974Z" fill="black"/>
<path d="M446.865 183.98C446.99 184.667 446.659 185.357 446.046 185.687C445.971 185.73 445.902 185.612 445.982 185.575C446.536 185.268 446.838 184.645 446.737 184.018C446.737 183.932 446.849 183.894 446.865 183.98Z" fill="black"/>
<path d="M445.158 182.832C444.877 183.439 444.697 184.088 444.623 184.753C444.623 184.839 444.479 184.839 444.489 184.753C444.575 184.062 444.772 183.39 445.072 182.762C445.11 182.687 445.222 182.762 445.185 182.832H445.158Z" fill="black"/>
<path d="M523.156 219.345C520.655 223.067 516.951 225.808 512.669 227.108C512.37 227.199 512.07 227.279 511.77 227.355C511.512 227.441 511.244 227.498 510.973 227.526C510.722 227.526 510.615 227.22 510.898 227.215C510.92 227.217 510.94 227.229 510.952 227.247V227.285C510.963 227.305 510.963 227.33 510.951 227.35C510.94 227.37 510.918 227.382 510.895 227.382C510.872 227.382 510.851 227.369 510.839 227.349C510.941 227.532 512.134 227.118 512.311 227.065C512.76 226.941 513.204 226.796 513.643 226.635C514.577 226.295 515.482 225.88 516.35 225.395C518.039 224.46 519.581 223.278 520.925 221.89C521.7 221.084 522.402 220.211 523.022 219.281C523.07 219.211 523.183 219.281 523.135 219.345H523.156Z" fill="black"/>
<path d="M520.599 214.702C519.253 216.668 517.497 218.317 515.452 219.533C513.45 220.82 511.293 221.843 509.031 222.577C508.951 222.577 508.913 222.469 508.994 222.448C511.209 221.73 513.325 220.735 515.291 219.485C517.356 218.261 519.129 216.6 520.486 214.616C520.534 214.541 520.647 214.616 520.604 214.68L520.599 214.702Z" fill="black"/>
<path d="M517.388 210.719C514.74 213.575 511.171 215.255 507.699 216.871C507.624 216.908 507.554 216.79 507.635 216.753C511.091 215.142 514.654 213.467 517.292 210.622C517.351 210.558 517.447 210.655 517.388 210.719Z" fill="black"/>
<path d="M469.106 193.289C468.609 198.912 466.378 204.241 462.723 208.534C462.188 209.151 461.653 209.747 461.059 210.311C460.786 210.584 460.498 210.847 460.209 211.105C459.942 211.385 459.642 211.63 459.315 211.835C459.24 211.878 459.171 211.76 459.246 211.722C459.548 211.531 459.826 211.304 460.075 211.046C460.353 210.799 460.626 210.547 460.893 210.289C461.375 209.828 461.835 209.339 462.279 208.84C463.213 207.787 464.063 206.661 464.821 205.474C466.302 203.152 467.424 200.618 468.149 197.959C468.562 196.428 468.837 194.863 468.973 193.283C468.973 193.197 469.112 193.197 469.106 193.283V193.289Z" fill="black"/>
<path d="M463.349 190.894C463.034 196.209 460.578 201.314 457.25 205.388C456.368 206.545 455.25 207.498 453.97 208.185C453.895 208.223 453.826 208.105 453.906 208.067C456.233 206.913 457.839 204.578 459.203 202.436C460.628 200.235 461.726 197.837 462.461 195.318C462.87 193.873 463.123 192.388 463.216 190.889C463.216 190.803 463.355 190.803 463.349 190.889V190.894Z" fill="black"/>
<path d="M458.245 188.334C456.963 193.15 454.454 197.547 450.963 201.094C449.985 202.085 448.935 203.002 447.823 203.837C447.758 203.886 447.689 203.773 447.758 203.719C451.695 200.747 454.794 196.799 456.752 192.264C457.303 190.976 457.759 189.65 458.117 188.297C458.117 188.211 458.267 188.248 458.245 188.334Z" fill="black"/>
<path d="M484.692 262.891C481.872 271.523 477.581 279.58 473.542 287.681L467.121 300.521C465.211 304.359 463.376 308.246 461.076 311.885C460.022 313.577 458.851 315.191 457.571 316.717C457.19 317.062 456.867 317.466 456.613 317.914C456.509 318.43 456.446 318.954 456.426 319.481C456.202 320.512 455.89 321.521 455.495 322.498C453.861 326.896 452.256 331.305 450.68 335.725C447.555 344.525 444.554 353.366 441.675 362.249C438.797 371.131 436.045 380.053 433.419 389.014L432.424 392.422C432.408 392.449 432.376 392.461 432.346 392.452C432.316 392.444 432.296 392.416 432.296 392.385C434.896 383.413 437.618 374.482 440.46 365.593C443.303 356.703 446.259 347.891 449.326 339.155C450.867 334.771 452.436 330.396 454.034 326.03C454.794 323.953 455.779 321.848 456.233 319.674C456.307 319.349 456.361 319.019 456.394 318.687C456.362 318.417 456.362 318.145 456.394 317.876C456.568 317.608 456.779 317.366 457.02 317.157C457.764 316.314 458.459 315.434 459.117 314.532C461.568 311.166 463.494 307.462 465.35 303.747C467.441 299.567 469.527 295.384 471.61 291.197C475.72 282.941 480.171 274.754 483.381 266.101C483.783 265.027 484.157 263.954 484.516 262.848C484.542 262.767 484.671 262.805 484.644 262.886L484.692 262.891Z" fill="black"/>
<path d="M495.05 295.422C496.666 301.622 499.154 307.56 502.439 313.056C504.078 315.798 505.911 318.419 507.923 320.899C508.742 321.913 509.999 323.046 510.064 324.425C510.106 325.274 509.566 326.036 509.866 326.873C510.222 327.639 510.667 328.36 511.192 329.021C514.966 334.657 518.934 340.159 523.097 345.527C527.26 350.895 531.57 356.059 536.029 361.02C538.283 363.525 540.579 365.999 542.915 368.444C544.063 369.646 545.226 370.836 546.403 372.013C546.992 372.609 547.591 373.194 548.18 373.785C548.694 374.262 549.146 374.803 549.523 375.395C549.858 375.939 550.001 376.58 549.929 377.215C549.929 377.301 549.785 377.301 549.795 377.215C550.009 375.546 548.533 374.295 547.468 373.237C546.27 372.049 545.082 370.85 543.905 369.641C541.572 367.236 539.28 364.792 537.029 362.308C532.532 357.337 528.208 352.216 524.06 346.945C519.912 341.673 515.963 336.28 512.214 330.765C511.744 330.067 511.267 329.364 510.802 328.661C510.352 328.091 509.992 327.455 509.732 326.777C509.507 325.998 509.967 325.322 509.967 324.549C509.882 323.686 509.504 322.879 508.897 322.262C506.915 319.876 505.07 317.38 503.37 314.784C499.989 309.499 497.36 303.766 495.559 297.751C495.334 296.989 495.12 296.222 494.917 295.454C494.917 295.373 495.029 295.336 495.05 295.416V295.422Z" fill="black"/>
<path d="M494.264 200.777C494.312 206.215 494.36 211.669 495.077 217.069C496.129 224.976 498.491 232.651 502.065 239.776C502.102 239.851 501.99 239.921 501.952 239.841C499.671 235.307 497.877 230.542 496.602 225.626C495.316 220.547 494.554 215.348 494.328 210.112C494.173 207.004 494.146 203.891 494.119 200.777C494.119 200.691 494.248 200.691 494.253 200.777H494.264Z" fill="black"/>
<path d="M68.8325 186.394L185.861 127.975C188.987 126.414 192.726 126.734 195.54 128.804L214.031 142.406C215.841 143.748 218.253 143.958 220.268 142.948L228.015 139.083C230.974 137.601 232.174 134.007 230.697 131.049L207.38 84.4701C205.896 81.5154 202.298 80.3175 199.335 81.7921L198.939 81.9927C197.513 82.6979 196.428 83.9422 195.924 85.4496C195.421 86.9569 195.54 88.6026 196.257 90.0214L214.84 127.146" stroke="black" stroke-width="2"/>
<path d="M135.856 157.797C135.856 157.797 133.782 154.441 135.286 151.568C136.79 148.695 136.736 151.259 136.736 151.259C136.736 151.259 136.567 145.117 138.207 144.548C139.846 143.978 143.999 144.808 144.179 145.605C144.358 146.402 143.446 148.272 144.059 150.858C144.673 153.444 145.818 155.802 144.7 158.816C143.581 161.83 142.903 162.649 143.408 165.826C143.715 167.672 143.849 169.543 143.809 171.415H136.323C136.323 171.415 137.707 163.554 137.251 161.83C136.856 160.463 136.39 159.117 135.856 157.797Z" fill="white"/>
<path d="M143.975 189.11C143.622 196.32 130.585 203.126 129.678 203.711L128.449 198.794L125.533 194.071L133.383 188.21C133.775 187.92 134.011 187.466 134.024 186.98C134.089 184.844 134.36 178.637 135.511 173.654C136.326 170.196 136.803 166.666 136.934 163.116L142.889 163.999C142.889 163.999 144.328 181.9 143.975 189.11Z" fill="white"/>
<path d="M143.25 163.972C143.25 163.972 144.689 181.872 144.336 189.082C143.983 196.293 130.946 203.098 130.039 203.683L128.81 198.766L125.895 194.043L133.745 188.182C134.136 187.892 134.373 187.439 134.385 186.952C134.45 184.816 134.722 178.609 135.873 173.627C136.688 170.168 137.164 166.639 137.295 163.088" stroke="black" stroke-width="0.8"/>
<path d="M111.096 230.16C111.52 228.29 111.703 226.373 111.64 224.457C111.897 222.335 113.389 220.889 115.016 219.627C117.198 217.941 119.527 216.455 121.829 214.937C124.066 213.514 126.221 211.967 128.284 210.302C129.636 209.169 130.385 208.096 130.385 206.263C130.397 204.884 130.297 203.506 130.086 202.143C129.769 199.633 128.747 197.263 127.138 195.307C126.085 194.115 124.782 192.96 123.121 193.643C122.014 194.093 121.015 194.933 120.005 195.567C116.004 198.072 111.672 200.305 106.943 200.989C101.732 201.742 96.4929 200.311 91.2976 201.298C87.9426 201.986 84.8536 203.846 82.0306 205.738C78.9362 207.808 75.9992 210.107 72.9971 212.308C72.3239 212.801 71.6508 213.289 70.9668 213.766C69.805 214.579 69.1373 215.295 69.0232 216.748C68.9073 218.537 69.261 220.325 70.0493 221.936C71.6361 225.31 74.6548 227.795 78.2739 228.707C79.6655 225.351 82.4541 218.208 82.4759 216.488C82.5682 216.146 83.0947 216.293 83.0187 216.634C81.7452 222.265 79.5711 227.654 76.5802 232.594C75.0711 235.009 73.3969 237.316 71.5694 239.501C70.4511 240.894 69.1428 242.244 69.8159 244.146C70.1362 245.036 70.7877 245.778 71.1351 246.662C77.4225 245.825 93.4983 246.395 107.503 255.368C109.745 255.059 108.154 251.958 107.888 250.619C107.434 248.005 107.326 245.342 107.568 242.699C107.731 240.303 108.035 237.852 108.995 235.651C109.788 233.835 110.657 232.111 111.096 230.16Z" fill="white"/>
<path d="M112.007 267.376C109.532 261.965 106.839 256.587 104.722 251.02C95.1981 248.732 75.0526 244.583 70.6619 246.293C69.4617 249.136 68.4852 252.069 67.7412 255.064C66.1397 261.514 65.6532 268.189 66.3026 274.803C66.992 281.503 69.0712 287.895 70.1027 294.514C71.1016 300.9 70.5424 307.113 69.2015 313.407C67.7195 320.368 65.9117 327.361 64.2831 334.202C62.6544 341.044 60.8846 347.869 59.3972 354.749C59.104 356.098 58.8977 357.432 60.0812 358.457C60.6604 358.913 61.3193 359.259 62.0247 359.476C63.1539 359.888 64.3211 360.208 65.4828 360.522C67.8226 361.151 70.1733 361.666 72.5402 362.1C83.6367 364.116 95.0425 364.463 106.296 364.149C111.765 363.993 117.214 363.663 122.642 363.157C125.06 362.927 127.521 362.639 129.893 362.361L130.319 362.311C132.821 362.018 135.509 361.829 137.881 360.934C138.721 360.584 139.505 360.115 140.21 359.541C140.199 359.552 140.644 359.194 140.644 359.194C140.677 359.091 140.568 358.88 140.568 358.777C140.467 357.97 140.311 357.171 140.101 356.386C139.464 353.191 138.804 350.001 138.12 346.817C135.829 336.121 133.277 325.48 130.4 314.925C128.093 306.478 125.655 298.157 122.208 290.107C118.945 282.468 115.46 274.927 112.007 267.376Z" fill="white"/>
<path d="M222.429 130.415L193.917 98.1533V203.807C193.917 206.399 196.022 208.501 198.619 208.501C201.215 208.501 203.32 206.399 203.32 203.807V187.212C203.32 184.554 205.478 182.398 208.141 182.398C210.802 182.401 212.958 184.555 212.961 187.212V192.015C212.96 193.261 213.455 194.456 214.337 195.337C215.219 196.217 216.415 196.712 217.663 196.71C220.259 196.71 222.364 194.608 222.364 192.015V182.398H222.429V130.415Z" fill="#05CC9A"/>
<path d="M17.4709 212.036L58.3985 191.609" stroke="black" stroke-width="2"/>
<path d="M198.135 94.2025C200.792 92.8758 204.025 93.9536 205.354 96.6098L220.534 126.933C221.863 129.589 220.787 132.817 218.129 134.144C215.471 135.471 212.239 134.393 210.909 131.737L195.73 101.414C194.4 98.7579 195.477 95.5292 198.135 94.2025Z" fill="white"/>
<path fill-rule="evenodd" clip-rule="evenodd" d="M198.135 94.2025C200.792 92.8758 204.025 93.9536 205.354 96.6098L220.534 126.933C221.863 129.589 220.787 132.817 218.129 134.144V134.144C215.471 135.471 212.239 134.393 210.909 131.737L195.73 101.414C194.4 98.7579 195.477 95.5292 198.135 94.2025V94.2025Z" stroke="black" stroke-width="2"/>
<path d="M17.6181 210.236C18.4728 209.81 19.5125 210.156 19.9401 211.011C20.3678 211.865 20.0215 212.903 19.1667 213.33L4.09638 220.853C3.2416 221.28 2.20198 220.933 1.77432 220.079C1.34666 219.225 1.69292 218.186 2.5477 217.759L17.6181 210.236Z" fill="black" stroke="black" stroke-width="2"/>
<path d="M105.917 195.81C105.334 197.487 104.902 199.212 104.625 200.966C104.57 201.307 105.091 201.454 105.167 201.107C105.443 199.356 105.874 197.632 106.454 195.957C106.574 195.626 106.047 195.485 105.911 195.81H105.917Z" fill="black"/>
<path d="M104.619 195.621C104.619 195.621 103.941 196.298 105.319 198.066C105.319 198.066 105.803 196.624 105.835 196.51C105.868 196.396 106.237 195.875 105.341 195.865C104.445 195.854 104.619 195.621 104.619 195.621Z" fill="black"/>
<path d="M110.309 188.058C110.989 190.796 112.36 196.581 104.366 195.663C106.125 196.129 105.472 200.313 105 200.785C104.6 201.185 98.5 200.951 95.5 200.785L96.5 197.285L94.7373 185.044L105 177.785C106.145 179.715 107.562 180.869 108.539 182.978C108.873 183.695 109.261 184.386 109.7 185.044C109.901 185.359 110.118 185.663 110.352 185.954C110.7 186.448 110.613 187.126 110.151 187.516L110.151 187.516C110.205 187.695 110.26 187.874 110.309 188.058Z" fill="white" stroke="black"/>
<path d="M101.563 186.437C101.829 186.236 102.247 186.572 102.442 186.746C102.641 186.935 102.803 187.159 102.92 187.407C102.958 187.483 103.072 187.407 103.034 187.337C102.875 186.992 102.628 186.695 102.317 186.475C102.089 186.318 101.775 186.122 101.498 186.318C101.427 186.372 101.498 186.491 101.563 186.437Z" fill="black"/>
<path d="M102.241 187.098C102.338 186.977 102.497 186.922 102.648 186.957C102.735 186.957 102.773 186.849 102.686 186.827C102.487 186.769 102.272 186.838 102.143 187.001C102.084 187.066 102.181 187.163 102.236 187.098H102.241Z" fill="black"/>
<path d="M96.9755 195.127C96.5714 196.973 96.0269 198.785 95.3469 200.548C95.222 200.879 95.7486 201.02 95.8897 200.695C96.5722 198.932 97.1167 197.12 97.5184 195.273C97.589 194.932 97.0678 194.785 96.9755 195.127Z" fill="black"/>
<path d="M143.679 146.705C143.055 149.877 144.58 152.723 144.765 155.845C144.884 157.748 144.19 159.342 143.544 161.082C143.021 162.606 142.876 164.234 143.12 165.826C143.158 166.173 143.701 166.173 143.663 165.826C143.438 164.045 143.675 162.236 144.352 160.573C144.968 159.222 145.309 157.763 145.357 156.279C145.302 153.075 143.582 150.099 144.217 146.857C144.282 146.521 143.761 146.375 143.674 146.716L143.679 146.705Z" fill="black"/>
<path d="M141.307 145.865C141.126 146.97 141.043 148.09 141.057 149.21C141.057 149.359 141.179 149.481 141.328 149.481C141.478 149.481 141.6 149.359 141.6 149.21C141.586 148.139 141.663 147.069 141.828 146.011C141.882 145.67 141.361 145.523 141.285 145.865H141.307Z" fill="black"/>
<path d="M139.103 145.871C138.882 147.088 138.824 148.329 138.929 149.562C138.956 149.909 139.504 149.909 139.472 149.562C139.367 148.377 139.42 147.183 139.629 146.011C139.689 145.67 139.162 145.524 139.086 145.871H139.103Z" fill="black"/>
<path d="M136.893 146.478C136.28 149.015 136.475 151.574 136.725 154.143C136.758 154.49 137.3 154.49 137.268 154.143C137.018 151.622 136.812 149.118 137.414 146.624C137.496 146.282 136.975 146.136 136.872 146.478H136.893Z" fill="black"/>
<path d="M134.58 153.194C134.336 155.937 135.824 157.878 136.638 160.372C137.268 162.291 137.094 164.318 136.828 166.292C136.785 166.628 137.306 166.78 137.371 166.433C137.604 164.687 137.838 162.828 137.431 161.087C136.779 158.339 134.874 156.143 135.14 153.194C135.172 152.847 134.629 152.853 134.597 153.194H134.58Z" fill="black"/>
<path d="M105.667 251.426C95.4444 246.227 83.854 242.839 72.3396 242.627C72.1896 242.627 72.0681 242.749 72.0681 242.899C72.0681 243.048 72.1896 243.17 72.3396 243.17C83.74 243.376 95.2599 246.742 105.395 251.892C105.705 252.049 105.976 251.583 105.667 251.426Z" fill="black"/>
<path d="M64.3104 221.756C64.609 218.834 64.6795 215.901 64.7284 212.963C64.843 209.756 65.1731 206.562 65.7164 203.4C65.9733 201.268 66.398 199.16 66.9868 197.095C67.4699 195.566 68.1431 194.081 68.4851 192.519C68.89 190.629 68.8566 188.67 68.3874 186.795C68.306 186.458 67.7848 186.599 67.8445 186.941C68.3948 189.189 68.2932 191.547 67.5514 193.739C67.0411 195.262 66.4656 196.759 66.0367 198.32C65.5962 200.252 65.2609 202.207 65.0324 204.175C64.5534 207.08 64.2633 210.014 64.1638 212.957C64.115 215.895 64.0444 218.828 63.7458 221.75C63.7132 222.097 64.2561 222.092 64.2887 221.75L64.3104 221.756Z" fill="black"/>
<path d="M65.95 181.861C65.4876 184.037 65.3323 186.267 65.4885 188.486C65.4885 188.833 66.0314 188.838 66.0314 188.486C65.8715 186.308 66.0195 184.118 66.4711 181.981C66.5471 181.645 66.0206 181.498 65.9283 181.84L65.95 181.861Z" fill="black"/>
<path d="M63.2954 183.238L62.9642 185.672C62.9208 186.014 63.442 186.16 63.5071 185.813L63.8383 183.385C63.8817 183.043 63.3605 182.891 63.2954 183.238Z" fill="black"/>
<path d="M60.9934 184.393L60.8359 186.73C60.8359 187.076 61.3788 187.076 61.3788 186.73L61.5362 184.393C61.5634 184.046 61.0205 184.046 60.9934 184.393Z" fill="black"/>
<path d="M59.0118 185.19C58.6771 187.474 58.6571 189.792 58.9521 192.081C59.2127 193.994 59.7501 195.941 59.381 197.881C59.3158 198.223 59.837 198.369 59.9239 198.028C60.2333 196.401 59.9673 194.775 59.6959 193.181C59.2437 190.587 59.1979 187.939 59.5601 185.331C59.609 184.99 59.0824 184.843 59.0173 185.19H59.0118Z" fill="black"/>
<path d="M109.462 189.083L108.729 188.611C108.43 188.421 108.159 188.893 108.452 189.077L109.19 189.554C109.483 189.739 109.733 189.272 109.462 189.083Z" fill="black"/>
<path d="M107.35 184.458C107.336 184.623 107.363 184.788 107.426 184.941C107.556 185.261 108.083 185.12 107.969 184.8C107.921 184.693 107.902 184.575 107.914 184.458C107.947 184.111 107.404 184.117 107.372 184.458H107.35Z" fill="black"/>
<path d="M105.032 251.724C105.032 251.724 77.9474 246.552 69.2017 249.767C69.2017 249.767 70.3743 242.72 73.3818 242.92C83.8352 243.633 94.0648 246.281 103.55 250.727" fill="black"/>
<path d="M87.8007 223.344C86.7798 226.9 85.2998 230.308 83.398 233.482C83.3785 233.513 83.3882 233.555 83.4197 233.574C83.4512 233.594 83.4925 233.584 83.512 233.553C85.4227 230.369 86.9083 226.95 87.931 223.382C87.9312 223.351 87.9105 223.323 87.8802 223.314C87.85 223.306 87.8175 223.318 87.8007 223.344Z" fill="black"/>
<path d="M103.229 185.862C103.229 185.922 100.976 183.845 100.341 185.775C99.7333 187.624 102.182 188.968 103.143 188.844C103.143 188.844 101.46 197.106 100.873 198.06C100.287 199.014 87.9582 195.349 85.6022 193.761C83.2461 192.172 91.3295 177.736 97.8061 176.364C98.0498 176.317 98.2833 176.227 98.4955 176.099C99.6138 175.378 104.006 173.236 108.745 179.893C108.874 180.079 108.874 180.326 108.745 180.511C108.24 181.205 106.959 182.783 105.944 182.555C105.116 182.309 104.425 181.735 104.033 180.967C104.033 180.967 105.119 182.864 103.854 184.274C103.405 184.675 103.174 185.264 103.229 185.862Z" fill="black"/>
<path d="M111.085 224.613C111.149 226.535 110.967 228.457 110.542 230.332C110.102 232.284 109.234 234.008 108.441 235.824C107.48 238.025 107.176 240.475 107.013 242.871C106.772 245.514 106.88 248.177 107.334 250.792C107.6 252.131 109.19 255.232 106.948 255.541C106.606 255.584 106.753 256.11 107.095 256.083C109.033 255.817 108.767 253.741 108.322 252.326C107.621 249.87 107.333 247.314 107.469 244.763C107.54 241.598 107.866 238.377 109.206 235.482C110.872 232.115 111.693 228.394 111.601 224.64C111.601 224.293 111.058 224.293 111.058 224.64L111.085 224.613Z" fill="black"/>
<path d="M81.9486 216.66C80.5604 222.787 78.0936 228.618 74.6631 233.883C73.8445 235.158 72.9508 236.384 71.9867 237.553C70.977 238.779 69.7012 240.047 68.9521 241.451C67.774 243.658 69.2669 245.024 70.0378 246.981C70.1627 247.301 70.6893 247.165 70.5807 246.834C70.2332 245.951 69.5818 245.208 69.2615 244.319C68.5883 242.416 69.8967 241.066 71.015 239.673C72.8424 237.489 74.5167 235.181 76.0258 232.766C79.0167 227.826 81.1907 222.437 82.4643 216.807C82.5403 216.465 82.0137 216.319 81.9214 216.66H81.9486Z" fill="black"/>
<path d="M90.7214 201.432C95.9167 200.445 101.177 201.915 106.389 201.161C111.117 200.478 115.449 198.244 119.451 195.74C120.46 195.106 121.459 194.265 122.567 193.815C124.228 193.132 125.531 194.287 126.584 195.48C128.192 197.435 129.214 199.805 129.532 202.316C129.742 203.679 129.842 205.057 129.83 206.436C129.83 208.268 129.081 209.342 127.729 210.475C125.667 212.139 123.512 213.687 121.275 215.11C118.973 216.628 116.644 218.113 114.461 219.799C112.833 221.062 111.34 222.51 111.085 224.635C111.041 224.982 111.584 224.982 111.628 224.635C111.986 221.664 115.254 219.815 117.496 218.276C119.738 216.736 122.111 215.256 124.374 213.678C126.15 212.442 128.5 211.06 129.705 209.228C130.911 207.395 130.389 204.463 130.091 202.413C129.808 200.096 128.97 197.882 127.648 195.957C126.703 194.65 125.091 192.785 123.305 193.018C122.371 193.138 121.557 193.761 120.797 194.254C119.603 195.035 118.392 195.805 117.16 196.521C114.745 197.97 112.164 199.124 109.472 199.958C103.229 201.79 96.8831 199.741 90.6019 200.928C90.2599 200.993 90.4011 201.519 90.7431 201.47L90.7214 201.432Z" fill="black"/>
<path d="M90.6074 200.906C86.8072 201.703 83.3491 203.975 80.1895 206.165C76.6391 208.621 73.2733 211.337 69.7174 213.787C69.1374 214.088 68.6525 214.544 68.3168 215.104C68.0151 215.918 67.8839 216.786 67.9314 217.652C67.9539 219.42 68.3968 221.157 69.2234 222.721C70.9115 226.052 73.9567 228.494 77.5783 229.422C77.9149 229.503 78.0615 228.977 77.7194 228.879C74.1003 227.967 71.0817 225.482 69.4948 222.108C68.7065 220.498 68.3528 218.709 68.4688 216.92C68.5828 215.468 69.2505 214.752 70.4123 213.939C71.0963 213.462 71.7695 212.974 72.4427 212.48C75.4448 210.279 78.3818 207.981 81.4762 205.91C84.2991 204.018 87.3501 202.115 90.7051 201.427C91.0471 201.356 90.906 200.83 90.564 200.885L90.6074 200.906Z" fill="black"/>
<path d="M68.1758 219.197L61.4441 223.361" stroke="black"/>
<path d="M59.7827 196.84C59.7827 196.84 59.8533 198.467 57.9098 203.346C56.8892 205.888 49.5386 229.812 52.8393 235.938C56.14 242.064 76.0854 228.695 76.0854 228.695" stroke="black"/>
<path d="M70.0267 246.531C67.4873 252.55 65.97 258.95 65.5371 265.467C65.1082 271.972 65.9443 278.304 67.3612 284.642C68.9084 291.581 70.5641 298.439 69.9181 305.605C69.2721 312.772 67.2037 319.825 65.5317 326.813C63.8343 333.926 62.1369 341.036 60.4395 348.145L59.18 353.415C58.876 354.683 58.3114 356.185 58.572 357.513C59.028 359.801 61.8021 360.424 63.6967 360.988C74.1689 364.111 85.3196 364.956 96.1989 365.141C107.448 365.316 118.695 364.699 129.857 363.292C132.23 362.994 134.694 362.799 136.996 362.148C138.152 361.823 140.894 360.89 141.084 359.47C141.059 359.012 140.971 358.56 140.823 358.126C140.606 356.998 140.384 355.87 140.156 354.743C138.295 345.527 136.231 336.354 133.961 327.225C132.47 321.197 130.871 315.195 129.162 309.221C127.892 304.803 126.66 300.341 124.988 296.053C119.423 281.747 112.377 268.047 106.275 253.969C105.884 253.074 105.498 252.18 105.151 251.258C105.026 250.933 104.505 251.074 104.608 251.399C106.725 256.967 109.418 262.344 111.893 267.755C115.346 275.306 118.831 282.847 122.094 290.486C125.541 298.536 127.979 306.858 130.286 315.304C133.163 325.859 135.715 336.501 138.006 347.197C138.69 350.381 139.35 353.57 139.987 356.765C140.197 357.55 140.353 358.349 140.454 359.156C140.454 359.259 140.563 359.47 140.53 359.573C140.53 359.573 140.085 359.931 140.096 359.92C139.391 360.494 138.607 360.963 137.767 361.313C135.395 362.208 132.707 362.398 130.205 362.69C127.702 362.983 125.091 363.292 122.528 363.536C117.1 364.042 111.651 364.373 106.182 364.528C94.9285 364.842 83.5226 364.496 72.4262 362.479C70.0593 362.045 67.7086 361.53 65.3688 360.901C64.207 360.587 63.0399 360.267 61.9107 359.855C61.2053 359.638 60.5464 359.293 59.9672 358.836C58.7837 357.811 58.99 356.478 59.2831 355.128C60.7706 348.248 62.5404 341.423 64.169 334.581C65.7977 327.74 67.6055 320.747 69.0875 313.786C70.4284 307.492 70.9876 301.279 69.9887 294.893C68.9572 288.274 66.878 281.882 66.1885 275.182C65.5392 268.568 66.0257 261.893 67.6272 255.443C68.3712 252.448 69.3477 249.515 70.5479 246.672C70.6836 246.352 70.157 246.211 70.005 246.531H70.0267Z" fill="black"/>
<path fill-rule="evenodd" clip-rule="evenodd" d="M138.104 361.492C138.104 361.492 137.968 377.62 142.447 390.983C143.999 395.618 151.464 396.751 151.817 397.993C152.17 399.234 152.17 400.254 151.817 400.384C151.464 400.514 131.654 401.191 131.654 400.384C131.654 399.576 132.366 390.306 129.005 381.252C125.645 372.199 122.751 363.796 122.979 363.775" fill="white"/>
<path d="M138.104 361.492C138.104 361.492 137.968 377.62 142.447 390.983C143.999 395.618 151.464 396.751 151.817 397.993C152.17 399.234 152.17 400.254 151.817 400.384C151.464 400.514 131.654 401.191 131.654 400.384C131.654 399.576 132.366 390.306 129.005 381.252C125.645 372.199 122.751 363.796 122.979 363.775" stroke="black"/>
<path d="M63.2843 360.581C63.2843 360.581 60.3636 369.58 59.6795 376.091C58.5938 386.104 54.7393 395.862 53.2193 399.402C53.088 399.708 53.1195 400.06 53.303 400.338C53.4866 400.616 53.7977 400.784 54.1313 400.784H70.6294C70.9691 400.783 71.2898 400.628 71.501 400.362C71.7122 400.096 71.791 399.749 71.7152 399.418C71.5252 398.67 70.9117 397.83 69.2125 397.472C65.8521 396.762 64.0823 396.144 65.1409 393.319C66.1995 390.495 74.8693 370.361 76.8399 363.503" stroke="black"/>
<path d="M89.0766 219.598L88.8052 220.39C88.778 220.471 88.9083 220.504 88.9355 220.422L89.2123 219.631C89.2395 219.549 89.1092 219.512 89.0766 219.598Z" fill="black"/>
<path d="M90.3632 217.023C90.3935 217.015 90.4144 216.987 90.4144 216.955C90.4144 216.924 90.3935 216.896 90.3632 216.888C90.3329 216.896 90.312 216.924 90.312 216.955C90.312 216.987 90.3329 217.015 90.3632 217.023Z" fill="black"/>
<path d="M115.363 198.109C118.456 203.445 120.171 209.467 120.352 215.63C120.352 215.717 120.493 215.717 120.487 215.63C120.303 209.445 118.583 203.402 115.482 198.044C115.439 197.968 115.319 198.044 115.363 198.109Z" fill="black"/>
<path d="M118.837 196.076C122.161 201.336 124.034 207.381 124.266 213.597C124.258 213.626 124.268 213.657 124.293 213.674C124.317 213.691 124.35 213.691 124.374 213.674C124.399 213.657 124.41 213.626 124.402 213.597C124.164 207.356 122.282 201.288 118.946 196.005C118.897 195.935 118.777 196.005 118.826 196.076H118.837Z" fill="black"/>
<path d="M72.0682 212.708C71.9868 217.815 75.6132 221.593 79.4568 224.456C79.5274 224.51 79.5925 224.39 79.5274 224.342C75.7272 221.506 72.1225 217.771 72.204 212.708C72.1953 212.678 72.1676 212.657 72.1361 212.657C72.1046 212.657 72.0769 212.678 72.0682 212.708Z" fill="black"/>
<path d="M76.2158 209.265C76.118 213.31 78.5393 216.541 81.2157 219.327C81.2754 219.387 81.3731 219.289 81.308 219.23C78.6587 216.47 76.2538 213.266 76.3515 209.265C76.3428 209.235 76.3151 209.214 76.2836 209.214C76.2521 209.214 76.2244 209.235 76.2158 209.265Z" fill="black"/>
<path d="M66.4927 279.296C67.2365 277.447 69.0986 276.043 71.1561 276.65C72.1632 276.916 72.9571 277.69 73.2483 278.689C73.5395 279.687 73.2853 280.765 72.5784 281.53C72.5557 281.555 72.5548 281.593 72.5762 281.62C72.5976 281.647 72.6352 281.654 72.6653 281.638C74.0442 280.884 75.4502 281.99 75.7162 283.367C75.8399 284.223 75.7214 285.096 75.3742 285.888C75.3742 285.942 75.4122 285.98 75.4557 285.975C77.7249 285.655 78.1701 288.517 77.8823 290.052C77.6298 291.23 77.0547 292.314 76.2211 293.185C74.5984 294.871 72.3147 295.757 69.978 295.608C69.9477 295.617 69.9268 295.645 69.9268 295.676C69.9268 295.708 69.9477 295.735 69.978 295.744C73.6479 295.923 77.6435 293.575 78.1212 289.661C78.2786 288.328 77.9095 286.533 76.5197 285.942C76.6826 286.013 75.6891 285.65 75.8248 285.796C75.548 285.498 75.852 285.021 75.9063 284.668C76.0557 283.936 75.9623 283.175 75.6402 282.5C75.3517 281.964 74.8737 281.554 74.2993 281.351C74.1365 281.296 72.8661 281.215 72.953 281.351C73.2145 280.842 73.4271 280.311 73.5882 279.762C73.6459 279.17 73.5309 278.573 73.257 278.044C72.5323 276.804 71.121 276.135 69.7012 276.358C68.1691 276.646 66.9094 277.732 66.4004 279.204C66.3679 279.285 66.4982 279.323 66.5307 279.242L66.4927 279.296Z" fill="black"/>
<path d="M91.6931 261.493C89.9505 260.777 88.1318 262.751 87.2469 264.046C86.4326 265.244 86.1612 266.968 87.3121 268.063C87.9201 268.606 88.3327 268.362 87.893 269.24C87.5338 269.985 87.4326 270.827 87.6052 271.636C87.9636 273.152 89.2457 274.273 90.7973 274.428C92.6068 274.612 94.3089 273.541 94.9232 271.831C94.9232 271.777 95.1784 270.747 95.1784 270.747C95.1784 270.747 95.2761 271.023 95.3684 271.061C95.9113 271.311 96.1284 271.663 96.8233 271.603C98.6365 271.408 99.7168 269.186 99.5377 267.559C99.4456 266.805 99.1364 266.093 98.6474 265.51C98.4465 265.266 98.1045 265.093 97.9471 264.854C97.5508 264.312 97.9091 264.204 98.1588 263.672C98.8537 262.198 98.7017 259.72 96.997 258.95C95.1947 258.132 92.9471 260.062 92.3446 261.661C92.3174 261.742 92.4477 261.78 92.4803 261.699C93.1154 260.024 95.8733 257.839 97.5888 259.579C98.9459 260.951 98.5116 263.266 97.3933 264.588C97.3772 264.602 97.3678 264.622 97.3678 264.643C97.3678 264.664 97.3772 264.683 97.3933 264.697C98.3063 265.175 98.9826 266.006 99.2639 266.996C99.5452 267.986 99.4067 269.048 98.8808 269.934C98.3379 270.807 95.8787 272.986 95.1838 270.384C95.1751 270.353 95.1475 270.333 95.1159 270.333C95.0844 270.333 95.0567 270.353 95.0481 270.384C94.9558 272.769 92.9309 274.813 90.439 274.271C89.2375 274.013 88.2598 273.144 87.8638 271.982C87.4679 270.82 87.7118 269.536 88.5064 268.6C88.5222 268.582 88.5277 268.557 88.5212 268.534C88.5146 268.511 88.4968 268.493 88.4738 268.486C84.1634 267.819 88.5281 260.355 91.6442 261.661C91.7257 261.694 91.7582 261.563 91.6822 261.531L91.6931 261.493Z" fill="black"/>
<path d="M69.1147 250.022C68.6913 252.456 68.9247 255.53 71.498 256.712C73.4795 257.617 75.917 256.17 75.5967 253.914C75.5967 253.844 75.4556 253.86 75.4664 253.914C75.5215 254.624 75.8659 255.28 76.4191 255.729C76.9722 256.178 77.6857 256.38 78.3925 256.289C78.9833 256.168 79.5068 255.83 79.8583 255.34C80.1073 255.013 80.2765 254.633 80.3523 254.229C80.3795 254.066 80.3143 253.378 80.3523 253.345C80.488 253.226 81.6009 253.497 81.9321 253.416C82.6595 253.231 83.2606 252.72 83.5607 252.033C84.4836 250.011 83.083 247.957 81.9321 246.384C81.9127 246.361 81.8804 246.353 81.852 246.364C81.8236 246.375 81.8056 246.403 81.8072 246.433L81.9212 247.219C81.9212 247.306 82.0624 247.268 82.0515 247.187C81.9321 246.347 82.3501 247.187 82.5564 247.485C83.0092 248.106 83.3509 248.802 83.5662 249.54C83.8786 250.523 83.7247 251.595 83.1481 252.451C82.481 253.374 81.2057 253.613 80.2492 252.993C80.2003 252.955 80.1352 252.993 80.1515 253.069C80.6943 255.031 78.7074 257.026 76.791 255.85C76.3459 255.579 75.9984 254.657 75.4393 255.004C75.0739 256.073 74.0983 256.816 72.9692 256.885C69.3916 257.048 68.8107 252.63 69.2559 250.055C69.2559 249.973 69.1364 249.935 69.1256 250.022H69.1147Z" fill="black"/>
<path d="M100.504 250.564C100.721 251.6 100.064 253.275 100.993 254.104C101.178 254.271 101.416 254.369 101.666 254.381C102.013 254.381 102.138 254.164 102.41 254.104C102.681 254.045 102.29 254.007 102.578 254.028C102.773 254.028 103.121 254.57 103.278 254.684C103.568 254.944 103.926 255.117 104.31 255.183C104.948 255.298 105.573 254.922 105.77 254.305C105.797 254.223 105.667 254.185 105.64 254.272C105.021 256.148 103.18 254.473 102.562 253.73C102.529 253.681 102.469 253.73 102.448 253.757L101.459 254.207C100.976 253.977 100.667 253.49 100.667 252.955C100.632 252.632 100.632 252.307 100.667 251.984C100.721 251.497 100.705 251.004 100.618 250.521C100.618 250.434 100.471 250.472 100.488 250.559L100.504 250.564Z" fill="black"/>
<path d="M94.234 301.219C91.9756 300.677 91.183 298.449 90.9767 296.34C90.8653 295.597 90.8763 294.841 91.0093 294.101C91.2916 293.017 91.8996 292.274 93.4196 292.827C93.9099 293.075 94.3455 293.418 94.7008 293.836C94.7219 293.857 94.755 293.861 94.7807 293.846C94.8065 293.83 94.8184 293.799 94.8094 293.771C94.3943 292.141 94.8738 290.413 96.0699 289.228C97.2659 288.044 99.0002 287.58 100.629 288.008C104.19 288.984 105.075 293.429 102.573 295.961C102.557 295.973 102.547 295.992 102.547 296.012C102.547 296.033 102.557 296.052 102.573 296.064C103.115 296.357 103.414 296.145 104 296.031C105.841 295.668 106.595 297.479 106.481 299.002C106.356 300.398 105.714 301.698 104.679 302.645C104.111 303.156 103.441 303.54 102.714 303.773C102.171 303.963 101.357 303.838 100.868 304.066C100.368 303.903 100.151 304.147 100.222 304.787L99.9885 305.399C99.6002 306.085 98.9658 306.599 98.2133 306.836C96.9381 307.195 95.5687 306.815 94.6628 305.849C93.9245 305.096 93.7779 304.179 93.2514 303.323C93.1156 303.101 92.9473 303.025 92.8008 302.824C92.7919 302.822 92.7825 302.822 92.7736 302.824C92.1602 302.716 92.0896 302.249 92.551 301.431C92.6379 301.431 92.5999 301.284 92.513 301.301C92.1383 301.344 91.8469 301.646 91.8182 302.022C91.7584 302.613 92.1005 302.564 92.437 302.851C93.3871 303.626 93.5228 304.787 94.3154 305.692C94.9159 306.416 95.7479 306.912 96.6715 307.096C98.1646 307.357 99.6429 306.564 100.249 305.177C100.374 304.846 100.591 304.093 100.2 303.789C99.9233 303.588 99.7007 303.719 99.5596 303.963C99.5485 303.98 99.5464 304.002 99.5539 304.021C99.5614 304.04 99.5776 304.055 99.5976 304.06C103.126 304.787 107.198 302 106.59 298.097C106.389 296.861 105.531 295.614 104.152 295.896C103.789 295.966 103.609 296.14 103.251 295.945C102.708 295.652 102.958 296.069 103.159 295.538C103.284 295.213 103.588 294.887 103.729 294.562C104.083 293.747 104.222 292.855 104.131 291.971C103.926 290.414 102.982 289.05 101.596 288.308C100.21 287.565 98.5511 287.534 97.1384 288.225C95.7223 288.993 94.7597 290.392 94.5488 291.987C94.4945 292.356 94.5814 292.757 94.5488 293.12C94.462 293.662 94.7606 293.516 94.1797 293.218C93.4468 292.838 92.8605 292.247 91.9756 292.583C90.4338 293.169 90.7378 295.63 90.8898 296.861C91.145 298.861 92.0624 300.862 94.1851 301.366C94.2211 301.375 94.2575 301.353 94.2665 301.317C94.2755 301.281 94.2537 301.245 94.2177 301.236L94.234 301.219Z" fill="black"/>
<path d="M70.1735 309.411C71.4819 308.435 73.3602 309.319 73.7728 310.82C74.2125 312.447 73.1376 313.921 71.9542 314.854C71.8999 314.897 71.9542 314.989 72.0193 314.968C74.1311 314.252 75.4829 316.48 74.8043 318.334C74.3103 319.673 73.0996 320.421 71.813 320.882C71.7864 320.899 71.7741 320.931 71.7829 320.961C71.7917 320.992 71.8195 321.012 71.851 321.012C73.6208 320.676 73.5719 323.072 72.9042 324.102C72.4855 324.732 71.9014 325.235 71.2158 325.555C69.6904 326.292 67.9586 326.097 66.4222 325.604C66.3354 325.604 66.3028 325.707 66.3842 325.734C68.0943 326.276 70.0161 326.45 71.623 325.49C72.7088 324.84 73.6805 323.62 73.5557 322.286C73.533 321.878 73.3611 321.492 73.0725 321.202C72.8499 320.996 72.7033 321.018 72.4699 320.866C71.7533 320.389 72.2039 320.985 72.2582 320.866C72.3125 320.747 73.1919 320.41 73.3439 320.324C73.6933 320.095 74.0094 319.82 74.2831 319.505C74.748 318.971 75.0428 318.31 75.13 317.608C75.2939 316.515 74.7412 315.439 73.7565 314.935C73.4036 314.819 73.0398 314.739 72.6708 314.697C72.0899 314.534 72.3179 314.951 72.4808 314.594C72.7793 313.932 73.4688 313.509 73.7402 312.761C74.2171 311.628 73.913 310.317 72.9856 309.509C72.1736 308.775 70.9591 308.707 70.0704 309.346C70.0052 309.395 70.0704 309.514 70.1409 309.46L70.1735 309.411Z" fill="black"/>
<path d="M86.0471 335.676C85.169 334.818 84.4939 333.776 84.0711 332.624C83.6693 331.475 83.4902 328.829 85.3902 328.943C86.3964 329.456 86.4977 329.422 85.6943 328.84C85.4424 328.58 85.2563 328.264 85.1514 327.918C84.872 327.087 84.855 326.19 85.1025 325.349C85.3552 324.173 85.9174 323.086 86.7312 322.199C87.9418 320.985 89.7984 320.795 90.933 322.232C91.3076 322.709 91.3945 323.451 91.7582 323.858L91.8776 324.221C92.0185 323.703 92.2227 323.204 92.4857 322.736C93.756 321.332 95.6941 322.476 96.5464 323.679C97.2766 324.751 97.6368 326.032 97.5724 327.328C97.5148 328.486 97.1995 329.618 96.6495 330.64C96.3744 331.15 96.0547 331.634 95.6941 332.087C95.5475 332.277 94.5106 333.22 94.5269 333.388C95.3195 332.966 95.9112 333.106 96.2912 333.811C96.7645 334.065 97.0175 334.597 96.9156 335.123C96.8944 335.752 96.735 336.368 96.4487 336.928C95.9787 337.887 95.2656 338.705 94.3803 339.303C93.6894 339.772 92.9158 340.107 92.1002 340.29C91.6406 340.392 91.1706 340.441 90.6996 340.436C90.3472 340.432 89.9962 340.392 89.6518 340.317C89.7007 341.157 89.3533 341.618 88.6041 341.694C85.6074 342.425 83.6476 339.059 85.2654 336.652C85.3142 336.581 85.1948 336.511 85.146 336.581C83.5173 338.978 85.2925 342.279 88.2838 341.889C89.0438 341.791 90.6182 341.151 90.1567 340.089C89.8799 339.438 89.2393 339.639 89.2121 340.295C89.2117 340.327 89.2347 340.355 89.2664 340.36C92.2518 341.086 95.3356 339.609 96.6387 336.831C97.0838 335.822 97.3824 334.218 96.3781 333.41C96.0606 333.137 95.6415 333.014 95.2265 333.069C94.8116 333.125 94.4404 333.356 94.2066 333.703C94.1632 333.768 94.2555 333.833 94.3097 333.784C96.9753 331.307 99.0219 327.214 96.7907 323.76C96.1012 322.676 94.8255 321.7 93.4791 322.009C92.9217 322.121 92.4395 322.467 92.1557 322.959C91.8719 323.451 91.8141 324.041 91.9971 324.579C92.0242 324.66 92.1545 324.628 92.1274 324.546C91.7528 323.305 91.2533 321.755 89.9559 321.218C88.8598 320.85 87.6497 321.131 86.8289 321.944C84.9017 323.684 83.6205 328.103 86.4977 329.534C86.5574 329.534 86.628 329.501 86.59 329.442C85.9223 328.358 84.3642 328.699 83.8756 329.767C82.9202 331.757 84.6465 334.375 85.9874 335.73C86.0526 335.79 86.1449 335.692 86.0851 335.633L86.0471 335.676Z" fill="black"/>
<path d="M118.718 318.328C116.421 317.987 113.951 318.789 112.914 321.039C112.445 321.969 112.371 323.049 112.709 324.035C113.047 325.021 113.769 325.828 114.711 326.276C115.075 326.395 115.447 326.488 115.824 326.552C115.539 326.723 115.27 326.919 115.021 327.138C114.328 327.874 113.977 328.868 114.054 329.875C114.201 331.838 116.058 333.128 117.931 333.172C118.91 333.182 119.865 332.868 120.645 332.277C121.66 331.524 121.932 330.537 122.588 329.566C122.936 329.024 122.632 329.29 123.012 329.767C123.239 330.03 123.526 330.234 123.848 330.363C124.869 330.797 125.916 330.418 126.763 329.789C128.392 328.585 130.835 325.652 129.282 323.565C128.734 322.913 127.957 322.496 127.111 322.4C126.725 322.335 125.775 322.156 125.563 322.454C125.661 322.318 126.307 322.123 126.486 321.966C128.397 320.285 127.778 316.545 126.03 314.984C125.395 314.414 124.483 314.035 123.669 314.441C122.935 314.795 122.623 315.673 122.969 316.409C123.001 316.474 123.093 316.436 123.093 316.377C123.132 315.684 122.791 315.026 122.203 314.656C121.616 314.287 120.874 314.265 120.265 314.599C118.636 315.406 118.506 317.309 118.815 318.881C118.821 318.901 118.835 318.917 118.855 318.925C118.874 318.932 118.896 318.93 118.913 318.919C119.204 318.776 119.343 318.44 119.239 318.133C119.239 318.047 119.092 318.084 119.109 318.171C118.788 318.122 118.685 317.938 118.794 317.629C118.786 317.217 118.841 316.805 118.957 316.409C119.192 315.575 119.817 314.907 120.634 314.615C122.132 314.165 121.839 315.406 122.963 315.526C123.506 314.441 124.282 314.138 125.346 314.653C125.616 314.792 125.86 314.975 126.068 315.195C127.697 316.821 128.506 321.961 125.227 322.345C125.14 322.345 125.135 322.486 125.227 322.481C126.201 322.349 127.193 322.466 128.11 322.823C129.912 323.647 129.874 325.533 128.989 327.056C128.465 327.94 127.799 328.731 127.018 329.398C125.829 330.418 123.142 331.171 122.789 328.791C122.789 328.755 122.76 328.726 122.724 328.726C122.688 328.726 122.659 328.755 122.659 328.791C122.056 331.383 119.728 333.643 116.899 332.879C113.94 332.076 113.034 327.843 116.15 326.552C116.221 326.52 116.215 326.417 116.15 326.417C113.571 326.352 112.068 323.788 112.893 321.429C113.718 319.071 116.351 318.122 118.685 318.469C118.767 318.469 118.805 318.35 118.718 318.339V318.328Z" fill="black"/>
<path d="M118.235 285.563C116.465 286.945 114.766 289.515 115.325 291.879C115.476 292.686 116.071 293.338 116.861 293.565C117.029 293.603 117.594 293.516 117.692 293.565C118.349 293.906 117.882 295.072 117.822 295.576C117.621 297.349 118.951 298.715 120.786 297.891C121.264 297.63 121.696 297.291 122.062 296.888C122.556 296.443 122.284 296.514 122.827 296.888C123.37 297.262 123.663 297.533 124.228 297.061C124.293 297.002 124.195 296.909 124.13 296.964C123.294 297.045 122.768 296.774 122.556 296.145C122.543 296.125 122.52 296.112 122.496 296.112C122.472 296.112 122.449 296.125 122.436 296.145C121.978 296.958 121.242 297.58 120.363 297.896C119.762 298.093 119.102 297.974 118.608 297.579C118.114 297.185 117.853 296.568 117.914 295.939C117.914 295.017 118.283 294.275 118.023 293.353C118.016 293.335 118.001 293.32 117.982 293.313C117.964 293.305 117.943 293.306 117.925 293.315C116.237 294.031 115.368 292.285 115.384 290.99C115.41 290.28 115.561 289.581 115.83 288.924C116.351 287.632 117.216 286.507 118.332 285.671C118.397 285.617 118.305 285.525 118.235 285.574V285.563Z" fill="black"/>
<path d="M110.906 270.259C110.537 271.029 109.011 273.848 110.982 273.696C111.291 273.696 111.688 273.306 111.97 273.474C112.04 273.517 112.279 274.352 112.372 274.493C112.795 275.163 113.47 275.635 114.244 275.805C114.331 275.805 114.369 275.697 114.282 275.675C113.074 275.408 112.178 274.39 112.068 273.16C112.067 273.135 112.053 273.114 112.032 273.101C112.011 273.089 111.986 273.089 111.964 273.1C111.389 273.599 110.792 273.398 110.173 272.498C110.227 272.308 110.287 272.124 110.352 271.956C110.543 271.401 110.766 270.858 111.02 270.33C111.058 270.248 110.944 270.178 110.906 270.259Z" fill="black"/>
<path d="M63.8815 343.608C65.0812 342.523 66.9487 343.125 67.6165 344.491C68.2842 345.857 67.6653 347.533 66.7424 348.687C66.714 348.71 66.7091 348.751 66.7316 348.779C66.7541 348.808 66.7954 348.813 66.8239 348.79C67.4016 348.497 68.0767 348.461 68.682 348.693C69.2873 348.924 69.7661 349.401 69.9997 350.005C70.4992 351.273 69.9997 352.585 69.1148 353.561C69.0823 353.604 69.1148 353.686 69.1637 353.68C70.3246 353.611 71.3622 354.399 71.6066 355.534C71.7549 356.529 71.5878 357.545 71.1289 358.44C70.5087 359.828 69.5285 361.026 68.2897 361.91C68.2191 361.958 68.2897 362.078 68.3548 362.029C70.32 360.587 73.1973 356.868 71.2212 354.396C70.9351 354.028 70.5457 353.755 70.1029 353.61C69.2668 353.344 69.56 353.404 69.9237 352.661C70.5321 351.618 70.4792 350.317 69.788 349.327C69.5018 348.971 69.1275 348.697 68.7022 348.53C68.1598 348.498 67.616 348.498 67.0736 348.53C67.383 348.741 68.0779 345.895 68.0508 345.543C67.8934 343.526 65.4558 341.992 63.8 343.526C63.7349 343.586 63.8326 343.683 63.8978 343.624L63.8815 343.608Z" fill="black"/>
<path d="M87.2198 363.98C86.0365 362.357 85.7204 360.258 86.373 358.359C87.5619 355.106 89.6302 358.825 90.9494 359.676C90.9728 359.692 91.0036 359.691 91.0258 359.673C91.048 359.656 91.0566 359.627 91.0471 359.6C90.3537 356.862 90.9957 353.958 92.7789 351.767C93.219 351.163 93.8353 350.711 94.5433 350.471C95.7865 350.151 96.3456 351.046 96.8234 351.956C97.0459 352.379 97.1491 352.601 97.6268 352.683C97.6622 352.689 97.6975 352.671 97.7137 352.639C98.592 350.026 101.078 348.294 103.837 348.373C107.925 348.59 106.655 354.922 105.542 357.345C105.509 357.421 105.623 357.491 105.661 357.415C105.92 356.945 106.381 356.619 106.911 356.534C107.442 356.448 107.982 356.611 108.376 356.976C109.185 357.714 109.234 359.026 108.995 359.996C108.903 360.341 108.783 360.678 108.636 361.004C108.387 361.59 107.92 361.915 108.854 361.546C110.65 360.869 111.4 363.01 110.276 364.257C110.222 364.322 110.314 364.42 110.374 364.355C111.09 363.563 111.383 362.099 110.319 361.427C109.929 361.187 109.451 361.132 109.016 361.277C108.581 361.423 108.233 361.754 108.066 362.181C108.039 362.257 108.153 362.3 108.191 362.235C108.968 360.722 109.896 358.733 108.734 357.155C108.088 356.293 105.993 355.979 105.77 357.031C105.846 356.662 106.215 356.066 106.313 355.648C106.443 355.193 106.541 354.729 106.606 354.26C106.804 352.954 106.749 351.621 106.443 350.335C105.976 348.492 104.483 348.037 102.708 348.281C100.838 348.565 99.1832 349.647 98.1751 351.246C98.0883 351.387 97.8277 352.173 97.6811 352.244C96.9482 352.623 96.8559 351.539 96.6279 351.159C96.3315 350.617 95.7695 350.273 95.1513 350.254C93.3055 350.151 91.97 352.374 91.3511 353.816C90.9903 354.665 90.7615 355.565 90.6725 356.483C90.6047 357.11 90.6047 357.743 90.6725 358.37C90.7486 359.069 90.9006 359.454 90.2057 358.874C89.5108 358.294 89.1579 357.166 88.0342 356.933C87.4347 356.782 86.8106 357.066 86.5304 357.616C85.3198 359.557 85.8409 362.273 87.0733 364.035C87.1221 364.105 87.2416 364.035 87.1873 363.964L87.2198 363.98Z" fill="black"/>
<path d="M122.246 363.671C121.328 362.348 120.825 360.781 120.802 359.172C120.771 358.367 120.936 357.567 121.285 356.84C121.942 355.642 123.821 355.03 124.608 356.488C124.64 356.548 124.727 356.515 124.733 356.45C124.852 354.862 125.107 352.655 127.002 352.238C127.368 352.114 127.772 352.173 128.088 352.395C128.631 352.753 128.734 352.693 128.468 352.211C128.468 351.75 128.191 351.246 128.218 350.742C128.338 349.754 128.815 348.844 129.559 348.183C130.082 347.649 130.682 347.196 131.34 346.838C131.747 346.627 132.588 346.329 133.033 346.551C133.207 346.643 133.875 347.576 134.021 347.684C134.168 347.793 134.157 347.928 134.277 347.95C134.955 348.08 136.958 346.356 136.828 348.703C136.828 348.79 136.958 348.79 136.964 348.703C137.039 348.262 136.819 347.823 136.421 347.619C135.759 347.261 135.411 347.771 134.792 347.727C134.021 347.668 133.962 346.876 133.397 346.562C132.969 346.349 132.478 346.303 132.018 346.432C129.505 347.028 126.828 350.492 128.793 352.84C128.848 352.905 128.945 352.807 128.891 352.742C128.066 351.745 126.584 351.934 125.721 352.807C125.144 353.484 124.795 354.324 124.722 355.209C124.722 355.377 124.722 356.098 124.564 356.141C124.651 356.114 123.761 355.599 123.821 355.599C122.393 355.057 121.237 356.255 120.867 357.524C120.254 359.627 120.949 361.98 122.127 363.742C122.176 363.812 122.295 363.742 122.246 363.671Z" fill="black"/>
<path d="M58.7892 382.84C59.9618 383.204 61.2267 383.057 62.4265 383.317C63.059 383.441 63.6788 383.622 64.2777 383.86C65.3634 384.331 65.4232 384.906 65.6729 385.968C65.7025 386.072 65.7911 386.149 65.8985 386.163C66.0058 386.177 66.1113 386.126 66.1669 386.033C66.7098 385.15 67.0246 384.722 68.1213 384.586C68.3384 384.586 68.5121 384.619 68.7619 384.586C69.1039 384.537 68.9573 384.011 68.6153 384.044C67.9747 384.141 67.6327 383.751 67.0409 384.082C66.4714 384.524 66.0124 385.092 65.7 385.741L66.194 385.806C66.0692 385.264 66.042 384.304 65.6512 383.86C65.2209 383.544 64.7225 383.335 64.1963 383.247C63.414 382.991 62.6138 382.793 61.8022 382.656C60.8467 382.515 59.8641 382.613 58.9412 382.325C58.6046 382.222 58.4635 382.743 58.7946 382.868L58.7892 382.84Z" fill="black"/>
<path d="M130.238 383.925C131.69 383.266 133.258 382.898 134.852 382.841C136.421 382.781 136.671 384.136 137.518 385.166C137.686 385.367 137.957 385.166 137.979 384.971C138.089 384.109 138.245 383.253 138.446 382.407L138.115 382.597C138.77 382.74 139.453 382.697 140.085 382.472C140.417 382.358 140.275 381.838 139.944 381.93C139.414 382.163 138.821 382.208 138.261 382.06C138.118 382.021 137.969 382.103 137.925 382.244C137.716 383.139 137.553 384.044 137.436 384.955L137.903 384.765C136.844 383.48 136.926 382.255 135.085 382.271C133.315 382.315 131.573 382.721 129.966 383.464C129.646 383.61 129.923 384.077 130.238 383.936V383.925Z" fill="black"/>
<path d="M266.766 317.873L268.004 318.226C268.091 318.226 268.129 318.117 268.042 318.096L266.804 317.743C266.717 317.743 266.685 317.846 266.766 317.873Z" fill="black"/>
<path d="M68.5068 220.406C68.5068 220.406 69.0497 224.949 70.8195 227.421C72.5893 229.893 72.2473 231.042 72.1278 230.912C72.0084 230.782 77.2146 229.394 75.4828 228.418C73.751 227.442 70.5698 224.401 70.5698 224.401L68.5068 220.406Z" fill="black"/>
<path d="M125.943 193.849C125.123 193.029 130.103 197.377 130.972 199.957C131.84 202.538 134.18 201.275 134.18 201.275L130.082 204.05C130.082 204.05 129.649 203.73 129.22 202.044C128.791 200.358 127.581 197.127 127.581 197.127L125.943 193.849Z" fill="black"/>
<path d="M61.1021 368.409C61.5635 368.409 70.255 371.998 73.8977 371.808L76.2375 365.433C76.2375 365.433 77.9856 363.677 75.5046 363.265C73.0237 362.853 64.3376 360.744 64.3376 360.744C64.3376 360.744 63.355 360.256 62.8555 361.963C62.3561 363.671 61.1021 368.409 61.1021 368.409H61.1021Z" fill="black"/>
<path d="M125.694 372.112C126.003 371.971 136.861 371.787 138.478 369.846L138.174 364.902L138.115 362.733C138.115 362.733 138.657 361.508 136.937 361.893C135.216 362.278 128.066 363.232 128.066 363.232L124.065 363.666C124.065 363.666 122.545 362.761 123.234 364.902C123.924 367.043 125.694 372.112 125.694 372.112Z" fill="black"/>
<path d="M106.612 183.558C106.901 183.589 107.194 183.576 107.48 183.52C107.822 183.455 107.676 182.929 107.334 182.978C107.094 183.016 106.851 183.016 106.612 182.978C106.264 182.94 106.27 183.482 106.612 183.52V183.558Z" fill="black"/>
</svg>
