<svg width="564" height="402" viewBox="0 0 564 402" fill="none" xmlns="http://www.w3.org/2000/svg">
  <path d="M208.92 0.784668H525.246V400.785H208.92L208.92 0.784668Z" fill="black" />
  <path d="M200.756 0.784668H518.103V400.785H200.756L200.756 0.784668Z" fill="#F0F0F1" />
  <path d="M201 40.7847H518V158.785H201V40.7847Z" fill="#4A61C0" />
  <path d="M300.692 181.389H416.761V183.329H300.692V181.389Z" fill="#C9CCCF" />
  <path d="M300.692 190.494H416.761V192.435H300.692V190.494Z" fill="#C9CCCF" />
  <path d="M300.692 199.608H371.055V201.548H300.692V199.608Z" fill="#C9CCCF" />
  <path d="M248.643 80.8647H470.28V84.0714H248.643V80.8647Z" fill="#8998D6" />
  <path d="M248.643 98.252H470.28V101.459H248.643V98.252Z" fill="#8998D6" />
  <path d="M292.958 115.655H427.318V118.861H292.958V115.655Z" fill="#8998D6" />
  <rect x="284.02" y="227.859" width="149.407" height="31.787" rx="14.85" fill="#FBFCFD" />
  <path
    d="M284.035 239.526C284.031 233.085 289.237 227.86 295.666 227.851H421.78C428.212 227.851 433.426 233.074 433.426 239.518"
    stroke="black" />
  <rect x="283.053" y="279.617" width="149.407" height="31.787" rx="14.85" fill="#FBFCFD" />
  <path
    d="M283.069 291.284C283.082 284.856 288.283 279.649 294.699 279.641H420.814C427.246 279.641 432.46 284.864 432.46 291.307"
    stroke="black" />
  <path fill-rule="evenodd" clip-rule="evenodd"
    d="M516.667 0.784668H209.335H200.756V400.785H209.335H516.667H525.246V0.784668L516.667 0.784668Z" stroke="black" />
  <rect x="296.282" y="290.893" width="117.546" height="10.4744" rx="4" fill="#F0F0F1" />
  <rect x="283.053" y="331.791" width="149.407" height="31.7869" rx="14.85" fill="#FBFCFD" />
  <path
    d="M283.069 343.458C283.082 337.03 288.283 331.823 294.699 331.814H420.814C427.246 331.814 432.46 337.038 432.46 343.481"
    stroke="black" />
  <rect x="296.282" y="343.265" width="103.58" height="10.4744" rx="4" fill="#F0F0F1" />
  <rect x="297.812" y="239.685" width="102.416" height="10.4744" rx="4" fill="#F0F0F1" />
  <rect x="477.496" y="84.8086" width="85.1821" height="56.8867" rx="15.13" fill="black" />
  <path fill-rule="evenodd" clip-rule="evenodd"
    d="M520.083 35.2261C535.182 35.2261 547.422 47.4876 547.422 62.613V95.7649H492.745V62.613C492.745 47.4876 504.985 35.2261 520.083 35.2261V35.2261Z"
    stroke="black" stroke-width="8" />
  <path d="M515.865 103.643H524.308V118.636H515.865V103.643Z" fill="white" />
  <ellipse cx="339.08" cy="113.867" rx="6.87608" ry="7.2327" fill="#05CC9A" />
  <ellipse cx="320.474" cy="145.549" rx="7.95149" ry="7.96564" fill="#F9D867" />
  <ellipse cx="281.41" cy="116.778" rx="7.95148" ry="7.96564" fill="#05CC9A" />
  <ellipse cx="260.393" cy="166.05" rx="7.95151" ry="7.96564" fill="#C05050" />
  <path d="M228.84 172.343L238.293 193.376L217.297 202.846L207.844 181.813L228.84 172.343Z" fill="#4A61C0" />
  <path d="M223.275 156.646L206.52 153.918L209.243 137.133L225.998 139.861L223.275 156.646Z" fill="#05CC9A" />
  <path
    d="M299.989 102.615C305.758 100.366 311.973 99.5038 318.136 100.097C318.243 100.097 318.243 99.9417 318.136 99.9282C311.957 99.334 305.726 100.199 299.941 102.453C299.84 102.493 299.888 102.655 299.989 102.615Z"
    fill="black" />
  <path
    d="M307.037 113.24L310.555 111.775C310.649 111.735 310.608 111.573 310.507 111.613L306.997 113.078C306.895 113.119 306.943 113.281 307.037 113.24Z"
    fill="black" />
  <path
    d="M297.906 140.897C292.089 142.995 286.643 146.01 281.774 149.828C280.373 150.929 279.025 152.097 277.731 153.318C277.65 153.393 277.772 153.514 277.853 153.44C282.333 149.203 287.461 145.709 293.041 143.091C294.645 142.335 296.282 141.66 297.954 141.066C298.055 141.026 298.008 140.864 297.906 140.904V140.897Z"
    fill="black" />
  <path
    d="M285.703 158.705L288.634 157.24C288.729 157.193 288.634 157.051 288.547 157.098L285.615 158.556C285.521 158.604 285.615 158.752 285.703 158.705Z"
    fill="black" />
  <path
    d="M309.102 142.868L311.123 142.281C311.156 142.26 311.172 142.22 311.161 142.182C311.15 142.145 311.115 142.119 311.076 142.119L309.054 142.706C308.953 142.74 308.994 142.902 309.102 142.868Z"
    fill="black" />
  <path
    d="M200.543 120.644C190.772 122.96 180.922 124.863 170.993 126.352C168.172 126.787 165.367 127.173 162.578 127.508C162.474 127.521 162.479 127.693 162.584 127.68C172.561 126.427 182.468 124.757 192.304 122.668C195.069 122.082 197.832 121.463 200.592 120.81C200.696 120.787 200.648 120.622 200.543 120.644Z"
    fill="black" />
  <path
    d="M122.309 164.234L116.844 167.272C116.75 167.322 116.841 167.472 116.934 167.412L122.4 164.384C122.439 164.358 122.45 164.306 122.426 164.266C122.402 164.226 122.351 164.212 122.309 164.234Z"
    fill="black" />
  <path
    d="M219.083 123.94L215.032 128.269C215 128.288 214.984 128.325 214.991 128.362C214.999 128.398 215.028 128.426 215.065 128.431C215.102 128.436 215.138 128.417 215.155 128.384L219.206 124.055C219.224 124.02 219.216 123.978 219.188 123.951C219.159 123.924 219.117 123.92 219.083 123.94Z"
    fill="black" />
  <path
    d="M251.876 147.585C248.564 152.11 245.594 156.877 242.992 161.846C242.242 163.27 241.53 164.721 240.838 166.181C240.794 166.278 240.94 166.359 240.989 166.257C243.354 161.221 246.09 156.367 249.173 151.736C250.078 150.375 251.013 149.041 251.995 147.734C252.069 147.655 251.936 147.53 251.873 147.618L251.876 147.585Z"
    fill="black" />
  <path
    d="M190.397 192.476C185.848 199.407 180.919 206.081 175.634 212.468C174.156 214.251 172.646 216.016 171.104 217.762C171.03 217.841 171.158 217.961 171.227 217.878C176.702 211.671 181.83 205.166 186.588 198.392C187.937 196.464 189.255 194.519 190.543 192.557C190.617 192.478 190.452 192.388 190.397 192.476Z"
    fill="black" />
  <path
    d="M183.331 211.486L183.769 211.048C183.799 211.028 183.814 210.992 183.807 210.957C183.8 210.922 183.773 210.895 183.738 210.888C183.703 210.881 183.667 210.896 183.648 210.926L183.21 211.365C183.18 211.384 183.165 211.42 183.172 211.455C183.179 211.49 183.206 211.517 183.241 211.524C183.276 211.531 183.312 211.516 183.331 211.486Z"
    fill="black" />
  <path d="M275.888 221.464H45.4361L17.749 352.824H248.201L275.888 221.464Z" fill="#F0F0F1" />
  <path fill-rule="evenodd" clip-rule="evenodd" d="M275.888 221.464H45.4361L17.749 352.824H248.201L275.888 221.464Z"
    fill="#4A61C0" stroke="black" />
  <path fill-rule="evenodd" clip-rule="evenodd"
    d="M134.875 245.986H103.898L94.9888 229.796H1L17.7489 352.824H248.201L231.452 245.986H134.875Z" stroke="black" />
  <ellipse cx="254.176" cy="264.276" rx="8.51348" ry="8.52863" fill="#F9D867" />
  <path
    d="M247.117 112.003L258.3 101.884L261.428 99.0509C261.439 99.0399 261.444 99.0236 261.441 99.008C261.437 98.9925 261.425 98.9801 261.41 98.9755C261.395 98.9709 261.378 98.9749 261.366 98.9858L250.184 109.105L247.052 111.938C247.009 111.977 247.074 112.043 247.117 112.003Z"
    fill="black" />
  <path
    d="M248.823 277.643C251.272 274.073 253.781 270.544 256.352 267.058C258.923 263.572 261.578 260.098 264.317 256.636C265.832 254.723 267.367 252.827 268.92 250.948C268.956 250.905 268.895 250.839 268.859 250.886C266.1 254.238 263.398 257.63 260.753 261.063C258.108 264.496 255.511 267.998 252.965 271.568C251.539 273.563 250.132 275.572 248.744 277.596C248.712 277.643 248.791 277.69 248.823 277.643Z"
    fill="black" />
  <path
    d="M206.537 235.796L216.667 230.878L226.84 225.945L232.554 223.169C232.608 223.144 232.554 223.068 232.51 223.093L222.377 228.008L212.204 232.948L206.49 235.702C206.44 235.727 206.49 235.807 206.537 235.782V235.796Z"
    fill="black" />
  <path
    d="M220.202 239.883L232.828 234.257L245.454 228.63L252.525 225.479C252.579 225.457 252.525 225.378 252.481 225.399L239.855 231.026L227.229 236.653L220.159 239.804C220.105 239.829 220.159 239.905 220.202 239.883Z"
    fill="black" />
  <path
    d="M237.081 221.876L239.43 220.698C239.484 220.672 239.43 220.593 239.386 220.618L237.038 221.8C236.984 221.825 237.038 221.905 237.081 221.876Z"
    fill="black" />
  <path
    d="M303.11 195.04L308.222 189.923C308.587 189.547 308.724 189.004 308.582 188.499L306.714 181.506C306.576 181 306.181 180.604 305.675 180.466L298.691 178.594C298.185 178.457 297.644 178.602 297.273 178.973L292.161 184.094C291.791 184.466 291.647 185.007 291.783 185.514L293.655 192.507C293.789 193.016 294.186 193.413 294.694 193.548L301.674 195.423C302.187 195.564 302.735 195.418 303.11 195.04Z"
    fill="#4A61C0" />
  <path d="M262.468 206.096L271.71 215.354L262.468 224.612L253.227 215.354L262.468 206.096Z" fill="#C05050" />
  <path
    d="M221.934 233.346L213.637 242.872C213.461 243.067 213.405 243.343 213.49 243.592C213.576 243.84 213.789 244.023 214.048 244.068L226.428 246.5C226.685 246.556 226.952 246.467 227.124 246.268C227.297 246.07 227.348 245.793 227.258 245.546L223.171 233.588C223.09 233.339 222.88 233.153 222.623 233.103C222.366 233.053 222.102 233.146 221.934 233.346Z"
    fill="#05CC9A" />
  <ellipse cx="105.569" cy="208.134" rx="6.87608" ry="6.88831" fill="#F9D867" />
  <path d="M172.23 245.7L154.701 260.656L139.771 243.095L157.301 228.139L172.23 245.7Z" fill="#C05050" />
  <path d="M112.519 249.028L95.7644 246.301L98.4872 229.516L115.242 232.244L112.519 249.028Z" fill="#05CC9A" />
  <path d="M163.325 160.877L159.643 183.572L136.989 179.883L140.67 157.189L163.325 160.877Z" fill="#F9D867" />
  <path
    d="M192.801 169.21C186.129 174.307 179.38 179.304 172.556 184.202C165.731 189.1 158.833 193.886 151.861 198.559C147.916 201.202 143.949 203.815 139.961 206.399C139.935 206.428 139.93 206.47 139.95 206.504C139.969 206.538 140.009 206.554 140.047 206.544C147.096 201.98 154.076 197.314 160.987 192.547C167.899 187.78 174.734 182.901 181.492 177.91C185.317 175.099 189.117 172.249 192.891 169.36C192.965 169.281 192.889 169.145 192.801 169.21Z"
    fill="black" />
  <path d="M231.452 245.986L213.003 340.096L244.49 352.824H248.201L262.198 286.401L231.452 245.986Z" fill="#C9CCCF" />
  <path d="M231.452 245.986L213.003 340.096L244.49 352.824H248.201L256.526 313.321L231.452 245.986Z" fill="black" />
  <path d="M103.898 245.986L94.9888 229.796H1L17.7489 352.824H248.201L231.452 245.986H103.898Z" fill="#F5F6F8" />
  <path d="M138.734 299.405H44.7456" stroke="black" />
  <path d="M140.785 313.055H46.7993" stroke="black" />
  <path d="M88.7248 326.701H48.8496" stroke="black" />
</svg>