<svg width="49" height="48" viewBox="0 0 49 48" fill="none" xmlns="http://www.w3.org/2000/svg">
<circle cx="44.3333" cy="23" r="3.5" fill="#F6F7FC" stroke="#293044"/>
<circle cx="6.33325" cy="44" r="3.5" fill="#F6F7FC" stroke="#293044"/>
<circle cx="6.33325" cy="6" r="3.5" fill="#293044" stroke="#293044"/>
<path d="M3.9797 37.3536C4.17496 37.5488 4.49154 37.5488 4.6868 37.3536L7.86878 34.1716C8.06405 33.9763 8.06405 33.6597 7.86878 33.4645C7.67352 33.2692 7.35694 33.2692 7.16168 33.4645L4.33325 36.2929L1.50482 33.4645C1.30956 33.2692 0.992979 33.2692 0.797717 33.4645C0.602455 33.6597 0.602455 33.9763 0.797717 34.1716L3.9797 37.3536ZM3.83325 8L3.83325 37L4.83325 37L4.83325 8L3.83325 8Z" fill="#293044"/>
<path d="M37.6868 20.6464C37.8821 20.8417 37.8821 21.1583 37.6868 21.3536L34.5048 24.5355C34.3096 24.7308 33.993 24.7308 33.7977 24.5355C33.6025 24.3403 33.6025 24.0237 33.7977 23.8284L36.6261 21L33.7977 18.1716C33.6025 17.9763 33.6025 17.6597 33.7977 17.4645C33.993 17.2692 34.3096 17.2692 34.5048 17.4645L37.6868 20.6464ZM4.83325 0V13H3.83325V0H4.83325ZM12.3333 20.5H37.3333V21.5H12.3333V20.5ZM4.83325 13C4.83325 17.1421 8.19112 20.5 12.3333 20.5V21.5C7.63883 21.5 3.83325 17.6944 3.83325 13H4.83325Z" fill="#293044"/>
<circle cx="4.33325" cy="4" r="3.5" fill="#F6F7FC" stroke="#293044"/>
<circle cx="42.3333" cy="21" r="3.5" fill="#293044" stroke="#293044"/>
<circle cx="4.33325" cy="42" r="3.5" fill="#293044" stroke="#293044"/>
</svg>
