<svg xmlns="http://www.w3.org/2000/svg" width="213" height="185" fill="none" viewBox="0 0 213 185">
    <path fill="#04AA80" d="M95.103 124.826l101.26.616V10.076H95.999l-.896 114.75z"/>
    <path fill="#05E3AB" d="M89.785 115.31h101.26V0H89.785v115.31z"/>
    <path fill="#D8DEEB" fill-rule="evenodd" d="M39.351 91.24l.392 79.99c0 .896.784 1.679 1.68 1.679h162.049c.952 0 1.679-.783 1.679-1.679l-.559-106.97c0-.895-.728-1.68-1.68-1.68h-98.405c-.952 0-1.679-.727-1.679-1.678v-9.46c0-.952-.728-1.68-1.68-1.68l-60.118.168c-.951 0-1.679.728-1.679 1.68v39.63z" clip-rule="evenodd"/>
    <path fill="#3A476B" d="M71.705 16.065v-.896c0-.447-.392-.84-.84-.84-.448 0-.84.393-.84.84v.896c0 .448-.391.84-.84.84h-.839c-.448 0-.84.392-.84.84 0 .447.392.839.84.839h.896c.448 0 .84.392.84.84v.895c0 .448.391.84.84.84.447 0 .839-.392.839-.84v-.895c0-.448.392-.84.84-.84h.895c.448 0 .84-.392.84-.84 0-.447-.392-.84-.84-.84H72.6c-.447 0-.84-.335-.895-.839zM17.072 36.44v-.56c0-.28-.223-.56-.503-.56s-.56.225-.56.505V36.44c0 .28-.224.56-.56.56h-.56c-.28 0-.56.224-.56.56 0 .28.224.56.504.56h.56c.28 0 .56.223.56.503v.56c0 .28.224.56.504.56s.56-.224.56-.56v-.56c0-.28.223-.503.503-.56h.56c.28 0 .56-.223.56-.56 0-.28-.224-.559-.56-.559h-.56c-.224 0-.448-.224-.448-.504zm10.916 24.63v-.448c0-.224-.168-.392-.392-.392s-.392.168-.392.392v.448c0 .224-.168.391-.392.391h-.504c-.224 0-.391.168-.391.392s.167.392.391.392h.448c.224 0 .392.168.392.392v.448c0 .224.168.447.392.447s.448-.167.448-.391v-.504c0-.224.168-.448.392-.448h.447c.224 0 .392-.168.392-.392s-.168-.447-.392-.447h-.392c-.223.167-.447-.056-.447-.28zm183.264-17.745v-.448c0-.223-.167-.391-.391-.391s-.392.168-.392.392v.447c0 .224-.168.392-.392.392h-.448c-.224 0-.448.168-.448.392s.168.448.392.448h.504c.224 0 .448.168.448.392v.447c0 .224.168.392.392.392.223 0 .447-.168.447-.392v-.447c0-.224.168-.392.392-.392h.448c.224 0 .392-.168.392-.392s-.168-.392-.392-.392h-.448c-.336 0-.504-.224-.504-.448zm-153.15-7.78c0 .447-.391.84-.839.84-.448 0-.84-.393-.84-.84 0-.448.392-.84.84-.84.504 0 .84.392.84.84zM39.632 24.07c0 .615-.504 1.12-1.12 1.12-.616 0-1.12-.505-1.12-1.12 0-.616.504-1.12 1.12-1.12.616 0 1.12.504 1.12 1.12zm164.401-.112c.615 0 1.119.503 1.119 1.12 0 .615-.504 1.119-1.119 1.119-.616 0-1.12-.504-1.12-1.12 0-.616.504-1.12 1.12-1.12z"/>
    <path fill="#fff" d="M172.293 20.04h-63.812v2.238h63.812V20.04zM172.293 33.474h-63.812v2.239h63.812v-2.24zM136.861 46.908h-28.38v2.239h28.38v-2.24z"/>
    <path stroke="#fff" stroke-miterlimit="10" stroke-width="16" d="M188.527 153.262H133.67"/>
    <path fill="#3A476B" d="M196.923 104.395c-7.109 0-12.875-5.766-12.875-12.875 0-7.108 5.766-12.874 12.875-12.874s12.874 5.766 12.874 12.874c0 7.11-5.765 12.875-12.874 12.875zm0-20.151c-4.03 0-7.277 3.246-7.277 7.276 0 4.03 3.247 7.277 7.277 7.277s7.277-3.246 7.277-7.277c0-4.03-3.303-7.276-7.277-7.276z"/>
    <path fill="#3A476B" d="M199.722 99.917h-5.598v44.221h5.598V99.917z"/>
    <path fill="#3A476B" d="M211.476 122.867h-12.314v4.478h12.314v-4.478zM206.438 131.263h-7.276v4.478h7.276v-4.478zM208.678 139.66h-9.516v4.478h9.516v-4.478zM58.663 125.442h-4.534v-4.758c0-12.091-9.852-21.999-21.999-21.999-12.147 0-21.998 9.852-21.998 21.999v4.758H5.598c-3.08 0-5.598 2.519-5.598 5.597v48.363C0 182.481 2.519 185 5.598 185h53.065c3.078 0 5.597-2.519 5.597-5.598v-48.363c0-3.134-2.519-5.597-5.597-5.597zm-41.814-4.758c0-8.397 6.829-15.282 15.281-15.282 8.452 0 15.281 6.829 15.281 15.282v4.758H16.85v-4.758z"/>
    <path fill="#fff" fill-rule="evenodd" d="M37.224 150.351c0-2.855-2.295-5.094-5.094-5.094-2.798 0-5.093 2.295-5.093 5.094 0 1.903 1.063 3.582 2.63 4.478l-1.847 10.412h8.676l-1.847-10.412c1.512-.896 2.575-2.575 2.575-4.478z" clip-rule="evenodd"/>
</svg>
