<svg xmlns="http://www.w3.org/2000/svg" width="254" height="185" fill="none" viewBox="0 0 254 185">
    <path fill="#D8DEEB" fill-rule="evenodd" d="M52.847 50.209l.542 96.627c0 1.083.947 2.03 2.03 2.03h195.894c1.15 0 2.03-.947 2.03-2.03l-.677-129.31c0-1.083-.879-2.03-2.03-2.03H131.611c-1.15 0-2.03-.88-2.03-2.03V2.03c0-1.15-.88-2.03-2.03-2.03L54.877.203c-1.15 0-2.03.88-2.03 2.03v47.975z" clip-rule="evenodd"/>
    <path stroke="#fff" stroke-miterlimit="10" stroke-width="16" d="M233.179 125.183h-66.314"/>
    <path fill="#3A476B" d="M116.86 149.949h-9.609c8.932-2.301 15.564-10.421 15.564-20.097v-28.42c0-1.083-1.286-1.692-2.098-1.015l-10.421 8.458c-.203.203-.541.271-.812.271H87.29c-.271 0-.61-.135-.812-.271l-10.489-8.458c-.88-.677-2.097-.068-2.097 1.015v11.706c-6.902-3.924-14.887-6.293-21.518-6.293-15.293 0-27.743 12.383-27.743 27.744v5.074C11.03 139.799 0 149.949 0 162.332 0 174.85 11.165 185 24.969 185h6.496c3.18 0 5.684-2.571 5.684-5.684s-2.572-5.684-5.684-5.684h-6.496c-7.443 0-13.533-5.075-13.533-11.233 0-6.09 5.887-11.097 13.195-11.232v6.09c0 3.383 2.774 6.157 6.157 6.157H116.928c3.721 0 6.699-2.977 6.699-6.699 0-3.721-3.045-6.766-6.767-6.766z"/>
    <path stroke="#fff" stroke-linecap="round" stroke-linejoin="round" stroke-miterlimit="10" stroke-width="3.857" d="M95.748 133.303h5.549M98.522 134.453v2.233"/>
    <path stroke="#fff" stroke-linecap="round" stroke-linejoin="round" stroke-miterlimit="10" stroke-width="2" d="M90.2 126.266c0 2.436-1.963 4.398-4.4 4.398-2.435 0-4.397-1.962-4.397-4.398M114.018 126.266c0 2.436-1.963 4.398-4.398 4.398-2.436 0-4.399-1.962-4.399-4.398"/>
    <path fill="#3A476B" d="M158.407 80.388l-7.24 7.308h5.684l-.406 2.03h-8.932l.27-1.489 7.308-7.308h-5.345l.473-2.098h8.594l-.406 1.557zM127.754 89.049l-4.331 4.398h3.384l-.271 1.218h-5.346l.203-.88 4.399-4.398h-3.248l.27-1.285h5.143l-.203.947zM142.776 84.718l-5.752 5.82h4.534l-.338 1.624h-7.105l.27-1.218 5.82-5.82h-4.331l.338-1.691h6.835l-.271 1.285z"/>
    <path stroke="#fff" stroke-linecap="round" stroke-linejoin="round" stroke-miterlimit="10" d="M120.852 154.956h-4.06M120.852 158.339h-4.06"/>
</svg>
