<svg xmlns="http://www.w3.org/2000/svg" viewBox="0 0 436 392" fill="none"><g clip-path="url(#clip0)"><path d="M151 239.2H98.8V279.7H151V239.2Z" stroke="white"/><path d="M150.4 268.5V278.8H99.5V270.9L110.3 260.2 115.7 265.6 116.1 266 116.4 265.6 132 250.1 150.4 268.5ZM118.5 250.1C118.5 251.5 117.3 252.6 115.9 252.6 114.5 252.6 113.4 251.5 113.4 250.1 113.4 248.7 114.5 247.5 115.9 247.5 117.3 247.5 118.5 248.7 118.5 250.1Z" style="fill:white;stroke:white"/><path d="M435.1 132.3H391V176.4H435.1V132.3Z" stroke="white"/><path d="M428.5 143L405.7 165.8 397.6 157.7" style="stroke-width:3;stroke:white"/><path d="M132 19.9H94.2V49.6H132V19.9Z" stroke="white"/><path d="M94.9 27.2V20.6H131.4V27.2H94.9ZM120.8 43.9V37.7H126.9V43.9H120.8Z" style="fill:white;stroke:white"/><path d="M100.2 20.5V15.5H102.4V20.5H100.2ZM123.8 20.5V15.5H126V20.5H123.8Z" style="fill:white;stroke:white"/><path d="M387 0.4H302.5V74H387V0.4Z" stroke="white"/><path d="M314.7 19H374.7" style="stroke-width:3;stroke:white"/><path d="M314.7 43.6H343.1M314.7 27.2H374.7 314.7ZM314.7 35.3H374.7 314.7Z" style="stroke-width:2;stroke:white"/><path d="M341.3 54.7H315V62.4H341.3V54.7Z" style="fill:white;stroke:white"/><path d="M374.7 54.7H348.4V62.4H374.7V54.7ZM376.1 6.9L380.5 11.3 376.1 6.9ZM380.5 6.9L376.1 11.3 380.5 6.9ZM379 263.6H355.1C347.6 263.6 341.6 257.6 341.6 250.1 341.6 242.6 347.6 236.5 355.1 236.5H379C386.5 236.5 392.6 242.6 392.6 250.1 392.6 257.6 386.5 263.6 379 263.6Z" stroke="white"/><path d="M387.7 250.1C387.7 255.1 383.6 259.2 378.6 259.2 373.5 259.2 369.5 255.1 369.5 250.1 369.5 245 373.5 241 378.6 241 383.6 241 387.7 245 387.7 250.1Z" style="fill:white;stroke:white"/><path d="M78.6 111V126M78.5 126.4V165.1H0.8V126.4H78.5ZM93.3 111.1H0.8V126.2H93.3V111.1ZM83.7 116.5L88.1 120.9 83.7 116.5ZM88.1 116.5L83.7 120.9 88.1 116.5Z" stroke="white"/><path d="M8.8 155.8H53.3M8.8 135.8H63.2 8.8ZM8.8 118.6H38.5 8.8ZM8.8 145.8H38.5 8.8Z" style="stroke-width:3;stroke:white"/><path d="M70 117.3H72.5L71.2 118.9 70 117.3Z" style="fill:white;stroke:white"/><path d="M193.6 370.9L192.5 377.6 204.4 377 205.5 371.5" fill="#FFACAA"/><path d="M222.2 386.7C221 385.1 218.7 384.8 215.5 383.5 213.8 382.9 209.7 381.9 207.4 380.1 206.2 379.1 205.7 376.7 205.7 376.7 198.1 377 191.3 376.7 191.3 376.7L189.9 391.3 224 391.1C223.9 391.1 223.8 388.9 222.2 386.7Z" fill="#36405B"/><path d="M247.4 370.9L247.1 377.6 259 377 259.3 371.5" fill="#FFACAA"/><path d="M365.4 67.1H117.6V218.4H365.4V67.1Z" fill="#E4E7F6"/><path d="M136 84.8L345.1 200.9M125.1 84.6H357.9 125.1ZM125.1 200.9H357.9 125.1ZM345.8 77.8V207.7 77.8ZM137.1 77.8V207.7 77.8Z" stroke="#445072"/><path d="M230.8 294.8C230.5 298.3 212.4 372 212.4 372L186.7 370.5C186.7 370.5 197.4 299.8 198 295.8 199.7 285.6 203.5 236.4 203.3 233.8 202.9 229.8 202.7 222.9 204.2 216.6H235.7L230.8 294.8Z" fill="#293044"/><path d="M221.4 236.7L231 290.8 232.8 267.9 221.4 236.7Z" fill="#293044"/><mask fill="white"><path d="M249.1 218.2C253.5 231.8 264.3 267.3 266.8 295.5 268.5 315.1 266.9 371.9 266.9 371.9H239.1C239.1 371.9 237.3 308.8 237.3 302.1 237.3 295.4 224.2 242.8 224.2 242.8 224.2 242.8 217.5 231.3 218.4 217.1"/></mask><path d="M249.1 218.2C253.5 231.8 264.3 267.3 266.8 295.5 268.5 315.1 266.9 371.9 266.9 371.9H239.1C239.1 371.9 237.3 308.8 237.3 302.1 237.3 295.4 224.2 242.8 224.2 242.8 224.2 242.8 217.5 231.3 218.4 217.1" fill="#445072"/><path d="M266.8 295.5L265.8 295.6 265.8 295.6 266.8 295.5ZM266.9 371.9V372.9H267.8L267.9 372 266.9 371.9ZM239.1 371.9L238.1 372 238.1 372.9H239.1V371.9ZM224.2 242.8L225.1 242.5 225.1 242.4 225 242.3 224.2 242.8ZM248.1 218.5C252.6 232.1 263.3 267.5 265.8 295.6L267.8 295.4C265.3 267.1 254.5 231.5 250 217.9L248.1 218.5ZM265.8 295.6C266.6 305.3 266.7 324.4 266.5 341.1 266.4 349.4 266.2 357.1 266.1 362.7 266 365.6 266 367.8 265.9 369.4 265.9 370.2 265.9 370.9 265.9 371.3 265.9 371.5 265.9 371.6 265.9 371.8 265.9 371.8 265.9 371.9 265.9 371.9 265.9 371.9 265.9 371.9 265.9 371.9 265.9 371.9 265.9 371.9 265.9 371.9 265.9 371.9 265.9 371.9 265.9 371.9 265.9 371.9 265.9 371.9 266.9 371.9 267.9 372 267.9 372 267.9 372 267.9 372 267.9 372 267.9 372 267.9 372 267.9 372 267.9 372 267.9 372 267.9 371.9 267.9 371.9 267.9 371.9 267.9 371.9 267.9 371.8 267.9 371.7 267.9 371.5 267.9 371.3 267.9 370.9 267.9 370.3 267.9 369.5 268 367.9 268 365.6 268.1 362.8 268.2 357.1 268.4 349.4 268.5 341.1 268.7 324.4 268.6 305.3 267.8 295.4L265.8 295.6ZM266.9 370.9H239.1V372.9H266.9V370.9ZM239.1 371.9C240.1 371.9 240.1 371.9 240.1 371.9 240.1 371.9 240.1 371.9 240.1 371.9 240.1 371.9 240.1 371.9 240.1 371.9 240.1 371.9 240.1 371.9 240.1 371.9 240.1 371.8 240.1 371.8 240.1 371.7 240.1 371.6 240 371.4 240 371.2 240 370.7 240 370.1 240 369.2 239.9 367.5 239.9 365 239.8 362 239.6 355.9 239.4 347.8 239.2 339.5 238.7 322.9 238.3 305.4 238.3 302.1H236.3C236.3 305.5 236.7 323 237.2 339.6 237.4 347.9 237.6 356 237.8 362 237.9 365 237.9 367.5 238 369.3 238 370.1 238 370.8 238 371.3 238 371.5 238.1 371.7 238.1 371.8 238.1 371.9 238.1 371.9 238.1 371.9 238.1 371.9 238.1 372 238.1 372 238.1 372 238.1 372 238.1 372 238.1 372 238.1 372 238.1 372 238.1 372 238.1 372 239.1 371.9ZM238.3 302.1C238.3 301.2 238 299.5 237.7 297.5 237.3 295.4 236.8 292.8 236.2 289.8 235 283.9 233.3 276.7 231.7 269.7 230 262.7 228.4 255.9 227.2 250.9 226.6 248.3 226.1 246.3 225.7 244.8 225.5 244.1 225.4 243.5 225.3 243.1 225.2 242.9 225.2 242.8 225.2 242.7 225.2 242.6 225.2 242.6 225.2 242.6 225.1 242.5 225.1 242.5 225.1 242.5 225.1 242.5 225.1 242.5 225.1 242.5 225.1 242.5 225.1 242.5 225.1 242.5 225.1 242.5 225.1 242.5 224.2 242.8 223.2 243 223.2 243 223.2 243 223.2 243 223.2 243 223.2 243 223.2 243 223.2 243 223.2 243 223.2 243 223.2 243 223.2 243 223.2 243.1 223.2 243.1 223.2 243.2 223.3 243.3 223.3 243.4 223.3 243.6 223.4 244 223.6 244.5 223.8 245.3 224.1 246.7 224.6 248.8 225.2 251.3 226.5 256.4 228.1 263.2 229.7 270.2 231.4 277.2 233 284.4 234.2 290.2 234.8 293.2 235.3 295.7 235.7 297.8 236.1 299.9 236.3 301.4 236.3 302.1H238.3ZM224.2 242.8C225 242.3 225 242.3 225 242.3 225 242.3 225 242.3 225 242.3 225 242.3 225 242.3 225 242.3 225 242.3 225 242.3 225 242.3 225 242.3 225 242.2 225 242.2 225 242.2 225 242.2 225 242.1 224.9 242.1 224.9 241.9 224.8 241.8 224.6 241.4 224.3 241 224 240.3 223.5 239 222.7 237.2 221.9 234.9 220.4 230.4 219 224.1 219.4 217.2L217.4 217.1C217 224.3 218.4 230.8 220 235.6 220.8 237.9 221.6 239.8 222.2 241.2 222.6 241.8 222.8 242.4 223 242.7 223.1 242.9 223.2 243 223.2 243.1 223.2 243.2 223.3 243.2 223.3 243.2 223.3 243.2 223.3 243.2 223.3 243.2 223.3 243.3 223.3 243.3 223.3 243.3 223.3 243.3 223.3 243.3 223.3 243.3 223.3 243.3 223.3 243.3 223.3 243.3 223.3 243.3 223.3 243.3 224.2 242.8Z" mask="url(#path-24-inside-1)" fill="#445072"/><path d="M250.3 197.2L228.4 147.8 208.7 143.6C208.7 143.6 200.4 155 200.4 170.4 200.4 185.9 199.2 217.3 199.2 217.3L251.2 219.2C251.2 219.1 250.3 200.4 250.3 197.2Z" fill="#05E3AB"/><path d="M185 138C175.3 130.5 165.7 121.8 160.3 114.6 155.4 107.7 148.7 96.7 147.6 97 146.3 97.2 149.7 103.2 148.6 103.3 147.4 103.3 141.5 94.4 140.2 95.1 138.5 95.9 145 104.7 145 104.7 145 104.7 137.3 95.4 136.1 96.6 135.2 97.5 140.7 104.8 142.5 107.9 140.2 104.8 135.7 100.3 134.8 101.2 133.9 102.1 137.5 107.1 140.2 111.2 138.3 108.8 134.7 104.7 133.8 105.4 133 106 137.7 114.4 144.4 123.9 144.4 124 144.3 124 144.3 124 144.3 124 146.3 127 149.8 131.4V131.5C154.6 137.6 162.1 146.4 170.5 154.3L185 138ZM258.3 197.3C264.2 198.8 270.4 200.1 276 200.5 298.5 202.2 324.6 194 324.6 194 335.6 191.3 345.1 188.5 345 187.6 344.9 186.5 339.4 187 336.5 187.5 341.1 186.3 347.2 185.1 347.2 183.8 347.1 182.4 340.7 182.9 337 183.5 340.3 182.4 349.4 180.9 349.3 179.6 349.1 177.9 337.2 179.5 337.2 179.5 337.2 179.5 348 177.5 347.3 175.7 346.8 174.4 336.4 176.9 335.6 176 334.7 175.2 341.4 173.2 340.6 172.1 339.9 171.2 327.5 174.6 319.3 176.4 308.2 178.3 289 179.6 274.7 177.8 273 177.5 270.7 177 268.3 176.3" fill="#F9ABA4"/><path d="M228.4 147.7C242.4 162.5 270.3 175.5 270.3 175.5L259.1 199.2C259.1 199.2 241 196.4 226.5 186.7" fill="#05E3AB"/><path d="M270.6 175.4C270.6 175.4 241.4 162.3 228.7 147.8" stroke="#04AA80"/><path d="M204 150.9C195.8 146.6 196.4 145.8 184.8 136.7 184.8 136.7 176.7 146.3 168.2 154.9 176.5 162.6 193.9 174.4 200.6 178.3" fill="#05E3AB"/><path d="M200.9 163.2C200.6 165.3 200.4 167.6 200.4 170.4 200.4 185.8 199.2 217.2 199.2 217.2" stroke="#04AA80"/><path d="M219.6 129.7C214.7 126.7 225.4 119.6 222.3 117.1 216.3 112.3 219.6 111.7 216.5 109.8 213.5 107.9 208 109.1 208 109.1L192.4 120.1C192.4 120.1 190.9 123.3 191.6 128.6 192.6 135.5 191 131.7 191.5 140 191.8 143.8 195.9 146.8 196.4 150.6 197 154.6 194.6 157.6 197.3 157.9 210.8 159.3 226 150.2 224.3 142.7 223.8 140.7 225.8 133.5 219.6 129.7Z" fill="#36405B"/><path d="M193.4 126.5C200.3 129.9 205.7 135.9 213.1 132.2 220.6 128.5 226.1 118.3 220.5 113.1 213.7 106.9 208.6 104.4 201.1 108.1 193.7 111.7 189.2 124.4 193.4 126.5Z" fill="#36405B"/><path d="M226 120.6C220.6 112.3 213.3 106.7 203.4 113 193.6 119.4 195.8 128.4 201.1 136.7 206.5 145 215.6 147.7 222.9 143 230.1 138.3 231.4 128.9 226 120.6Z" fill="#F9ABA4"/><path d="M225.3 120.8L230.3 124 228.4 125.4" fill="#F9ABA4"/><path d="M220 121.2C220 121.2 217.7 121.5 216.8 124.8" style="stroke-linejoin:round;stroke:#36405B"/><path d="M219.9 125.8C220.3 125.8 220.7 125.5 220.7 125 220.7 124.5 220.3 124.2 219.9 124.2 219.4 124.2 219.1 124.5 219.1 125 219.1 125.5 219.4 125.8 219.9 125.8ZM194.2 115.1C197.2 115.1 199.6 112.7 199.6 109.8 199.6 106.8 197.2 104.5 194.2 104.5 191.3 104.5 188.9 106.8 188.9 109.8 188.9 112.7 191.3 115.1 194.2 115.1ZM210.7 123.4L207.6 118.5C204.3 113.1 200.8 111.7 208.2 107.5 217 102.6 223.6 115.9 223.6 115.9 219.1 118.6 215.2 120.6 210.7 123.4Z" fill="#36405B"/><path d="M210.4 113.2C206.7 115.6 208.5 122.2 209.6 124.9 210.8 127.5 212 130.5 214.3 132.2 215.6 133.2 227.6 134.9 230.8 145.2 231.6 147.8 211.3 156.7 208.6 157.1 208.6 157.1 194.7 132.3 195.9 124.4 197.1 116 200.1 110.4 207.6 108.6 215.1 106.7 210.4 113.2 210.4 113.2Z" fill="#36405B"/><path d="M209.7 136C211.3 137.3 213.6 137.2 214.9 135.6 216.2 134 216 131.7 214.5 130.4 212.9 129.1 210.6 129.3 209.3 130.8 208 132.4 208.1 134.7 209.7 136Z" fill="#FFACAA"/><path d="M210 133.2C210 133.2 211.8 131.1 214.1 133.2" style="stroke-linejoin:round;stroke:#36405B"/><path d="M240.6 194.9L240.6 194.9 240.6 194.9C242.7 195.6 245 196.3 246.9 196.8 247.8 197.1 248.6 197.3 249.2 197.5 249.4 197.5 249.6 197.6 249.8 197.6L249.9 201.4C249.8 201.4 249.6 201.3 249.5 201.2 248.8 200.9 247.8 200.4 246.7 199.8 244.6 198.7 242.1 197.3 240.5 196.3 239.1 195.5 237.1 194 235.2 192.6 237 193.5 238.9 194.3 240.6 194.9Z" style="fill:white;stroke:white"/><path d="M276.8 386.7C275.7 385.1 273.3 384.8 270.2 383.5 268.4 382.9 264.3 381.9 262 380.1 260.8 379.1 260.4 376.7 260.4 376.7 252.7 377 246 376.7 246 376.7L244.5 391.3 278.6 391.1C278.5 391.1 278.5 388.9 276.8 386.7Z" fill="#36405B"/><path d="M200.6 170.5C202.1 170.5 203.4 171.8 203.4 173.3 203.4 174.9 202.1 176.1 200.6 176.1V170.5ZM239.1 158.2C238.1 159.3 236.3 159.3 235.2 158.3 234.1 157.2 234 155.4 235.1 154.3L239.1 158.2ZM249.8 175.6C251.4 175.6 252.6 174.4 252.6 172.8 252.6 171.3 251.4 170 249.8 170 248.3 170 247 171.3 247 172.8 247 174.4 248.3 175.6 249.8 175.6ZM234.2 173.2C235.8 173.2 237 171.9 237 170.4 237 168.8 235.8 167.6 234.2 167.6 232.7 167.6 231.4 168.8 231.4 170.4 231.4 171.9 232.7 173.2 234.2 173.2ZM195.5 148.7C194.1 149.5 192.4 149.2 191.6 147.8 190.8 146.5 191.1 144.8 192.4 144L195.5 148.7ZM182.6 156.4C184.2 156.4 185.4 155.1 185.4 153.6 185.4 152.1 184.2 150.8 182.6 150.8 181.1 150.8 179.8 152.1 179.8 153.6 179.8 155.1 181.1 156.4 182.6 156.4ZM193.1 166.6C194.6 166.6 195.9 165.3 195.9 163.8 195.9 162.2 194.6 161 193.1 161 191.5 161 190.3 162.2 190.3 163.8 190.3 165.3 191.5 166.6 193.1 166.6ZM216.1 169.9C217.7 169.9 218.9 168.6 218.9 167.1 218.9 165.5 217.7 164.3 216.1 164.3 214.6 164.3 213.3 165.5 213.3 167.1 213.3 168.6 214.6 169.9 216.1 169.9ZM244.5 188.9C246 188.9 247.3 187.7 247.3 186.1 247.3 184.6 246 183.3 244.5 183.3 242.9 183.3 241.7 184.6 241.7 186.1 241.7 187.7 242.9 188.9 244.5 188.9ZM211.6 184.8C213.1 184.8 214.4 183.6 214.4 182 214.4 180.5 213.1 179.2 211.6 179.2 210 179.2 208.8 180.5 208.8 182 208.8 183.6 210 184.8 211.6 184.8ZM245.4 208.2C246.9 208.2 248.2 206.9 248.2 205.4 248.2 203.8 246.9 202.6 245.4 202.6 243.8 202.6 242.6 203.8 242.6 205.4 242.6 206.9 243.8 208.2 245.4 208.2ZM212.5 201.6C214 201.6 215.3 200.3 215.3 198.8 215.3 197.3 214 196 212.5 196 210.9 196 209.7 197.3 209.7 198.8 209.7 200.3 210.9 201.6 212.5 201.6ZM260 185.6C261.5 185.6 262.8 184.4 262.8 182.9 262.8 181.3 261.5 180.1 260 180.1 258.4 180.1 257.2 181.3 257.2 182.9 257.2 184.4 258.4 185.6 260 185.6ZM227.9 185.6C229.4 185.6 230.7 184.4 230.7 182.9 230.7 181.3 229.4 180.1 227.9 180.1 226.3 180.1 225.1 181.3 225.1 182.9 225.1 184.4 226.3 185.6 227.9 185.6ZM226.8 203.1C228.3 203.1 229.6 201.8 229.6 200.3 229.6 198.7 228.3 197.5 226.8 197.5 225.3 197.5 224 198.7 224 200.3 224 201.8 225.3 203.1 226.8 203.1ZM206.2 213.8C207.8 213.8 209 212.5 209 211 209 209.4 207.8 208.2 206.2 208.2 204.7 208.2 203.4 209.4 203.4 211 203.4 212.5 204.7 213.8 206.2 213.8ZM217.8 217.6C217.8 216.1 219.1 214.8 220.6 214.7 222.2 214.7 223.4 216 223.5 217.5L217.8 217.6ZM235.9 215.4C237.4 215.4 238.6 214.1 238.6 212.6 238.6 211.1 237.4 209.8 235.9 209.8 234.3 209.8 233.1 211.1 233.1 212.6 233.1 214.1 234.3 215.4 235.9 215.4ZM224.7 159.3C226.2 159.3 227.5 158.1 227.5 156.6 227.5 155 226.2 153.8 224.7 153.8 223.1 153.8 221.9 155 221.9 156.6 221.9 158.1 223.1 159.3 224.7 159.3Z" stroke="white"/><path d="M241 367.5C241.2 367.8 241.5 367.8 241.9 367.8H246.3C248.4 367.8 250.4 367.7 252.5 367.6 254.5 367.5 256.5 367.5 258.6 367.4H263.2C263.7 367.4 264.2 367.5 264.6 367.3 264.9 367.3 264.9 366.9 264.6 366.9 264.2 366.7 263.7 366.8 263.2 366.8H258.7C256.7 366.8 254.7 366.9 252.6 366.9 250.6 367 248.6 367 246.5 367.1H242.1C241.7 367.1 241.3 367 241 367.3 241 367.4 240.9 367.5 241 367.5ZM189.7 365.8C190.5 366 191.5 366 192.3 366.1L195 366.4C196.8 366.5 198.5 366.7 200.3 366.8 202 366.9 203.8 367 205.5 367.2 206.4 367.3 207.3 367.3 208.1 367.3 209 367.4 210.1 367.6 211 367.5 211.2 367.5 211.2 367.3 211 367.3 210.1 367 209.2 367 208.3 366.9 207.4 366.9 206.5 366.8 205.5 366.7L200.3 366.2C198.6 366 196.9 365.9 195.1 365.8 194.2 365.7 193.3 365.6 192.5 365.6 191.6 365.5 190.5 365.4 189.7 365.5 189.5 365.5 189.5 365.7 189.7 365.8Z" fill="white"/><path d="M236 223C237.3 226.9 238.9 230.7 240.1 234.6 241.4 238.8 242.7 243.1 243.7 247.4 246.1 256.6 247.8 265.9 249.2 275.4 250.7 285.2 251.6 295.3 252.3 305.2 253 315.2 253.3 325.1 253.4 335 253.4 339.9 253.3 344.7 253.2 349.5 253 354.1 252.8 358.7 252.6 363.3 252.6 364.4 252.6 365.5 252.6 366.6 252.6 367 253.1 367 253.2 366.6 254.2 357.3 254.4 348 254.4 338.6 254.5 328.6 254.2 318.6 253.6 308.7 253 298.7 252.1 288.7 250.7 278.8 249.4 269.3 247.8 259.8 245.5 250.4 244.4 246 243.3 241.7 241.9 237.4 240.7 233.4 239.3 229.4 237.7 225.4 237.3 224.5 236.8 223.7 236.3 222.9 236.2 222.7 236 222.8 236 223ZM211.4 222.1C211.7 230.2 211.8 238.2 211.8 246.3 211.8 255.7 211.7 265.2 211.3 274.7 211 284.8 210.5 295 209.8 305.1 209 315.2 208.1 325.3 206.9 335.3 205.7 344.5 204.3 353.6 202.5 362.7 202.3 363.7 202 364.8 201.8 365.8 201.7 366.2 202.4 366.4 202.5 365.9 204.6 357.2 206.2 348.1 207.3 339.2 208.6 329.2 209.6 319.3 210.3 309.2 211.1 299.1 211.7 288.9 212 278.7 212.3 269.1 212.5 259.4 212.5 249.7 212.5 241.4 212.4 233.1 212.1 224.9 212.1 224 212 223.1 212 222.2 212 221.7 211.3 221.7 211.4 222.1ZM249.1 224.9C248.9 226.6 248.7 228.5 247.4 229.8 246.7 230.4 245.9 230.9 245.1 231.3 244.7 231.5 244.2 231.7 243.7 231.8 243.3 232 242.8 232.1 242.4 232.2 241.9 232.4 242.2 233 242.6 233 243.6 233.1 244.7 232.5 245.5 232.1 246.4 231.6 247.3 231 248 230.3 249.3 228.9 249.8 226.7 249.6 224.9 249.6 224.6 249.1 224.6 249.1 224.9Z" fill="#69738E"/></g><defs><clipPath><rect width="436" height="392" fill="white"/></clipPath></defs></svg>