<svg xmlns="http://www.w3.org/2000/svg" width="512" height="415" fill="none" viewBox="0 0 512 415">
    <path fill="#D8DEEB" d="M69.8 383l326.4-1.7V37.4L69.8 39v344z"/>
    <path fill="#fff" d="M396.7 54H68.9v3h327.8v-3zM396.7 69.9H68.9v3h327.8v-3zM396.7 85.8H68.9v3h327.8v-3z"/>
    <path fill="#05E3AB" d="M315.3 198.3l25.3-2.1s12.1 56.2 13.8 107.5c1 31.7-.1 65.9-34.8 77.8-20.2 1.6-44.7 2-44.7 2h-94.2s-34.1-2.5-33.6-43c.2-15.8 4-40.3 7.9-58.2 9.5-43.9 60.7-58.5 60.7-58.5l36.9-2.4s15.8-.4 33.1 9.7c14.7 8.5 25.6 31 25.6 31l4-63.8z"/>
    <path fill="#212B53" d="M277.5 186c-5.1-9.2 1.5-20-1.2-26.8-5.3-13.2-7.2-10.2-10.4-16-3.1-5.8-7.1-8.7-7.1-8.7l-50.2 2.3s-4.9 3-6.3 9.3c-2.8 12.6-2.9 9.9-10.1 23.7-3.3 6.3.7 14.7-2.1 21.6-2.8 6.9-8.6 8.2-5.7 12.3 11.7 16.9 100.2 10 104.8-3.5 1.3-4.1-5.1-2.4-11.7-14.2z"/>
    <path fill="#F9ABA4" d="M249.2 198.1l1.6 22.2 9.1 1.7s-3.5 19.2-17.9 22.3c-22.2 4.8-25.2-21.4-25.2-21.4l6.3-1.9 1.1-20.1"/>
    <path fill="#E59191" d="M249.8 206.8s-6.5 1.1-12.7-5.8l12.2-1.7.5 7.5z"/>
    <path fill="#212B53" d="M235.512 176.667c17.708-.817 31.518-13.331 30.843-27.95-.674-14.62-15.577-25.809-33.286-24.992-17.709.817-31.518 13.331-30.843 27.95.674 14.62 15.577 25.809 33.286 24.992z"/>
    <path fill="#F9ABA4" d="M200.9 177.9c1.3 3.6 5.2 5.5 8.9 4.2 3.6-1.3 5.5-5.2 4.2-8.9-1.3-3.6-5.2-5.5-8.9-4.2-3.6 1.3-5.5 5.3-4.2 8.9z"/>
    <path stroke="#212B53" stroke-linecap="round" stroke-linejoin="round" stroke-miterlimit="10" d="M204.2 173.7s5-1.7 6.6 3.8"/>
    <path fill="#F9ABA4" d="M270.2 174.6c-.9 3.7-4.7 6-8.4 5-3.7-.9-6-4.7-5-8.4s4.7-6 8.4-5c3.7.9 5.9 4.7 5 8.4z"/>
    <path stroke="#212B53" stroke-linecap="round" stroke-linejoin="round" stroke-miterlimit="10" d="M266.5 170.7s-5.2-1.2-6.2 4.4"/>
    <path fill="#F9ABA4" d="M241.6 201.7l-10.3.4c-10.4.4-19.2-7.8-19.6-18.2l-.9-24.8c-.4-10.4 7.8-19.2 18.2-19.6l10.3-.4c10.4-.4 19.2 7.8 19.6 18.2l.9 24.8c.4 10.4-7.8 19.2-18.2 19.6z"/>
    <path stroke="#212B53" stroke-linecap="round" stroke-linejoin="round" stroke-miterlimit="10" d="M237.2 170.5l3.1 11.5-2.3.3M249.1 164.7s3.1-3.1 6.4.2M227.2 165.2s-3.9-2-8.8 2.2"/>
    <path fill="#212B53" d="M223 172.6c.884 0 1.6-.716 1.6-1.6 0-.884-.716-1.6-1.6-1.6-.884 0-1.6.716-1.6 1.6 0 .884.716 1.6 1.6 1.6zM252.3 171.2c.884 0 1.6-.716 1.6-1.6 0-.884-.716-1.6-1.6-1.6-.884 0-1.6.716-1.6 1.6 0 .884.716 1.6 1.6 1.6zM232.8 127.9c5.633 0 10.2-4.567 10.2-10.2 0-5.633-4.567-10.2-10.2-10.2-5.633 0-10.2 4.567-10.2 10.2 0 5.633 4.567 10.2 10.2 10.2z"/>
    <path fill="#212B53" d="M212.5 160.1l-.5-10.9c-.6-12.1 9-22.3 21.3-22.9 12.3-.6 22.8 8.8 23.3 20.8l.5 10.9-44.6 2.1z"/>
    <path fill="#FFACAA" d="M347.7 180.8c.4-3.8 9.6-20.7 8.4-22.7-.7-1.2-6 8.4-6 8.4s5.7-12.3 4.5-13.2c-1.2-.8-7.7 9.9-7.7 9.9s6.9-12.7 5.7-13.5c-1.7-1.1-9.2 10.4-9.2 10.4s6-11.1 3.9-11.8c-1.6-.5-6.8 10.7-8.1 10.9-1.3.2 1.6-7.3 0-7.3-1.6-.1-5.3 11.7-9.3 19.7 0 0-15.6 9.1-15.3 15.3.3 6.2 2.6 11.5 2.6 11.5l21.8-1.5.2-6.5c0-.3 8.1-5.8 8.5-9.6z"/>
    <path fill="#3A476B" d="M511.3 156.6l-13-67.8-147.4 36.1 1.5 8-76.2 18.3 1 5.6-29 7 2.7 13.9 29.5-4.3 1.5 7.6 77.5-11.5 1.7 8.8 150.2-21.7z"/>
    <path stroke="#212B53" stroke-miterlimit="10" d="M486.8 91.9l13.6 65.5M351.8 126l9.4 50.5M276.2 151.7l5.8 28.9M248.5 164.1l2.6 13.7"/>
    <path fill="#fff" d="M263.4 222.6c-5.7-.9-6.1-1.1-6.1-1.1s-.8 19.4-21.6 19.8c-13.3.2-18.2-18.7-18.2-18.7s-3.8 1.6-5 2.2c9.4 35.1 7.8 123.3 7.8 123.3l42.9 8.3c0-.1 3.8-120.7.2-133.8z"/>
    <path stroke="#04AA80" stroke-miterlimit="10" d="M178.3 340.1l94.6 18.5"/>
    <path fill="#3A476B" d="M186.1 341.6l4.9-57.9-.1 58.5-4.8-.6zM303.6 361.5l5.1-82.9 1.8 84.9-6.9-2z"/>
    <path fill="#FFACAA" d="M272.9 383.3c5.2.2 34.4-.4 34.4-.4s6.4-.4 7.5-1.4c2.7-2.5-.5-2.6-3.1-2.6 1.5-.2 10.1.2 10.5-1.5.1-.3 0-.5-.3-.7 1.7.1 2.9-.1 3.1-.6.3-.9-1-2-3.1-3-.3-1-1.8-2.4-4-3.9-.8-2.9-11.3-8.3-13-9.2-8.7-4.4-22.9-1.4-32-1.8v25.1z"/>
    <path stroke="#3A476B" stroke-linecap="round" stroke-linejoin="round" stroke-miterlimit="10" d="M321.9 376.7s-10.4-2-16.3-2.7M321.9 373.2s-11.3-4.2-17.3-4.9M317.5 368.8s-9.5-4-15.1-5.4M307.9 378.8c1.4 0 4.4.1 5.5.1"/>
    <path stroke="#04AA80" stroke-miterlimit="10" d="M314.6 203.7l25.1-.9M268.1 357.9l-1.4 25.9"/>
    <path stroke="#D8DEEB" stroke-miterlimit="10" stroke-width="3" d="M217.5 251.5c15.6-.8 31.2-1.7 46.8-2.5M219 267c15.2-.6 30.4-.9 45.6-.8M219.8 282.9c12.9-.7 25.8-.5 38.7.3 2.1.1 4.2.3 6.3 0M219.9 298.7L265 300M219.7 315.6l44.5.3M220.6 331.6c13.7.3 43.2.9 43.2.9"/>
    <path fill="#D8DEEB" d="M220 347.7v-.5l44-.6v3.2l-31.2.4-12.8-2.5z"/>
    <path stroke="#fff" stroke-miterlimit="10" stroke-width="2" d="M324.8 14.8h52.1M415.3 206.5v40.4"/>
    <path stroke="#3A476B" stroke-miterlimit="10" stroke-width="2" d="M300.4 401.6h50.8M325.8 401v13.7"/>
    <path fill="#3A476B" d="M68 37.8v344.4h45.7c-2.2-26.6-6-49.4-7.3-56.9-.3-1.7-.5-2.6-.5-2.6.4-.3.7-.7 1.1-1 28.9-27.5 54.8-115 55.7-283.8H68v-.1z"/>
    <path stroke="#D8DEEB" stroke-miterlimit="10" d="M97 208.4s-2.6 39.4-9.8 73.6M118.8 242.4s-9.1 49.2-22.8 80.5M76.8 323.8l2.3 32.9"/>
    <path stroke="#D8DEEB" stroke-miterlimit="10" stroke-width="3" d="M67.4 323.8h41.3"/>
    <path stroke="#fff" stroke-miterlimit="10" stroke-width="2" d="M0 218.9h50.8M19 218.5V203"/>
    <path fill="#04AA80" d="M360.3 324.7c.9-3.3 2.1-6.4-.3-9.7-2.2-3.1-4.6-4.2-8.2-4-7.7.3-9.3 8.3-8.5 13.2-4.1 1.7-5.2 5-5.8 9.5-.6 4-.1 8.2 1.2 12.1 1.5 4.3 4.9 6.1 9 7.9.5.2 5.3.2 5.7.1 5.7-1.4 8.8-5.9 10.8-11.1 2-5.6 1.8-12.2-3.9-18z"/>
    <path fill="#3A476B" fill-rule="evenodd" d="M334.9 381.4h35.2l.7-32.7-39.4-1.4 3.5 34.1z" clip-rule="evenodd"/>
    <path fill="#3A476B" d="M356.5 306.1c0-.7-1.2-1.7-1.9-.3-.4-.7-1.4-1.4-2.1-.7-.2.3-.3.8-.3 1.2-.4-.7-1-1.3-1.7-.7-.8.7-.2 2.8 0 3.8 1 3.4 3.6 2.5 4.3 1.8 1.2-1.1 1.7-4.3 1.7-5.1zM359.5 318.4c.1-.1.1-.2.1-.3 1.2-.9 2.3-1.9 3.3-3 .1-.1 0-.2-.1-.1-1 .9-2 1.9-3 2.7 0-.1.1-.2.1-.4.1-.4.2-.8.2-1.1.1-.7.3-1.5.3-2.3 0-.1-.1-.1-.1 0-.1.4-.2.8-.2 1.2-.1.4-.2.7-.2 1.1 0 .4-.2.7-.3 1.1-.1.4-.2.7-.3 1.1-.2.1.1.1.2 0z"/>
    <path fill="#3A476B" d="M361 317.6c-.2.1-.5.2-.7.2-.2.1-.4.1-.6.2-.1.1-.1.2.1.2s.4-.1.6-.1c.2-.1.5-.1.7-.2.4-.1.9-.3 1.3-.4.9-.3 1.8-.5 2.7-.9.2-.1.1-.4-.1-.4-.9.2-1.8.5-2.7.8-.5.3-.9.5-1.3.6zM345.5 313.5c.3.1.6.3.9.6l.5.5v.1c0 .1.1.2.2.2.1.1.3 0 .3-.2 0-.1-.1-.1-.1-.2 0-.8.2-1.5.3-2.3.1-.4.2-.8.3-1.1.1-.4.3-.7.4-1.1 0-.2-.3-.4-.5-.2-.3.3-.4.8-.5 1.2l-.3 1.2c-.1.4-.1.8-.2 1.2-.1-.1-.1-.2-.2-.4-.1-.4-.3-.7-.4-1.1l-.6-2.4c0-.1-.2-.1-.2 0 .1.8.3 1.6.6 2.4.1.4.3.8.4 1.1.1.2.2.5.3.7v.2c-.4-.4-.8-.6-1.3-.8-.7-.3-1.6-.4-2.4-.1-.1 0-.1.2 0 .2 1.1-.1 1.8-.1 2.5.3zM349.3 318.9c.3.1.6.1 1 .2.3.1.6.1 1 .2s.6.2.9.3c.2 0 .7.2.7-.1v-.1c.1.1.2.1.3.1h.2c.3 0 .5-.4.1-.5h-.1l.3-1.5c.2-.6.5-1.1.8-1.7.1-.2-.1-.4-.3-.2-.5.4-.8 1.1-1.1 1.7-.1.3-.2.6-.3 1 0 .1 0 .3-.1.4l-.1-.1c-.2-.2-.4-.5-.6-.7-.4-.5-.9-1-1.4-1.5-.1-.1-.3 0-.2.2.4.6.9 1.2 1.4 1.8.2.3.5.7.8.9-.1-.1-.3-.1-.4-.1-.3-.1-.6-.2-1-.2-.3-.1-.6-.1-1-.2-.3 0-.7-.1-1-.1 0-.1-.1.2.1.2zM340.5 323.7l.4.4.8.8c.3.2.5.5.8.7l.4.4c.1.1.3.3.5.3.1 0 .1-.1.2-.1.1.1.2 0 .2-.1v-.2c.2-.5.3-1 .5-1.6.2-.6.5-1.1.8-1.7.1-.1-.1-.3-.2-.1-.7.8-1.1 1.8-1.3 2.9 0-.1-.1-.2-.1-.2-.2-.3-.3-.6-.5-.9-.2-.3-.4-.6-.7-.8-.1-.1-.2-.3-.4-.4-.1-.1-.2-.2-.4-.2 0 .1.1.2.2.3.1.1.2.3.3.4l.6.9c.2.3.4.6.5.9.1.2.1.3.2.5v.1l-.1-.1c-.1-.1-.3-.2-.4-.3-.3-.2-.6-.5-.9-.7-.3-.2-.6-.5-.9-.7-.1-.1-.3-.2-.4-.3-.1-.1-.3-.2-.4-.3-.1 0-.2.1-.2.2.2-.3.3-.2.5-.1zM352.5 325.4c0-.3 0-.6-.1-.9v-2c0-.1-.1-.1-.1 0 0 .7-.1 1.4-.1 2v1.3c-.2-.2-.4-.5-.6-.7-.4-.5-.7-1-1.2-1.4-.1-.1-.2 0-.2.1.3.5.7 1 1 1.5.2.2.3.5.5.7.1.1.2.3.3.4.1.1.1.2.2.2l.1.1c.1 0 .2 0 .2-.1s0-.2-.1-.3c.1-.3.3-.6.5-.8.3-.3.6-.5 1-.8.3-.2.7-.5 1-.7.4-.2.8-.5 1.1-.7.2-.2 0-.5-.2-.4-.5.2-.9.4-1.3.7l-1.2.9c-.1.2-.5.5-.8.9zM360.4 328.9h.1c.5.1 1.1.2 1.6.2.6.1 1.3.1 1.9.1.1 0 .2-.2 0-.3-.6-.1-1.3-.2-1.9-.2-.4 0-.9-.1-1.3-.1.1-.1.2-.1.3-.1.3-.1.6-.3.9-.5.3-.2.6-.3.9-.5.1-.1.3-.1.4-.2.1 0 .2-.1.2-.1s.1 0 .1-.1c.1 0 .2 0 .2-.1s0-.3-.2-.3c-.2-.1-.4 0-.5.1l-1.2.6c-.4.2-.8.4-1.1.6-.2.1-.3.2-.4.3.1-.4.1-.8.1-1.1 0-.6-.2-1.1-.5-1.6 0-.1-.2 0-.2.1.2.5.3 1.1.3 1.6 0 .3 0 .5-.1.8 0 .2-.1.5-.1.7v.1c.3 0 .4.1.5 0zM337 330.9c.2.1.5.2.7.3.5.2 1 .5 1.5.8.2.1.4-.1.2-.3-.4-.4-.9-.7-1.4-.9-.3-.1-.5-.2-.8-.3-.2-.1-.6-.2-.8-.2-.1 0-.2.2-.1.3.2.1.5.2.7.3zM339.6 331.8c.1.1.2 0 0 0 0-.2-.1-.3-.1-.4 0-1.3.1-2.7.5-4 .1-.2-.2-.3-.3-.1-.2.7-.3 1.4-.4 2.1 0 .6 0 1.3.2 1.9-.4-.5-.8-1-1.1-1.4-.5-.6-.9-1.2-1.3-1.8-.1-.1-.2 0-.2.1.3.7.7 1.3 1.2 1.9.4.7.9 1.2 1.5 1.7zM337.6 337.8s.1 0 .1.1c.2.1.3-.1.2-.2.1-.1 0-.3 0-.4 0-.1-.1-.3-.1-.4-.1-.3-.1-.5-.2-.8 0-.3-.1-.5-.1-.8 0-.3 0-.6-.1-.8 0-.1-.3-.2-.3 0v.8c0 .3.1.6.1.9 0 .3.1.6.1.8 0 .1.1.3.1.4v.1c-.5-.3-.9-.5-1.4-.7-.1-.1-.3-.1-.4-.2-.1-.1-.3-.2-.4-.2-.1 0-.2 0-.2.1s.1.2.2.2h.1l.1.1c.1.1.2.1.3.2.2.1.4.2.7.3.3.1.5.3.8.4-.3.1-.6.3-.9.4-.5.3-.8.6-1.2 1-.1.2.1.4.2.2.3-.4.7-.7 1.1-.9l1.2-.6zM350.3 329.4c-1.6.9-3.1 2.1-4.3 3.5-.2-1 .1-2.1.4-3 0-.1-.2-.2-.2-.1-.4.8-.8 1.8-.7 2.7-.2-.2-.3-.4-.5-.6-.2-.2-.4-.4-.5-.6l-.3-.3c-.1-.1-.2-.2-.3-.2-.1 0-.2.1-.1.1 0 .1 0 .1.1.2 0 .1.1.1.1 0l.3.3c.2.2.3.4.5.6.3.4.7.8 1 1.3.1.2.4.1.4-.2 1.3-1.4 2.8-2.5 4.3-3.6 0 0-.1-.2-.2-.1zM354.8 333.6c-.1.1-.3.2-.4.4v-.1c.3-.8.7-1.6 1.3-2.3.1-.1-.1-.2-.1-.1-.5.7-.9 1.5-1.2 2.3v-.1c-.1-.3-.2-.6-.3-.8-.2-.5-.5-1-.8-1.5-.1-.1-.3 0-.2.1.3.5.5 1 .7 1.5.1.2.2.5.2.8.1.2.1.5.2.7 0 .1-.1.2 0 .4 0 .1.2.1.2 0v-.2c.1 0 .1 0 .1-.1v-.2c.2-.2.5-.4.7-.6.5-.4 1-.7 1.5-1.1.1-.1 0-.2-.1-.2l-.9.6c-.3.1-.6.3-.9.5zM366.1 333.8c-.7.1-1.4.5-2 .8-.5.3-.9.7-1.4 1.1 0-.1-.1-.2-.1-.2.5-.9 1-1.7 1.6-2.4.1-.1 0-.2-.1-.1-.7.7-1.2 1.5-1.6 2.4-.1-.2-.3-.4-.4-.6-.1-.2-.2-.4-.4-.6-.1-.1-.1-.2-.2-.3-.1-.1-.1-.2-.2-.2 0 0-.1 0-.1.1V334.1c0 .1.1.2.1.3.1.2.2.4.3.5.2.3.4.7.6 1 0 .1 0 .1-.1.2 0 0 .1.1.1 0v-.1c.1.1.2.3.4.3.1 0 .2-.1.2-.2v-.2c.4-.4.9-.8 1.4-1 .6-.3 1.3-.6 1.9-.8.3-.1.2-.3 0-.3zM344 338.5c.1 0 .1 0 0 0 .1 0 .2 0 .3-.1v-.2c.7-.7 1.5-1.4 2.3-1.9.1-.1 0-.3-.1-.2-.9.4-1.6 1-2.2 1.7 0-.2-.1-.4-.1-.6-.1-.4-.3-.7-.4-1.1h-.1c.1.4.2.7.3 1.1v1l-.1.1c-.6-.7-1.4-1.2-2.2-1.6-.1 0-.1.1-.1.1.4.3.8.5 1.2.8.4.3.7.6 1.1 1l.1-.1zM340.8 341.9c-.8.7-1.4 1.5-1.7 2.5 0-.2-.1-.4-.2-.6-.1-.3-.2-.5-.4-.8-.3-.5-.6-.9-1-1.3 0 0-.1 0-.1.1.2.5.6.9.8 1.4.1.2.2.5.3.7.1.2.1.4.2.6-.3-.2-.6-.3-.9-.4-.5-.1-1-.1-1.5 0-.1 0-.1.2 0 .2.5 0 .9.1 1.4.2.4.1.9.3 1.3.5.1.1.2-.1.1-.2.4-1 1-2 1.8-2.8.1 0 0-.1-.1-.1zM349.1 341.4c-.6.2-1.1.7-1.5 1.2-.2.2-.4.5-.6.8-.1.1-.1.2-.1.3 0-.2-.1-.4-.1-.6-.1-.4-.1-.8-.1-1.3 0-.2-.3-.2-.3 0 0 .4 0 .9.1 1.3 0 .2.1.4.1.6v.1c-.3-.3-.6-.5-1-.7-.2-.2-.5-.3-.7-.5-.2-.2-.5-.4-.8-.5-.1-.1-.2.1-.1.2.2.2.5.4.7.6.2.2.5.4.7.6.4.3.8.6 1.3.9 0 .1.1.1.1.1.1 0 .2-.1.1-.2h-.1c0-.1.1-.1.1-.2.1-.1.2-.3.2-.4.2-.2.3-.5.5-.7l.6-.6c.2-.2.5-.3.8-.5.4-.3.3-.6.1-.5zM356.9 338.7c-.4.2-.7.4-1 .6-.3.2-.6.4-1 .7-.2.1-.4.3-.7.5 0-.2-.1-.5-.1-.7-.1-.5-.1-.9-.2-1.4 0-.1-.2-.1-.2 0 0 .5 0 1 .1 1.5 0 .2 0 .5.1.7v.2s0 .1-.1.1c-.2-.5-.5-.9-.8-1.3-.3-.4-.7-.8-1.2-1.1-.1-.1-.3.1-.2.2.4.3.7.7 1 1.1l.9 1.2c0 .1.1.1.2.1 0 .1 0 .2.1.3 0 .1.2 0 .2 0v-.1h.2v-.3c.1-.1.2-.1.2-.2l.9-.6.9-.6.9-.6c.2-.2 0-.4-.2-.3zM361.2 342.9c.3-.1.5-.1.8-.2.3 0 .6-.1.8-.2.1-.1.1-.2 0-.3-.3-.1-.6-.1-.9 0-.3 0-.6.1-.9.2-.3.1-.5.2-.8.3.2-.2.4-.3.6-.5.5-.4.9-.8 1.4-1.2.1-.1 0-.2-.1-.2-.6.3-1.1.7-1.6 1.2-.2.2-.5.4-.7.6v-.5c0-.2-.1-.5-.1-.7-.1-.2-.1-.5-.3-.6-.1.2 0 .4.1.6 0 .2.1.5.1.7 0 .3.1.6.1.8v.1h-.1c-.1.1-.1.2 0 .3v.1c0 .1.1.1.1.1 0 .1.1.1.1 0v-.2c.5-.2 1-.3 1.4-.4zM354.9 343.8c-.9.3-1.7 1-2.4 1.7-.1-.2-.1-.4-.2-.6-.1-.4-.2-.7-.2-1.1 0-.1 0-.7-.3-.6-.1 0-.1.2 0 .2V344c0 .2.1.5.1.7 0 .2.1.4.1.6l-.1-.1-.5-.5c-.2-.1-.3-.3-.5-.4-.1-.1-.2-.1-.3-.2-.1-.1-.2-.1-.3-.2-.1 0-.1 0-.1.1s.1.2.2.2l.2.2.5.5.5.5c.2.2.3.3.5.4-.1.1.1.3.2.2.1.1.2 0 .2-.1v-.1c.3-.3.6-.6 1-.9.4-.3.9-.6 1.4-.9.2 0 .1-.2 0-.2zM367 339.3c-.2-.1-.4-.1-.6-.1-.2 0-.4 0-.7.1-.1 0-.3.1-.4.1.1-.2.2-.4.4-.6.3-.6.6-1.1.9-1.7.1-.2-.1-.3-.2-.1-.3.5-.7 1.1-1 1.6-.2.3-.3.5-.5.8-.1.1-.1.2-.2.3-.1 0-.1.1-.2.1-.1.1-.1.2 0 .2v.2c0 .1.1.2.2.1l.1-.1c.1 0 .1.1.2.1.1.1.1.1.2.1l.2.2s.1.1 0 0h.1l.1.1.2.2.2.2c.1.1.2.1.2.1.2.1.4-.1.3-.3 0-.1-.1-.2-.1-.2l-.2-.2c-.1-.1-.3-.2-.4-.4-.1-.1-.3-.2-.4-.3-.1 0-.1-.1-.2-.1.2-.1.5-.2.7-.2h1.2c0 .1 0-.1-.1-.2zM362.7 346.9c-.3 0-.6.1-.8.2.1 0 .2-.1.3-.2.2-.1.5-.2.7-.4.3-.1.5-.2.8-.4.2-.1.1-.4-.1-.3-.3 0-.6.2-.8.3-.3.1-.6.3-.8.4-.3.1-.5.3-.7.5 0-.2.1-.4.1-.5.1-.4.1-.9.2-1.3 0-.1 0-.2-.1-.3-.1 0-.2 0-.3.1-.1.4-.2.9-.2 1.3 0 .2-.1.4-.1.6v.3h-.1c-.2.1-.1.4.1.3h.1c0 .1.1.1.2 0v-.1c.5-.1 1.1-.2 1.6-.3h.7c.2 0 .4.1.5.2.1.1.2 0 .2-.1-.2-.3-1-.4-1.5-.3zM359.6 322.8h.2c.1.1.1.1.2.1s.2.1.4.1c.2.1.4.2.7.3.5.2.9.5 1.4.6.2.1.3-.2.2-.3-.4-.4-.9-.6-1.5-.8-.2-.1-.4-.1-.6-.2.5-.1 1-.2 1.4-.2.4-.1.8-.1 1.1-.1.2 0 .4 0 .6-.1.2 0 .3 0 .4-.2v-.2c-.1-.1-.3-.1-.5-.1h-.6c-.4 0-.8.1-1.2.1-.3 0-.6.1-.9.1.2-.2.5-.3.7-.5.3-.2.6-.4.9-.7.3-.3.6-.4.9-.7.1-.1 0-.2-.1-.2-.4.1-.7.3-1 .5-.3.2-.6.4-1 .6-.7.4-1.3.8-2 1.2-.2.3 0 .7.3.7z"/>
    <path stroke="#fff" stroke-miterlimit="10" stroke-width="2" d="M362.4 0v13.9"/>
</svg>
