<svg xmlns="http://www.w3.org/2000/svg" xmlns:xlink="http://www.w3.org/1999/xlink" width="400" height="103" viewBox="0 0 400 103">
    <defs>
        <path id="a" d="M0 102.434h399.928V.025H0z"/>
    </defs>
    <g fill="none" fill-rule="evenodd">
        <path fill="#9D9D9D" d="M0 51.929h93.115V5.014H0z"/>
        <path fill="gray" d="M0 83.107h69.836V51.928H0z"/>
        <path fill="#B5B5B5" d="M0 51.929h46.703V5.014H0z"/>
        <path fill="#A0A0A0" d="M0 98.843h46.703V51.93H0z"/>
        <g transform="translate(0 .54)">
            <path fill="#9D9D9D" d="M206.699 51.365V4.45h69.836c12.855 0 23.278 10.469 23.278 23.383v.147c0 12.915-10.423 23.384-23.279 23.384h-69.835z"/>
            <path fill="gray" d="M300.396 98.243l-46.994-46.84-46.703 46.84z"/>
            <mask id="b" fill="#fff">
                <use xlink:href="#a"/>
            </mask>
            <path fill="#B5B5B5" d="M206.699 51.402h46.703V4.487h-46.703z" mask="url(#b)"/>
            <path fill="#A0A0A0" d="M206.7 98.243h46.702V51.33h-46.703z" mask="url(#b)"/>
            <path fill="#B5B5B5" d="M306.231 98.28V4.157l46.849 47.061z" mask="url(#b)"/>
            <path fill="gray" d="M306.231 98.28h93.697V4.157z" mask="url(#b)"/>
            <path fill="#9D9D9D" d="M353.08 51.219l46.848 47.06h-93.696zM185.938 15.018c19.9 19.99 19.9 52.4 0 72.389-19.9 19.99-52.163 19.99-72.063 0-19.9-19.99-19.9-52.4 0-72.39 19.9-19.99 52.163-19.99 72.063 0" mask="url(#b)"/>
            <path fill="gray" d="M98.833 51.188c0 28.303 22.84 51.246 51.014 51.246 28.175 0 51.016-22.943 51.016-51.246" mask="url(#b)"/>
            <path fill="#B5B5B5" d="M149.965 51.271V.025C121.79.025 98.95 22.968 98.95 51.27h51.015z" mask="url(#b)"/>
            <path fill="#A0A0A0" d="M149.965 51.188H98.95c0 28.303 22.84 51.246 51.015 51.246V51.188z" mask="url(#b)"/>
        </g>
    </g>
</svg>
