<svg xmlns="http://www.w3.org/2000/svg" width="183" height="48" fill="none" viewBox="0 0 183 48">
    <g clip-path="url(#clip0)">
        <path fill="#000" fill-rule="evenodd" d="M79.116 6.795c0-1.878-1.413-3.327-3.244-3.327-1.825 0-3.244 1.449-3.244 3.327s1.42 3.327 3.244 3.327c1.831 0 3.244-1.449 3.244-3.327zm-8.382 0c0-2.918 2.217-5.121 5.138-5.121 2.92 0 5.138 2.203 5.138 5.121 0 2.918-2.218 5.12-5.138 5.12-2.921 0-5.138-2.202-5.138-5.12zM89.72 4.988c0-.916-.57-1.553-1.66-1.553h-1.673c-.084 0-.165.034-.224.095-.06.061-.093.144-.093.23v2.438c0 .179.143.324.317.324h1.672c1.09 0 1.66-.578 1.66-1.534zm1.83.02c0 1.794-1.254 3.152-3.205 3.152h-1.958c-.084 0-.165.034-.224.095-.06.06-.093.143-.093.23v2.976c0 .043-.008.085-.024.125-.016.039-.039.075-.068.105-.03.03-.064.054-.103.07-.038.017-.08.025-.12.025h-1.256c-.042 0-.083-.008-.121-.025-.039-.016-.074-.04-.103-.07-.03-.03-.053-.066-.069-.105-.016-.04-.024-.082-.024-.125V2.128c0-.179.142-.324.317-.324h3.846c1.951 0 3.205 1.436 3.205 3.204zm4.947-1.157v1.774c0 .18.141.325.317.325h2.819c.175 0 .317.145.317.325v1.053c0 .086-.034.17-.093.23-.06.061-.14.095-.224.095h-2.82c-.041 0-.082.008-.12.025-.039.016-.074.04-.103.07-.03.03-.053.066-.069.105-.016.04-.024.082-.024.124V9.74c0 .18.141.325.317.325h3.288c.175 0 .317.145.317.324v1.073c0 .086-.034.169-.093.23-.059.06-.14.095-.224.095h-5.177c-.042 0-.083-.008-.121-.025-.039-.016-.073-.04-.103-.07-.03-.03-.052-.066-.068-.106-.016-.04-.024-.081-.024-.124V2.128c0-.179.141-.324.316-.324h5.177c.174 0 .316.145.316.324v1.073c0 .086-.033.169-.093.23-.059.06-.139.095-.223.095h-3.289c-.084 0-.165.034-.224.095-.06.061-.093.144-.093.23h.001zm16.521-1.723v9.333c0 .086-.033.169-.093.23-.059.06-.14.095-.224.095h-1.317c-.048 0-.095-.011-.138-.032-.043-.021-.081-.053-.11-.09l-4.89-6.3c-.187-.24-.564-.106-.564.202v5.895c0 .086-.034.169-.093.23-.059.06-.14.095-.224.095h-1.229c-.084 0-.165-.034-.224-.095s-.093-.144-.093-.23V2.128c0-.179.142-.324.317-.324h1.305c.096 0 .187.045.247.122l4.891 6.277c.187.24.564.104.564-.202V2.128c0-.18.141-.325.316-.325h1.242c.175 0 .317.146.317.325zM81.01 23.987c0 2.93-2.211 5.133-5.138 5.133-2.921 0-5.138-2.203-5.138-5.12 0-2.919 2.217-5.121 5.138-5.121 1.68 0 3.129.732 4.05 1.903.03.037.05.08.062.127.011.046.013.095.004.142-.009.047-.028.091-.055.13-.027.039-.062.07-.103.094l-1.086.615c-.062.037-.135.05-.206.038-.07-.012-.135-.048-.183-.103-.59-.705-1.473-1.153-2.49-1.153-1.818 0-3.237 1.423-3.237 3.373 0 1.827 1.261 3.282 3.27 3.282 1.428 0 2.49-.734 2.955-1.897.084-.21-.075-.443-.297-.443h-1.778c-.042 0-.083-.008-.122-.024-.038-.017-.073-.04-.102-.07-.03-.031-.053-.067-.069-.106-.016-.04-.024-.082-.024-.124v-.95c0-.179.142-.324.317-.324h3.904c.168 0 .305.133.317.304.007.094.01.192.01.294zM91.779 24c0-1.879-1.414-3.327-3.244-3.327-1.825 0-3.244 1.448-3.244 3.327 0 1.878 1.42 3.326 3.244 3.326 1.83 0 3.244-1.448 3.244-3.326zm-8.382 0c0-2.919 2.217-5.122 5.138-5.122 2.92 0 5.138 2.204 5.138 5.122 0 2.918-2.218 5.12-5.138 5.12-2.921 0-5.138-2.203-5.138-5.12zm21.085-4.552l-3.448 9.333c-.022.061-.063.114-.115.152-.053.037-.116.058-.18.058h-1.515c-.064 0-.127-.02-.18-.058-.052-.037-.093-.09-.115-.152l-3.442-9.333c-.018-.049-.024-.102-.018-.154.006-.052.025-.102.054-.145.029-.044.068-.079.113-.103.046-.025.096-.037.147-.037h1.315c.133 0 .253.086.298.215l2.288 6.578c.1.288.496.288.596 0l2.293-6.578c.022-.063.063-.118.116-.156.053-.039.117-.06.182-.06h1.315c.221 0 .375.228.296.44zm4.894 1.607v1.775c0 .18.141.325.316.325h2.82c.174 0 .317.145.317.324v1.054c-.001.086-.034.168-.093.23-.06.06-.14.094-.224.094h-2.82c-.084 0-.164.035-.224.096-.059.06-.092.143-.092.23v1.76c0 .18.141.325.316.325h3.289c.175 0 .316.146.316.325v1.073c0 .042-.008.085-.024.124-.016.04-.039.075-.069.105-.029.03-.064.055-.102.07-.039.017-.08.026-.121.026h-5.178c-.041 0-.082-.009-.121-.025-.038-.017-.073-.04-.102-.07-.029-.03-.053-.067-.069-.106-.015-.04-.023-.082-.023-.124v-9.332c0-.18.141-.325.315-.325h5.178c.175 0 .316.145.316.325v1.072c0 .043-.008.085-.024.125-.016.039-.039.075-.069.105-.029.03-.064.054-.102.07-.039.017-.08.025-.121.025h-3.289c-.084 0-.164.034-.224.095-.059.06-.092.143-.092.23zm9.21 1.84c0 .18.141.325.316.325h1.471c.906 0 1.394-.475 1.394-1.274 0-.786-.488-1.3-1.395-1.3h-1.47c-.084 0-.164.034-.224.095-.059.061-.092.144-.092.23v1.924zm1.396 1.877h-1.08c-.084 0-.165.035-.224.096-.06.06-.093.143-.093.23v3.568c0 .042-.008.085-.024.124-.016.04-.039.075-.068.105-.03.03-.065.055-.103.07-.038.017-.08.026-.121.026h-1.255c-.042 0-.083-.009-.121-.025-.039-.017-.074-.04-.103-.07-.029-.03-.053-.067-.069-.106-.015-.04-.024-.082-.024-.124v-9.332c0-.18.142-.325.317-.325h3.484c2.002 0 3.098 1.325 3.098 2.956 0 1.092-.546 1.968-1.388 2.438-.037.02-.07.049-.096.082-.026.034-.046.073-.057.115-.011.042-.014.085-.009.128.006.043.02.085.042.122l2.107 3.65c.028.05.043.106.043.163.001.057-.014.114-.041.163-.028.05-.068.091-.116.12-.048.029-.103.044-.159.044h-1.31c-.057 0-.112-.015-.161-.045s-.089-.072-.116-.123l-2.076-3.88c-.027-.052-.067-.094-.116-.124s-.104-.046-.161-.046zm16.538-5.438v9.332c-.001.086-.034.169-.093.23-.059.06-.14.095-.224.095h-1.317c-.048 0-.095-.011-.138-.032-.043-.022-.081-.052-.11-.09l-4.89-6.3c-.188-.24-.564-.105-.564.202v5.895c0 .086-.034.169-.093.23-.06.06-.14.095-.224.095h-1.23c-.084 0-.164-.035-.223-.096-.059-.06-.093-.143-.093-.229v-9.332c0-.18.142-.325.316-.325h1.306c.096 0 .187.045.247.122l4.891 6.276c.186.24.564.105.564-.202v-5.871c0-.18.14-.325.316-.325h1.242c.175 0 .317.145.317.325zm14.474 0v9.332c0 .086-.033.169-.092.23-.06.06-.14.095-.224.095h-1.255c-.084 0-.165-.035-.224-.095-.059-.061-.093-.144-.093-.23v-5.413c0-.356-.478-.452-.61-.123l-2.255 5.659c-.024.06-.064.11-.117.146-.052.036-.113.055-.176.056h-.556c-.063 0-.125-.02-.177-.056-.052-.036-.093-.087-.117-.147l-2.244-5.661c-.13-.33-.609-.234-.609.122v5.417c0 .086-.033.169-.093.23-.059.06-.14.095-.224.095h-1.254c-.084 0-.165-.035-.224-.095-.059-.061-.093-.144-.093-.23v-9.332c0-.18.142-.325.317-.325h2.032c.127 0 .243.079.292.2l2.377 5.906c.024.06.064.11.116.146.052.036.113.055.176.055.063 0 .124-.018.176-.054.052-.036.093-.087.117-.146l2.4-5.908c.024-.059.065-.11.117-.145.052-.035.113-.054.175-.054h2.026c.174 0 .316.145.316.325zm5.732 1.721v1.775c0 .18.142.325.317.325h2.82c.175 0 .316.145.316.324v1.054c0 .086-.033.168-.092.23-.06.06-.14.094-.224.094h-2.82c-.084 0-.164.035-.224.096-.059.06-.093.143-.093.23v1.76c0 .18.142.325.317.325h3.289c.174 0 .316.146.316.325v1.073c0 .042-.008.084-.024.124-.016.04-.039.075-.069.105-.029.03-.064.054-.102.07-.039.017-.08.026-.121.026h-5.177c-.042 0-.083-.009-.122-.025-.038-.017-.073-.04-.102-.07-.03-.03-.053-.067-.069-.106-.016-.04-.024-.082-.024-.124v-9.332c0-.18.143-.325.317-.325h5.177c.174 0 .316.145.316.325v1.072c0 .043-.008.085-.024.124-.016.04-.039.076-.069.106-.029.03-.064.054-.102.07-.039.016-.08.025-.121.025h-3.289c-.084 0-.164.034-.224.095-.059.06-.092.143-.093.23zm16.522-1.721v9.332c0 .043-.009.085-.025.125-.016.039-.039.075-.068.105-.03.03-.065.054-.103.07-.039.016-.08.025-.122.025h-1.317c-.047 0-.094-.011-.137-.032-.043-.022-.081-.053-.11-.09l-4.891-6.3c-.186-.24-.564-.105-.564.202v5.895c0 .086-.033.169-.092.23-.06.06-.14.095-.224.095h-1.231c-.083 0-.164-.035-.223-.096-.059-.06-.092-.143-.092-.229v-9.332c0-.18.141-.325.316-.325h1.305c.096 0 .187.045.247.122l4.891 6.276c.187.24.564.105.564-.202v-5.871c0-.18.141-.325.317-.325h1.241c.175 0 .317.145.317.325" clip-rule="evenodd"/>
        <mask id="dmolt6mi3a" width="8" height="10" x="176" y="19" maskUnits="userSpaceOnUse">
            <path fill="#fff" d="M176.173 19.01h6.892v9.982h-6.892V19.01z"/>
        </mask>
        <g mask="url(#dmolt6mi3a)">
            <path fill="#000" fill-rule="evenodd" d="M182.749 20.732h-1.87c-.041 0-.083.008-.121.025-.038.016-.073.04-.103.07-.029.03-.052.066-.068.106-.016.04-.024.081-.024.124v7.61c0 .086-.034.169-.093.23-.059.06-.14.095-.224.095h-1.248c-.084 0-.165-.035-.224-.095-.059-.061-.093-.144-.093-.23v-7.61c0-.043-.008-.085-.024-.124-.016-.04-.039-.076-.068-.106-.03-.03-.065-.054-.103-.07-.038-.017-.08-.025-.121-.025h-1.876c-.083 0-.164-.034-.223-.095-.06-.06-.093-.143-.093-.229v-1.073c0-.18.141-.325.316-.325h6.26c.175 0 .317.145.317.325v1.072c0 .087-.034.17-.093.23-.06.06-.14.095-.224.095z" clip-rule="evenodd"/>
        </g>
        <path fill="#000" fill-rule="evenodd" d="M76.942 39.398c0-.916-.57-1.553-1.66-1.553H73.61c-.084 0-.165.034-.224.095-.06.061-.093.144-.093.23v2.438c0 .179.142.324.317.324h1.672c1.09 0 1.66-.578 1.66-1.534zm1.832.02c0 1.794-1.255 3.152-3.207 3.152H73.61c-.084 0-.165.034-.224.095-.06.06-.093.144-.093.23v2.977c0 .042-.008.084-.024.124-.016.04-.039.075-.068.105-.03.03-.065.054-.103.07-.038.017-.08.025-.121.025h-1.255c-.042 0-.083-.008-.121-.024-.039-.017-.074-.04-.103-.07-.03-.03-.053-.067-.069-.106-.016-.04-.024-.082-.024-.124v-9.334c0-.178.141-.324.317-.324h3.845c1.952 0 3.207 1.437 3.207 3.205zm4.946.683c0 .179.141.325.316.325h1.47c.906 0 1.394-.476 1.394-1.275 0-.786-.488-1.3-1.394-1.3h-1.47c-.041 0-.082.01-.12.025-.04.017-.074.04-.103.07-.03.03-.053.067-.07.106-.015.04-.023.082-.023.124v1.925zm1.396 1.877h-1.08c-.084 0-.164.035-.223.095-.06.061-.093.144-.093.23v3.568c0 .043-.008.085-.024.125-.016.04-.04.075-.069.105-.03.03-.064.054-.103.07-.038.017-.08.025-.121.025h-1.255c-.042 0-.083-.008-.121-.025-.039-.016-.074-.04-.103-.07-.03-.03-.053-.066-.069-.105-.015-.04-.023-.082-.023-.125v-9.333c0-.178.14-.323.316-.323h3.485c2.001 0 3.098 1.325 3.098 2.956 0 1.091-.547 1.968-1.389 2.437-.037.02-.07.049-.096.083-.026.033-.045.072-.057.114-.01.042-.014.086-.008.129.005.043.02.084.04.121l2.107 3.651c.029.05.044.105.044.163 0 .057-.013.113-.041.163-.028.05-.068.09-.116.12-.048.028-.103.044-.159.044h-1.31c-.056 0-.112-.016-.161-.045-.049-.03-.089-.072-.116-.123l-2.076-3.881c-.027-.051-.067-.094-.116-.123-.049-.03-.104-.046-.161-.046zm14.79-.773c0-1.878-1.414-3.327-3.244-3.327-1.825 0-3.244 1.449-3.244 3.327s1.42 3.328 3.244 3.328c1.83 0 3.243-1.45 3.243-3.328zm-8.382 0c0-2.918 2.217-5.12 5.138-5.12 2.92 0 5.138 2.202 5.138 5.12 0 2.919-2.218 5.121-5.138 5.121-2.921 0-5.138-2.203-5.138-5.12zm16.699 3.269c2.065 0 3.065-1.157 3.065-3.269s-1-3.268-3.065-3.268h-1.053c-.084 0-.165.034-.224.095-.059.06-.093.143-.093.23v5.887c0 .18.142.325.317.325h1.053zm-3.251-7.935c0-.18.142-.325.317-.325h3.015c3.232 0 4.941 1.968 4.941 4.991 0 3.022-1.709 4.991-4.941 4.991h-3.015c-.042 0-.083-.008-.122-.025-.038-.016-.073-.04-.102-.07-.03-.03-.053-.066-.069-.105-.016-.04-.024-.082-.024-.125v-9.333zm11.308 6.2v-6.2c0-.18.141-.325.316-.325h1.255c.175 0 .317.145.317.325v5.9c0 1.593.893 2.172 2.065 2.172 1.178 0 2.071-.58 2.071-2.171v-5.901c0-.18.142-.325.317-.325h1.262c.174 0 .316.145.316.325v6.2c0 2.385-1.711 3.587-3.966 3.587-2.242 0-3.954-1.202-3.954-3.587h.001zm10.895-1.534c0-2.918 2.21-5.12 5.138-5.12 1.315 0 2.568.5 3.47 1.317.034.03.061.067.08.108.019.042.029.087.03.132.001.046-.008.091-.025.133-.017.043-.043.08-.075.112l-.87.836c-.057.056-.133.087-.211.088-.079 0-.156-.029-.214-.083-.574-.536-1.357-.85-2.185-.85-1.832 0-3.244 1.443-3.244 3.327 0 1.885 1.412 3.328 3.243 3.328.829 0 1.612-.315 2.186-.85.058-.055.135-.085.214-.084.079.001.154.033.212.088l.869.837c.032.031.058.07.075.111.017.042.026.088.025.133-.001.046-.011.091-.03.132-.019.042-.046.079-.08.109-.902.816-2.155 1.317-3.471 1.317-2.927 0-5.137-2.203-5.137-5.12zm17.458-3.269h-1.869c-.042 0-.083.009-.121.025-.039.016-.073.04-.103.07-.029.03-.053.066-.068.106-.016.04-.024.082-.024.124v7.61c0 .087-.034.169-.093.23-.059.06-.14.095-.224.095h-1.249c-.041 0-.082-.009-.121-.025-.038-.016-.073-.04-.102-.07-.03-.03-.053-.066-.069-.105-.016-.04-.024-.082-.024-.124v-7.61c0-.043-.008-.086-.024-.125-.016-.04-.039-.075-.069-.105-.029-.03-.064-.055-.102-.07-.039-.017-.08-.026-.121-.026h-1.877c-.083 0-.164-.034-.223-.095-.059-.06-.093-.143-.093-.23V36.54c0-.18.142-.325.316-.325h6.26c.175 0 .317.145.317.325v1.073c0 .086-.033.169-.093.23-.059.06-.14.094-.224.094zm2.605 6.568l.685-.878c.028-.035.062-.064.1-.085.039-.02.082-.033.125-.036.044-.003.088.004.129.02.041.015.078.039.11.07.653.648 1.555 1.087 2.347 1.087.76 0 1.311-.403 1.311-1.111 0-.89-.868-1.222-1.977-1.722-1.273-.572-2.616-1.222-2.616-2.984 0-1.767 1.343-2.781 3.002-2.781 1.099 0 2.132.42 2.981 1.117.13.106.149.302.05.44l-.613.854c-.025.035-.057.064-.094.087-.036.022-.077.036-.119.042-.042.006-.085.003-.126-.009-.04-.012-.079-.032-.112-.059-.654-.556-1.392-.828-2.011-.828-.614 0-1.102.32-1.102.943 0 .812.836 1.13 1.958 1.624 1.28.579 2.667 1.294 2.667 3.152 0 1.91-1.47 2.872-3.206 2.872-1.252 0-2.536-.515-3.448-1.367-.062-.055-.1-.132-.107-.216-.008-.083.016-.166.066-.232z" clip-rule="evenodd"/>
        <mask id="opu89vi8bb" width="17" height="48" x="0" y="0" maskUnits="userSpaceOnUse">
            <path fill="#fff" d="M0 .314h16.722v47.374H0V.314z"/>
        </mask>
        <g mask="url(#opu89vi8bb)">
            <path fill="#276EF1" fill-rule="evenodd" d="M16.562 42.912c.152-.27.199-.59.13-.893-.07-.303-.25-.568-.504-.74C10.7 37.592 7.073 31.233 7.073 24c0-7.231 3.627-13.59 9.115-17.278.253-.172.433-.437.503-.74.07-.304.023-.623-.13-.892L14.22.927c-.082-.145-.191-.27-.322-.37-.13-.1-.28-.172-.438-.21-.159-.04-.323-.045-.484-.017-.16.029-.313.09-.45.18C4.993 5.474 0 14.137 0 24c0 9.864 4.993 18.527 12.525 23.49.136.09.29.151.45.18.16.028.325.023.484-.016.158-.04.307-.11.438-.21.13-.1.24-.226.322-.37l2.343-4.162z" clip-rule="evenodd"/>
        </g>
        <path fill="#276EF1" fill-rule="evenodd" d="M40.191.927L37.85 5.089c-.152.27-.198.589-.129.892.07.303.25.568.503.74 5.487 3.688 9.114 10.047 9.114 17.28 0 7.231-3.627 13.59-9.114 17.28-.254.17-.433.435-.503.739-.07.303-.023.622.13.891l2.341 4.162c.082.145.192.27.323.37.13.1.28.172.438.21.158.04.323.045.483.017.16-.028.314-.09.45-.18C49.419 42.526 54.41 33.863 54.41 24c0-9.864-4.993-18.526-12.524-23.49-.137-.09-.29-.152-.45-.18-.161-.028-.326-.022-.484.017-.158.038-.307.11-.438.21-.13.1-.24.226-.322.37" clip-rule="evenodd"/>
    </g>
    <defs>
        <clipPath id="clip0">
            <path fill="#fff" d="M0 0H183V48H0z"/>
        </clipPath>
    </defs>
</svg>
