<svg width="680" height="209" viewBox="0 0 680 209" fill="none" xmlns="http://www.w3.org/2000/svg">
<g clip-path="url(#clip0_21634_13502)">
<rect width="680" height="209" fill="#F6F7FC"/>
<rect x="210.6" y="28.6001" width="261.6" height="156" rx="4.8" fill="#161D3A" stroke="black" stroke-width="0.6"/>
<rect x="207" y="25" width="261.6" height="156" rx="4.8" fill="white" stroke="black" stroke-width="0.6"/>
<path d="M298.492 53.6125H306.318V108.596H298.492V53.6125Z" fill="#B7C0E6" stroke="#293044" stroke-width="0.6"/>
<path d="M285.415 83.5652H293.241V108.59H285.415V83.5652Z" fill="#B7C0E6" stroke="#293044" stroke-width="0.6"/>
<path d="M272.344 76.8562H280.17V108.591H272.344V76.8562Z" fill="#B7C0E6" stroke="#293044" stroke-width="0.6"/>
<path d="M259.266 91.7207H267.093V108.596H259.266V91.7207Z" fill="#B7C0E6" stroke="#293044" stroke-width="0.6"/>
<path d="M388.45 55.0239C369.54 55.0215 352.49 66.4114 345.252 83.8819C338.014 101.352 342.014 121.463 355.386 134.834C368.757 148.206 388.868 152.206 406.338 144.968C423.809 137.73 435.198 120.68 435.196 101.77H388.45V55.0239Z" fill="#E4E7F6" stroke="#293044" stroke-width="0.6"/>
<path d="M388.45 49.1025V101.77H441.117C441.117 72.6824 417.537 49.1025 388.45 49.1025H388.45Z" fill="#4A61C0" stroke="#293044" stroke-width="0.6"/>
<path d="M241.897 129.159H316.99" stroke="#293044" stroke-width="0.6"/>
<path d="M241.897 136.309H316.99" stroke="#293044" stroke-width="0.6"/>
<path d="M241.897 143.459H316.99" stroke="#293044" stroke-width="0.6"/>
<path d="M241.897 150.615H281.74" stroke="#293044" stroke-width="0.6"/>
<path d="M241.897 108.596H316.99" stroke="#454953" stroke-width="0.6"/>
<path d="M277.654 48.2289V47.3882C277.654 46.9679 277.286 46.6001 276.866 46.6001C276.446 46.6001 276.078 46.9679 276.078 47.3882V48.2289C276.078 48.6492 275.71 49.017 275.29 49.017H274.502C274.081 49.017 273.713 49.3847 273.713 49.8051C273.713 50.2254 274.081 50.5932 274.502 50.5932H275.342C275.763 50.5932 276.13 50.961 276.13 51.3813V52.2219C276.13 52.6423 276.498 53.01 276.918 53.01C277.339 53.01 277.707 52.6423 277.707 52.2219V51.3813C277.707 50.961 278.074 50.5932 278.495 50.5932H279.335C279.756 50.5932 280.123 50.2254 280.123 49.8051C280.123 49.3847 279.756 49.017 279.335 49.017H278.495C278.074 49.017 277.707 48.7017 277.654 48.2289ZM226.374 67.3536V66.8282C226.374 66.5655 226.164 66.3028 225.902 66.3028C225.639 66.3028 225.376 66.513 225.376 66.7757V66.8282V67.3536C225.376 67.6163 225.166 67.879 224.851 67.879H224.325C224.063 67.879 223.8 68.0892 223.8 68.4044C223.8 68.6671 224.01 68.9298 224.273 68.9298H224.798C225.061 68.9298 225.324 69.14 225.324 69.4027V69.9281C225.324 70.1908 225.534 70.4535 225.796 70.4535C226.059 70.4535 226.322 70.2434 226.322 69.9281V69.4027C226.322 69.14 226.532 68.9298 226.795 68.8773H227.32C227.583 68.8773 227.846 68.6671 227.846 68.3519C227.846 68.0892 227.635 67.8265 227.32 67.8265H226.795C226.585 67.8265 226.374 67.6163 226.374 67.3536ZM236.62 90.4715V90.0512C236.62 89.841 236.462 89.6834 236.252 89.6834C236.042 89.6834 235.884 89.841 235.884 90.0512V90.4715C235.884 90.6816 235.727 90.8393 235.516 90.8393H235.044C234.833 90.8393 234.676 90.9969 234.676 91.2071C234.676 91.4172 234.833 91.5748 235.044 91.5748H235.464C235.674 91.5748 235.832 91.7325 235.832 91.9426V92.3629C235.832 92.5731 235.989 92.7833 236.2 92.7833C236.41 92.7833 236.62 92.6256 236.62 92.4155V92.3629V91.9426C236.62 91.7325 236.777 91.5223 236.988 91.5223H237.408C237.618 91.5223 237.776 91.3647 237.776 91.1545C237.776 90.9443 237.618 90.7342 237.408 90.7342H237.04C236.83 90.8918 236.62 90.6816 236.62 90.4715ZM264.887 66.513C264.887 66.9333 264.519 67.3011 264.099 67.3011C263.678 67.3011 263.31 66.9333 263.31 66.513C263.31 66.0927 263.678 65.7249 264.099 65.7249C264.571 65.7249 264.887 66.0927 264.887 66.513ZM247.548 55.7422C247.548 56.3201 247.075 56.793 246.497 56.793C245.92 56.793 245.447 56.3201 245.447 55.7422C245.447 55.1642 245.92 54.6913 246.497 54.6913C247.075 54.6913 247.548 55.1642 247.548 55.7422Z" fill="#05CC9A"/>
</g>
<defs>
<clipPath id="clip0_21634_13502">
<rect width="680" height="209" fill="white"/>
</clipPath>
</defs>
</svg>
